<svg width="1440" height="1024" viewBox="0 0 1440 1024" fill="none" xmlns="http://www.w3.org/2000/svg">
<g clip-path="url(#clip0_1_2)">
<rect width="1440" height="1024" fill="white"/>
<path d="M326.5 182L218 502.5M326.5 182L104 291.311M326.5 182L11 -4M326.5 182L724.5 -4M326.5 182V-4M326.5 182L724.5 337M218 502.5L104 291.311M218 502.5L724.5 337M218 502.5V657.5M104 291.311L11 337V890.5L218 854M104 291.311L11 750.5L218 854M104 291.311L218 854M218 854V657.5M218 854L771 1014.5M218 854L11 1014.5M724.5 337L218 657.5M724.5 337V-4M724.5 337L1169 249M724.5 337L621 917.665M724.5 337L946.75 122.5M724.5 337L838.25 497.25M218 657.5L621 917.665M771 1014.5L621 917.665M771 1014.5L870.158 854M1055.5 554L621 917.665M1055.5 554L1200 1014.5M1055.5 554L870.158 854M1055.5 554L1169 249M1055.5 554L838.25 497.25M621 917.665L838.25 497.25M724.5 -4L946.75 122.5M1169 249V-4L1443 208M1169 249L1443 208M1169 249L1200 1014.5M1169 249L1443 750.5M1169 249L946.75 122.5M1443 208V750.5M1200 1014.5L1443 750.5M1200 1014.5H1443V750.5M1200 1014.5L870.158 854" stroke="black" stroke-opacity="0.28" stroke-width="5"/>
<path d="M797 369.5C797 412.928 754.428 440 711 440C667.572 440 625 369.5 625 369.5C625 369.5 667.572 299 711 299C754.428 299 797 326.072 797 369.5Z" fill="#D9D9D9"/>
<path d="M741.5 369C741.5 385.277 727.86 398.5 711 398.5C694.14 398.5 680.5 385.277 680.5 369C680.5 352.723 694.14 339.5 711 339.5C727.86 339.5 741.5 352.723 741.5 369Z" fill="#8D8282" stroke="#8D8282"/>
<path d="M229.5 505C229.5 521.277 215.86 534.5 199 534.5C182.14 534.5 168.5 521.277 168.5 505C168.5 488.723 182.14 475.5 199 475.5C215.86 475.5 229.5 488.723 229.5 505Z" fill="#8D8282" stroke="#8D8282"/>
<path d="M61.5 30C61.5 46.2771 47.8603 59.5 31 59.5C14.1397 59.5 0.5 46.2771 0.5 30C0.5 13.7229 14.1397 0.5 31 0.5C47.8603 0.5 61.5 13.7229 61.5 30Z" fill="#8D8282" stroke="#8D8282"/>
<path d="M357.5 30C357.5 46.2771 343.86 59.5 327 59.5C310.14 59.5 296.5 46.2771 296.5 30C296.5 13.7229 310.14 0.5 327 0.5C343.86 0.5 357.5 13.7229 357.5 30Z" fill="#8D8282" stroke="#8D8282"/>
<path d="M1442.5 224C1442.5 240.277 1428.86 253.5 1412 253.5C1395.14 253.5 1381.5 240.277 1381.5 224C1381.5 207.723 1395.14 194.5 1412 194.5C1428.86 194.5 1442.5 207.723 1442.5 224Z" fill="#8D8282" stroke="#8D8282"/>
<path d="M1080.5 566C1080.5 582.277 1066.86 595.5 1050 595.5C1033.14 595.5 1019.5 582.277 1019.5 566C1019.5 549.723 1033.14 536.5 1050 536.5C1066.86 536.5 1080.5 549.723 1080.5 566Z" fill="#8D8282" stroke="#8D8282"/>
<path d="M260.5 668C260.5 684.277 246.86 697.5 230 697.5C213.14 697.5 199.5 684.277 199.5 668C199.5 651.723 213.14 638.5 230 638.5C246.86 638.5 260.5 651.723 260.5 668Z" fill="#8D8282" stroke="#8D8282"/>
<path d="M260.5 846C260.5 862.277 246.86 875.5 230 875.5C213.14 875.5 199.5 862.277 199.5 846C199.5 829.723 213.14 816.5 230 816.5C246.86 816.5 260.5 829.723 260.5 846Z" fill="#8D8282" stroke="#8D8282"/>
<path d="M61.5 755C61.5 771.277 47.8603 784.5 31 784.5C14.1397 784.5 0.5 771.277 0.5 755C0.5 738.723 14.1397 725.5 31 725.5C47.8603 725.5 61.5 738.723 61.5 755Z" fill="#8D8282" stroke="#8D8282"/>
<path d="M130.5 305C130.5 321.277 116.86 334.5 100 334.5C83.1397 334.5 69.5 321.277 69.5 305C69.5 288.723 83.1397 275.5 100 275.5C116.86 275.5 130.5 288.723 130.5 305Z" fill="#8D8282" stroke="#8D8282"/>
<path d="M783.5 994C783.5 1010.28 769.86 1023.5 753 1023.5C736.14 1023.5 722.5 1010.28 722.5 994C722.5 977.723 736.14 964.5 753 964.5C769.86 964.5 783.5 977.723 783.5 994Z" fill="#8D8282" stroke="#8D8282"/>
<path d="M752.5 30C752.5 46.2771 738.86 59.5 722 59.5C705.14 59.5 691.5 46.2771 691.5 30C691.5 13.7229 705.14 0.5 722 0.5C738.86 0.5 752.5 13.7229 752.5 30Z" fill="#8D8282" stroke="#8D8282"/>
<path d="M1195.5 30C1195.5 46.2771 1181.86 59.5 1165 59.5C1148.14 59.5 1134.5 46.2771 1134.5 30C1134.5 13.7229 1148.14 0.5 1165 0.5C1181.86 0.5 1195.5 13.7229 1195.5 30Z" fill="#8D8282" stroke="#8D8282"/>
<path d="M1439.5 755C1439.5 771.277 1425.86 784.5 1409 784.5C1392.14 784.5 1378.5 771.277 1378.5 755C1378.5 738.723 1392.14 725.5 1409 725.5C1425.86 725.5 1439.5 738.723 1439.5 755Z" fill="#8D8282" stroke="#8D8282"/>
<path d="M1226.5 994C1226.5 1010.28 1212.86 1023.5 1196 1023.5C1179.14 1023.5 1165.5 1010.28 1165.5 994C1165.5 977.723 1179.14 964.5 1196 964.5C1212.86 964.5 1226.5 977.723 1226.5 994Z" fill="#8D8282" stroke="#8D8282"/>
<path d="M645.5 927C645.5 943.277 631.86 956.5 615 956.5C598.14 956.5 584.5 943.277 584.5 927C584.5 910.723 598.14 897.5 615 897.5C631.86 897.5 645.5 910.723 645.5 927Z" fill="#8D8282" stroke="#8D8282"/>
<path d="M696.5 369.5C696.5 372.044 695.848 374.323 694.82 375.951C693.788 377.584 692.425 378.5 691 378.5C689.575 378.5 688.212 377.584 687.18 375.951C686.152 374.323 685.5 372.044 685.5 369.5C685.5 366.956 686.152 364.677 687.18 363.049C688.212 361.416 689.575 360.5 691 360.5C692.425 360.5 693.788 361.416 694.82 363.049C695.848 364.677 696.5 366.956 696.5 369.5Z" fill="white" stroke="#8D8282"/>
</g>
<defs>
<clipPath id="clip0_1_2">
<rect width="1440" height="1024" fill="white"/>
</clipPath>
</defs>
</svg>
