<svg width="1432" height="1017" viewBox="0 0 1432 1017" fill="none" xmlns="http://www.w3.org/2000/svg">
<path d="M345.82 181.909L227.925 502.251M345.82 181.909L104.053 291.166M345.82 181.909L3 -4M345.82 181.909L778.284 -4M345.82 181.909V-4M345.82 181.909L778.284 336.833M227.925 502.251L104.053 291.166M227.925 502.251L778.284 336.833M227.925 502.251V657.175M104.053 291.166L3 336.833V890.061L227.925 853.579M104.053 291.166L3 750.13L227.925 853.579M104.053 291.166L227.925 853.579M227.925 853.579V657.175M227.925 853.579L828.81 1014M227.925 853.579L3 1014M778.284 336.833L227.925 657.175M778.284 336.833V-4M778.284 336.833L1261.27 248.876M778.284 336.833L665.821 917.212M778.284 336.833L1019.78 122.438M778.284 336.833L901.883 497.004M227.925 657.175L665.821 917.212M828.81 1014L665.821 917.212M828.81 1014L936.554 853.579M1137.95 553.726L665.821 917.212M1137.95 553.726L1294.96 1014M1137.95 553.726L936.554 853.579M1137.95 553.726L1261.27 248.876M1137.95 553.726L901.883 497.004M665.821 917.212L901.883 497.004M778.284 -4L1019.78 122.438M1261.27 248.876V-4L1559 207.896M1261.27 248.876L1559 207.896M1261.27 248.876L1294.96 1014M1261.27 248.876L1559 750.13M1261.27 248.876L1019.78 122.438M1559 207.896V750.13M1294.96 1014L1559 750.13M1294.96 1014H1559V750.13M1294.96 1014L936.554 853.579" stroke="black" stroke-opacity="0.28" stroke-width="5"/>
</svg>
