<svg width="1438" height="1024" viewBox="0 0 1438 1024" fill="none" xmlns="http://www.w3.org/2000/svg">
<path d="M318.5 191.5L210 512M318.5 191.5L96 300.811M318.5 191.5L3 5.5M318.5 191.5L716.5 5.5M318.5 191.5V5.5M318.5 191.5L716.5 346.5M210 512L96 300.811M210 512L716.5 346.5M210 512V667M96 300.811L3 346.5V900L210 863.5M96 300.811L3 760L210 863.5M96 300.811L210 863.5M210 863.5V667M210 863.5L763 1024M210 863.5L3 1024M716.5 346.5L210 667M716.5 346.5V5.5M716.5 346.5L1161 258.5M716.5 346.5L613 927.165M716.5 346.5L938.75 132M716.5 346.5L830.25 506.75M210 667L613 927.165M763 1024L613 927.165M763 1024L862.158 863.5M1047.5 563.5L613 927.165M1047.5 563.5L1192 1024M1047.5 563.5L862.158 863.5M1047.5 563.5L1161 258.5M1047.5 563.5L830.25 506.75M613 927.165L830.25 506.75M716.5 5.5L938.75 132M1161 258.5V5.5L1435 217.5M1161 258.5L1435 217.5M1161 258.5L1192 1024M1161 258.5L1435 760M1161 258.5L938.75 132M1435 217.5V760M1192 1024L1435 760M1192 1024H1435V760M1192 1024L862.158 863.5" stroke="black" stroke-opacity="0.28" stroke-width="5"/>
</svg>
