<svg width="30" height="21" viewBox="0 0 30 21" fill="none" xmlns="http://www.w3.org/2000/svg">
<path d="M0.16875 19.7866V18.8666L0.80875 18.7866C1.58208 18.68 2.16875 18.56 2.56875 18.4266C2.99542 18.2666 3.28875 17.9333 3.44875 17.4266C3.60875 16.8933 3.68875 16.0266 3.68875 14.8266V6.18663C3.68875 5.17329 3.55542 4.43996 3.28875 3.98663C3.02208 3.50663 2.63542 3.19996 2.12875 3.06663C1.64875 2.90662 1.04875 2.83996 0.32875 2.86663V1.66663C0.915417 1.69329 1.50208 1.67996 2.08875 1.62662C2.70208 1.57329 3.28875 1.50663 3.84875 1.42662C4.38208 1.31996 4.87542 1.21329 5.32875 1.10663C5.78208 0.973292 6.16875 0.826625 6.48875 0.666625V14.8266C6.48875 16.0266 6.56875 16.8933 6.72875 17.4266C6.88875 17.9333 7.16875 18.2666 7.56875 18.4266C7.99542 18.56 8.59542 18.68 9.36875 18.7866L10.0088 18.8666V19.7866L5.08875 19.6666L0.16875 19.7866ZM20.9953 20.1066C19.2353 20.1066 17.742 19.64 16.5153 18.7066C15.2886 17.7733 14.3553 16.5733 13.7153 15.1066C13.102 13.64 12.7953 12.1066 12.7953 10.5066C12.7953 8.90663 13.102 7.37329 13.7153 5.90663C14.3553 4.43996 15.2886 3.23996 16.5153 2.30663C17.742 1.37329 19.2353 0.906626 20.9953 0.906626C22.782 0.906626 24.2753 1.37329 25.4753 2.30663C26.702 3.23996 27.622 4.43996 28.2353 5.90663C28.8753 7.37329 29.1953 8.90663 29.1953 10.5066C29.1953 12.1066 28.8753 13.64 28.2353 15.1066C27.622 16.5733 26.702 17.7733 25.4753 18.7066C24.2753 19.64 22.782 20.1066 20.9953 20.1066ZM20.9953 18.9066C22.3553 18.9066 23.3953 18.5466 24.1153 17.8266C24.8353 17.08 25.3286 16.0666 25.5953 14.7866C25.862 13.5066 25.9953 12.08 25.9953 10.5066C25.9953 8.90663 25.862 7.47996 25.5953 6.22662C25.3286 4.94663 24.8353 3.94663 24.1153 3.22663C23.3953 2.47996 22.3553 2.10663 20.9953 2.10663C19.662 2.10663 18.622 2.47996 17.8753 3.22663C17.1553 3.94663 16.662 4.94663 16.3953 6.22662C16.1286 7.47996 15.9953 8.90663 15.9953 10.5066C15.9953 12.08 16.1286 13.5066 16.3953 14.7866C16.662 16.0666 17.1553 17.08 17.8753 17.8266C18.622 18.5466 19.662 18.9066 20.9953 18.9066Z" fill="white"/>
</svg>
