<svg width="16" height="30" viewBox="0 0 16 30" fill="none" xmlns="http://www.w3.org/2000/svg">
<path d="M7.08875 29.1066C5.75542 29.1066 4.62208 28.8933 3.68875 28.4666C2.75542 28.0133 2.04875 27.4533 1.56875 26.7866C1.08875 26.0933 0.84875 25.3866 0.84875 24.6666C0.84875 23.8933 1.03542 23.2933 1.40875 22.8666C1.78208 22.4133 2.26208 22.1866 2.84875 22.1866C3.35542 22.1866 3.75542 22.3466 4.04875 22.6666C4.34208 22.9866 4.48875 23.3733 4.48875 23.8266C4.48875 24.1466 4.43542 24.4533 4.32875 24.7466C4.22208 25.0133 4.16875 25.3466 4.16875 25.7466C4.16875 26.4133 4.43542 26.96 4.96875 27.3866C5.50208 27.7866 6.14208 27.9866 6.88875 27.9866C8.06208 27.9866 9.03542 27.5466 9.80875 26.6666C10.5821 25.7866 11.1554 24.64 11.5288 23.2266C11.9288 21.8133 12.1288 20.32 12.1288 18.7466C12.1288 17.0933 11.9021 15.76 11.4488 14.7466C11.0221 13.7333 10.4754 13 9.80875 12.5466C9.14208 12.0666 8.46208 11.8266 7.76875 11.8266C6.86208 11.8266 6.08875 12.1066 5.44875 12.6666C4.83542 13.2 4.36875 13.8133 4.04875 14.5066H3.28875L4.32875 0.0266252H5.36875L5.28875 1.10663L6.88875 1.14663H8.12875C9.22208 1.14663 10.2488 1.10662 11.2088 1.02662C12.1688 0.919957 12.9021 0.719958 13.4088 0.426625H13.8088V0.826624C13.8088 1.78662 13.4888 2.49329 12.8488 2.94663C12.2354 3.39996 11.3821 3.70662 10.2888 3.86663C9.22208 3.99996 7.99542 4.06663 6.60875 4.06663H5.04875L4.40875 12.1466C4.88875 11.64 5.47542 11.24 6.16875 10.9466C6.86208 10.6533 7.60875 10.5066 8.40875 10.5066C9.66208 10.5066 10.8221 10.8266 11.8888 11.4666C12.9554 12.1066 13.8088 13.04 14.4488 14.2666C15.1154 15.4666 15.4488 16.9333 15.4488 18.6666C15.4488 20.8 15.0621 22.6533 14.2888 24.2266C13.5421 25.7733 12.5288 26.9733 11.2488 27.8266C9.99542 28.68 8.60875 29.1066 7.08875 29.1066Z" fill="white"/>
</svg>
