<svg width="251" height="41" viewBox="0 0 251 41" fill="none" xmlns="http://www.w3.org/2000/svg">
<path d="M0.6 29.12V28.12L1.4 28.04C2.33333 27.9333 3.04 27.8 3.52 27.64C4.02667 27.4533 4.37333 27.08 4.56 26.52C4.77333 25.9333 4.88 24.9867 4.88 23.68V5.92C4.88 4.58667 4.78667 3.64 4.6 3.08C4.41333 2.52 4.06667 2.16 3.56 2C3.08 1.81333 2.37333 1.66666 1.44 1.56L0.64 1.48V0.479998L6.56 0.599998H12.2C15.8 0.599998 18.84 1.08 21.32 2.04C23.8267 3 25.7333 4.52 27.04 6.6C28.3467 8.65333 29 11.3467 29 14.68C29 17.0533 28.6 19.1333 27.8 20.92C27 22.7067 25.9067 24.2 24.52 25.4C23.1333 26.6 21.5467 27.5067 19.76 28.12C18 28.7067 16.1467 29 14.2 29H6.52L0.6 29.12ZM10.96 27.8H14.36C17.6133 27.8 20.2267 26.7467 22.2 24.64C24.1733 22.5067 25.16 19.2133 25.16 14.76C25.16 12.04 24.7733 9.72 24 7.8C23.2533 5.85333 22.0133 4.37333 20.28 3.36C18.5733 2.32 16.2667 1.8 13.36 1.8H8.32V23.16C8.32 23.9333 8.37333 24.68 8.48 25.4C8.58667 26.0933 8.82667 26.6667 9.2 27.12C9.57333 27.5733 10.16 27.8 10.96 27.8ZM31.7997 29.12V28.2L32.4397 28.12C33.213 28.0133 33.7997 27.8933 34.1997 27.76C34.6264 27.6 34.9197 27.2667 35.0797 26.76C35.2397 26.2267 35.3197 25.36 35.3197 24.16V15.72C35.3197 14.3333 35.0264 13.4533 34.4397 13.08C33.8797 12.68 33.093 12.48 32.0797 12.48H31.7997V11.56C32.893 11.56 33.9464 11.5333 34.9597 11.48C35.973 11.4 37.0264 11.2667 38.1197 11.08V24.16C38.1197 25.36 38.1997 26.2267 38.3597 26.76C38.5197 27.2667 38.7997 27.6 39.1997 27.76C39.6264 27.8933 40.2264 28.0133 40.9997 28.12L41.6397 28.2V29.12L36.7197 29L31.7997 29.12ZM36.2397 6.4C35.5464 6.4 34.9997 6.16 34.5997 5.68C34.1997 5.2 33.9997 4.62667 33.9997 3.96C33.9997 3.26667 34.1997 2.69333 34.5997 2.24C34.9997 1.76 35.5464 1.52 36.2397 1.52C37.013 1.52 37.573 1.76 37.9197 2.24C38.293 2.69333 38.4797 3.26667 38.4797 3.96C38.4797 4.62667 38.293 5.2 37.9197 5.68C37.573 6.16 37.013 6.4 36.2397 6.4ZM43.3669 29.12V28.2L44.0069 28.12C44.7802 28.0133 45.3669 27.8933 45.7669 27.76C46.1935 27.6 46.4869 27.2667 46.6469 26.76C46.8069 26.2267 46.8869 25.36 46.8869 24.16V12.56H43.0469V11.56H46.8869V10.92C46.8869 7.74667 47.5535 5.34667 48.8869 3.72C50.2202 2.09333 52.2469 1.28 54.9669 1.28C55.5802 1.28 56.3135 1.37333 57.1669 1.56C58.0469 1.72 58.8335 2.01333 59.5269 2.44C60.0869 1.72 60.8469 1.14667 61.8069 0.719999C62.7669 0.266665 63.9535 0.0399985 65.3669 0.0399985C66.3535 0.0399985 67.3269 0.213332 68.2869 0.559999C69.2735 0.879998 70.0869 1.38666 70.7269 2.08C71.3935 2.77333 71.7269 3.65333 71.7269 4.72C71.7269 5.38667 71.5535 5.93333 71.2069 6.36C70.8602 6.76 70.3802 6.96 69.7669 6.96C69.2869 6.96 68.8735 6.81333 68.5269 6.52C68.1802 6.22667 68.0069 5.84 68.0069 5.36C68.0069 5.04 68.0735 4.8 68.2069 4.64C68.3402 4.45333 68.4602 4.29333 68.5669 4.16C68.7002 4 68.7669 3.8 68.7669 3.56C68.7669 2.94667 68.4335 2.37333 67.7669 1.84C67.1269 1.30666 66.3269 1.04 65.3669 1.04C63.9535 1.04 62.9002 1.42666 62.2069 2.2C61.5402 2.97333 61.1002 3.97333 60.8869 5.2C60.6735 6.42667 60.5669 7.70667 60.5669 9.04V11.56H65.3669C66.4602 11.56 67.5135 11.5333 68.5269 11.48C69.5402 11.4 70.5935 11.2667 71.6869 11.08V24.16C71.6869 25.36 71.7669 26.2267 71.9269 26.76C72.0869 27.2667 72.3669 27.6 72.7669 27.76C73.1935 27.8933 73.7935 28.0133 74.5669 28.12L75.2069 28.2V29.12L70.2869 29L65.3669 29.12V28.2L66.0069 28.12C66.7802 28.0133 67.3669 27.8933 67.7669 27.76C68.1935 27.6 68.4869 27.2667 68.6469 26.76C68.8069 26.2267 68.8869 25.36 68.8869 24.16V15.72C68.8869 14.6267 68.7002 13.8533 68.3269 13.4C67.9535 12.9467 67.4469 12.6667 66.8069 12.56H60.5669V24.16C60.5669 25.36 60.6202 26.2267 60.7269 26.76C60.8602 27.2667 61.1002 27.6 61.4469 27.76C61.7935 27.8933 62.2735 28.0133 62.8869 28.12L63.5269 28.2V29.12L59.1669 29L54.2469 29.12V28.2L54.8869 28.12C55.6602 28.0133 56.2469 27.8933 56.6469 27.76C57.0735 27.6 57.3669 27.2667 57.5269 26.76C57.6869 26.2267 57.7669 25.36 57.7669 24.16V12.56H49.6869V24.16C49.6869 25.36 49.7535 26.2267 49.8869 26.76C50.0202 27.2667 50.2602 27.6 50.6069 27.76C50.9802 27.92 51.5135 28.04 52.2069 28.12L52.8469 28.2V29.12L48.2869 29L43.3669 29.12ZM49.6869 10.2V11.56H57.7669V8.84C57.7669 8.06667 57.8069 7.32 57.8869 6.6C57.9935 5.85333 58.1669 5.14667 58.4069 4.48C58.0602 3.84 57.5802 3.30667 56.9669 2.88C56.3802 2.45333 55.6069 2.24 54.6469 2.24C52.7535 2.24 51.4469 2.94667 50.7269 4.36C50.0335 5.74667 49.6869 7.69333 49.6869 10.2ZM86.2416 29.44C84.4549 29.44 82.8949 29.0533 81.5616 28.28C80.2282 27.5067 79.2016 26.4533 78.4816 25.12C77.7616 23.7867 77.4016 22.2667 77.4016 20.56C77.4016 18.6933 77.8149 17.0267 78.6416 15.56C79.4682 14.0933 80.5882 12.9467 82.0016 12.12C83.4149 11.2667 85.0149 10.84 86.8016 10.84C87.6549 10.84 88.5349 10.9733 89.4416 11.24C90.3482 11.5067 91.1082 11.9067 91.7216 12.44C92.3616 12.9733 92.6816 13.6267 92.6816 14.4C92.6816 14.9867 92.4949 15.48 92.1216 15.88C91.7482 16.2533 91.2949 16.44 90.7616 16.44C90.0682 16.44 89.5482 16.24 89.2016 15.84C88.8549 15.44 88.6816 15.04 88.6816 14.64C88.6816 14.4267 88.6949 14.24 88.7216 14.08C88.7749 13.92 88.8149 13.7733 88.8416 13.64C88.8949 13.5067 88.9349 13.3733 88.9616 13.24C88.9882 13.08 89.0016 12.92 89.0016 12.76C89.0016 12.3867 88.7216 12.1467 88.1616 12.04C87.6282 11.9067 87.1616 11.84 86.7616 11.84C84.8949 11.84 83.4016 12.6267 82.2816 14.2C81.1616 15.7467 80.6016 17.8 80.6016 20.36C80.6016 21.7733 80.8416 23.08 81.3216 24.28C81.8016 25.48 82.4949 26.44 83.4016 27.16C84.3349 27.88 85.4816 28.24 86.8416 28.24C87.9616 28.24 89.0282 27.9333 90.0416 27.32C91.0549 26.68 91.7882 25.6 92.2416 24.08L93.2016 24.4C92.6949 26.24 91.7882 27.5467 90.4816 28.32C89.1749 29.0667 87.7616 29.44 86.2416 29.44ZM103.911 29.44C102.177 29.44 100.804 29.0133 99.7906 28.16C98.804 27.28 98.3106 25.9867 98.3106 24.28V16.52C98.3106 15.32 98.2306 14.4667 98.0706 13.96C97.9106 13.4267 97.6173 13.08 97.1906 12.92C96.7906 12.76 96.204 12.64 95.4306 12.56L94.7906 12.48V11.56L99.7106 11.68L101.111 11.64V24.12C101.111 25.4267 101.444 26.4267 102.111 27.12C102.777 27.8133 103.684 28.16 104.831 28.16C105.817 28.16 106.684 27.9467 107.431 27.52C108.204 27.0667 108.857 26.4933 109.391 25.8C109.951 25.1067 110.391 24.4 110.711 23.68V16.52C110.711 15.32 110.631 14.4667 110.471 13.96C110.311 13.4267 110.017 13.08 109.591 12.92C109.191 12.76 108.604 12.64 107.831 12.56L107.191 12.48V11.56L112.111 11.68L113.511 11.64V24.56C113.511 25.5733 113.631 26.3333 113.871 26.84C114.137 27.32 114.511 27.64 114.991 27.8C115.497 27.96 116.111 28.04 116.831 28.04V28.96C115.737 28.96 114.737 28.9733 113.831 29C112.924 29.0267 111.884 29.1467 110.711 29.36V25.68C110.444 26.1067 110.164 26.48 109.871 26.8C109.177 27.5733 108.337 28.2133 107.351 28.72C106.364 29.2 105.217 29.44 103.911 29.44ZM117.842 29.12V28.2L118.482 28.12C119.256 28.0133 119.842 27.8933 120.242 27.76C120.669 27.6 120.962 27.2667 121.122 26.76C121.282 26.2267 121.362 25.36 121.362 24.16V4.64C121.362 3.25333 121.069 2.37333 120.482 2C119.922 1.6 119.136 1.4 118.122 1.4H117.842V0.479998C118.936 0.479998 119.989 0.453331 121.002 0.399999C122.016 0.319998 123.069 0.186665 124.162 -9.53674e-07V24.16C124.162 25.36 124.242 26.2267 124.402 26.76C124.562 27.2667 124.842 27.6 125.242 27.76C125.669 27.8933 126.269 28.0133 127.042 28.12L127.682 28.2V29.12L122.762 29L117.842 29.12ZM136.857 29.44C135.55 29.44 134.484 29.0533 133.657 28.28C132.857 27.48 132.457 26.1867 132.457 24.4V12.56H129.497V11.56L130.577 11.48C131.67 11.4 132.497 10.96 133.057 10.16C133.644 9.33333 134.03 8.18667 134.217 6.72H135.257V11.56H140.377V12.56H135.257V24.56C135.257 26.9067 136.084 28.08 137.737 28.08C138.43 28.08 138.99 27.8533 139.417 27.4C139.844 26.92 140.23 26.3333 140.577 25.64L141.457 26.08C141.297 26.48 141.097 26.8533 140.857 27.2C140.644 27.52 140.43 27.8 140.217 28.04C139.764 28.5467 139.244 28.9067 138.657 29.12C138.097 29.3333 137.497 29.44 136.857 29.44ZM143.372 40.76C142.465 40.76 141.785 40.5333 141.332 40.08C140.878 39.6533 140.652 39.1733 140.652 38.64C140.652 38.1067 140.852 37.6533 141.252 37.28C141.625 36.9333 142.105 36.76 142.692 36.76C143.065 36.76 143.358 36.8133 143.572 36.92C143.785 37.0533 143.985 37.1867 144.172 37.32C144.358 37.4533 144.572 37.5867 144.812 37.72C145.052 37.88 145.332 37.96 145.652 37.96C146.132 37.96 146.625 37.7733 147.132 37.4C147.665 37.0267 148.212 36.2533 148.772 35.08L151.412 29.4L144.772 14.84C144.505 14.2267 144.212 13.72 143.892 13.32C143.572 12.92 143.078 12.68 142.412 12.6L141.492 12.48V11.56L145.652 11.68L149.692 11.56V12.48L149.132 12.56C148.012 12.72 147.452 13.1333 147.452 13.8C147.452 14.12 147.598 14.6 147.892 15.24L152.892 26.2L157.892 15.44C158.185 14.7733 158.332 14.2533 158.332 13.88C158.332 13.16 157.678 12.72 156.372 12.56L155.732 12.48V11.56L159.572 11.68L162.772 11.56V12.48L162.172 12.56C161.185 12.6933 160.465 13.0533 160.012 13.64C159.585 14.2267 159.185 14.9467 158.812 15.8L149.772 35.52C149.345 36.4267 148.838 37.28 148.252 38.08C147.692 38.88 147.012 39.52 146.212 40C145.438 40.5067 144.492 40.76 143.372 40.76ZM171.944 29.12V28.2L172.584 28.12C173.357 28.0133 173.944 27.8933 174.344 27.76C174.77 27.6 175.064 27.2667 175.224 26.76C175.384 26.2267 175.464 25.36 175.464 24.16V4.64C175.464 3.25333 175.17 2.37333 174.584 2C174.024 1.6 173.237 1.4 172.224 1.4H171.944V0.479998C173.037 0.479998 174.09 0.453331 175.104 0.399999C176.117 0.319998 177.17 0.186665 178.264 -9.53674e-07V24.16C178.264 25.36 178.344 26.2267 178.504 26.76C178.664 27.2667 178.944 27.6 179.344 27.76C179.77 27.8933 180.37 28.0133 181.144 28.12L181.784 28.2V29.12L176.864 29L171.944 29.12ZM192.958 29.44C191.198 29.44 189.665 29.0667 188.358 28.32C187.052 27.5467 186.025 26.4933 185.278 25.16C184.558 23.8 184.198 22.2533 184.198 20.52C184.198 18.6533 184.598 17 185.398 15.56C186.198 14.0933 187.265 12.9467 188.598 12.12C189.958 11.2667 191.452 10.84 193.078 10.84C195.132 10.84 196.732 11.4933 197.878 12.8C199.052 14.1067 199.638 15.8267 199.638 17.96C199.638 18.28 199.625 18.5467 199.598 18.76C199.572 18.9733 199.545 19.12 199.518 19.2H187.438C187.412 19.5733 187.398 19.9467 187.398 20.32C187.398 21.7333 187.625 23.0533 188.078 24.28C188.532 25.48 189.212 26.44 190.118 27.16C191.052 27.88 192.185 28.24 193.518 28.24C194.772 28.24 195.878 27.8933 196.838 27.2C197.825 26.48 198.585 25.4267 199.118 24.04L200.078 24.4C198.958 27.76 196.585 29.44 192.958 29.44ZM193.078 11.84C191.425 11.84 190.132 12.4267 189.198 13.6C188.292 14.7733 187.732 16.3333 187.518 18.28H192.598C193.798 18.28 194.705 18.1467 195.318 17.88C195.958 17.5867 196.385 17.24 196.598 16.84C196.838 16.4133 196.958 16 196.958 15.6C196.958 14.4267 196.558 13.5067 195.758 12.84C194.958 12.1733 194.065 11.84 193.078 11.84ZM210.621 29L204.101 14.6C203.861 14.0667 203.568 13.6133 203.221 13.24C202.874 12.8667 202.354 12.64 201.661 12.56L200.941 12.48V11.56L205.061 11.68L209.141 11.56V12.48L208.501 12.56C207.914 12.64 207.501 12.7867 207.261 13C207.021 13.1867 206.901 13.4533 206.901 13.8C206.901 14.0933 207.008 14.4933 207.221 15L212.261 26.12L216.941 15.16C217.181 14.6267 217.301 14.1867 217.301 13.84C217.301 13.1467 216.688 12.72 215.461 12.56L214.781 12.48V11.56L218.381 11.68L221.741 11.56V12.48L220.821 12.6C220.074 12.7067 219.501 13 219.101 13.48C218.701 13.9333 218.301 14.6267 217.901 15.56L212.141 29H210.621ZM231.083 29.44C229.323 29.44 227.79 29.0667 226.483 28.32C225.177 27.5467 224.15 26.4933 223.403 25.16C222.683 23.8 222.323 22.2533 222.323 20.52C222.323 18.6533 222.723 17 223.523 15.56C224.323 14.0933 225.39 12.9467 226.723 12.12C228.083 11.2667 229.577 10.84 231.203 10.84C233.257 10.84 234.857 11.4933 236.003 12.8C237.177 14.1067 237.763 15.8267 237.763 17.96C237.763 18.28 237.75 18.5467 237.723 18.76C237.697 18.9733 237.67 19.12 237.643 19.2H225.563C225.537 19.5733 225.523 19.9467 225.523 20.32C225.523 21.7333 225.75 23.0533 226.203 24.28C226.657 25.48 227.337 26.44 228.243 27.16C229.177 27.88 230.31 28.24 231.643 28.24C232.897 28.24 234.003 27.8933 234.963 27.2C235.95 26.48 236.71 25.4267 237.243 24.04L238.203 24.4C237.083 27.76 234.71 29.44 231.083 29.44ZM231.203 11.84C229.55 11.84 228.257 12.4267 227.323 13.6C226.417 14.7733 225.857 16.3333 225.643 18.28H230.723C231.923 18.28 232.83 18.1467 233.443 17.88C234.083 17.5867 234.51 17.24 234.723 16.84C234.963 16.4133 235.083 16 235.083 15.6C235.083 14.4267 234.683 13.5067 233.883 12.84C233.083 12.1733 232.19 11.84 231.203 11.84ZM240.186 29.12V28.2L240.826 28.12C241.599 28.0133 242.186 27.8933 242.586 27.76C243.013 27.6 243.306 27.2667 243.466 26.76C243.626 26.2267 243.706 25.36 243.706 24.16V4.64C243.706 3.25333 243.413 2.37333 242.826 2C242.266 1.6 241.479 1.4 240.466 1.4H240.186V0.479998C241.279 0.479998 242.333 0.453331 243.346 0.399999C244.359 0.319998 245.413 0.186665 246.506 -9.53674e-07V24.16C246.506 25.36 246.586 26.2267 246.746 26.76C246.906 27.2667 247.186 27.6 247.586 27.76C248.013 27.8933 248.613 28.0133 249.386 28.12L250.026 28.2V29.12L245.106 29L240.186 29.12Z" fill="black"/>
</svg>
