<svg width="202" height="50" viewBox="0 0 202 50" fill="none" xmlns="http://www.w3.org/2000/svg">
<path d="M0.92 35.144V33.944L1.88 33.848C3 33.72 3.848 33.56 4.424 33.368C5.032 33.176 5.448 32.728 5.672 32.024C5.896 31.32 6.008 30.184 6.008 28.616V7.304C6.008 5.704 5.896 4.568 5.672 3.896C5.448 3.192 5.032 2.744 4.424 2.552C3.848 2.328 3 2.168 1.88 2.072L0.92 1.976V0.775997L8.12 0.919998L14.312 0.775997V1.88L13.544 1.976C12.616 2.072 11.896 2.216 11.384 2.408C10.904 2.6 10.568 3.016 10.376 3.656C10.184 4.264 10.088 5.288 10.088 6.728V26.744C10.088 28.312 10.168 29.608 10.328 30.632C10.52 31.656 11.016 32.408 11.816 32.888C12.616 33.368 13.912 33.608 15.704 33.608H19.304C22.088 33.608 24.088 32.872 25.304 31.4C26.552 29.896 27.288 27.736 27.512 24.92H28.568L28.088 35.144L8.024 35L0.92 35.144ZM42.9376 35.528C40.8256 35.528 38.9856 35.08 37.4176 34.184C35.8496 33.256 34.6176 31.992 33.7216 30.392C32.8576 28.76 32.4256 26.904 32.4256 24.824C32.4256 22.584 32.9056 20.6 33.8656 18.872C34.8256 17.112 36.1056 15.736 37.7056 14.744C39.3376 13.72 41.1296 13.208 43.0816 13.208C45.5456 13.208 47.4656 13.992 48.8416 15.56C50.2496 17.128 50.9536 19.192 50.9536 21.752C50.9536 22.136 50.9376 22.456 50.9056 22.712C50.8736 22.968 50.8416 23.144 50.8096 23.24H36.3136C36.2816 23.688 36.2656 24.136 36.2656 24.584C36.2656 26.28 36.5376 27.864 37.0816 29.336C37.6256 30.776 38.4416 31.928 39.5296 32.792C40.6496 33.656 42.0096 34.088 43.6096 34.088C45.1136 34.088 46.4416 33.672 47.5936 32.84C48.7776 31.976 49.6896 30.712 50.3296 29.048L51.4816 29.48C50.1376 33.512 47.2896 35.528 42.9376 35.528ZM43.0816 14.408C41.0976 14.408 39.5456 15.112 38.4256 16.52C37.3376 17.928 36.6656 19.8 36.4096 22.136H42.5056C43.9456 22.136 45.0336 21.976 45.7696 21.656C46.5376 21.304 47.0496 20.888 47.3056 20.408C47.5936 19.896 47.7376 19.4 47.7376 18.92C47.7376 17.512 47.2576 16.408 46.2976 15.608C45.3376 14.808 44.2656 14.408 43.0816 14.408ZM63.4126 35.528C61.8446 35.528 60.5646 35.064 59.5726 34.136C58.6126 33.176 58.1326 31.624 58.1326 29.48V15.272H54.5806V14.072L55.8766 13.976C57.1886 13.88 58.1806 13.352 58.8526 12.392C59.5566 11.4 60.0206 10.024 60.2446 8.264H61.4926V14.072H67.6366V15.272H61.4926V29.672C61.4926 32.488 62.4846 33.896 64.4686 33.896C65.3006 33.896 65.9726 33.624 66.4846 33.08C66.9966 32.504 67.4606 31.8 67.8766 30.968L68.9326 31.496C68.7406 31.976 68.5006 32.424 68.2126 32.84C67.9566 33.224 67.7006 33.56 67.4446 33.848C66.9006 34.456 66.2766 34.888 65.5726 35.144C64.9006 35.4 64.1806 35.528 63.4126 35.528ZM74.0623 13.16L73.4383 12.152C74.5903 11.384 75.5983 10.488 76.4622 9.464C77.3583 8.44 77.8063 7.176 77.8063 5.672C77.8063 5.096 77.7263 4.552 77.5663 4.04C77.4063 3.496 77.1823 3.304 76.8943 3.464C76.8303 3.496 76.7983 3.544 76.7983 3.608C76.7983 3.704 76.8303 3.832 76.8943 3.992C76.9583 4.12 76.9903 4.296 76.9903 4.52C76.9903 4.968 76.7503 5.384 76.2703 5.768C75.8223 6.12 75.3103 6.296 74.7343 6.296C73.9023 6.296 73.2143 6.04 72.6703 5.528C72.1583 4.984 71.9023 4.296 71.9023 3.464C71.9023 2.536 72.1903 1.784 72.7663 1.208C73.3423 0.631997 74.0943 0.343997 75.0223 0.343997C76.1743 0.343997 77.1023 0.823997 77.8063 1.784C78.5103 2.712 78.8623 3.976 78.8623 5.576C78.8623 7.528 78.3983 9.064 77.4703 10.184C76.5743 11.272 75.4383 12.264 74.0623 13.16ZM91.9104 35.528C90.6944 35.528 89.6544 35.384 88.7904 35.096C87.9584 34.84 87.3024 34.6 86.8224 34.376C86.3104 34.12 85.9904 33.992 85.8624 33.992C85.7344 33.992 85.6224 34.056 85.5264 34.184C85.4624 34.28 85.3824 34.552 85.2864 35H84.1824L84.3744 31.832L84.5184 27.752H85.5744L85.6224 28.568C85.6864 29.464 85.9744 30.36 86.4864 31.256C87.0304 32.152 87.7664 32.904 88.6944 33.512C89.6224 34.12 90.6944 34.424 91.9104 34.424C93.2224 34.424 94.2784 34.088 95.0784 33.416C95.8784 32.744 96.2784 31.816 96.2784 30.632C96.2784 29.608 95.8624 28.744 95.0304 28.04C94.2304 27.336 93.1104 26.712 91.6704 26.168L89.9424 25.496C88.2784 24.856 87.0144 24.056 86.1504 23.096C85.3184 22.136 84.9024 20.904 84.9024 19.4C84.9024 18.12 85.1904 17.032 85.7664 16.136C86.3744 15.208 87.1584 14.488 88.1184 13.976C89.1104 13.464 90.1664 13.208 91.2864 13.208C92.0864 13.208 92.7584 13.304 93.3024 13.496C93.8784 13.688 94.3584 13.88 94.7424 14.072C95.0624 14.232 95.3344 14.312 95.5584 14.312C95.8784 14.312 96.1344 13.976 96.3264 13.304L97.3824 13.352L97.1904 16.472V19.832H96.0864C95.8624 18.328 95.3504 17.032 94.5504 15.944C93.7504 14.824 92.5984 14.264 91.0944 14.264C90.0384 14.264 89.1424 14.6 88.4064 15.272C87.7024 15.944 87.3504 16.792 87.3504 17.816C87.3504 18.808 87.7184 19.64 88.4544 20.312C89.2224 20.952 90.2624 21.528 91.5744 22.04L93.4464 22.76C95.3984 23.496 96.7424 24.392 97.4784 25.448C98.2464 26.472 98.6304 27.704 98.6304 29.144C98.6304 30.84 98.0544 32.328 96.9024 33.608C95.7504 34.888 94.0864 35.528 91.9104 35.528ZM114.098 48.584V47.48L114.866 47.384C115.794 47.256 116.498 47.096 116.978 46.904C117.49 46.744 117.842 46.344 118.034 45.704C118.226 45.096 118.322 44.072 118.322 42.632V18.92C118.322 17.768 118.146 16.936 117.794 16.424C117.474 15.88 116.994 15.544 116.354 15.416C115.714 15.256 114.962 15.176 114.098 15.176V14.072C115.41 14.072 116.674 14.008 117.89 13.88C119.106 13.752 120.37 13.576 121.682 13.352L121.346 16.616C122.242 15.592 123.266 14.776 124.418 14.168C125.602 13.528 126.914 13.208 128.354 13.208C130.21 13.208 131.858 13.704 133.298 14.696C134.77 15.688 135.938 17.032 136.802 18.728C137.666 20.424 138.098 22.328 138.098 24.44C138.098 26.488 137.666 28.36 136.802 30.056C135.938 31.72 134.754 33.048 133.25 34.04C131.778 35.032 130.082 35.528 128.162 35.528C126.818 35.528 125.586 35.256 124.466 34.712C123.346 34.136 122.418 33.496 121.682 32.792V42.632C121.682 44.072 121.778 45.096 121.97 45.704C122.162 46.344 122.498 46.744 122.978 46.904C123.49 47.096 124.21 47.256 125.138 47.384L125.906 47.48V48.584L120.002 48.44L114.098 48.584ZM127.778 14.648C126.466 14.648 125.298 14.968 124.274 15.608C123.282 16.216 122.418 16.968 121.682 17.864V30.824C122.226 31.656 123.042 32.408 124.13 33.08C125.218 33.752 126.418 34.088 127.73 34.088C129.202 34.088 130.418 33.672 131.378 32.84C132.338 31.976 133.058 30.824 133.538 29.384C134.018 27.912 134.258 26.264 134.258 24.44C134.258 22.584 134.018 20.92 133.538 19.448C133.058 17.976 132.338 16.808 131.378 15.944C130.45 15.08 129.25 14.648 127.778 14.648ZM141.001 35.144V34.04L141.769 33.944C142.697 33.816 143.401 33.672 143.881 33.512C144.393 33.32 144.745 32.92 144.937 32.312C145.129 31.672 145.225 30.632 145.225 29.192V5.768C145.225 4.104 144.873 3.048 144.169 2.6C143.497 2.12 142.553 1.88 141.337 1.88H141.001V0.775997C142.313 0.775997 143.577 0.743998 144.793 0.679998C146.009 0.583998 147.273 0.423998 148.585 0.199999V29.192C148.585 30.632 148.681 31.672 148.873 32.312C149.065 32.92 149.401 33.32 149.881 33.512C150.393 33.672 151.113 33.816 152.041 33.944L152.809 34.04V35.144L146.905 35L141.001 35.144ZM161.275 35.528C159.739 35.528 158.459 35.144 157.435 34.376C156.443 33.576 155.947 32.472 155.947 31.064C155.947 29.656 156.571 28.408 157.819 27.32C159.067 26.2 160.523 25.192 162.187 24.296C163.435 23.592 164.683 22.984 165.931 22.472C167.179 21.96 168.251 21.528 169.147 21.176V19.64C169.147 17.88 168.811 16.568 168.139 15.704C167.499 14.84 166.267 14.408 164.443 14.408C163.579 14.408 162.731 14.52 161.899 14.744C161.067 14.968 160.651 15.384 160.651 15.992C160.651 16.12 160.667 16.264 160.699 16.424C160.763 16.584 160.811 16.744 160.843 16.904C161.003 17.32 161.083 17.752 161.083 18.2C161.083 18.808 160.859 19.288 160.411 19.64C159.995 19.96 159.483 20.12 158.875 20.12C158.299 20.12 157.819 19.912 157.435 19.496C157.051 19.048 156.859 18.52 156.859 17.912C156.859 16.76 157.291 15.848 158.155 15.176C159.051 14.472 160.139 13.976 161.419 13.688C162.699 13.368 163.931 13.208 165.115 13.208C167.675 13.208 169.547 13.8 170.731 14.984C171.915 16.168 172.507 18.104 172.507 20.792V29.432C172.507 30.84 172.603 31.928 172.795 32.696C173.019 33.464 173.499 33.848 174.235 33.848C174.715 33.848 175.131 33.672 175.483 33.32C175.835 32.968 176.075 32.584 176.203 32.168L177.067 32.504C176.811 33.432 176.347 34.168 175.675 34.712C175.035 35.256 174.139 35.528 172.987 35.528C171.579 35.528 170.603 35.128 170.059 34.328C169.547 33.496 169.259 32.408 169.195 31.064C168.299 32.504 167.163 33.608 165.787 34.376C164.411 35.144 162.907 35.528 161.275 35.528ZM159.691 30.824C159.691 31.72 159.947 32.44 160.459 32.984C161.003 33.496 161.787 33.752 162.811 33.752C163.739 33.752 164.619 33.528 165.451 33.08C166.315 32.632 167.067 32.072 167.707 31.4C168.347 30.696 168.827 29.944 169.147 29.144V22.136C168.091 22.584 167.003 23.112 165.883 23.72C164.795 24.296 163.771 24.952 162.811 25.688C161.883 26.424 161.131 27.224 160.555 28.088C159.979 28.92 159.691 29.832 159.691 30.824ZM178.433 49.112C177.345 49.112 176.529 48.84 175.985 48.296C175.441 47.784 175.169 47.208 175.169 46.568C175.169 45.928 175.409 45.384 175.889 44.936C176.337 44.52 176.913 44.312 177.617 44.312C178.065 44.312 178.417 44.376 178.673 44.504C178.929 44.664 179.169 44.824 179.393 44.984C179.617 45.144 179.873 45.304 180.161 45.464C180.449 45.656 180.785 45.752 181.169 45.752C181.745 45.752 182.337 45.528 182.945 45.08C183.585 44.632 184.241 43.704 184.913 42.296L188.081 35.48L180.113 18.008C179.793 17.272 179.441 16.664 179.057 16.184C178.673 15.704 178.081 15.416 177.281 15.32L176.177 15.176V14.072L181.169 14.216L186.017 14.072V15.176L185.345 15.272C184.001 15.464 183.329 15.96 183.329 16.76C183.329 17.144 183.505 17.72 183.857 18.488L189.857 31.64L195.857 18.728C196.209 17.928 196.385 17.304 196.385 16.856C196.385 15.992 195.601 15.464 194.033 15.272L193.265 15.176V14.072L197.873 14.216L201.713 14.072V15.176L200.993 15.272C199.809 15.432 198.945 15.864 198.401 16.568C197.889 17.272 197.409 18.136 196.961 19.16L186.113 42.824C185.601 43.912 184.993 44.936 184.289 45.896C183.617 46.856 182.801 47.624 181.841 48.2C180.913 48.808 179.777 49.112 178.433 49.112Z" fill="black"/>
</svg>
