<svg width="103" height="41" viewBox="0 0 103 41" fill="none" xmlns="http://www.w3.org/2000/svg">
<path d="M10.36 29.44C9.29333 29.44 8.32 29.2667 7.44 28.92C6.58667 28.5733 5.81333 28.2267 5.12 27.88C4.53333 27.56 4.04 27.32 3.64 27.16C3.26667 27 2.93333 26.92 2.64 26.92C2.26667 26.92 2 27.08 1.84 27.4C1.70667 27.6933 1.6 28.0267 1.52 28.4L1.4 29H0.4L0.6 24.28L0.48 19.12H1.48L1.92 21C2.21333 22.1733 2.73333 23.32 3.48 24.44C4.25333 25.56 5.21333 26.48 6.36 27.2C7.53333 27.92 8.86667 28.28 10.36 28.28C11.1867 28.28 11.9733 28.1067 12.72 27.76C13.4933 27.3867 14.12 26.8267 14.6 26.08C15.1067 25.3333 15.36 24.36 15.36 23.16C15.36 21.3733 14.7733 19.9333 13.6 18.84C12.4533 17.7467 10.8533 16.7067 8.8 15.72L7.12 14.92C5.12 13.96 3.62667 12.9067 2.64 11.76C1.68 10.5867 1.2 9.09333 1.2 7.28C1.2 5.86667 1.54667 4.61333 2.24 3.52C2.93333 2.42667 3.88 1.57333 5.08 0.959999C6.30667 0.346665 7.70667 0.0399985 9.28 0.0399985C10.3733 0.0399985 11.2933 0.186665 12.04 0.479998C12.7867 0.773332 13.3733 1.02667 13.8 1.24C14.4933 1.58667 15.04 1.76 15.44 1.76C15.8667 1.76 16.12 1.34667 16.2 0.52H17.2L17.08 4.36L17.16 8.24H16.16C16 6.74666 15.5867 5.48 14.92 4.44C14.2533 3.37333 13.44 2.56 12.48 2C11.5467 1.44 10.5467 1.16 9.48 1.16C7.90667 1.16 6.62667 1.61333 5.64 2.52C4.68 3.42667 4.2 4.58667 4.2 6C4.2 7.52 4.69333 8.72 5.68 9.6C6.66667 10.4533 7.94667 11.2667 9.52 12.04L11.16 12.84C12.6267 13.56 13.88 14.3067 14.92 15.08C15.9867 15.8267 16.8 16.7067 17.36 17.72C17.9467 18.7333 18.24 20 18.24 21.52C18.24 23.0933 17.88 24.48 17.16 25.68C16.4667 26.88 15.52 27.8133 14.32 28.48C13.1467 29.12 11.8267 29.44 10.36 29.44ZM21.1419 40.32V39.4L21.7819 39.32C22.5552 39.2133 23.1419 39.08 23.5419 38.92C23.9685 38.7867 24.2619 38.4533 24.4219 37.92C24.5819 37.4133 24.6619 36.56 24.6619 35.36V15.6C24.6619 14.64 24.5152 13.9467 24.2219 13.52C23.9552 13.0667 23.5552 12.7867 23.0219 12.68C22.4885 12.5467 21.8619 12.48 21.1419 12.48V11.56C22.2352 11.56 23.2885 11.5067 24.3019 11.4C25.3152 11.2933 26.3685 11.1467 27.4619 10.96L27.1819 13.68C27.9285 12.8267 28.7819 12.1467 29.7419 11.64C30.7285 11.1067 31.8219 10.84 33.0219 10.84C34.5685 10.84 35.9419 11.2533 37.1419 12.08C38.3685 12.9067 39.3419 14.0267 40.0619 15.44C40.7819 16.8533 41.1419 18.44 41.1419 20.2C41.1419 21.9067 40.7819 23.4667 40.0619 24.88C39.3419 26.2667 38.3552 27.3733 37.1019 28.2C35.8752 29.0267 34.4619 29.44 32.8619 29.44C31.7419 29.44 30.7152 29.2133 29.7819 28.76C28.8485 28.28 28.0752 27.7467 27.4619 27.16V35.36C27.4619 36.56 27.5419 37.4133 27.7019 37.92C27.8619 38.4533 28.1419 38.7867 28.5419 38.92C28.9685 39.08 29.5685 39.2133 30.3419 39.32L30.9819 39.4V40.32L26.0619 40.2L21.1419 40.32ZM32.5419 12.04C31.4485 12.04 30.4752 12.3067 29.6219 12.84C28.7952 13.3467 28.0752 13.9733 27.4619 14.72V25.52C27.9152 26.2133 28.5952 26.84 29.5019 27.4C30.4085 27.96 31.4085 28.24 32.5019 28.24C33.7285 28.24 34.7419 27.8933 35.5419 27.2C36.3419 26.48 36.9419 25.52 37.3419 24.32C37.7419 23.0933 37.9419 21.72 37.9419 20.2C37.9419 18.6533 37.7419 17.2667 37.3419 16.04C36.9419 14.8133 36.3419 13.84 35.5419 13.12C34.7685 12.4 33.7685 12.04 32.5419 12.04ZM53.5209 29.44C51.7609 29.44 50.2276 29.0667 48.9209 28.32C47.6143 27.5467 46.5876 26.4933 45.8409 25.16C45.1209 23.8 44.7609 22.2533 44.7609 20.52C44.7609 18.6533 45.1609 17 45.9609 15.56C46.7609 14.0933 47.8276 12.9467 49.1609 12.12C50.5209 11.2667 52.0143 10.84 53.6409 10.84C55.6943 10.84 57.2943 11.4933 58.4409 12.8C59.6143 14.1067 60.2009 15.8267 60.2009 17.96C60.2009 18.28 60.1876 18.5467 60.1609 18.76C60.1343 18.9733 60.1076 19.12 60.0809 19.2H48.0009C47.9743 19.5733 47.9609 19.9467 47.9609 20.32C47.9609 21.7333 48.1876 23.0533 48.6409 24.28C49.0943 25.48 49.7743 26.44 50.6809 27.16C51.6143 27.88 52.7476 28.24 54.0809 28.24C55.3343 28.24 56.4409 27.8933 57.4009 27.2C58.3876 26.48 59.1476 25.4267 59.6809 24.04L60.6409 24.4C59.5209 27.76 57.1476 29.44 53.5209 29.44ZM53.6409 11.84C51.9876 11.84 50.6943 12.4267 49.7609 13.6C48.8543 14.7733 48.2943 16.3333 48.0809 18.28H53.1609C54.3609 18.28 55.2676 18.1467 55.8809 17.88C56.5209 17.5867 56.9476 17.24 57.1609 16.84C57.4009 16.4133 57.5209 16 57.5209 15.6C57.5209 14.4267 57.1209 13.5067 56.3209 12.84C55.5209 12.1733 54.6276 11.84 53.6409 11.84ZM72.5834 29.44C70.8234 29.44 69.2901 29.0667 67.9834 28.32C66.6768 27.5467 65.6501 26.4933 64.9034 25.16C64.1834 23.8 63.8234 22.2533 63.8234 20.52C63.8234 18.6533 64.2234 17 65.0234 15.56C65.8234 14.0933 66.8901 12.9467 68.2234 12.12C69.5834 11.2667 71.0768 10.84 72.7034 10.84C74.7568 10.84 76.3568 11.4933 77.5034 12.8C78.6768 14.1067 79.2634 15.8267 79.2634 17.96C79.2634 18.28 79.2501 18.5467 79.2234 18.76C79.1968 18.9733 79.1701 19.12 79.1434 19.2H67.0634C67.0368 19.5733 67.0234 19.9467 67.0234 20.32C67.0234 21.7333 67.2501 23.0533 67.7034 24.28C68.1568 25.48 68.8368 26.44 69.7434 27.16C70.6768 27.88 71.8101 28.24 73.1434 28.24C74.3968 28.24 75.5034 27.8933 76.4634 27.2C77.4501 26.48 78.2101 25.4267 78.7434 24.04L79.7034 24.4C78.5834 27.76 76.2101 29.44 72.5834 29.44ZM72.7034 11.84C71.0501 11.84 69.7568 12.4267 68.8234 13.6C67.9168 14.7733 67.3568 16.3333 67.1434 18.28H72.2234C73.4234 18.28 74.3301 18.1467 74.9434 17.88C75.5834 17.5867 76.0101 17.24 76.2234 16.84C76.4634 16.4133 76.5834 16 76.5834 15.6C76.5834 14.4267 76.1834 13.5067 75.3834 12.84C74.5834 12.1733 73.6901 11.84 72.7034 11.84ZM91.0059 29.44C89.4859 29.44 88.1126 29.0267 86.8859 28.2C85.6593 27.3733 84.6859 26.2533 83.9659 24.84C83.2459 23.4 82.8859 21.8133 82.8859 20.08C82.8859 18.3467 83.2459 16.7867 83.9659 15.4C84.6859 14.0133 85.6726 12.9067 86.9259 12.08C88.1793 11.2533 89.5926 10.84 91.1659 10.84C92.2859 10.84 93.3126 11.08 94.2459 11.56C95.1793 12.0133 95.9526 12.5333 96.5659 13.12V4.64C96.5659 3.25333 96.2726 2.37333 95.6859 2C95.1259 1.6 94.3393 1.4 93.3259 1.4H93.0459V0.479998C94.1393 0.479998 95.1926 0.453331 96.2059 0.399999C97.2193 0.319998 98.2726 0.186665 99.3659 -9.53674e-07V24.64C99.3659 26.1333 99.6459 27.08 100.206 27.48C100.793 27.88 101.619 28.08 102.686 28.08V29H101.046C100.459 29 99.8859 29.0133 99.3259 29.04C98.7659 29.0933 98.1393 29.1867 97.4459 29.32L96.9259 26.52C96.2059 27.3733 95.3393 28.08 94.3259 28.64C93.3393 29.1733 92.2326 29.44 91.0059 29.44ZM86.0859 20.08C86.0859 21.6267 86.2726 23.0133 86.6459 24.24C87.0459 25.4667 87.6326 26.44 88.4059 27.16C89.2059 27.88 90.2059 28.24 91.4059 28.24C92.5526 28.24 93.5393 27.9867 94.3659 27.48C95.2193 26.9467 95.9526 26.3067 96.5659 25.56V14.76C96.1126 14.0667 95.4326 13.44 94.5259 12.88C93.6193 12.32 92.6193 12.04 91.5259 12.04C90.2993 12.04 89.2859 12.4 88.4859 13.12C87.6859 13.8133 87.0859 14.7733 86.6859 16C86.2859 17.2 86.0859 18.56 86.0859 20.08Z" fill="black"/>
</svg>
