<svg width="1440" height="1024" viewBox="0 0 1440 1024" fill="none" xmlns="http://www.w3.org/2000/svg">
<rect width="1440" height="1024" fill="white"/>
<path d="M99 915.5H1362V130H99V915.5Z" stroke="#8D8282" stroke-width="5"/>
<path d="M78 894.5H1341V109H78V894.5Z" stroke="#8D8282" stroke-width="5"/>
<path d="M619.92 245.216V243.416L620.568 243.344C622.248 243.104 623.616 242.768 624.672 242.336C625.776 241.904 626.712 241.208 627.48 240.248C628.296 239.24 629.064 237.872 629.784 236.144L647.208 193.88H649.656L666.648 236.144C667.608 238.496 668.64 240.224 669.744 241.328C670.848 242.432 672.36 243.08 674.28 243.272L675.72 243.416V245.216L666.792 245L655.272 245.216V243.416L656.712 243.272C658.392 243.08 659.592 242.72 660.312 242.192C661.032 241.664 661.392 240.92 661.392 239.96C661.392 239 661.056 237.704 660.384 236.072L656.64 226.712H636.336L632.448 236.072C632.112 236.936 631.824 237.728 631.584 238.448C631.344 239.12 631.224 239.72 631.224 240.248C631.224 241.16 631.608 241.856 632.376 242.336C633.192 242.816 634.512 243.128 636.336 243.272L637.776 243.416V245.216L628.632 245L619.92 245.216ZM637.272 224.408H655.776L646.704 201.584L637.272 224.408ZM681.704 245.792V201.152C681.704 198.656 681.176 197.072 680.12 196.4C679.112 195.68 677.696 195.32 675.872 195.32H675.368V193.664C677.336 193.664 679.232 193.616 681.056 193.52C682.88 193.376 684.776 193.136 686.744 192.8V216.848C688.04 215.456 689.528 214.352 691.208 213.536C692.888 212.72 694.736 212.312 696.752 212.312C699.536 212.312 702.008 213.056 704.168 214.544C706.376 216.032 708.128 218.048 709.424 220.592C710.72 223.136 711.368 225.992 711.368 229.16C711.368 232.232 710.72 235.04 709.424 237.584C708.128 240.08 706.352 242.072 704.096 243.56C701.888 245.048 699.344 245.792 696.464 245.792C694.448 245.792 692.576 245.36 690.848 244.496C689.12 243.632 687.728 242.648 686.672 241.544L682.856 245.792H681.704ZM696.032 214.472C693.968 214.472 692.168 214.952 690.632 215.912C689.144 216.824 687.848 217.952 686.744 219.296V238.736C687.56 239.984 688.784 241.112 690.416 242.12C692.048 243.128 693.848 243.632 695.816 243.632C698.024 243.632 699.848 243.008 701.288 241.76C702.728 240.464 703.808 238.736 704.528 236.576C705.248 234.368 705.608 231.896 705.608 229.16C705.608 226.376 705.248 223.88 704.528 221.672C703.856 219.464 702.8 217.712 701.36 216.416C699.968 215.12 698.192 214.472 696.032 214.472ZM734.386 245.792C731.314 245.792 728.506 245.048 725.962 243.56C723.466 242.072 721.474 240.08 719.986 237.584C718.546 235.04 717.826 232.232 717.826 229.16C717.826 225.992 718.546 223.136 719.986 220.592C721.474 218.048 723.466 216.032 725.962 214.544C728.506 213.056 731.314 212.312 734.386 212.312C737.506 212.312 740.314 213.056 742.81 214.544C745.306 216.032 747.274 218.048 748.714 220.592C750.202 223.136 750.946 225.992 750.946 229.16C750.946 232.232 750.202 235.04 748.714 237.584C747.274 240.08 745.306 242.072 742.81 243.56C740.314 245.048 737.506 245.792 734.386 245.792ZM734.386 243.992C736.978 243.992 739.066 243.344 740.65 242.048C742.234 240.704 743.386 238.928 744.106 236.72C744.826 234.464 745.186 231.944 745.186 229.16C745.186 226.28 744.826 223.712 744.106 221.456C743.386 219.2 742.234 217.424 740.65 216.128C739.066 214.784 736.978 214.112 734.386 214.112C731.794 214.112 729.706 214.784 728.122 216.128C726.538 217.424 725.386 219.2 724.666 221.456C723.946 223.712 723.586 226.28 723.586 229.16C723.586 231.944 723.946 234.464 724.666 236.72C725.386 238.928 726.538 240.704 728.122 242.048C729.706 243.344 731.794 243.992 734.386 243.992ZM771.308 245.792C768.188 245.792 765.716 245.024 763.892 243.488C762.116 241.904 761.228 239.576 761.228 236.504V222.536C761.228 220.376 761.084 218.84 760.796 217.928C760.508 216.968 759.98 216.344 759.212 216.056C758.492 215.768 757.436 215.552 756.044 215.408L754.892 215.264V213.608L763.748 213.824L766.268 213.752V236.216C766.268 238.568 766.868 240.368 768.068 241.616C769.268 242.864 770.9 243.488 772.964 243.488C774.74 243.488 776.3 243.104 777.644 242.336C779.036 241.52 780.212 240.488 781.172 239.24C782.18 237.992 782.972 236.72 783.548 235.424V222.536C783.548 220.376 783.404 218.84 783.116 217.928C782.828 216.968 782.3 216.344 781.532 216.056C780.812 215.768 779.756 215.552 778.364 215.408L777.212 215.264V213.608L786.068 213.824L788.588 213.752V237.008C788.588 238.832 788.804 240.2 789.236 241.112C789.716 241.976 790.388 242.552 791.252 242.84C792.164 243.128 793.268 243.272 794.564 243.272V244.928C792.596 244.928 790.796 244.952 789.164 245C787.532 245.048 785.66 245.264 783.548 245.648V239.024C783.068 239.792 782.564 240.464 782.036 241.04C780.788 242.432 779.276 243.584 777.5 244.496C775.724 245.36 773.66 245.792 771.308 245.792ZM810.01 245.792C807.658 245.792 805.738 245.096 804.25 243.704C802.81 242.264 802.09 239.936 802.09 236.72V215.408H796.762V213.608L798.706 213.464C800.674 213.32 802.162 212.528 803.17 211.088C804.226 209.6 804.922 207.536 805.258 204.896H807.13V213.608H816.346V215.408H807.13V237.008C807.13 241.232 808.618 243.344 811.594 243.344C812.842 243.344 813.85 242.936 814.618 242.12C815.386 241.256 816.082 240.2 816.706 238.952L818.29 239.744C818.002 240.464 817.642 241.136 817.21 241.76C816.826 242.336 816.442 242.84 816.058 243.272C815.242 244.184 814.306 244.832 813.25 245.216C812.242 245.6 811.162 245.792 810.01 245.792Z" fill="black"/>
<circle cx="652.5" cy="793.5" r="17.5" fill="#8D8282"/>
<circle cx="719.5" cy="793.5" r="17.5" stroke="#8D8282" stroke-width="3"/>
<circle cx="786.5" cy="793.5" r="17.5" stroke="#8D8282" stroke-width="3"/>
<path d="M393.6 505.44C390.88 505.44 388.533 504.813 386.56 503.56C384.613 502.307 383.107 500.587 382.04 498.4C381 496.187 380.48 493.653 380.48 490.8C380.48 488.667 380.827 486.707 381.52 484.92C382.213 483.133 383.173 481.573 384.4 480.24C385.627 478.907 387.04 477.88 388.64 477.16C390.267 476.413 392 476.04 393.84 476.04C395.467 476.04 396.8 476.227 397.84 476.6C398.907 476.947 399.707 477.253 400.24 477.52C400.587 477.68 400.907 477.827 401.2 477.96C401.493 478.067 401.693 478.12 401.8 478.12C402.093 478.12 402.333 478.013 402.52 477.8C402.707 477.56 402.827 477.16 402.88 476.6H403.88L403.8 481.28L403.88 485.96H402.88C402.48 483.187 401.52 481.04 400 479.52C398.48 478 396.467 477.24 393.96 477.24C392.2 477.24 390.72 477.6 389.52 478.32C388.32 479.013 387.36 479.987 386.64 481.24C385.92 482.467 385.387 483.907 385.04 485.56C384.72 487.187 384.56 488.933 384.56 490.8C384.56 493.6 384.853 496 385.44 498C386.053 500 387.04 501.547 388.4 502.64C389.787 503.707 391.64 504.24 393.96 504.24C395.693 504.24 397.2 503.84 398.48 503.04C399.76 502.24 400.787 501.173 401.56 499.84C402.36 498.507 402.84 497.04 403 495.44H403.96L403.88 500.32L404 505H403.04L402.92 504.56C402.813 504.213 402.68 503.893 402.52 503.6C402.387 503.28 402.147 503.12 401.8 503.12C401.613 503.12 401.387 503.173 401.12 503.28C400.88 503.387 400.6 503.52 400.28 503.68C399.587 504.027 398.68 504.413 397.56 504.84C396.44 505.24 395.12 505.44 393.6 505.44ZM407.389 505.12V504.2L408.029 504.12C408.802 504.013 409.389 503.893 409.789 503.76C410.216 503.6 410.509 503.267 410.669 502.76C410.829 502.227 410.909 501.36 410.909 500.16V480.64C410.909 479.253 410.616 478.373 410.029 478C409.469 477.6 408.682 477.4 407.669 477.4H407.389V476.48C408.482 476.48 409.536 476.453 410.549 476.4C411.562 476.32 412.616 476.187 413.709 476V490.32C414.322 489.413 415.189 488.613 416.309 487.92C417.429 487.2 418.736 486.84 420.229 486.84C422.042 486.84 423.469 487.307 424.509 488.24C425.576 489.147 426.109 490.453 426.109 492.16V500.16C426.109 501.36 426.189 502.227 426.349 502.76C426.509 503.267 426.789 503.6 427.189 503.76C427.616 503.893 428.216 504.013 428.989 504.12L429.629 504.2V505.12L424.709 505L419.789 505.12V504.2L420.429 504.12C421.202 504.013 421.789 503.893 422.189 503.76C422.616 503.6 422.909 503.267 423.069 502.76C423.229 502.227 423.309 501.36 423.309 500.16V492.16C423.309 490.827 422.962 489.813 422.269 489.12C421.576 488.4 420.602 488.04 419.349 488.04C418.389 488.04 417.522 488.267 416.749 488.72C415.976 489.147 415.336 489.68 414.829 490.32C414.322 490.96 413.949 491.573 413.709 492.16V500.16C413.709 501.36 413.789 502.227 413.949 502.76C414.109 503.267 414.389 503.6 414.789 503.76C415.216 503.893 415.816 504.013 416.589 504.12L417.229 504.2V505.12L412.309 505L407.389 505.12ZM441.07 505.44C439.364 505.44 437.804 505.027 436.39 504.2C435.004 503.373 433.897 502.267 433.07 500.88C432.27 499.467 431.87 497.907 431.87 496.2C431.87 494.44 432.27 492.853 433.07 491.44C433.897 490.027 435.004 488.907 436.39 488.08C437.804 487.253 439.364 486.84 441.07 486.84C442.804 486.84 444.364 487.253 445.75 488.08C447.137 488.907 448.23 490.027 449.03 491.44C449.857 492.853 450.27 494.44 450.27 496.2C450.27 497.907 449.857 499.467 449.03 500.88C448.23 502.267 447.137 503.373 445.75 504.2C444.364 505.027 442.804 505.44 441.07 505.44ZM441.07 504.44C442.51 504.44 443.67 504.08 444.55 503.36C445.43 502.613 446.07 501.627 446.47 500.4C446.87 499.147 447.07 497.747 447.07 496.2C447.07 494.6 446.87 493.173 446.47 491.92C446.07 490.667 445.43 489.68 444.55 488.96C443.67 488.213 442.51 487.84 441.07 487.84C439.63 487.84 438.47 488.213 437.59 488.96C436.71 489.68 436.07 490.667 435.67 491.92C435.27 493.173 435.07 494.6 435.07 496.2C435.07 497.747 435.27 499.147 435.67 500.4C436.07 501.627 436.71 502.613 437.59 503.36C438.47 504.08 439.63 504.44 441.07 504.44ZM463.063 505.44C461.356 505.44 459.796 505.027 458.383 504.2C456.996 503.373 455.889 502.267 455.063 500.88C454.263 499.467 453.863 497.907 453.863 496.2C453.863 494.44 454.263 492.853 455.063 491.44C455.889 490.027 456.996 488.907 458.383 488.08C459.796 487.253 461.356 486.84 463.063 486.84C464.796 486.84 466.356 487.253 467.743 488.08C469.129 488.907 470.223 490.027 471.023 491.44C471.849 492.853 472.262 494.44 472.262 496.2C472.262 497.907 471.849 499.467 471.023 500.88C470.223 502.267 469.129 503.373 467.743 504.2C466.356 505.027 464.796 505.44 463.063 505.44ZM463.063 504.44C464.503 504.44 465.663 504.08 466.543 503.36C467.423 502.613 468.063 501.627 468.463 500.4C468.863 499.147 469.063 497.747 469.063 496.2C469.063 494.6 468.863 493.173 468.463 491.92C468.063 490.667 467.423 489.68 466.543 488.96C465.663 488.213 464.503 487.84 463.063 487.84C461.623 487.84 460.463 488.213 459.583 488.96C458.703 489.68 458.063 490.667 457.663 491.92C457.263 493.173 457.062 494.6 457.062 496.2C457.062 497.747 457.263 499.147 457.663 500.4C458.063 501.627 458.703 502.613 459.583 503.36C460.463 504.08 461.623 504.44 463.063 504.44ZM482.535 505.44C481.521 505.44 480.655 505.32 479.935 505.08C479.241 504.867 478.695 504.667 478.295 504.48C477.868 504.267 477.601 504.16 477.495 504.16C477.388 504.16 477.295 504.213 477.215 504.32C477.161 504.4 477.095 504.627 477.015 505H476.095L476.255 502.36L476.375 498.96H477.255L477.295 499.64C477.348 500.387 477.588 501.133 478.015 501.88C478.468 502.627 479.081 503.253 479.855 503.76C480.628 504.267 481.521 504.52 482.535 504.52C483.628 504.52 484.508 504.24 485.175 503.68C485.841 503.12 486.175 502.347 486.175 501.36C486.175 500.507 485.828 499.787 485.135 499.2C484.468 498.613 483.535 498.093 482.335 497.64L480.895 497.08C479.508 496.547 478.455 495.88 477.735 495.08C477.041 494.28 476.695 493.253 476.695 492C476.695 490.933 476.935 490.027 477.415 489.28C477.921 488.507 478.575 487.907 479.375 487.48C480.201 487.053 481.081 486.84 482.015 486.84C482.681 486.84 483.241 486.92 483.695 487.08C484.175 487.24 484.575 487.4 484.895 487.56C485.161 487.693 485.388 487.76 485.575 487.76C485.841 487.76 486.055 487.48 486.215 486.92L487.095 486.96L486.935 489.56V492.36H486.015C485.828 491.107 485.401 490.027 484.735 489.12C484.068 488.187 483.108 487.72 481.855 487.72C480.975 487.72 480.228 488 479.615 488.56C479.028 489.12 478.735 489.827 478.735 490.68C478.735 491.507 479.041 492.2 479.655 492.76C480.295 493.293 481.161 493.773 482.255 494.2L483.815 494.8C485.441 495.413 486.561 496.16 487.175 497.04C487.815 497.893 488.135 498.92 488.135 500.12C488.135 501.533 487.655 502.773 486.695 503.84C485.735 504.907 484.348 505.44 482.535 505.44ZM500.318 505.44C498.558 505.44 497.024 505.067 495.718 504.32C494.411 503.547 493.384 502.493 492.638 501.16C491.918 499.8 491.558 498.253 491.558 496.52C491.558 494.653 491.958 493 492.758 491.56C493.558 490.093 494.624 488.947 495.958 488.12C497.318 487.267 498.811 486.84 500.438 486.84C502.491 486.84 504.091 487.493 505.238 488.8C506.411 490.107 506.998 491.827 506.998 493.96C506.998 494.28 506.984 494.547 506.958 494.76C506.931 494.973 506.904 495.12 506.878 495.2H494.798C494.771 495.573 494.758 495.947 494.758 496.32C494.758 497.733 494.984 499.053 495.438 500.28C495.891 501.48 496.571 502.44 497.478 503.16C498.411 503.88 499.544 504.24 500.878 504.24C502.131 504.24 503.238 503.893 504.198 503.2C505.184 502.48 505.944 501.427 506.478 500.04L507.438 500.4C506.318 503.76 503.944 505.44 500.318 505.44ZM500.438 487.84C498.784 487.84 497.491 488.427 496.558 489.6C495.651 490.773 495.091 492.333 494.878 494.28H499.958C501.158 494.28 502.064 494.147 502.678 493.88C503.318 493.587 503.744 493.24 503.958 492.84C504.198 492.413 504.318 492 504.318 491.6C504.318 490.427 503.918 489.507 503.118 488.84C502.318 488.173 501.424 487.84 500.438 487.84ZM520.887 516.76C519.981 516.76 519.301 516.533 518.847 516.08C518.394 515.653 518.167 515.173 518.167 514.64C518.167 514.107 518.367 513.653 518.767 513.28C519.141 512.933 519.621 512.76 520.207 512.76C520.581 512.76 520.874 512.813 521.087 512.92C521.301 513.053 521.501 513.187 521.687 513.32C521.874 513.453 522.087 513.587 522.327 513.72C522.567 513.88 522.847 513.96 523.167 513.96C523.647 513.96 524.141 513.773 524.647 513.4C525.181 513.027 525.727 512.253 526.287 511.08L528.927 505.4L522.287 490.84C522.021 490.227 521.727 489.72 521.407 489.32C521.087 488.92 520.594 488.68 519.927 488.6L519.007 488.48V487.56L523.167 487.68L527.207 487.56V488.48L526.647 488.56C525.527 488.72 524.967 489.133 524.967 489.8C524.967 490.12 525.114 490.6 525.407 491.24L530.407 502.2L535.407 491.44C535.701 490.773 535.847 490.253 535.847 489.88C535.847 489.16 535.194 488.72 533.887 488.56L533.247 488.48V487.56L537.087 487.68L540.287 487.56V488.48L539.687 488.56C538.701 488.693 537.981 489.053 537.527 489.64C537.101 490.227 536.701 490.947 536.327 491.8L527.287 511.52C526.861 512.427 526.354 513.28 525.767 514.08C525.207 514.88 524.527 515.52 523.727 516C522.954 516.507 522.007 516.76 520.887 516.76ZM550.406 505.44C548.7 505.44 547.14 505.027 545.726 504.2C544.34 503.373 543.233 502.267 542.406 500.88C541.606 499.467 541.206 497.907 541.206 496.2C541.206 494.44 541.606 492.853 542.406 491.44C543.233 490.027 544.34 488.907 545.726 488.08C547.14 487.253 548.7 486.84 550.406 486.84C552.14 486.84 553.7 487.253 555.086 488.08C556.473 488.907 557.566 490.027 558.366 491.44C559.193 492.853 559.606 494.44 559.606 496.2C559.606 497.907 559.193 499.467 558.366 500.88C557.566 502.267 556.473 503.373 555.086 504.2C553.7 505.027 552.14 505.44 550.406 505.44ZM550.406 504.44C551.846 504.44 553.006 504.08 553.886 503.36C554.766 502.613 555.406 501.627 555.806 500.4C556.206 499.147 556.406 497.747 556.406 496.2C556.406 494.6 556.206 493.173 555.806 491.92C555.406 490.667 554.766 489.68 553.886 488.96C553.006 488.213 551.846 487.84 550.406 487.84C548.966 487.84 547.806 488.213 546.926 488.96C546.046 489.68 545.406 490.667 545.006 491.92C544.606 493.173 544.406 494.6 544.406 496.2C544.406 497.747 544.606 499.147 545.006 500.4C545.406 501.627 546.046 502.613 546.926 503.36C547.806 504.08 548.966 504.44 550.406 504.44ZM570.918 505.44C569.185 505.44 567.812 505.013 566.798 504.16C565.812 503.28 565.318 501.987 565.318 500.28V492.52C565.318 491.32 565.238 490.467 565.078 489.96C564.918 489.427 564.625 489.08 564.198 488.92C563.798 488.76 563.212 488.64 562.438 488.56L561.798 488.48V487.56L566.718 487.68L568.118 487.64V500.12C568.118 501.427 568.452 502.427 569.118 503.12C569.785 503.813 570.692 504.16 571.838 504.16C572.825 504.16 573.692 503.947 574.438 503.52C575.212 503.067 575.865 502.493 576.398 501.8C576.958 501.107 577.398 500.4 577.718 499.68V492.52C577.718 491.32 577.638 490.467 577.478 489.96C577.318 489.427 577.025 489.08 576.598 488.92C576.198 488.76 575.612 488.64 574.838 488.56L574.198 488.48V487.56L579.118 487.68L580.518 487.64V500.56C580.518 501.573 580.638 502.333 580.878 502.84C581.145 503.32 581.518 503.64 581.998 503.8C582.505 503.96 583.118 504.04 583.838 504.04V504.96C582.745 504.96 581.745 504.973 580.838 505C579.932 505.027 578.892 505.147 577.718 505.36V501.68C577.452 502.107 577.172 502.48 576.878 502.8C576.185 503.573 575.345 504.213 574.358 504.72C573.372 505.2 572.225 505.44 570.918 505.44ZM585.37 505.12V504.2L586.01 504.12C586.783 504.013 587.37 503.893 587.77 503.76C588.197 503.6 588.49 503.267 588.65 502.76C588.81 502.227 588.89 501.36 588.89 500.16V491.84C588.89 490.8 588.743 490.04 588.45 489.56C588.183 489.08 587.783 488.787 587.25 488.68C586.717 488.547 586.09 488.48 585.37 488.48V487.56C586.463 487.56 587.517 487.52 588.53 487.44C589.543 487.36 590.597 487.24 591.69 487.08L591.25 491.68H591.41C591.997 489.893 592.717 488.64 593.57 487.92C594.423 487.2 595.343 486.84 596.33 486.84C597.45 486.84 598.197 487.12 598.57 487.68C598.943 488.213 599.13 488.733 599.13 489.24C599.13 489.827 598.957 490.307 598.61 490.68C598.263 491.053 597.797 491.24 597.21 491.24C596.65 491.24 596.223 491.107 595.93 490.84C595.637 490.573 595.49 490.267 595.49 489.92C595.49 489.653 595.517 489.4 595.57 489.16C595.65 488.92 595.69 488.733 595.69 488.6C595.69 488.333 595.503 488.2 595.13 488.2C594.757 488.2 594.357 488.373 593.93 488.72C593.53 489.067 593.183 489.547 592.89 490.16C592.65 490.667 592.423 491.227 592.21 491.84C591.997 492.453 591.823 493.12 591.69 493.84V500.16C591.69 501.36 591.77 502.227 591.93 502.76C592.09 503.267 592.37 503.6 592.77 503.76C593.197 503.893 593.797 504.013 594.57 504.12L595.21 504.2V505.12L590.29 505L585.37 505.12ZM618.941 505.44C617.928 505.44 617.061 505.32 616.341 505.08C615.648 504.867 615.101 504.667 614.701 504.48C614.274 504.267 614.008 504.16 613.901 504.16C613.794 504.16 613.701 504.213 613.621 504.32C613.568 504.4 613.501 504.627 613.421 505H612.501L612.661 502.36L612.781 498.96H613.661L613.701 499.64C613.754 500.387 613.994 501.133 614.421 501.88C614.874 502.627 615.488 503.253 616.261 503.76C617.034 504.267 617.928 504.52 618.941 504.52C620.034 504.52 620.914 504.24 621.581 503.68C622.248 503.12 622.581 502.347 622.581 501.36C622.581 500.507 622.234 499.787 621.541 499.2C620.874 498.613 619.941 498.093 618.741 497.64L617.301 497.08C615.914 496.547 614.861 495.88 614.141 495.08C613.448 494.28 613.101 493.253 613.101 492C613.101 490.933 613.341 490.027 613.821 489.28C614.328 488.507 614.981 487.907 615.781 487.48C616.608 487.053 617.488 486.84 618.421 486.84C619.088 486.84 619.648 486.92 620.101 487.08C620.581 487.24 620.981 487.4 621.301 487.56C621.568 487.693 621.794 487.76 621.981 487.76C622.248 487.76 622.461 487.48 622.621 486.92L623.501 486.96L623.341 489.56V492.36H622.421C622.234 491.107 621.808 490.027 621.141 489.12C620.474 488.187 619.514 487.72 618.261 487.72C617.381 487.72 616.634 488 616.021 488.56C615.434 489.12 615.141 489.827 615.141 490.68C615.141 491.507 615.448 492.2 616.061 492.76C616.701 493.293 617.568 493.773 618.661 494.2L620.221 494.8C621.848 495.413 622.968 496.16 623.581 497.04C624.221 497.893 624.541 498.92 624.541 500.12C624.541 501.533 624.061 502.773 623.101 503.84C622.141 504.907 620.754 505.44 618.941 505.44ZM626.884 516.32V515.4L627.524 515.32C628.297 515.213 628.884 515.08 629.284 514.92C629.711 514.787 630.004 514.453 630.164 513.92C630.324 513.413 630.404 512.56 630.404 511.36V491.6C630.404 490.64 630.257 489.947 629.964 489.52C629.697 489.067 629.297 488.787 628.764 488.68C628.231 488.547 627.604 488.48 626.884 488.48V487.56C627.977 487.56 629.031 487.507 630.044 487.4C631.057 487.293 632.111 487.147 633.204 486.96L632.924 489.68C633.671 488.827 634.524 488.147 635.484 487.64C636.471 487.107 637.564 486.84 638.764 486.84C640.311 486.84 641.684 487.253 642.884 488.08C644.111 488.907 645.084 490.027 645.804 491.44C646.524 492.853 646.884 494.44 646.884 496.2C646.884 497.907 646.524 499.467 645.804 500.88C645.084 502.267 644.097 503.373 642.844 504.2C641.617 505.027 640.204 505.44 638.604 505.44C637.484 505.44 636.457 505.213 635.524 504.76C634.591 504.28 633.817 503.747 633.204 503.16V511.36C633.204 512.56 633.284 513.413 633.444 513.92C633.604 514.453 633.884 514.787 634.284 514.92C634.711 515.08 635.311 515.213 636.084 515.32L636.724 515.4V516.32L631.804 516.2L626.884 516.32ZM638.284 488.04C637.191 488.04 636.217 488.307 635.364 488.84C634.537 489.347 633.817 489.973 633.204 490.72V501.52C633.657 502.213 634.337 502.84 635.244 503.4C636.151 503.96 637.151 504.24 638.244 504.24C639.471 504.24 640.484 503.893 641.284 503.2C642.084 502.48 642.684 501.52 643.084 500.32C643.484 499.093 643.684 497.72 643.684 496.2C643.684 494.653 643.484 493.267 643.084 492.04C642.684 490.813 642.084 489.84 641.284 489.12C640.511 488.4 639.511 488.04 638.284 488.04ZM659.263 505.44C657.503 505.44 655.97 505.067 654.663 504.32C653.356 503.547 652.33 502.493 651.583 501.16C650.863 499.8 650.503 498.253 650.503 496.52C650.503 494.653 650.903 493 651.703 491.56C652.503 490.093 653.57 488.947 654.903 488.12C656.263 487.267 657.756 486.84 659.383 486.84C661.436 486.84 663.036 487.493 664.183 488.8C665.356 490.107 665.943 491.827 665.943 493.96C665.943 494.28 665.93 494.547 665.903 494.76C665.876 494.973 665.85 495.12 665.823 495.2H653.743C653.716 495.573 653.703 495.947 653.703 496.32C653.703 497.733 653.93 499.053 654.383 500.28C654.836 501.48 655.516 502.44 656.423 503.16C657.356 503.88 658.49 504.24 659.823 504.24C661.076 504.24 662.183 503.893 663.143 503.2C664.13 502.48 664.89 501.427 665.423 500.04L666.383 500.4C665.263 503.76 662.89 505.44 659.263 505.44ZM659.383 487.84C657.73 487.84 656.436 488.427 655.503 489.6C654.596 490.773 654.036 492.333 653.823 494.28H658.903C660.103 494.28 661.01 494.147 661.623 493.88C662.263 493.587 662.69 493.24 662.903 492.84C663.143 492.413 663.263 492 663.263 491.6C663.263 490.427 662.863 489.507 662.063 488.84C661.263 488.173 660.37 487.84 659.383 487.84ZM678.326 505.44C676.566 505.44 675.032 505.067 673.726 504.32C672.419 503.547 671.392 502.493 670.646 501.16C669.926 499.8 669.566 498.253 669.566 496.52C669.566 494.653 669.966 493 670.766 491.56C671.566 490.093 672.632 488.947 673.966 488.12C675.326 487.267 676.819 486.84 678.446 486.84C680.499 486.84 682.099 487.493 683.246 488.8C684.419 490.107 685.006 491.827 685.006 493.96C685.006 494.28 684.992 494.547 684.966 494.76C684.939 494.973 684.912 495.12 684.886 495.2H672.806C672.779 495.573 672.766 495.947 672.766 496.32C672.766 497.733 672.992 499.053 673.446 500.28C673.899 501.48 674.579 502.44 675.486 503.16C676.419 503.88 677.552 504.24 678.886 504.24C680.139 504.24 681.246 503.893 682.206 503.2C683.192 502.48 683.952 501.427 684.486 500.04L685.446 500.4C684.326 503.76 681.952 505.44 678.326 505.44ZM678.446 487.84C676.792 487.84 675.499 488.427 674.566 489.6C673.659 490.773 673.099 492.333 672.886 494.28H677.966C679.166 494.28 680.072 494.147 680.686 493.88C681.326 493.587 681.752 493.24 681.966 492.84C682.206 492.413 682.326 492 682.326 491.6C682.326 490.427 681.926 489.507 681.126 488.84C680.326 488.173 679.432 487.84 678.446 487.84ZM696.748 505.44C695.228 505.44 693.855 505.027 692.628 504.2C691.401 503.373 690.428 502.253 689.708 500.84C688.988 499.4 688.628 497.813 688.628 496.08C688.628 494.347 688.988 492.787 689.708 491.4C690.428 490.013 691.415 488.907 692.668 488.08C693.921 487.253 695.335 486.84 696.908 486.84C698.028 486.84 699.055 487.08 699.988 487.56C700.921 488.013 701.695 488.533 702.308 489.12V480.64C702.308 479.253 702.015 478.373 701.428 478C700.868 477.6 700.081 477.4 699.068 477.4H698.788V476.48C699.881 476.48 700.935 476.453 701.948 476.4C702.961 476.32 704.015 476.187 705.108 476V500.64C705.108 502.133 705.388 503.08 705.948 503.48C706.535 503.88 707.361 504.08 708.428 504.08V505H706.788C706.201 505 705.628 505.013 705.068 505.04C704.508 505.093 703.881 505.187 703.188 505.32L702.668 502.52C701.948 503.373 701.081 504.08 700.068 504.64C699.081 505.173 697.975 505.44 696.748 505.44ZM691.828 496.08C691.828 497.627 692.015 499.013 692.388 500.24C692.788 501.467 693.375 502.44 694.148 503.16C694.948 503.88 695.948 504.24 697.148 504.24C698.295 504.24 699.281 503.987 700.108 503.48C700.961 502.947 701.695 502.307 702.308 501.56V490.76C701.855 490.067 701.175 489.44 700.268 488.88C699.361 488.32 698.361 488.04 697.268 488.04C696.041 488.04 695.028 488.4 694.228 489.12C693.428 489.813 692.828 490.773 692.428 492C692.028 493.2 691.828 494.56 691.828 496.08ZM725.612 505.44C724.332 505.44 723.265 505.12 722.412 504.48C721.585 503.813 721.172 502.893 721.172 501.72C721.172 500.547 721.692 499.507 722.732 498.6C723.772 497.667 724.985 496.827 726.372 496.08C727.412 495.493 728.452 494.987 729.492 494.56C730.532 494.133 731.425 493.773 732.172 493.48V492.2C732.172 490.733 731.892 489.64 731.332 488.92C730.799 488.2 729.772 487.84 728.252 487.84C727.532 487.84 726.825 487.933 726.132 488.12C725.439 488.307 725.092 488.653 725.092 489.16C725.092 489.267 725.105 489.387 725.132 489.52C725.185 489.653 725.225 489.787 725.252 489.92C725.385 490.267 725.452 490.627 725.452 491C725.452 491.507 725.265 491.907 724.892 492.2C724.545 492.467 724.119 492.6 723.612 492.6C723.132 492.6 722.732 492.427 722.412 492.08C722.092 491.707 721.932 491.267 721.932 490.76C721.932 489.8 722.292 489.04 723.012 488.48C723.759 487.893 724.665 487.48 725.732 487.24C726.799 486.973 727.825 486.84 728.812 486.84C730.945 486.84 732.505 487.333 733.492 488.32C734.479 489.307 734.972 490.92 734.972 493.16V500.36C734.972 501.533 735.052 502.44 735.212 503.08C735.399 503.72 735.799 504.04 736.412 504.04C736.812 504.04 737.159 503.893 737.452 503.6C737.745 503.307 737.945 502.987 738.052 502.64L738.772 502.92C738.559 503.693 738.172 504.307 737.612 504.76C737.079 505.213 736.332 505.44 735.372 505.44C734.199 505.44 733.385 505.107 732.932 504.44C732.505 503.747 732.265 502.84 732.212 501.72C731.465 502.92 730.519 503.84 729.372 504.48C728.225 505.12 726.972 505.44 725.612 505.44ZM724.292 501.52C724.292 502.267 724.505 502.867 724.932 503.32C725.385 503.747 726.039 503.96 726.892 503.96C727.665 503.96 728.399 503.773 729.092 503.4C729.812 503.027 730.439 502.56 730.972 502C731.505 501.413 731.905 500.787 732.172 500.12V494.28C731.292 494.653 730.385 495.093 729.452 495.6C728.545 496.08 727.692 496.627 726.892 497.24C726.119 497.853 725.492 498.52 725.012 499.24C724.532 499.933 724.292 500.693 724.292 501.52ZM739.901 505.12V504.2L740.541 504.12C741.315 504.013 741.901 503.893 742.301 503.76C742.728 503.6 743.021 503.267 743.181 502.76C743.341 502.227 743.421 501.36 743.421 500.16V491.72C743.421 490.333 743.128 489.453 742.541 489.08C741.981 488.68 741.195 488.48 740.181 488.48H739.901V487.56C740.995 487.56 742.048 487.533 743.061 487.48C744.075 487.4 745.128 487.267 746.221 487.08V490.32C746.835 489.413 747.701 488.613 748.821 487.92C749.941 487.2 751.248 486.84 752.741 486.84C754.555 486.84 755.981 487.307 757.021 488.24C758.088 489.147 758.621 490.453 758.621 492.16V500.16C758.621 501.36 758.701 502.227 758.861 502.76C759.021 503.267 759.301 503.6 759.701 503.76C760.128 503.893 760.728 504.013 761.501 504.12L762.141 504.2V505.12L757.221 505L752.301 505.12V504.2L752.941 504.12C753.715 504.013 754.301 503.893 754.701 503.76C755.128 503.6 755.421 503.267 755.581 502.76C755.741 502.227 755.821 501.36 755.821 500.16V492.16C755.821 490.827 755.475 489.813 754.781 489.12C754.088 488.4 753.115 488.04 751.861 488.04C750.901 488.04 750.035 488.267 749.261 488.72C748.488 489.147 747.848 489.68 747.341 490.32C746.835 490.96 746.461 491.573 746.221 492.16V500.16C746.221 501.36 746.301 502.227 746.461 502.76C746.621 503.267 746.901 503.6 747.301 503.76C747.728 503.893 748.328 504.013 749.101 504.12L749.741 504.2V505.12L744.821 505L739.901 505.12ZM772.49 505.44C770.97 505.44 769.597 505.027 768.37 504.2C767.144 503.373 766.17 502.253 765.45 500.84C764.73 499.4 764.37 497.813 764.37 496.08C764.37 494.347 764.73 492.787 765.45 491.4C766.17 490.013 767.157 488.907 768.41 488.08C769.664 487.253 771.077 486.84 772.65 486.84C773.77 486.84 774.797 487.08 775.73 487.56C776.664 488.013 777.437 488.533 778.05 489.12V480.64C778.05 479.253 777.757 478.373 777.17 478C776.61 477.6 775.824 477.4 774.81 477.4H774.53V476.48C775.624 476.48 776.677 476.453 777.69 476.4C778.704 476.32 779.757 476.187 780.85 476V500.64C780.85 502.133 781.13 503.08 781.69 503.48C782.277 503.88 783.104 504.08 784.17 504.08V505H782.53C781.944 505 781.37 505.013 780.81 505.04C780.25 505.093 779.624 505.187 778.93 505.32L778.41 502.52C777.69 503.373 776.824 504.08 775.81 504.64C774.824 505.173 773.717 505.44 772.49 505.44ZM767.57 496.08C767.57 497.627 767.757 499.013 768.13 500.24C768.53 501.467 769.117 502.44 769.89 503.16C770.69 503.88 771.69 504.24 772.89 504.24C774.037 504.24 775.024 503.987 775.85 503.48C776.704 502.947 777.437 502.307 778.05 501.56V490.76C777.597 490.067 776.917 489.44 776.01 488.88C775.104 488.32 774.104 488.04 773.01 488.04C771.784 488.04 770.77 488.4 769.97 489.12C769.17 489.813 768.57 490.773 768.17 492C767.77 493.2 767.57 494.56 767.57 496.08ZM804.834 505.44C803.314 505.44 801.941 505.027 800.714 504.2C799.487 503.373 798.514 502.253 797.794 500.84C797.074 499.4 796.714 497.813 796.714 496.08C796.714 494.347 797.074 492.787 797.794 491.4C798.514 490.013 799.501 488.907 800.754 488.08C802.007 487.253 803.421 486.84 804.994 486.84C806.114 486.84 807.141 487.08 808.074 487.56C809.007 488.013 809.781 488.533 810.394 489.12V480.64C810.394 479.253 810.101 478.373 809.514 478C808.954 477.6 808.167 477.4 807.154 477.4H806.874V476.48C807.967 476.48 809.021 476.453 810.034 476.4C811.047 476.32 812.101 476.187 813.194 476V500.64C813.194 502.133 813.474 503.08 814.034 503.48C814.621 503.88 815.447 504.08 816.514 504.08V505H814.874C814.287 505 813.714 505.013 813.154 505.04C812.594 505.093 811.967 505.187 811.274 505.32L810.754 502.52C810.034 503.373 809.167 504.08 808.154 504.64C807.167 505.173 806.061 505.44 804.834 505.44ZM799.914 496.08C799.914 497.627 800.101 499.013 800.474 500.24C800.874 501.467 801.461 502.44 802.234 503.16C803.034 503.88 804.034 504.24 805.234 504.24C806.381 504.24 807.367 503.987 808.194 503.48C809.047 502.947 809.781 502.307 810.394 501.56V490.76C809.941 490.067 809.261 489.44 808.354 488.88C807.447 488.32 806.447 488.04 805.354 488.04C804.127 488.04 803.114 488.4 802.314 489.12C801.514 489.813 800.914 490.773 800.514 492C800.114 493.2 799.914 494.56 799.914 496.08ZM817.831 505.12V504.2L818.471 504.12C819.244 504.013 819.831 503.893 820.231 503.76C820.658 503.6 820.951 503.267 821.111 502.76C821.271 502.227 821.351 501.36 821.351 500.16V491.72C821.351 490.333 821.058 489.453 820.471 489.08C819.911 488.68 819.124 488.48 818.111 488.48H817.831V487.56C818.924 487.56 819.978 487.533 820.991 487.48C822.004 487.4 823.058 487.267 824.151 487.08V500.16C824.151 501.36 824.231 502.227 824.391 502.76C824.551 503.267 824.831 503.6 825.231 503.76C825.658 503.893 826.258 504.013 827.031 504.12L827.671 504.2V505.12L822.751 505L817.831 505.12ZM822.271 482.4C821.578 482.4 821.031 482.16 820.631 481.68C820.231 481.2 820.031 480.627 820.031 479.96C820.031 479.267 820.231 478.693 820.631 478.24C821.031 477.76 821.578 477.52 822.271 477.52C823.044 477.52 823.604 477.76 823.951 478.24C824.324 478.693 824.511 479.267 824.511 479.96C824.511 480.627 824.324 481.2 823.951 481.68C823.604 482.16 823.044 482.4 822.271 482.4ZM829.398 505.12V504.2L830.038 504.12C830.811 504.013 831.398 503.893 831.798 503.76C832.225 503.6 832.518 503.267 832.678 502.76C832.838 502.227 832.918 501.36 832.918 500.16V488.56H829.078V487.56H832.918V486.92C832.918 483.747 833.585 481.347 834.918 479.72C836.251 478.093 838.278 477.28 840.998 477.28C841.611 477.28 842.345 477.373 843.198 477.56C844.078 477.72 844.865 478.013 845.558 478.44C846.118 477.72 846.878 477.147 847.838 476.72C848.798 476.267 849.985 476.04 851.398 476.04C852.385 476.04 853.358 476.213 854.318 476.56C855.305 476.88 856.118 477.387 856.758 478.08C857.425 478.773 857.758 479.653 857.758 480.72C857.758 481.387 857.585 481.933 857.238 482.36C856.891 482.76 856.411 482.96 855.798 482.96C855.318 482.96 854.905 482.813 854.558 482.52C854.211 482.227 854.038 481.84 854.038 481.36C854.038 481.04 854.105 480.8 854.238 480.64C854.371 480.453 854.491 480.293 854.598 480.16C854.731 480 854.798 479.8 854.798 479.56C854.798 478.947 854.465 478.373 853.798 477.84C853.158 477.307 852.358 477.04 851.398 477.04C849.985 477.04 848.931 477.427 848.238 478.2C847.571 478.973 847.131 479.973 846.918 481.2C846.705 482.427 846.598 483.707 846.598 485.04V487.56H851.398C852.491 487.56 853.545 487.533 854.558 487.48C855.571 487.4 856.625 487.267 857.718 487.08V500.16C857.718 501.36 857.798 502.227 857.958 502.76C858.118 503.267 858.398 503.6 858.798 503.76C859.225 503.893 859.825 504.013 860.598 504.12L861.238 504.2V505.12L856.318 505L851.398 505.12V504.2L852.038 504.12C852.811 504.013 853.398 503.893 853.798 503.76C854.225 503.6 854.518 503.267 854.678 502.76C854.838 502.227 854.918 501.36 854.918 500.16V491.72C854.918 490.627 854.731 489.853 854.358 489.4C853.985 488.947 853.478 488.667 852.838 488.56H846.598V500.16C846.598 501.36 846.651 502.227 846.758 502.76C846.891 503.267 847.131 503.6 847.478 503.76C847.825 503.893 848.305 504.013 848.918 504.12L849.558 504.2V505.12L845.198 505L840.278 505.12V504.2L840.918 504.12C841.691 504.013 842.278 503.893 842.678 503.76C843.105 503.6 843.398 503.267 843.558 502.76C843.718 502.227 843.798 501.36 843.798 500.16V488.56H835.718V500.16C835.718 501.36 835.785 502.227 835.918 502.76C836.051 503.267 836.291 503.6 836.638 503.76C837.011 503.92 837.545 504.04 838.238 504.12L838.878 504.2V505.12L834.318 505L829.398 505.12ZM835.718 486.2V487.56H843.798V484.84C843.798 484.067 843.838 483.32 843.918 482.6C844.025 481.853 844.198 481.147 844.438 480.48C844.091 479.84 843.611 479.307 842.998 478.88C842.411 478.453 841.638 478.24 840.678 478.24C838.785 478.24 837.478 478.947 836.758 480.36C836.065 481.747 835.718 483.693 835.718 486.2ZM872.273 505.44C870.486 505.44 868.926 505.053 867.593 504.28C866.259 503.507 865.233 502.453 864.513 501.12C863.793 499.787 863.433 498.267 863.433 496.56C863.433 494.693 863.846 493.027 864.673 491.56C865.499 490.093 866.619 488.947 868.033 488.12C869.446 487.267 871.046 486.84 872.833 486.84C873.686 486.84 874.566 486.973 875.473 487.24C876.379 487.507 877.139 487.907 877.753 488.44C878.393 488.973 878.713 489.627 878.713 490.4C878.713 490.987 878.526 491.48 878.153 491.88C877.779 492.253 877.326 492.44 876.793 492.44C876.099 492.44 875.579 492.24 875.233 491.84C874.886 491.44 874.713 491.04 874.713 490.64C874.713 490.427 874.726 490.24 874.753 490.08C874.806 489.92 874.846 489.773 874.873 489.64C874.926 489.507 874.966 489.373 874.993 489.24C875.019 489.08 875.033 488.92 875.033 488.76C875.033 488.387 874.753 488.147 874.193 488.04C873.659 487.907 873.193 487.84 872.793 487.84C870.926 487.84 869.433 488.627 868.313 490.2C867.193 491.747 866.633 493.8 866.633 496.36C866.633 497.773 866.873 499.08 867.353 500.28C867.833 501.48 868.526 502.44 869.433 503.16C870.366 503.88 871.513 504.24 872.873 504.24C873.993 504.24 875.059 503.933 876.073 503.32C877.086 502.68 877.819 501.6 878.273 500.08L879.233 500.4C878.726 502.24 877.819 503.547 876.513 504.32C875.206 505.067 873.793 505.44 872.273 505.44ZM889.942 505.44C888.209 505.44 886.835 505.013 885.822 504.16C884.835 503.28 884.342 501.987 884.342 500.28V492.52C884.342 491.32 884.262 490.467 884.102 489.96C883.942 489.427 883.649 489.08 883.222 488.92C882.822 488.76 882.235 488.64 881.462 488.56L880.822 488.48V487.56L885.742 487.68L887.142 487.64V500.12C887.142 501.427 887.475 502.427 888.142 503.12C888.809 503.813 889.715 504.16 890.862 504.16C891.849 504.16 892.715 503.947 893.462 503.52C894.235 503.067 894.889 502.493 895.422 501.8C895.982 501.107 896.422 500.4 896.742 499.68V492.52C896.742 491.32 896.662 490.467 896.502 489.96C896.342 489.427 896.049 489.08 895.622 488.92C895.222 488.76 894.635 488.64 893.862 488.56L893.222 488.48V487.56L898.142 487.68L899.542 487.64V500.56C899.542 501.573 899.662 502.333 899.902 502.84C900.169 503.32 900.542 503.64 901.022 503.8C901.529 503.96 902.142 504.04 902.862 504.04V504.96C901.769 504.96 900.769 504.973 899.862 505C898.955 505.027 897.915 505.147 896.742 505.36V501.68C896.475 502.107 896.195 502.48 895.902 502.8C895.209 503.573 894.369 504.213 893.382 504.72C892.395 505.2 891.249 505.44 889.942 505.44ZM903.873 505.12V504.2L904.513 504.12C905.287 504.013 905.873 503.893 906.273 503.76C906.7 503.6 906.993 503.267 907.153 502.76C907.313 502.227 907.393 501.36 907.393 500.16V480.64C907.393 479.253 907.1 478.373 906.513 478C905.953 477.6 905.167 477.4 904.153 477.4H903.873V476.48C904.967 476.48 906.02 476.453 907.033 476.4C908.047 476.32 909.1 476.187 910.193 476V500.16C910.193 501.36 910.273 502.227 910.433 502.76C910.593 503.267 910.873 503.6 911.273 503.76C911.7 503.893 912.3 504.013 913.073 504.12L913.713 504.2V505.12L908.793 505L903.873 505.12ZM922.888 505.44C921.581 505.44 920.515 505.053 919.688 504.28C918.888 503.48 918.488 502.187 918.488 500.4V488.56H915.528V487.56L916.608 487.48C917.701 487.4 918.528 486.96 919.088 486.16C919.675 485.333 920.061 484.187 920.248 482.72H921.288V487.56H926.408V488.56H921.288V500.56C921.288 502.907 922.115 504.08 923.768 504.08C924.461 504.08 925.021 503.853 925.448 503.4C925.875 502.92 926.261 502.333 926.608 501.64L927.488 502.08C927.328 502.48 927.128 502.853 926.888 503.2C926.675 503.52 926.461 503.8 926.248 504.04C925.795 504.547 925.275 504.907 924.688 505.12C924.128 505.333 923.528 505.44 922.888 505.44ZM929.403 516.76C928.496 516.76 927.816 516.533 927.363 516.08C926.909 515.653 926.683 515.173 926.683 514.64C926.683 514.107 926.883 513.653 927.283 513.28C927.656 512.933 928.136 512.76 928.723 512.76C929.096 512.76 929.389 512.813 929.603 512.92C929.816 513.053 930.016 513.187 930.203 513.32C930.389 513.453 930.603 513.587 930.843 513.72C931.083 513.88 931.363 513.96 931.683 513.96C932.163 513.96 932.656 513.773 933.163 513.4C933.696 513.027 934.243 512.253 934.803 511.08L937.443 505.4L930.803 490.84C930.536 490.227 930.243 489.72 929.923 489.32C929.603 488.92 929.109 488.68 928.443 488.6L927.523 488.48V487.56L931.683 487.68L935.723 487.56V488.48L935.163 488.56C934.043 488.72 933.483 489.133 933.483 489.8C933.483 490.12 933.629 490.6 933.923 491.24L938.923 502.2L943.923 491.44C944.216 490.773 944.363 490.253 944.363 489.88C944.363 489.16 943.709 488.72 942.403 488.56L941.763 488.48V487.56L945.603 487.68L948.803 487.56V488.48L948.203 488.56C947.216 488.693 946.496 489.053 946.043 489.64C945.616 490.227 945.216 490.947 944.843 491.8L935.803 511.52C935.376 512.427 934.869 513.28 934.283 514.08C933.723 514.88 933.043 515.52 932.243 516C931.469 516.507 930.523 516.76 929.403 516.76ZM957.975 505.12V504.2L958.615 504.12C959.388 504.013 959.975 503.893 960.375 503.76C960.802 503.6 961.095 503.267 961.255 502.76C961.415 502.227 961.495 501.36 961.495 500.16V480.64C961.495 479.253 961.202 478.373 960.615 478C960.055 477.6 959.268 477.4 958.255 477.4H957.975V476.48C959.068 476.48 960.122 476.453 961.135 476.4C962.148 476.32 963.202 476.187 964.295 476V500.16C964.295 501.36 964.375 502.227 964.535 502.76C964.695 503.267 964.975 503.6 965.375 503.76C965.802 503.893 966.402 504.013 967.175 504.12L967.815 504.2V505.12L962.895 505L957.975 505.12ZM978.99 505.44C977.23 505.44 975.696 505.067 974.39 504.32C973.083 503.547 972.056 502.493 971.31 501.16C970.59 499.8 970.23 498.253 970.23 496.52C970.23 494.653 970.63 493 971.43 491.56C972.23 490.093 973.296 488.947 974.63 488.12C975.99 487.267 977.483 486.84 979.11 486.84C981.163 486.84 982.763 487.493 983.91 488.8C985.083 490.107 985.67 491.827 985.67 493.96C985.67 494.28 985.656 494.547 985.63 494.76C985.603 494.973 985.576 495.12 985.55 495.2H973.47C973.443 495.573 973.43 495.947 973.43 496.32C973.43 497.733 973.656 499.053 974.11 500.28C974.563 501.48 975.243 502.44 976.15 503.16C977.083 503.88 978.216 504.24 979.55 504.24C980.803 504.24 981.91 503.893 982.87 503.2C983.856 502.48 984.616 501.427 985.15 500.04L986.11 500.4C984.99 503.76 982.616 505.44 978.99 505.44ZM979.11 487.84C977.456 487.84 976.163 488.427 975.23 489.6C974.323 490.773 973.763 492.333 973.55 494.28H978.63C979.83 494.28 980.736 494.147 981.35 493.88C981.99 493.587 982.416 493.24 982.63 492.84C982.87 492.413 982.99 492 982.99 491.6C982.99 490.427 982.59 489.507 981.79 488.84C980.99 488.173 980.096 487.84 979.11 487.84ZM996.652 505L990.132 490.6C989.892 490.067 989.599 489.613 989.252 489.24C988.906 488.867 988.386 488.64 987.692 488.56L986.972 488.48V487.56L991.092 487.68L995.172 487.56V488.48L994.532 488.56C993.946 488.64 993.532 488.787 993.292 489C993.052 489.187 992.932 489.453 992.932 489.8C992.932 490.093 993.039 490.493 993.252 491L998.292 502.12L1002.97 491.16C1003.21 490.627 1003.33 490.187 1003.33 489.84C1003.33 489.147 1002.72 488.72 1001.49 488.56L1000.81 488.48V487.56L1004.41 487.68L1007.77 487.56V488.48L1006.85 488.6C1006.11 488.707 1005.53 489 1005.13 489.48C1004.73 489.933 1004.33 490.627 1003.93 491.56L998.172 505H996.652ZM1017.11 505.44C1015.35 505.44 1013.82 505.067 1012.51 504.32C1011.21 503.547 1010.18 502.493 1009.43 501.16C1008.71 499.8 1008.35 498.253 1008.35 496.52C1008.35 494.653 1008.75 493 1009.55 491.56C1010.35 490.093 1011.42 488.947 1012.75 488.12C1014.11 487.267 1015.61 486.84 1017.23 486.84C1019.29 486.84 1020.89 487.493 1022.03 488.8C1023.21 490.107 1023.79 491.827 1023.79 493.96C1023.79 494.28 1023.78 494.547 1023.75 494.76C1023.73 494.973 1023.7 495.12 1023.67 495.2H1011.59C1011.57 495.573 1011.55 495.947 1011.55 496.32C1011.55 497.733 1011.78 499.053 1012.23 500.28C1012.69 501.48 1013.37 502.44 1014.27 503.16C1015.21 503.88 1016.34 504.24 1017.67 504.24C1018.93 504.24 1020.03 503.893 1020.99 503.2C1021.98 502.48 1022.74 501.427 1023.27 500.04L1024.23 500.4C1023.11 503.76 1020.74 505.44 1017.11 505.44ZM1017.23 487.84C1015.58 487.84 1014.29 488.427 1013.35 489.6C1012.45 490.773 1011.89 492.333 1011.67 494.28H1016.75C1017.95 494.28 1018.86 494.147 1019.47 493.88C1020.11 493.587 1020.54 493.24 1020.75 492.84C1020.99 492.413 1021.11 492 1021.11 491.6C1021.11 490.427 1020.71 489.507 1019.91 488.84C1019.11 488.173 1018.22 487.84 1017.23 487.84ZM1026.22 505.12V504.2L1026.86 504.12C1027.63 504.013 1028.22 503.893 1028.62 503.76C1029.04 503.6 1029.34 503.267 1029.5 502.76C1029.66 502.227 1029.74 501.36 1029.74 500.16V480.64C1029.74 479.253 1029.44 478.373 1028.86 478C1028.3 477.6 1027.51 477.4 1026.5 477.4H1026.22V476.48C1027.31 476.48 1028.36 476.453 1029.38 476.4C1030.39 476.32 1031.44 476.187 1032.54 476V500.16C1032.54 501.36 1032.62 502.227 1032.78 502.76C1032.94 503.267 1033.22 503.6 1033.62 503.76C1034.04 503.893 1034.64 504.013 1035.42 504.12L1036.06 504.2V505.12L1031.14 505L1026.22 505.12ZM1045.15 505.44C1044.14 505.44 1043.27 505.32 1042.55 505.08C1041.86 504.867 1041.31 504.667 1040.91 504.48C1040.49 504.267 1040.22 504.16 1040.11 504.16C1040.01 504.16 1039.91 504.213 1039.83 504.32C1039.78 504.4 1039.71 504.627 1039.63 505H1038.71L1038.87 502.36L1038.99 498.96H1039.87L1039.91 499.64C1039.97 500.387 1040.21 501.133 1040.63 501.88C1041.09 502.627 1041.7 503.253 1042.47 503.76C1043.25 504.267 1044.14 504.52 1045.15 504.52C1046.25 504.52 1047.13 504.24 1047.79 503.68C1048.46 503.12 1048.79 502.347 1048.79 501.36C1048.79 500.507 1048.45 499.787 1047.75 499.2C1047.09 498.613 1046.15 498.093 1044.95 497.64L1043.51 497.08C1042.13 496.547 1041.07 495.88 1040.35 495.08C1039.66 494.28 1039.31 493.253 1039.31 492C1039.31 490.933 1039.55 490.027 1040.03 489.28C1040.54 488.507 1041.19 487.907 1041.99 487.48C1042.82 487.053 1043.7 486.84 1044.63 486.84C1045.3 486.84 1045.86 486.92 1046.31 487.08C1046.79 487.24 1047.19 487.4 1047.51 487.56C1047.78 487.693 1048.01 487.76 1048.19 487.76C1048.46 487.76 1048.67 487.48 1048.83 486.92L1049.71 486.96L1049.55 489.56V492.36H1048.63C1048.45 491.107 1048.02 490.027 1047.35 489.12C1046.69 488.187 1045.73 487.72 1044.47 487.72C1043.59 487.72 1042.85 488 1042.23 488.56C1041.65 489.12 1041.35 489.827 1041.35 490.68C1041.35 491.507 1041.66 492.2 1042.27 492.76C1042.91 493.293 1043.78 493.773 1044.87 494.2L1046.43 494.8C1048.06 495.413 1049.18 496.16 1049.79 497.04C1050.43 497.893 1050.75 498.92 1050.75 500.12C1050.75 501.533 1050.27 502.773 1049.31 503.84C1048.35 504.907 1046.97 505.44 1045.15 505.44ZM1057.34 505.44C1056.59 505.44 1055.98 505.187 1055.5 504.68C1055.02 504.173 1054.78 503.573 1054.78 502.88C1054.78 502.213 1055.02 501.64 1055.5 501.16C1055.98 500.653 1056.59 500.4 1057.34 500.4C1058.03 500.4 1058.62 500.653 1059.1 501.16C1059.58 501.64 1059.82 502.213 1059.82 502.88C1059.82 503.573 1059.58 504.173 1059.1 504.68C1058.62 505.187 1058.03 505.44 1057.34 505.44Z" fill="black"/>
</svg>
