<svg width="1440" height="1024" viewBox="0 0 1440 1024" fill="none" xmlns="http://www.w3.org/2000/svg">
<rect width="1440" height="1024" fill="white"/>
<path d="M99 915.5H1362V130H99V915.5Z" stroke="#8D8282" stroke-width="5"/>
<path d="M78 894.5H1341V109H78V894.5Z" stroke="#8D8282" stroke-width="5"/>
<path d="M495.6 505.12V504.12L496.4 504.04C497.333 503.933 498.04 503.8 498.52 503.64C499.027 503.453 499.373 503.08 499.56 502.52C499.747 501.933 499.84 500.987 499.84 499.68V481.92C499.84 480.587 499.747 479.64 499.56 479.08C499.373 478.52 499.027 478.16 498.52 478C498.04 477.813 497.333 477.667 496.4 477.56L495.6 477.48V476.48L501.52 476.6H517.6L517.72 479.52L518.08 483.08H517.12C517.013 481.747 516.693 480.72 516.16 480C515.653 479.253 515.027 478.733 514.28 478.44C513.533 478.12 512.76 477.933 511.96 477.88C511.187 477.8 510.467 477.76 509.8 477.76H503.24V489.48H507.72C508.253 489.48 508.72 489.36 509.12 489.12C509.52 488.853 509.84 488.373 510.08 487.68C510.347 486.987 510.507 485.987 510.56 484.68H511.56L511.44 490.04L511.56 495.96H510.56C510.56 494.013 510.32 492.64 509.84 491.84C509.36 491.013 508.653 490.6 507.72 490.6H503.24V499.68C503.24 500.987 503.347 501.947 503.56 502.56C503.773 503.147 504.133 503.533 504.64 503.72C505.147 503.88 505.827 503.987 506.68 504.04L508.04 504.12V505.12L501.56 505H501.52L495.6 505.12ZM527.305 505.44C525.598 505.44 524.038 505.027 522.625 504.2C521.238 503.373 520.131 502.267 519.305 500.88C518.505 499.467 518.105 497.907 518.105 496.2C518.105 494.44 518.505 492.853 519.305 491.44C520.131 490.027 521.238 488.907 522.625 488.08C524.038 487.253 525.598 486.84 527.305 486.84C529.038 486.84 530.598 487.253 531.985 488.08C533.371 488.907 534.465 490.027 535.265 491.44C536.091 492.853 536.505 494.44 536.505 496.2C536.505 497.907 536.091 499.467 535.265 500.88C534.465 502.267 533.371 503.373 531.985 504.2C530.598 505.027 529.038 505.44 527.305 505.44ZM527.305 504.44C528.745 504.44 529.905 504.08 530.785 503.36C531.665 502.613 532.305 501.627 532.705 500.4C533.105 499.147 533.305 497.747 533.305 496.2C533.305 494.6 533.105 493.173 532.705 491.92C532.305 490.667 531.665 489.68 530.785 488.96C529.905 488.213 528.745 487.84 527.305 487.84C525.865 487.84 524.705 488.213 523.825 488.96C522.945 489.68 522.305 490.667 521.905 491.92C521.505 493.173 521.305 494.6 521.305 496.2C521.305 497.747 521.505 499.147 521.905 500.4C522.305 501.627 522.945 502.613 523.825 503.36C524.705 504.08 525.865 504.44 527.305 504.44ZM548.937 505.44C547.15 505.44 545.59 505.053 544.257 504.28C542.924 503.507 541.897 502.453 541.177 501.12C540.457 499.787 540.097 498.267 540.097 496.56C540.097 494.693 540.51 493.027 541.337 491.56C542.164 490.093 543.284 488.947 544.697 488.12C546.11 487.267 547.71 486.84 549.497 486.84C550.35 486.84 551.23 486.973 552.137 487.24C553.044 487.507 553.804 487.907 554.417 488.44C555.057 488.973 555.377 489.627 555.377 490.4C555.377 490.987 555.19 491.48 554.817 491.88C554.444 492.253 553.99 492.44 553.457 492.44C552.764 492.44 552.244 492.24 551.897 491.84C551.55 491.44 551.377 491.04 551.377 490.64C551.377 490.427 551.39 490.24 551.417 490.08C551.47 489.92 551.51 489.773 551.537 489.64C551.59 489.507 551.63 489.373 551.657 489.24C551.684 489.08 551.697 488.92 551.697 488.76C551.697 488.387 551.417 488.147 550.857 488.04C550.324 487.907 549.857 487.84 549.457 487.84C547.59 487.84 546.097 488.627 544.977 490.2C543.857 491.747 543.297 493.8 543.297 496.36C543.297 497.773 543.537 499.08 544.017 500.28C544.497 501.48 545.19 502.44 546.097 503.16C547.03 503.88 548.177 504.24 549.537 504.24C550.657 504.24 551.724 503.933 552.737 503.32C553.75 502.68 554.484 501.6 554.937 500.08L555.897 500.4C555.39 502.24 554.484 503.547 553.177 504.32C551.87 505.067 550.457 505.44 548.937 505.44ZM566.606 505.44C564.873 505.44 563.499 505.013 562.486 504.16C561.499 503.28 561.006 501.987 561.006 500.28V492.52C561.006 491.32 560.926 490.467 560.766 489.96C560.606 489.427 560.313 489.08 559.886 488.92C559.486 488.76 558.899 488.64 558.126 488.56L557.486 488.48V487.56L562.406 487.68L563.806 487.64V500.12C563.806 501.427 564.139 502.427 564.806 503.12C565.473 503.813 566.379 504.16 567.526 504.16C568.513 504.16 569.379 503.947 570.126 503.52C570.899 503.067 571.553 502.493 572.086 501.8C572.646 501.107 573.086 500.4 573.406 499.68V492.52C573.406 491.32 573.326 490.467 573.166 489.96C573.006 489.427 572.713 489.08 572.286 488.92C571.886 488.76 571.299 488.64 570.526 488.56L569.886 488.48V487.56L574.806 487.68L576.206 487.64V500.56C576.206 501.573 576.326 502.333 576.566 502.84C576.833 503.32 577.206 503.64 577.686 503.8C578.193 503.96 578.806 504.04 579.526 504.04V504.96C578.433 504.96 577.433 504.973 576.526 505C575.619 505.027 574.579 505.147 573.406 505.36V501.68C573.139 502.107 572.859 502.48 572.566 502.8C571.873 503.573 571.033 504.213 570.046 504.72C569.059 505.2 567.913 505.44 566.606 505.44ZM588.418 505.44C587.404 505.44 586.538 505.32 585.817 505.08C585.124 504.867 584.578 504.667 584.178 504.48C583.751 504.267 583.484 504.16 583.378 504.16C583.271 504.16 583.178 504.213 583.098 504.32C583.044 504.4 582.978 504.627 582.898 505H581.978L582.138 502.36L582.258 498.96H583.138L583.178 499.64C583.231 500.387 583.471 501.133 583.898 501.88C584.351 502.627 584.964 503.253 585.738 503.76C586.511 504.267 587.404 504.52 588.418 504.52C589.511 504.52 590.391 504.24 591.058 503.68C591.724 503.12 592.058 502.347 592.058 501.36C592.058 500.507 591.711 499.787 591.018 499.2C590.351 498.613 589.418 498.093 588.218 497.64L586.778 497.08C585.391 496.547 584.338 495.88 583.618 495.08C582.924 494.28 582.577 493.253 582.577 492C582.577 490.933 582.818 490.027 583.298 489.28C583.804 488.507 584.458 487.907 585.258 487.48C586.084 487.053 586.964 486.84 587.898 486.84C588.564 486.84 589.124 486.92 589.578 487.08C590.058 487.24 590.458 487.4 590.778 487.56C591.044 487.693 591.271 487.76 591.458 487.76C591.724 487.76 591.938 487.48 592.098 486.92L592.978 486.96L592.818 489.56V492.36H591.898C591.711 491.107 591.284 490.027 590.618 489.12C589.951 488.187 588.991 487.72 587.738 487.72C586.858 487.72 586.111 488 585.498 488.56C584.911 489.12 584.618 489.827 584.618 490.68C584.618 491.507 584.924 492.2 585.538 492.76C586.178 493.293 587.044 493.773 588.138 494.2L589.698 494.8C591.324 495.413 592.444 496.16 593.058 497.04C593.698 497.893 594.018 498.92 594.018 500.12C594.018 501.533 593.538 502.773 592.578 503.84C591.618 504.907 590.231 505.44 588.418 505.44ZM612.628 505.44C611.348 505.44 610.281 505.12 609.428 504.48C608.601 503.813 608.188 502.893 608.188 501.72C608.188 500.547 608.708 499.507 609.748 498.6C610.788 497.667 612.001 496.827 613.388 496.08C614.428 495.493 615.468 494.987 616.508 494.56C617.548 494.133 618.441 493.773 619.188 493.48V492.2C619.188 490.733 618.908 489.64 618.348 488.92C617.814 488.2 616.788 487.84 615.268 487.84C614.548 487.84 613.841 487.933 613.148 488.12C612.454 488.307 612.108 488.653 612.108 489.16C612.108 489.267 612.121 489.387 612.148 489.52C612.201 489.653 612.241 489.787 612.268 489.92C612.401 490.267 612.468 490.627 612.468 491C612.468 491.507 612.281 491.907 611.908 492.2C611.561 492.467 611.134 492.6 610.628 492.6C610.148 492.6 609.748 492.427 609.428 492.08C609.108 491.707 608.948 491.267 608.948 490.76C608.948 489.8 609.308 489.04 610.028 488.48C610.774 487.893 611.681 487.48 612.748 487.24C613.814 486.973 614.841 486.84 615.828 486.84C617.961 486.84 619.521 487.333 620.508 488.32C621.494 489.307 621.988 490.92 621.988 493.16V500.36C621.988 501.533 622.068 502.44 622.228 503.08C622.414 503.72 622.814 504.04 623.428 504.04C623.828 504.04 624.174 503.893 624.468 503.6C624.761 503.307 624.961 502.987 625.068 502.64L625.788 502.92C625.574 503.693 625.188 504.307 624.628 504.76C624.094 505.213 623.348 505.44 622.388 505.44C621.214 505.44 620.401 505.107 619.948 504.44C619.521 503.747 619.281 502.84 619.228 501.72C618.481 502.92 617.534 503.84 616.388 504.48C615.241 505.12 613.988 505.44 612.628 505.44ZM611.308 501.52C611.308 502.267 611.521 502.867 611.948 503.32C612.401 503.747 613.054 503.96 613.908 503.96C614.681 503.96 615.414 503.773 616.108 503.4C616.828 503.027 617.454 502.56 617.988 502C618.521 501.413 618.921 500.787 619.188 500.12V494.28C618.308 494.653 617.401 495.093 616.467 495.6C615.561 496.08 614.708 496.627 613.908 497.24C613.134 497.853 612.508 498.52 612.028 499.24C611.548 499.933 611.308 500.693 611.308 501.52ZM626.917 505.12V504.2L627.557 504.12C628.33 504.013 628.917 503.893 629.317 503.76C629.744 503.6 630.037 503.267 630.197 502.76C630.357 502.227 630.437 501.36 630.437 500.16V491.72C630.437 490.333 630.144 489.453 629.557 489.08C628.997 488.68 628.21 488.48 627.197 488.48H626.917V487.56C628.01 487.56 629.064 487.533 630.077 487.48C631.09 487.4 632.144 487.267 633.237 487.08V490.32C633.85 489.413 634.717 488.613 635.837 487.92C636.957 487.2 638.264 486.84 639.757 486.84C641.57 486.84 642.997 487.307 644.037 488.24C645.104 489.147 645.637 490.453 645.637 492.16V500.16C645.637 501.36 645.717 502.227 645.877 502.76C646.037 503.267 646.317 503.6 646.717 503.76C647.144 503.893 647.744 504.013 648.517 504.12L649.157 504.2V505.12L644.237 505L639.317 505.12V504.2L639.957 504.12C640.73 504.013 641.317 503.893 641.717 503.76C642.144 503.6 642.437 503.267 642.597 502.76C642.757 502.227 642.837 501.36 642.837 500.16V492.16C642.837 490.827 642.49 489.813 641.797 489.12C641.104 488.4 640.13 488.04 638.877 488.04C637.917 488.04 637.05 488.267 636.277 488.72C635.504 489.147 634.864 489.68 634.357 490.32C633.85 490.96 633.477 491.573 633.237 492.16V500.16C633.237 501.36 633.317 502.227 633.477 502.76C633.637 503.267 633.917 503.6 634.317 503.76C634.744 503.893 635.344 504.013 636.117 504.12L636.757 504.2V505.12L631.837 505L626.917 505.12ZM659.506 505.44C657.986 505.44 656.613 505.027 655.386 504.2C654.159 503.373 653.186 502.253 652.466 500.84C651.746 499.4 651.386 497.813 651.386 496.08C651.386 494.347 651.746 492.787 652.466 491.4C653.186 490.013 654.173 488.907 655.426 488.08C656.679 487.253 658.093 486.84 659.666 486.84C660.786 486.84 661.813 487.08 662.746 487.56C663.679 488.013 664.453 488.533 665.066 489.12V480.64C665.066 479.253 664.773 478.373 664.186 478C663.626 477.6 662.839 477.4 661.826 477.4H661.546V476.48C662.639 476.48 663.693 476.453 664.706 476.4C665.719 476.32 666.773 476.187 667.866 476V500.64C667.866 502.133 668.146 503.08 668.706 503.48C669.293 503.88 670.119 504.08 671.186 504.08V505H669.546C668.959 505 668.386 505.013 667.826 505.04C667.266 505.093 666.639 505.187 665.946 505.32L665.426 502.52C664.706 503.373 663.839 504.08 662.826 504.64C661.839 505.173 660.733 505.44 659.506 505.44ZM654.586 496.08C654.586 497.627 654.773 499.013 655.146 500.24C655.546 501.467 656.133 502.44 656.906 503.16C657.706 503.88 658.706 504.24 659.906 504.24C661.053 504.24 662.039 503.987 662.866 503.48C663.719 502.947 664.453 502.307 665.066 501.56V490.76C664.613 490.067 663.933 489.44 663.026 488.88C662.119 488.32 661.119 488.04 660.026 488.04C658.799 488.04 657.786 488.4 656.986 489.12C656.186 489.813 655.586 490.773 655.186 492C654.786 493.2 654.586 494.56 654.586 496.08ZM690.49 505.44C689.183 505.44 688.116 505.053 687.29 504.28C686.49 503.48 686.09 502.187 686.09 500.4V488.56H683.13V487.56L684.21 487.48C685.303 487.4 686.13 486.96 686.69 486.16C687.276 485.333 687.663 484.187 687.85 482.72H688.89V487.56H694.01V488.56H688.89V500.56C688.89 502.907 689.716 504.08 691.37 504.08C692.063 504.08 692.623 503.853 693.05 503.4C693.476 502.92 693.863 502.333 694.21 501.64L695.09 502.08C694.93 502.48 694.73 502.853 694.49 503.2C694.276 503.52 694.063 503.8 693.85 504.04C693.396 504.547 692.876 504.907 692.29 505.12C691.73 505.333 691.13 505.44 690.49 505.44ZM696.604 505.12V504.2L697.244 504.12C698.018 504.013 698.604 503.893 699.004 503.76C699.431 503.6 699.724 503.267 699.884 502.76C700.044 502.227 700.124 501.36 700.124 500.16V491.84C700.124 490.8 699.978 490.04 699.684 489.56C699.418 489.08 699.018 488.787 698.484 488.68C697.951 488.547 697.324 488.48 696.604 488.48V487.56C697.698 487.56 698.751 487.52 699.764 487.44C700.778 487.36 701.831 487.24 702.924 487.08L702.484 491.68H702.644C703.231 489.893 703.951 488.64 704.804 487.92C705.658 487.2 706.578 486.84 707.564 486.84C708.684 486.84 709.431 487.12 709.804 487.68C710.178 488.213 710.364 488.733 710.364 489.24C710.364 489.827 710.191 490.307 709.844 490.68C709.498 491.053 709.031 491.24 708.444 491.24C707.884 491.24 707.458 491.107 707.164 490.84C706.871 490.573 706.724 490.267 706.724 489.92C706.724 489.653 706.751 489.4 706.804 489.16C706.884 488.92 706.924 488.733 706.924 488.6C706.924 488.333 706.738 488.2 706.364 488.2C705.991 488.2 705.591 488.373 705.164 488.72C704.764 489.067 704.418 489.547 704.124 490.16C703.884 490.667 703.658 491.227 703.444 491.84C703.231 492.453 703.058 493.12 702.924 493.84V500.16C702.924 501.36 703.004 502.227 703.164 502.76C703.324 503.267 703.604 503.6 704.004 503.76C704.431 503.893 705.031 504.013 705.804 504.12L706.444 504.2V505.12L701.524 505L696.604 505.12ZM717.198 505.44C715.918 505.44 714.851 505.12 713.998 504.48C713.171 503.813 712.758 502.893 712.758 501.72C712.758 500.547 713.278 499.507 714.318 498.6C715.358 497.667 716.571 496.827 717.958 496.08C718.998 495.493 720.038 494.987 721.078 494.56C722.118 494.133 723.011 493.773 723.758 493.48V492.2C723.758 490.733 723.478 489.64 722.918 488.92C722.384 488.2 721.358 487.84 719.838 487.84C719.118 487.84 718.411 487.933 717.718 488.12C717.024 488.307 716.678 488.653 716.678 489.16C716.678 489.267 716.691 489.387 716.718 489.52C716.771 489.653 716.811 489.787 716.838 489.92C716.971 490.267 717.038 490.627 717.038 491C717.038 491.507 716.851 491.907 716.478 492.2C716.131 492.467 715.704 492.6 715.198 492.6C714.718 492.6 714.318 492.427 713.998 492.08C713.678 491.707 713.518 491.267 713.518 490.76C713.518 489.8 713.878 489.04 714.598 488.48C715.344 487.893 716.251 487.48 717.318 487.24C718.384 486.973 719.411 486.84 720.398 486.84C722.531 486.84 724.091 487.333 725.078 488.32C726.064 489.307 726.558 490.92 726.558 493.16V500.36C726.558 501.533 726.638 502.44 726.798 503.08C726.984 503.72 727.384 504.04 727.998 504.04C728.398 504.04 728.744 503.893 729.038 503.6C729.331 503.307 729.531 502.987 729.638 502.64L730.358 502.92C730.144 503.693 729.758 504.307 729.198 504.76C728.664 505.213 727.918 505.44 726.958 505.44C725.784 505.44 724.971 505.107 724.518 504.44C724.091 503.747 723.851 502.84 723.798 501.72C723.051 502.92 722.104 503.84 720.958 504.48C719.811 505.12 718.558 505.44 717.198 505.44ZM715.878 501.52C715.878 502.267 716.091 502.867 716.518 503.32C716.971 503.747 717.624 503.96 718.478 503.96C719.251 503.96 719.984 503.773 720.678 503.4C721.398 503.027 722.024 502.56 722.558 502C723.091 501.413 723.491 500.787 723.758 500.12V494.28C722.878 494.653 721.971 495.093 721.038 495.6C720.131 496.08 719.278 496.627 718.478 497.24C717.704 497.853 717.078 498.52 716.598 499.24C716.118 499.933 715.878 500.693 715.878 501.52ZM741.007 505.44C739.221 505.44 737.661 505.053 736.327 504.28C734.994 503.507 733.967 502.453 733.247 501.12C732.527 499.787 732.167 498.267 732.167 496.56C732.167 494.693 732.581 493.027 733.407 491.56C734.234 490.093 735.354 488.947 736.767 488.12C738.181 487.267 739.781 486.84 741.567 486.84C742.421 486.84 743.301 486.973 744.207 487.24C745.114 487.507 745.874 487.907 746.487 488.44C747.127 488.973 747.447 489.627 747.447 490.4C747.447 490.987 747.261 491.48 746.887 491.88C746.514 492.253 746.061 492.44 745.527 492.44C744.834 492.44 744.314 492.24 743.967 491.84C743.621 491.44 743.447 491.04 743.447 490.64C743.447 490.427 743.461 490.24 743.487 490.08C743.541 489.92 743.581 489.773 743.607 489.64C743.661 489.507 743.701 489.373 743.727 489.24C743.754 489.08 743.767 488.92 743.767 488.76C743.767 488.387 743.487 488.147 742.927 488.04C742.394 487.907 741.927 487.84 741.527 487.84C739.661 487.84 738.167 488.627 737.047 490.2C735.927 491.747 735.367 493.8 735.367 496.36C735.367 497.773 735.607 499.08 736.087 500.28C736.567 501.48 737.261 502.44 738.167 503.16C739.101 503.88 740.247 504.24 741.607 504.24C742.727 504.24 743.794 503.933 744.807 503.32C745.821 502.68 746.554 501.6 747.007 500.08L747.967 500.4C747.461 502.24 746.554 503.547 745.247 504.32C743.941 505.067 742.527 505.44 741.007 505.44ZM749.756 505.12V504.2L750.396 504.12C751.17 504.013 751.756 503.893 752.156 503.76C752.583 503.6 752.876 503.267 753.036 502.76C753.196 502.227 753.276 501.36 753.276 500.16V480.64C753.276 479.253 752.983 478.373 752.396 478C751.836 477.6 751.05 477.4 750.036 477.4H749.756V476.48C750.85 476.48 751.903 476.453 752.916 476.4C753.93 476.32 754.983 476.187 756.076 476V497.4L761.996 490.32C762.343 489.893 762.516 489.52 762.516 489.2C762.516 488.8 762.196 488.56 761.556 488.48L760.916 488.4V487.48L764.756 487.56L768.116 487.48V488.4L767.476 488.48C766.276 488.64 765.263 489 764.436 489.56C763.636 490.12 762.903 490.8 762.236 491.6L759.916 494.36L766.716 501.96C767.116 502.413 767.556 502.88 768.036 503.36C768.516 503.813 768.996 504.067 769.476 504.12L770.116 504.2V505.12L765.676 505L758.116 496.48L756.076 498.92V500.16C756.076 501.36 756.156 502.227 756.316 502.76C756.476 503.267 756.756 503.6 757.156 503.76C757.583 503.893 758.183 504.013 758.956 504.12L759.596 504.2V505.12L754.676 505L749.756 505.12ZM789.24 505.44C787.933 505.44 786.866 505.053 786.04 504.28C785.24 503.48 784.84 502.187 784.84 500.4V488.56H781.88V487.56L782.96 487.48C784.053 487.4 784.88 486.96 785.44 486.16C786.026 485.333 786.413 484.187 786.6 482.72H787.64V487.56H792.76V488.56H787.64V500.56C787.64 502.907 788.466 504.08 790.12 504.08C790.813 504.08 791.373 503.853 791.8 503.4C792.226 502.92 792.613 502.333 792.96 501.64L793.84 502.08C793.68 502.48 793.48 502.853 793.24 503.2C793.026 503.52 792.813 503.8 792.6 504.04C792.146 504.547 791.626 504.907 791.04 505.12C790.48 505.333 789.88 505.44 789.24 505.44ZM794.834 505.12V504.2L795.474 504.12C796.248 504.013 796.834 503.893 797.234 503.76C797.661 503.6 797.954 503.267 798.114 502.76C798.274 502.227 798.354 501.36 798.354 500.16V480.64C798.354 479.253 798.061 478.373 797.474 478C796.914 477.6 796.128 477.4 795.114 477.4H794.834V476.48C795.928 476.48 796.981 476.453 797.994 476.4C799.008 476.32 800.061 476.187 801.154 476V490.32C801.768 489.413 802.634 488.613 803.754 487.92C804.874 487.2 806.181 486.84 807.674 486.84C809.488 486.84 810.914 487.307 811.954 488.24C813.021 489.147 813.554 490.453 813.554 492.16V500.16C813.554 501.36 813.634 502.227 813.794 502.76C813.954 503.267 814.234 503.6 814.634 503.76C815.061 503.893 815.661 504.013 816.434 504.12L817.074 504.2V505.12L812.154 505L807.234 505.12V504.2L807.874 504.12C808.648 504.013 809.234 503.893 809.634 503.76C810.061 503.6 810.354 503.267 810.514 502.76C810.674 502.227 810.754 501.36 810.754 500.16V492.16C810.754 490.827 810.408 489.813 809.714 489.12C809.021 488.4 808.048 488.04 806.794 488.04C805.834 488.04 804.968 488.267 804.194 488.72C803.421 489.147 802.781 489.68 802.274 490.32C801.768 490.96 801.394 491.573 801.154 492.16V500.16C801.154 501.36 801.234 502.227 801.394 502.76C801.554 503.267 801.834 503.6 802.234 503.76C802.661 503.893 803.261 504.013 804.034 504.12L804.674 504.2V505.12L799.754 505L794.834 505.12ZM828.076 505.44C826.316 505.44 824.782 505.067 823.476 504.32C822.169 503.547 821.142 502.493 820.396 501.16C819.676 499.8 819.316 498.253 819.316 496.52C819.316 494.653 819.716 493 820.516 491.56C821.316 490.093 822.382 488.947 823.716 488.12C825.076 487.267 826.569 486.84 828.196 486.84C830.249 486.84 831.849 487.493 832.996 488.8C834.169 490.107 834.756 491.827 834.756 493.96C834.756 494.28 834.742 494.547 834.716 494.76C834.689 494.973 834.662 495.12 834.636 495.2H822.556C822.529 495.573 822.516 495.947 822.516 496.32C822.516 497.733 822.742 499.053 823.196 500.28C823.649 501.48 824.329 502.44 825.236 503.16C826.169 503.88 827.302 504.24 828.636 504.24C829.889 504.24 830.996 503.893 831.956 503.2C832.942 502.48 833.702 501.427 834.236 500.04L835.196 500.4C834.076 503.76 831.702 505.44 828.076 505.44ZM828.196 487.84C826.542 487.84 825.249 488.427 824.316 489.6C823.409 490.773 822.849 492.333 822.636 494.28H827.716C828.916 494.28 829.822 494.147 830.436 493.88C831.076 493.587 831.502 493.24 831.716 492.84C831.956 492.413 832.076 492 832.076 491.6C832.076 490.427 831.676 489.507 830.876 488.84C830.076 488.173 829.182 487.84 828.196 487.84ZM854.725 505L849.805 491.44C849.485 490.56 849.112 489.867 848.685 489.36C848.258 488.853 847.712 488.573 847.045 488.52L846.605 488.48V487.56L850.845 487.68L854.765 487.56V488.48L854.365 488.52C853.032 488.627 852.365 489.133 852.365 490.04C852.365 490.2 852.378 490.373 852.405 490.56C852.432 490.747 852.485 490.947 852.565 491.16L856.445 501.92L860.885 491.88C861.018 491.56 861.125 491.267 861.205 491C861.312 490.707 861.365 490.453 861.365 490.24C861.365 489.147 860.818 488.573 859.725 488.52L858.485 488.48V487.56H859.885C860.872 487.56 861.592 487.96 862.045 488.76C862.232 488.307 862.592 488 863.125 487.84C863.685 487.653 864.192 487.56 864.645 487.56H866.485V488.48L865.885 488.52C865.405 488.547 865.058 488.693 864.845 488.96C864.632 489.2 864.525 489.507 864.525 489.88C864.525 490.227 864.632 490.68 864.845 491.24L869.005 501.88L873.165 491.32C873.218 491.133 873.285 490.907 873.365 490.64C873.472 490.373 873.525 490.16 873.525 490C873.525 489.2 872.872 488.72 871.565 488.56L870.925 488.48V487.56L874.685 487.68L877.845 487.56V488.48L877.205 488.56C876.272 488.667 875.605 489 875.205 489.56C874.832 490.12 874.498 490.747 874.205 491.44L868.845 505H867.325L862.125 491.6L856.245 505H854.725ZM887.617 505.44C885.911 505.44 884.351 505.027 882.937 504.2C881.551 503.373 880.444 502.267 879.617 500.88C878.817 499.467 878.417 497.907 878.417 496.2C878.417 494.44 878.817 492.853 879.617 491.44C880.444 490.027 881.551 488.907 882.937 488.08C884.351 487.253 885.911 486.84 887.617 486.84C889.351 486.84 890.911 487.253 892.297 488.08C893.684 488.907 894.777 490.027 895.577 491.44C896.404 492.853 896.817 494.44 896.817 496.2C896.817 497.907 896.404 499.467 895.577 500.88C894.777 502.267 893.684 503.373 892.297 504.2C890.911 505.027 889.351 505.44 887.617 505.44ZM887.617 504.44C889.057 504.44 890.217 504.08 891.097 503.36C891.977 502.613 892.617 501.627 893.017 500.4C893.417 499.147 893.617 497.747 893.617 496.2C893.617 494.6 893.417 493.173 893.017 491.92C892.617 490.667 891.977 489.68 891.097 488.96C890.217 488.213 889.057 487.84 887.617 487.84C886.177 487.84 885.017 488.213 884.137 488.96C883.257 489.68 882.617 490.667 882.217 491.92C881.817 493.173 881.617 494.6 881.617 496.2C881.617 497.747 881.817 499.147 882.217 500.4C882.617 501.627 883.257 502.613 884.137 503.36C885.017 504.08 886.177 504.44 887.617 504.44ZM899.729 505.12V504.2L900.369 504.12C901.143 504.013 901.729 503.893 902.129 503.76C902.556 503.6 902.849 503.267 903.009 502.76C903.169 502.227 903.249 501.36 903.249 500.16V491.84C903.249 490.8 903.103 490.04 902.809 489.56C902.543 489.08 902.143 488.787 901.609 488.68C901.076 488.547 900.449 488.48 899.729 488.48V487.56C900.823 487.56 901.876 487.52 902.889 487.44C903.903 487.36 904.956 487.24 906.049 487.08L905.609 491.68H905.769C906.356 489.893 907.076 488.64 907.929 487.92C908.783 487.2 909.703 486.84 910.689 486.84C911.809 486.84 912.556 487.12 912.929 487.68C913.303 488.213 913.489 488.733 913.489 489.24C913.489 489.827 913.316 490.307 912.969 490.68C912.623 491.053 912.156 491.24 911.569 491.24C911.009 491.24 910.583 491.107 910.289 490.84C909.996 490.573 909.849 490.267 909.849 489.92C909.849 489.653 909.876 489.4 909.929 489.16C910.009 488.92 910.049 488.733 910.049 488.6C910.049 488.333 909.863 488.2 909.489 488.2C909.116 488.2 908.716 488.373 908.289 488.72C907.889 489.067 907.543 489.547 907.249 490.16C907.009 490.667 906.783 491.227 906.569 491.84C906.356 492.453 906.183 493.12 906.049 493.84V500.16C906.049 501.36 906.129 502.227 906.289 502.76C906.449 503.267 906.729 503.6 907.129 503.76C907.556 503.893 908.156 504.013 908.929 504.12L909.569 504.2V505.12L904.649 505L899.729 505.12ZM923.803 505.44C922.283 505.44 920.909 505.027 919.683 504.2C918.456 503.373 917.483 502.253 916.763 500.84C916.043 499.4 915.683 497.813 915.683 496.08C915.683 494.347 916.043 492.787 916.763 491.4C917.483 490.013 918.469 488.907 919.723 488.08C920.976 487.253 922.389 486.84 923.963 486.84C925.083 486.84 926.109 487.08 927.043 487.56C927.976 488.013 928.749 488.533 929.363 489.12V480.64C929.363 479.253 929.069 478.373 928.483 478C927.923 477.6 927.136 477.4 926.123 477.4H925.843V476.48C926.936 476.48 927.989 476.453 929.003 476.4C930.016 476.32 931.069 476.187 932.163 476V500.64C932.163 502.133 932.443 503.08 933.003 503.48C933.589 503.88 934.416 504.08 935.483 504.08V505H933.843C933.256 505 932.683 505.013 932.123 505.04C931.563 505.093 930.936 505.187 930.243 505.32L929.723 502.52C929.003 503.373 928.136 504.08 927.123 504.64C926.136 505.173 925.029 505.44 923.803 505.44ZM918.883 496.08C918.883 497.627 919.069 499.013 919.443 500.24C919.843 501.467 920.429 502.44 921.203 503.16C922.003 503.88 923.003 504.24 924.203 504.24C925.349 504.24 926.336 503.987 927.163 503.48C928.016 502.947 928.749 502.307 929.363 501.56V490.76C928.909 490.067 928.229 489.44 927.323 488.88C926.416 488.32 925.416 488.04 924.323 488.04C923.096 488.04 922.083 488.4 921.283 489.12C920.483 489.813 919.883 490.773 919.483 492C919.083 493.2 918.883 494.56 918.883 496.08ZM940.64 505.44C939.893 505.44 939.28 505.187 938.8 504.68C938.32 504.173 938.08 503.573 938.08 502.88C938.08 502.213 938.32 501.64 938.8 501.16C939.28 500.653 939.893 500.4 940.64 500.4C941.333 500.4 941.92 500.653 942.4 501.16C942.88 501.64 943.12 502.213 943.12 502.88C943.12 503.573 942.88 504.173 942.4 504.68C941.92 505.187 941.333 505.44 940.64 505.44Z" fill="black"/>
<path d="M619.92 240.216V238.416L620.568 238.344C622.248 238.104 623.616 237.768 624.672 237.336C625.776 236.904 626.712 236.208 627.48 235.248C628.296 234.24 629.064 232.872 629.784 231.144L647.208 188.88H649.656L666.648 231.144C667.608 233.496 668.64 235.224 669.744 236.328C670.848 237.432 672.36 238.08 674.28 238.272L675.72 238.416V240.216L666.792 240L655.272 240.216V238.416L656.712 238.272C658.392 238.08 659.592 237.72 660.312 237.192C661.032 236.664 661.392 235.92 661.392 234.96C661.392 234 661.056 232.704 660.384 231.072L656.64 221.712H636.336L632.448 231.072C632.112 231.936 631.824 232.728 631.584 233.448C631.344 234.12 631.224 234.72 631.224 235.248C631.224 236.16 631.608 236.856 632.376 237.336C633.192 237.816 634.512 238.128 636.336 238.272L637.776 238.416V240.216L628.632 240L619.92 240.216ZM637.272 219.408H655.776L646.704 196.584L637.272 219.408ZM681.704 240.792V196.152C681.704 193.656 681.176 192.072 680.12 191.4C679.112 190.68 677.696 190.32 675.872 190.32H675.368V188.664C677.336 188.664 679.232 188.616 681.056 188.52C682.88 188.376 684.776 188.136 686.744 187.8V211.848C688.04 210.456 689.528 209.352 691.208 208.536C692.888 207.72 694.736 207.312 696.752 207.312C699.536 207.312 702.008 208.056 704.168 209.544C706.376 211.032 708.128 213.048 709.424 215.592C710.72 218.136 711.368 220.992 711.368 224.16C711.368 227.232 710.72 230.04 709.424 232.584C708.128 235.08 706.352 237.072 704.096 238.56C701.888 240.048 699.344 240.792 696.464 240.792C694.448 240.792 692.576 240.36 690.848 239.496C689.12 238.632 687.728 237.648 686.672 236.544L682.856 240.792H681.704ZM696.032 209.472C693.968 209.472 692.168 209.952 690.632 210.912C689.144 211.824 687.848 212.952 686.744 214.296V233.736C687.56 234.984 688.784 236.112 690.416 237.12C692.048 238.128 693.848 238.632 695.816 238.632C698.024 238.632 699.848 238.008 701.288 236.76C702.728 235.464 703.808 233.736 704.528 231.576C705.248 229.368 705.608 226.896 705.608 224.16C705.608 221.376 705.248 218.88 704.528 216.672C703.856 214.464 702.8 212.712 701.36 211.416C699.968 210.12 698.192 209.472 696.032 209.472ZM734.386 240.792C731.314 240.792 728.506 240.048 725.962 238.56C723.466 237.072 721.474 235.08 719.986 232.584C718.546 230.04 717.826 227.232 717.826 224.16C717.826 220.992 718.546 218.136 719.986 215.592C721.474 213.048 723.466 211.032 725.962 209.544C728.506 208.056 731.314 207.312 734.386 207.312C737.506 207.312 740.314 208.056 742.81 209.544C745.306 211.032 747.274 213.048 748.714 215.592C750.202 218.136 750.946 220.992 750.946 224.16C750.946 227.232 750.202 230.04 748.714 232.584C747.274 235.08 745.306 237.072 742.81 238.56C740.314 240.048 737.506 240.792 734.386 240.792ZM734.386 238.992C736.978 238.992 739.066 238.344 740.65 237.048C742.234 235.704 743.386 233.928 744.106 231.72C744.826 229.464 745.186 226.944 745.186 224.16C745.186 221.28 744.826 218.712 744.106 216.456C743.386 214.2 742.234 212.424 740.65 211.128C739.066 209.784 736.978 209.112 734.386 209.112C731.794 209.112 729.706 209.784 728.122 211.128C726.538 212.424 725.386 214.2 724.666 216.456C723.946 218.712 723.586 221.28 723.586 224.16C723.586 226.944 723.946 229.464 724.666 231.72C725.386 233.928 726.538 235.704 728.122 237.048C729.706 238.344 731.794 238.992 734.386 238.992ZM771.308 240.792C768.188 240.792 765.716 240.024 763.892 238.488C762.116 236.904 761.228 234.576 761.228 231.504V217.536C761.228 215.376 761.084 213.84 760.796 212.928C760.508 211.968 759.98 211.344 759.212 211.056C758.492 210.768 757.436 210.552 756.044 210.408L754.892 210.264V208.608L763.748 208.824L766.268 208.752V231.216C766.268 233.568 766.868 235.368 768.068 236.616C769.268 237.864 770.9 238.488 772.964 238.488C774.74 238.488 776.3 238.104 777.644 237.336C779.036 236.52 780.212 235.488 781.172 234.24C782.18 232.992 782.972 231.72 783.548 230.424V217.536C783.548 215.376 783.404 213.84 783.116 212.928C782.828 211.968 782.3 211.344 781.532 211.056C780.812 210.768 779.756 210.552 778.364 210.408L777.212 210.264V208.608L786.068 208.824L788.588 208.752V232.008C788.588 233.832 788.804 235.2 789.236 236.112C789.716 236.976 790.388 237.552 791.252 237.84C792.164 238.128 793.268 238.272 794.564 238.272V239.928C792.596 239.928 790.796 239.952 789.164 240C787.532 240.048 785.66 240.264 783.548 240.648V234.024C783.068 234.792 782.564 235.464 782.036 236.04C780.788 237.432 779.276 238.584 777.5 239.496C775.724 240.36 773.66 240.792 771.308 240.792ZM810.01 240.792C807.658 240.792 805.738 240.096 804.25 238.704C802.81 237.264 802.09 234.936 802.09 231.72V210.408H796.762V208.608L798.706 208.464C800.674 208.32 802.162 207.528 803.17 206.088C804.226 204.6 804.922 202.536 805.258 199.896H807.13V208.608H816.346V210.408H807.13V232.008C807.13 236.232 808.618 238.344 811.594 238.344C812.842 238.344 813.85 237.936 814.618 237.12C815.386 236.256 816.082 235.2 816.706 233.952L818.29 234.744C818.002 235.464 817.642 236.136 817.21 236.76C816.826 237.336 816.442 237.84 816.058 238.272C815.242 239.184 814.306 239.832 813.25 240.216C812.242 240.6 811.162 240.792 810.01 240.792Z" fill="black"/>
<circle cx="652.5" cy="800.5" r="17.5" stroke="#8D8282" stroke-width="3"/>
<circle cx="719.5" cy="800.5" r="17.5" fill="#8D8282" stroke="#8D8282" stroke-width="3"/>
<circle cx="786.5" cy="800.5" r="17.5" stroke="#8D8282" stroke-width="3"/>
</svg>
