<svg width="1440" height="1024" viewBox="0 0 1440 1024" fill="none" xmlns="http://www.w3.org/2000/svg">
<rect width="1440" height="1024" fill="white"/>
<path d="M99 915.5H1362V130H99V915.5Z" stroke="#8D8282" stroke-width="5"/>
<path d="M78 894.5H1341V109H78V894.5Z" stroke="#8D8282" stroke-width="5"/>
<circle cx="642.5" cy="793.5" r="17.5" stroke="#8D8282" stroke-width="3"/>
<circle cx="709.5" cy="793.5" r="17.5" stroke="#8D8282" stroke-width="3"/>
<circle cx="776.5" cy="793.5" r="17.5" fill="#8D8282" stroke="#8D8282" stroke-width="3"/>
<path d="M526.4 505.12V504.12L526.76 504.08C527.693 503.947 528.453 503.76 529.04 503.52C529.653 503.28 530.173 502.893 530.6 502.36C531.053 501.8 531.48 501.04 531.88 500.08L541.56 476.6H542.92L552.36 500.08C552.893 501.387 553.467 502.347 554.08 502.96C554.693 503.573 555.533 503.933 556.6 504.04L557.4 504.12V505.12L552.44 505L546.04 505.12V504.12L546.84 504.04C547.773 503.933 548.44 503.733 548.84 503.44C549.24 503.147 549.44 502.733 549.44 502.2C549.44 501.667 549.253 500.947 548.88 500.04L546.8 494.84H535.52L533.36 500.04C533.173 500.52 533.013 500.96 532.88 501.36C532.747 501.733 532.68 502.067 532.68 502.36C532.68 502.867 532.893 503.253 533.32 503.52C533.773 503.787 534.507 503.96 535.52 504.04L536.32 504.12V505.12L531.24 505L526.4 505.12ZM536.04 493.56H546.32L541.28 480.88L536.04 493.56ZM557.925 505.12V504.2L558.565 504.12C559.338 504.013 559.925 503.893 560.325 503.76C560.751 503.6 561.045 503.267 561.205 502.76C561.365 502.227 561.445 501.36 561.445 500.16V491.72C561.445 490.333 561.151 489.453 560.565 489.08C560.005 488.68 559.218 488.48 558.205 488.48H557.925V487.56C559.018 487.56 560.071 487.533 561.085 487.48C562.098 487.4 563.151 487.267 564.245 487.08V490.32C564.858 489.413 565.725 488.613 566.845 487.92C567.965 487.2 569.271 486.84 570.765 486.84C572.578 486.84 574.005 487.307 575.045 488.24C576.111 489.147 576.645 490.453 576.645 492.16V500.16C576.645 501.36 576.725 502.227 576.885 502.76C577.045 503.267 577.325 503.6 577.725 503.76C578.151 503.893 578.751 504.013 579.525 504.12L580.165 504.2V505.12L575.245 505L570.325 505.12V504.2L570.965 504.12C571.738 504.013 572.325 503.893 572.725 503.76C573.151 503.6 573.445 503.267 573.605 502.76C573.765 502.227 573.845 501.36 573.845 500.16V492.16C573.845 490.827 573.498 489.813 572.805 489.12C572.111 488.4 571.138 488.04 569.885 488.04C568.925 488.04 568.058 488.267 567.285 488.72C566.511 489.147 565.871 489.68 565.365 490.32C564.858 490.96 564.485 491.573 564.245 492.16V500.16C564.245 501.36 564.325 502.227 564.485 502.76C564.645 503.267 564.925 503.6 565.325 503.76C565.751 503.893 566.351 504.013 567.125 504.12L567.765 504.2V505.12L562.845 505L557.925 505.12ZM589.074 505.44C588.06 505.44 587.194 505.32 586.474 505.08C585.78 504.867 585.234 504.667 584.834 504.48C584.407 504.267 584.14 504.16 584.034 504.16C583.927 504.16 583.834 504.213 583.754 504.32C583.7 504.4 583.634 504.627 583.554 505H582.634L582.794 502.36L582.914 498.96H583.794L583.834 499.64C583.887 500.387 584.127 501.133 584.554 501.88C585.007 502.627 585.62 503.253 586.394 503.76C587.167 504.267 588.06 504.52 589.074 504.52C590.167 504.52 591.047 504.24 591.714 503.68C592.38 503.12 592.714 502.347 592.714 501.36C592.714 500.507 592.367 499.787 591.674 499.2C591.007 498.613 590.074 498.093 588.874 497.64L587.434 497.08C586.047 496.547 584.994 495.88 584.274 495.08C583.58 494.28 583.234 493.253 583.234 492C583.234 490.933 583.474 490.027 583.954 489.28C584.46 488.507 585.114 487.907 585.914 487.48C586.74 487.053 587.62 486.84 588.554 486.84C589.22 486.84 589.78 486.92 590.234 487.08C590.714 487.24 591.114 487.4 591.434 487.56C591.7 487.693 591.927 487.76 592.114 487.76C592.38 487.76 592.594 487.48 592.754 486.92L593.634 486.96L593.474 489.56V492.36H592.554C592.367 491.107 591.94 490.027 591.274 489.12C590.607 488.187 589.647 487.72 588.394 487.72C587.514 487.72 586.767 488 586.154 488.56C585.567 489.12 585.274 489.827 585.274 490.68C585.274 491.507 585.58 492.2 586.194 492.76C586.834 493.293 587.7 493.773 588.794 494.2L590.354 494.8C591.98 495.413 593.1 496.16 593.714 497.04C594.354 497.893 594.674 498.92 594.674 500.12C594.674 501.533 594.194 502.773 593.234 503.84C592.274 504.907 590.887 505.44 589.074 505.44ZM603.897 505L598.977 491.44C598.657 490.56 598.284 489.867 597.857 489.36C597.43 488.853 596.884 488.573 596.217 488.52L595.777 488.48V487.56L600.017 487.68L603.937 487.56V488.48L603.537 488.52C602.204 488.627 601.537 489.133 601.537 490.04C601.537 490.2 601.55 490.373 601.577 490.56C601.604 490.747 601.657 490.947 601.737 491.16L605.617 501.92L610.057 491.88C610.19 491.56 610.297 491.267 610.377 491C610.484 490.707 610.537 490.453 610.537 490.24C610.537 489.147 609.99 488.573 608.897 488.52L607.657 488.48V487.56H609.057C610.044 487.56 610.764 487.96 611.217 488.76C611.404 488.307 611.764 488 612.297 487.84C612.857 487.653 613.364 487.56 613.817 487.56H615.657V488.48L615.057 488.52C614.577 488.547 614.23 488.693 614.017 488.96C613.804 489.2 613.697 489.507 613.697 489.88C613.697 490.227 613.804 490.68 614.017 491.24L618.177 501.88L622.337 491.32C622.39 491.133 622.457 490.907 622.537 490.64C622.644 490.373 622.697 490.16 622.697 490C622.697 489.2 622.044 488.72 620.737 488.56L620.097 488.48V487.56L623.857 487.68L627.017 487.56V488.48L626.377 488.56C625.444 488.667 624.777 489 624.377 489.56C624.004 490.12 623.67 490.747 623.377 491.44L618.017 505H616.497L611.297 491.6L605.417 505H603.897ZM636.349 505.44C634.589 505.44 633.056 505.067 631.749 504.32C630.442 503.547 629.416 502.493 628.669 501.16C627.949 499.8 627.589 498.253 627.589 496.52C627.589 494.653 627.989 493 628.789 491.56C629.589 490.093 630.656 488.947 631.989 488.12C633.349 487.267 634.842 486.84 636.469 486.84C638.522 486.84 640.122 487.493 641.269 488.8C642.442 490.107 643.029 491.827 643.029 493.96C643.029 494.28 643.016 494.547 642.989 494.76C642.962 494.973 642.936 495.12 642.909 495.2H630.829C630.802 495.573 630.789 495.947 630.789 496.32C630.789 497.733 631.016 499.053 631.469 500.28C631.922 501.48 632.602 502.44 633.509 503.16C634.442 503.88 635.576 504.24 636.909 504.24C638.162 504.24 639.269 503.893 640.229 503.2C641.216 502.48 641.976 501.427 642.509 500.04L643.469 500.4C642.349 503.76 639.976 505.44 636.349 505.44ZM636.469 487.84C634.816 487.84 633.522 488.427 632.589 489.6C631.682 490.773 631.122 492.333 630.909 494.28H635.989C637.189 494.28 638.096 494.147 638.709 493.88C639.349 493.587 639.776 493.24 639.989 492.84C640.229 492.413 640.349 492 640.349 491.6C640.349 490.427 639.949 489.507 639.149 488.84C638.349 488.173 637.456 487.84 636.469 487.84ZM645.972 505.12V504.2L646.612 504.12C647.385 504.013 647.972 503.893 648.372 503.76C648.798 503.6 649.092 503.267 649.252 502.76C649.412 502.227 649.492 501.36 649.492 500.16V491.84C649.492 490.8 649.345 490.04 649.052 489.56C648.785 489.08 648.385 488.787 647.852 488.68C647.318 488.547 646.692 488.48 645.972 488.48V487.56C647.065 487.56 648.118 487.52 649.132 487.44C650.145 487.36 651.198 487.24 652.292 487.08L651.852 491.68H652.012C652.598 489.893 653.318 488.64 654.172 487.92C655.025 487.2 655.945 486.84 656.932 486.84C658.052 486.84 658.798 487.12 659.172 487.68C659.545 488.213 659.732 488.733 659.732 489.24C659.732 489.827 659.558 490.307 659.212 490.68C658.865 491.053 658.398 491.24 657.812 491.24C657.252 491.24 656.825 491.107 656.532 490.84C656.238 490.573 656.092 490.267 656.092 489.92C656.092 489.653 656.118 489.4 656.172 489.16C656.252 488.92 656.292 488.733 656.292 488.6C656.292 488.333 656.105 488.2 655.732 488.2C655.358 488.2 654.958 488.373 654.532 488.72C654.132 489.067 653.785 489.547 653.492 490.16C653.252 490.667 653.025 491.227 652.812 491.84C652.598 492.453 652.425 493.12 652.292 493.84V500.16C652.292 501.36 652.372 502.227 652.532 502.76C652.692 503.267 652.972 503.6 653.372 503.76C653.798 503.893 654.398 504.013 655.172 504.12L655.812 504.2V505.12L650.892 505L645.972 505.12ZM679.623 505.44C678.316 505.44 677.249 505.053 676.423 504.28C675.623 503.48 675.223 502.187 675.223 500.4V488.56H672.263V487.56L673.343 487.48C674.436 487.4 675.263 486.96 675.823 486.16C676.409 485.333 676.796 484.187 676.983 482.72H678.023V487.56H683.143V488.56H678.023V500.56C678.023 502.907 678.849 504.08 680.503 504.08C681.196 504.08 681.756 503.853 682.183 503.4C682.609 502.92 682.996 502.333 683.343 501.64L684.223 502.08C684.063 502.48 683.863 502.853 683.623 503.2C683.409 503.52 683.196 503.8 682.983 504.04C682.529 504.547 682.009 504.907 681.423 505.12C680.863 505.333 680.263 505.44 679.623 505.44ZM685.217 505.12V504.2L685.857 504.12C686.631 504.013 687.217 503.893 687.617 503.76C688.044 503.6 688.337 503.267 688.497 502.76C688.657 502.227 688.737 501.36 688.737 500.16V480.64C688.737 479.253 688.444 478.373 687.857 478C687.297 477.6 686.511 477.4 685.497 477.4H685.217V476.48C686.311 476.48 687.364 476.453 688.377 476.4C689.391 476.32 690.444 476.187 691.537 476V490.32C692.151 489.413 693.017 488.613 694.137 487.92C695.257 487.2 696.564 486.84 698.057 486.84C699.871 486.84 701.297 487.307 702.337 488.24C703.404 489.147 703.937 490.453 703.937 492.16V500.16C703.937 501.36 704.017 502.227 704.177 502.76C704.337 503.267 704.617 503.6 705.017 503.76C705.444 503.893 706.044 504.013 706.817 504.12L707.457 504.2V505.12L702.537 505L697.617 505.12V504.2L698.257 504.12C699.031 504.013 699.617 503.893 700.017 503.76C700.444 503.6 700.737 503.267 700.897 502.76C701.057 502.227 701.137 501.36 701.137 500.16V492.16C701.137 490.827 700.791 489.813 700.097 489.12C699.404 488.4 698.431 488.04 697.177 488.04C696.217 488.04 695.351 488.267 694.577 488.72C693.804 489.147 693.164 489.68 692.657 490.32C692.151 490.96 691.777 491.573 691.537 492.16V500.16C691.537 501.36 691.617 502.227 691.777 502.76C691.937 503.267 692.217 503.6 692.617 503.76C693.044 503.893 693.644 504.013 694.417 504.12L695.057 504.2V505.12L690.137 505L685.217 505.12ZM718.458 505.44C716.698 505.44 715.165 505.067 713.858 504.32C712.552 503.547 711.525 502.493 710.778 501.16C710.058 499.8 709.698 498.253 709.698 496.52C709.698 494.653 710.098 493 710.898 491.56C711.698 490.093 712.765 488.947 714.098 488.12C715.458 487.267 716.952 486.84 718.578 486.84C720.632 486.84 722.232 487.493 723.378 488.8C724.552 490.107 725.138 491.827 725.138 493.96C725.138 494.28 725.125 494.547 725.098 494.76C725.072 494.973 725.045 495.12 725.018 495.2H712.938C712.912 495.573 712.898 495.947 712.898 496.32C712.898 497.733 713.125 499.053 713.578 500.28C714.032 501.48 714.712 502.44 715.618 503.16C716.552 503.88 717.685 504.24 719.018 504.24C720.272 504.24 721.378 503.893 722.338 503.2C723.325 502.48 724.085 501.427 724.618 500.04L725.578 500.4C724.458 503.76 722.085 505.44 718.458 505.44ZM718.578 487.84C716.925 487.84 715.632 488.427 714.698 489.6C713.792 490.773 713.232 492.333 713.018 494.28H718.098C719.298 494.28 720.205 494.147 720.818 493.88C721.458 493.587 721.885 493.24 722.098 492.84C722.338 492.413 722.458 492 722.458 491.6C722.458 490.427 722.058 489.507 721.258 488.84C720.458 488.173 719.565 487.84 718.578 487.84ZM747.428 505.44C745.908 505.44 744.534 505.027 743.308 504.2C742.081 503.373 741.108 502.253 740.388 500.84C739.668 499.4 739.308 497.813 739.308 496.08C739.308 494.347 739.668 492.787 740.388 491.4C741.108 490.013 742.094 488.907 743.348 488.08C744.601 487.253 746.014 486.84 747.588 486.84C748.734 486.84 749.788 487.093 750.748 487.6C751.734 488.08 752.521 488.64 753.108 489.28L755.188 487.04H755.788V511.36C755.788 512.56 755.868 513.413 756.028 513.92C756.188 514.453 756.468 514.787 756.868 514.92C757.294 515.08 757.894 515.213 758.668 515.32L759.308 515.4V516.32L754.388 516.2L749.468 516.32V515.4L750.108 515.32C750.881 515.213 751.468 515.08 751.868 514.92C752.294 514.787 752.588 514.453 752.748 513.92C752.908 513.413 752.988 512.56 752.988 511.36V502.92C752.268 503.693 751.441 504.307 750.508 504.76C749.574 505.213 748.548 505.44 747.428 505.44ZM742.508 496.08C742.508 497.627 742.694 499.013 743.068 500.24C743.468 501.467 744.054 502.44 744.828 503.16C745.628 503.88 746.628 504.24 747.828 504.24C748.974 504.24 749.961 503.987 750.788 503.48C751.641 502.947 752.374 502.307 752.988 501.56V490.76C752.534 490.067 751.854 489.44 750.948 488.88C750.041 488.32 749.041 488.04 747.948 488.04C746.721 488.04 745.708 488.4 744.908 489.12C744.108 489.813 743.508 490.773 743.108 492C742.708 493.2 742.508 494.56 742.508 496.08ZM768.434 505.44C766.701 505.44 765.327 505.013 764.314 504.16C763.327 503.28 762.834 501.987 762.834 500.28V492.52C762.834 491.32 762.754 490.467 762.594 489.96C762.434 489.427 762.141 489.08 761.714 488.92C761.314 488.76 760.727 488.64 759.954 488.56L759.314 488.48V487.56L764.234 487.68L765.634 487.64V500.12C765.634 501.427 765.967 502.427 766.634 503.12C767.301 503.813 768.207 504.16 769.354 504.16C770.341 504.16 771.207 503.947 771.954 503.52C772.727 503.067 773.381 502.493 773.914 501.8C774.474 501.107 774.914 500.4 775.234 499.68V492.52C775.234 491.32 775.154 490.467 774.994 489.96C774.834 489.427 774.541 489.08 774.114 488.92C773.714 488.76 773.127 488.64 772.354 488.56L771.714 488.48V487.56L776.634 487.68L778.034 487.64V500.56C778.034 501.573 778.154 502.333 778.394 502.84C778.661 503.32 779.034 503.64 779.514 503.8C780.021 503.96 780.634 504.04 781.354 504.04V504.96C780.261 504.96 779.261 504.973 778.354 505C777.447 505.027 776.407 505.147 775.234 505.36V501.68C774.967 502.107 774.687 502.48 774.394 502.8C773.701 503.573 772.861 504.213 771.874 504.72C770.887 505.2 769.741 505.44 768.434 505.44ZM792.326 505.44C790.566 505.44 789.032 505.067 787.726 504.32C786.419 503.547 785.392 502.493 784.646 501.16C783.926 499.8 783.566 498.253 783.566 496.52C783.566 494.653 783.966 493 784.766 491.56C785.566 490.093 786.632 488.947 787.966 488.12C789.326 487.267 790.819 486.84 792.446 486.84C794.499 486.84 796.099 487.493 797.246 488.8C798.419 490.107 799.006 491.827 799.006 493.96C799.006 494.28 798.992 494.547 798.966 494.76C798.939 494.973 798.912 495.12 798.886 495.2H786.806C786.779 495.573 786.766 495.947 786.766 496.32C786.766 497.733 786.992 499.053 787.446 500.28C787.899 501.48 788.579 502.44 789.486 503.16C790.419 503.88 791.552 504.24 792.886 504.24C794.139 504.24 795.246 503.893 796.206 503.2C797.192 502.48 797.952 501.427 798.486 500.04L799.446 500.4C798.326 503.76 795.952 505.44 792.326 505.44ZM792.446 487.84C790.792 487.84 789.499 488.427 788.566 489.6C787.659 490.773 787.099 492.333 786.886 494.28H791.966C793.166 494.28 794.072 494.147 794.686 493.88C795.326 493.587 795.752 493.24 795.966 492.84C796.206 492.413 796.326 492 796.326 491.6C796.326 490.427 795.926 489.507 795.126 488.84C794.326 488.173 793.432 487.84 792.446 487.84ZM809.308 505.44C808.295 505.44 807.428 505.32 806.708 505.08C806.015 504.867 805.468 504.667 805.068 504.48C804.641 504.267 804.375 504.16 804.268 504.16C804.161 504.16 804.068 504.213 803.988 504.32C803.935 504.4 803.868 504.627 803.788 505H802.868L803.028 502.36L803.148 498.96H804.028L804.068 499.64C804.121 500.387 804.361 501.133 804.788 501.88C805.241 502.627 805.855 503.253 806.628 503.76C807.401 504.267 808.295 504.52 809.308 504.52C810.401 504.52 811.281 504.24 811.948 503.68C812.615 503.12 812.948 502.347 812.948 501.36C812.948 500.507 812.601 499.787 811.908 499.2C811.241 498.613 810.308 498.093 809.108 497.64L807.668 497.08C806.281 496.547 805.228 495.88 804.508 495.08C803.815 494.28 803.468 493.253 803.468 492C803.468 490.933 803.708 490.027 804.188 489.28C804.695 488.507 805.348 487.907 806.148 487.48C806.975 487.053 807.855 486.84 808.788 486.84C809.455 486.84 810.015 486.92 810.468 487.08C810.948 487.24 811.348 487.4 811.668 487.56C811.935 487.693 812.161 487.76 812.348 487.76C812.615 487.76 812.828 487.48 812.988 486.92L813.868 486.96L813.708 489.56V492.36H812.788C812.601 491.107 812.175 490.027 811.508 489.12C810.841 488.187 809.881 487.72 808.628 487.72C807.748 487.72 807.001 488 806.388 488.56C805.801 489.12 805.508 489.827 805.508 490.68C805.508 491.507 805.815 492.2 806.428 492.76C807.068 493.293 807.935 493.773 809.028 494.2L810.588 494.8C812.215 495.413 813.335 496.16 813.948 497.04C814.588 497.893 814.908 498.92 814.908 500.12C814.908 501.533 814.428 502.773 813.468 503.84C812.508 504.907 811.121 505.44 809.308 505.44ZM825.091 505.44C823.785 505.44 822.718 505.053 821.891 504.28C821.091 503.48 820.691 502.187 820.691 500.4V488.56H817.731V487.56L818.811 487.48C819.905 487.4 820.731 486.96 821.291 486.16C821.878 485.333 822.265 484.187 822.451 482.72H823.491V487.56H828.611V488.56H823.491V500.56C823.491 502.907 824.318 504.08 825.971 504.08C826.665 504.08 827.225 503.853 827.651 503.4C828.078 502.92 828.465 502.333 828.811 501.64L829.691 502.08C829.531 502.48 829.331 502.853 829.091 503.2C828.878 503.52 828.665 503.8 828.451 504.04C827.998 504.547 827.478 504.907 826.891 505.12C826.331 505.333 825.731 505.44 825.091 505.44ZM831.206 505.12V504.2L831.846 504.12C832.619 504.013 833.206 503.893 833.606 503.76C834.033 503.6 834.326 503.267 834.486 502.76C834.646 502.227 834.726 501.36 834.726 500.16V491.72C834.726 490.333 834.433 489.453 833.846 489.08C833.286 488.68 832.499 488.48 831.486 488.48H831.206V487.56C832.299 487.56 833.353 487.533 834.366 487.48C835.379 487.4 836.433 487.267 837.526 487.08V500.16C837.526 501.36 837.606 502.227 837.766 502.76C837.926 503.267 838.206 503.6 838.606 503.76C839.033 503.893 839.633 504.013 840.406 504.12L841.046 504.2V505.12L836.126 505L831.206 505.12ZM835.646 482.4C834.953 482.4 834.406 482.16 834.006 481.68C833.606 481.2 833.406 480.627 833.406 479.96C833.406 479.267 833.606 478.693 834.006 478.24C834.406 477.76 834.953 477.52 835.646 477.52C836.419 477.52 836.979 477.76 837.326 478.24C837.699 478.693 837.886 479.267 837.886 479.96C837.886 480.627 837.699 481.2 837.326 481.68C836.979 482.16 836.419 482.4 835.646 482.4ZM852.453 505.44C850.746 505.44 849.186 505.027 847.773 504.2C846.386 503.373 845.28 502.267 844.453 500.88C843.653 499.467 843.253 497.907 843.253 496.2C843.253 494.44 843.653 492.853 844.453 491.44C845.28 490.027 846.386 488.907 847.773 488.08C849.186 487.253 850.746 486.84 852.453 486.84C854.186 486.84 855.746 487.253 857.133 488.08C858.52 488.907 859.613 490.027 860.413 491.44C861.24 492.853 861.653 494.44 861.653 496.2C861.653 497.907 861.24 499.467 860.413 500.88C859.613 502.267 858.52 503.373 857.133 504.2C855.746 505.027 854.186 505.44 852.453 505.44ZM852.453 504.44C853.893 504.44 855.053 504.08 855.933 503.36C856.813 502.613 857.453 501.627 857.853 500.4C858.253 499.147 858.453 497.747 858.453 496.2C858.453 494.6 858.253 493.173 857.853 491.92C857.453 490.667 856.813 489.68 855.933 488.96C855.053 488.213 853.893 487.84 852.453 487.84C851.013 487.84 849.853 488.213 848.973 488.96C848.093 489.68 847.453 490.667 847.053 491.92C846.653 493.173 846.453 494.6 846.453 496.2C846.453 497.747 846.653 499.147 847.053 500.4C847.453 501.627 848.093 502.613 848.973 503.36C849.853 504.08 851.013 504.44 852.453 504.44ZM864.565 505.12V504.2L865.205 504.12C865.979 504.013 866.565 503.893 866.965 503.76C867.392 503.6 867.685 503.267 867.845 502.76C868.005 502.227 868.085 501.36 868.085 500.16V491.72C868.085 490.333 867.792 489.453 867.205 489.08C866.645 488.68 865.859 488.48 864.845 488.48H864.565V487.56C865.659 487.56 866.712 487.533 867.725 487.48C868.739 487.4 869.792 487.267 870.885 487.08V490.32C871.499 489.413 872.365 488.613 873.485 487.92C874.605 487.2 875.912 486.84 877.405 486.84C879.219 486.84 880.645 487.307 881.685 488.24C882.752 489.147 883.285 490.453 883.285 492.16V500.16C883.285 501.36 883.365 502.227 883.525 502.76C883.685 503.267 883.965 503.6 884.365 503.76C884.792 503.893 885.392 504.013 886.165 504.12L886.805 504.2V505.12L881.885 505L876.965 505.12V504.2L877.605 504.12C878.379 504.013 878.965 503.893 879.365 503.76C879.792 503.6 880.085 503.267 880.245 502.76C880.405 502.227 880.485 501.36 880.485 500.16V492.16C880.485 490.827 880.139 489.813 879.445 489.12C878.752 488.4 877.779 488.04 876.525 488.04C875.565 488.04 874.699 488.267 873.925 488.72C873.152 489.147 872.512 489.68 872.005 490.32C871.499 490.96 871.125 491.573 870.885 492.16V500.16C870.885 501.36 870.965 502.227 871.125 502.76C871.285 503.267 871.565 503.6 871.965 503.76C872.392 503.893 872.992 504.013 873.765 504.12L874.405 504.2V505.12L869.485 505L864.565 505.12ZM895.714 505.44C894.701 505.44 893.834 505.32 893.114 505.08C892.421 504.867 891.874 504.667 891.474 504.48C891.048 504.267 890.781 504.16 890.674 504.16C890.568 504.16 890.474 504.213 890.394 504.32C890.341 504.4 890.274 504.627 890.194 505H889.274L889.434 502.36L889.554 498.96H890.434L890.474 499.64C890.528 500.387 890.768 501.133 891.194 501.88C891.648 502.627 892.261 503.253 893.034 503.76C893.808 504.267 894.701 504.52 895.714 504.52C896.808 504.52 897.688 504.24 898.354 503.68C899.021 503.12 899.354 502.347 899.354 501.36C899.354 500.507 899.008 499.787 898.314 499.2C897.648 498.613 896.714 498.093 895.514 497.64L894.074 497.08C892.688 496.547 891.634 495.88 890.914 495.08C890.221 494.28 889.874 493.253 889.874 492C889.874 490.933 890.114 490.027 890.594 489.28C891.101 488.507 891.754 487.907 892.554 487.48C893.381 487.053 894.261 486.84 895.194 486.84C895.861 486.84 896.421 486.92 896.874 487.08C897.354 487.24 897.754 487.4 898.074 487.56C898.341 487.693 898.568 487.76 898.754 487.76C899.021 487.76 899.234 487.48 899.394 486.92L900.274 486.96L900.114 489.56V492.36H899.194C899.008 491.107 898.581 490.027 897.914 489.12C897.248 488.187 896.288 487.72 895.034 487.72C894.154 487.72 893.408 488 892.794 488.56C892.208 489.12 891.914 489.827 891.914 490.68C891.914 491.507 892.221 492.2 892.834 492.76C893.474 493.293 894.341 493.773 895.434 494.2L896.994 494.8C898.621 495.413 899.741 496.16 900.354 497.04C900.994 497.893 901.314 498.92 901.314 500.12C901.314 501.533 900.834 502.773 899.874 503.84C898.914 504.907 897.528 505.44 895.714 505.44ZM907.898 505.44C907.151 505.44 906.538 505.187 906.058 504.68C905.578 504.173 905.338 503.573 905.338 502.88C905.338 502.213 905.578 501.64 906.058 501.16C906.538 500.653 907.151 500.4 907.898 500.4C908.591 500.4 909.178 500.653 909.658 501.16C910.138 501.64 910.378 502.213 910.378 502.88C910.378 503.573 910.138 504.173 909.658 504.68C909.178 505.187 908.591 505.44 907.898 505.44Z" fill="black"/>
<path d="M619.92 240.216V238.416L620.568 238.344C622.248 238.104 623.616 237.768 624.672 237.336C625.776 236.904 626.712 236.208 627.48 235.248C628.296 234.24 629.064 232.872 629.784 231.144L647.208 188.88H649.656L666.648 231.144C667.608 233.496 668.64 235.224 669.744 236.328C670.848 237.432 672.36 238.08 674.28 238.272L675.72 238.416V240.216L666.792 240L655.272 240.216V238.416L656.712 238.272C658.392 238.08 659.592 237.72 660.312 237.192C661.032 236.664 661.392 235.92 661.392 234.96C661.392 234 661.056 232.704 660.384 231.072L656.64 221.712H636.336L632.448 231.072C632.112 231.936 631.824 232.728 631.584 233.448C631.344 234.12 631.224 234.72 631.224 235.248C631.224 236.16 631.608 236.856 632.376 237.336C633.192 237.816 634.512 238.128 636.336 238.272L637.776 238.416V240.216L628.632 240L619.92 240.216ZM637.272 219.408H655.776L646.704 196.584L637.272 219.408ZM681.704 240.792V196.152C681.704 193.656 681.176 192.072 680.12 191.4C679.112 190.68 677.696 190.32 675.872 190.32H675.368V188.664C677.336 188.664 679.232 188.616 681.056 188.52C682.88 188.376 684.776 188.136 686.744 187.8V211.848C688.04 210.456 689.528 209.352 691.208 208.536C692.888 207.72 694.736 207.312 696.752 207.312C699.536 207.312 702.008 208.056 704.168 209.544C706.376 211.032 708.128 213.048 709.424 215.592C710.72 218.136 711.368 220.992 711.368 224.16C711.368 227.232 710.72 230.04 709.424 232.584C708.128 235.08 706.352 237.072 704.096 238.56C701.888 240.048 699.344 240.792 696.464 240.792C694.448 240.792 692.576 240.36 690.848 239.496C689.12 238.632 687.728 237.648 686.672 236.544L682.856 240.792H681.704ZM696.032 209.472C693.968 209.472 692.168 209.952 690.632 210.912C689.144 211.824 687.848 212.952 686.744 214.296V233.736C687.56 234.984 688.784 236.112 690.416 237.12C692.048 238.128 693.848 238.632 695.816 238.632C698.024 238.632 699.848 238.008 701.288 236.76C702.728 235.464 703.808 233.736 704.528 231.576C705.248 229.368 705.608 226.896 705.608 224.16C705.608 221.376 705.248 218.88 704.528 216.672C703.856 214.464 702.8 212.712 701.36 211.416C699.968 210.12 698.192 209.472 696.032 209.472ZM734.386 240.792C731.314 240.792 728.506 240.048 725.962 238.56C723.466 237.072 721.474 235.08 719.986 232.584C718.546 230.04 717.826 227.232 717.826 224.16C717.826 220.992 718.546 218.136 719.986 215.592C721.474 213.048 723.466 211.032 725.962 209.544C728.506 208.056 731.314 207.312 734.386 207.312C737.506 207.312 740.314 208.056 742.81 209.544C745.306 211.032 747.274 213.048 748.714 215.592C750.202 218.136 750.946 220.992 750.946 224.16C750.946 227.232 750.202 230.04 748.714 232.584C747.274 235.08 745.306 237.072 742.81 238.56C740.314 240.048 737.506 240.792 734.386 240.792ZM734.386 238.992C736.978 238.992 739.066 238.344 740.65 237.048C742.234 235.704 743.386 233.928 744.106 231.72C744.826 229.464 745.186 226.944 745.186 224.16C745.186 221.28 744.826 218.712 744.106 216.456C743.386 214.2 742.234 212.424 740.65 211.128C739.066 209.784 736.978 209.112 734.386 209.112C731.794 209.112 729.706 209.784 728.122 211.128C726.538 212.424 725.386 214.2 724.666 216.456C723.946 218.712 723.586 221.28 723.586 224.16C723.586 226.944 723.946 229.464 724.666 231.72C725.386 233.928 726.538 235.704 728.122 237.048C729.706 238.344 731.794 238.992 734.386 238.992ZM771.308 240.792C768.188 240.792 765.716 240.024 763.892 238.488C762.116 236.904 761.228 234.576 761.228 231.504V217.536C761.228 215.376 761.084 213.84 760.796 212.928C760.508 211.968 759.98 211.344 759.212 211.056C758.492 210.768 757.436 210.552 756.044 210.408L754.892 210.264V208.608L763.748 208.824L766.268 208.752V231.216C766.268 233.568 766.868 235.368 768.068 236.616C769.268 237.864 770.9 238.488 772.964 238.488C774.74 238.488 776.3 238.104 777.644 237.336C779.036 236.52 780.212 235.488 781.172 234.24C782.18 232.992 782.972 231.72 783.548 230.424V217.536C783.548 215.376 783.404 213.84 783.116 212.928C782.828 211.968 782.3 211.344 781.532 211.056C780.812 210.768 779.756 210.552 778.364 210.408L777.212 210.264V208.608L786.068 208.824L788.588 208.752V232.008C788.588 233.832 788.804 235.2 789.236 236.112C789.716 236.976 790.388 237.552 791.252 237.84C792.164 238.128 793.268 238.272 794.564 238.272V239.928C792.596 239.928 790.796 239.952 789.164 240C787.532 240.048 785.66 240.264 783.548 240.648V234.024C783.068 234.792 782.564 235.464 782.036 236.04C780.788 237.432 779.276 238.584 777.5 239.496C775.724 240.36 773.66 240.792 771.308 240.792ZM810.01 240.792C807.658 240.792 805.738 240.096 804.25 238.704C802.81 237.264 802.09 234.936 802.09 231.72V210.408H796.762V208.608L798.706 208.464C800.674 208.32 802.162 207.528 803.17 206.088C804.226 204.6 804.922 202.536 805.258 199.896H807.13V208.608H816.346V210.408H807.13V232.008C807.13 236.232 808.618 238.344 811.594 238.344C812.842 238.344 813.85 237.936 814.618 237.12C815.386 236.256 816.082 235.2 816.706 233.952L818.29 234.744C818.002 235.464 817.642 236.136 817.21 236.76C816.826 237.336 816.442 237.84 816.058 238.272C815.242 239.184 814.306 239.832 813.25 240.216C812.242 240.6 811.162 240.792 810.01 240.792Z" fill="black"/>
</svg>
