<svg width="425" height="113" viewBox="0 0 425 113" fill="none" xmlns="http://www.w3.org/2000/svg">
<g filter="url(#filter0_f_178_4)">
<rect x="8" y="31" width="410" height="76" rx="38" fill="#8D8282"/>
<rect x="8" y="31" width="410" height="76" rx="38" stroke="#8D8282" stroke-width="3"/>
</g>
<rect x="2" y="2" width="421" height="88.358" rx="44.179" fill="white" stroke="#8D8282" stroke-width="3"/>
<path d="M96.872 63.192V61.992L97.832 61.896C98.952 61.768 99.8 61.608 100.376 61.416C100.984 61.224 101.4 60.776 101.624 60.072C101.848 59.368 101.96 58.216 101.96 56.616V31.848C101.672 31.496 101.24 31.112 100.664 30.696C100.088 30.248 99.24 30.024 98.12 30.024H96.68V28.776L105.992 28.92C106.568 29.72 107.336 30.776 108.296 32.088C109.288 33.4 110.376 34.856 111.56 36.456C112.776 38.056 114.024 39.704 115.304 41.4C116.584 43.064 117.816 44.68 119 46.248C120.216 47.816 121.304 49.224 122.264 50.472C123.224 51.72 123.976 52.712 124.52 53.448V35.304C124.52 33.704 124.408 32.568 124.184 31.896C123.96 31.192 123.544 30.744 122.936 30.552C122.36 30.328 121.512 30.168 120.392 30.072L119.432 29.976V28.776L125.672 28.92L131.528 28.776V29.976L130.568 30.072C129.48 30.2 128.632 30.376 128.024 30.6C127.416 30.792 127 31.224 126.776 31.896C126.552 32.568 126.44 33.704 126.44 35.304V63H125C124.488 61.944 123.72 60.648 122.696 59.112C121.704 57.544 120.552 55.832 119.24 53.976C117.928 52.12 116.552 50.232 115.112 48.312C113.704 46.36 112.296 44.472 110.888 42.648C109.48 40.824 108.168 39.16 106.952 37.656C105.736 36.152 104.712 34.904 103.88 33.912V56.616C103.88 58.216 103.992 59.368 104.216 60.072C104.44 60.776 104.856 61.224 105.464 61.416C106.072 61.608 106.92 61.768 108.008 61.896L108.968 61.992V63.192L102.824 63L96.872 63.192ZM144.234 63.528C142.123 63.528 140.283 63.08 138.715 62.184C137.147 61.256 135.915 59.992 135.019 58.392C134.155 56.76 133.723 54.904 133.723 52.824C133.723 50.584 134.203 48.6 135.163 46.872C136.123 45.112 137.403 43.736 139.003 42.744C140.635 41.72 142.427 41.208 144.379 41.208C146.843 41.208 148.763 41.992 150.139 43.56C151.547 45.128 152.251 47.192 152.251 49.752C152.251 50.136 152.235 50.456 152.203 50.712C152.171 50.968 152.139 51.144 152.107 51.24H137.611C137.579 51.688 137.562 52.136 137.562 52.584C137.562 54.28 137.835 55.864 138.379 57.336C138.923 58.776 139.739 59.928 140.827 60.792C141.947 61.656 143.307 62.088 144.907 62.088C146.411 62.088 147.739 61.672 148.891 60.84C150.075 59.976 150.987 58.712 151.627 57.048L152.779 57.48C151.435 61.512 148.587 63.528 144.234 63.528ZM144.379 42.408C142.395 42.408 140.843 43.112 139.723 44.52C138.635 45.928 137.963 47.8 137.707 50.136H143.803C145.243 50.136 146.331 49.976 147.067 49.656C147.835 49.304 148.347 48.888 148.603 48.408C148.891 47.896 149.035 47.4 149.035 46.92C149.035 45.512 148.555 44.408 147.595 43.608C146.635 42.808 145.563 42.408 144.379 42.408ZM163.558 63L157.654 46.728C157.27 45.672 156.822 44.84 156.31 44.232C155.798 43.624 155.142 43.288 154.341 43.224L153.813 43.176V42.072L158.902 42.216L163.606 42.072V43.176L163.126 43.224C161.526 43.352 160.726 43.96 160.726 45.048C160.726 45.24 160.742 45.448 160.773 45.672C160.806 45.896 160.87 46.136 160.966 46.392L165.622 59.304L170.95 47.256C171.11 46.872 171.238 46.52 171.334 46.2C171.462 45.848 171.526 45.544 171.526 45.288C171.526 43.976 170.87 43.288 169.558 43.224L168.07 43.176V42.072H169.75C170.934 42.072 171.798 42.552 172.342 43.512C172.566 42.968 172.998 42.6 173.638 42.408C174.31 42.184 174.918 42.072 175.462 42.072H177.67V43.176L176.95 43.224C176.374 43.256 175.958 43.432 175.702 43.752C175.446 44.04 175.318 44.408 175.318 44.856C175.318 45.272 175.446 45.816 175.702 46.488L180.694 59.256L185.686 46.584C185.75 46.36 185.83 46.088 185.926 45.768C186.054 45.448 186.118 45.192 186.118 45C186.118 44.04 185.334 43.464 183.766 43.272L182.998 43.176V42.072L187.51 42.216L191.302 42.072V43.176L190.534 43.272C189.414 43.4 188.614 43.8 188.134 44.472C187.686 45.144 187.286 45.896 186.934 46.728L180.502 63H178.677L172.438 46.92L165.382 63H163.558ZM222.85 63.528C219.906 63.528 217.218 62.808 214.786 61.368C212.386 59.928 210.466 57.896 209.026 55.272C207.618 52.648 206.914 49.544 206.914 45.96C206.914 43.368 207.346 40.984 208.21 38.808C209.074 36.632 210.258 34.76 211.762 33.192C213.266 31.624 214.994 30.408 216.946 29.544C218.898 28.68 220.962 28.248 223.138 28.248C224.546 28.248 225.81 28.424 226.93 28.776C228.05 29.128 228.962 29.464 229.666 29.784C230.498 30.136 231.074 30.376 231.394 30.504C231.746 30.632 232.13 30.696 232.546 30.696C232.994 30.696 233.298 30.504 233.458 30.12C233.65 29.704 233.746 29.304 233.746 28.92H234.946L234.85 34.44L234.946 40.056H233.746C233.682 37.88 233.106 36.024 232.018 34.488C230.962 32.92 229.618 31.736 227.986 30.936C226.386 30.104 224.722 29.688 222.994 29.688C219.25 29.688 216.45 31.096 214.594 33.912C212.738 36.728 211.81 40.744 211.81 45.96C211.81 51.464 212.802 55.528 214.786 58.152C216.77 60.776 219.554 62.088 223.138 62.088C224.93 62.088 226.514 61.8 227.89 61.224C229.266 60.648 230.354 59.896 231.154 58.968C231.954 58.008 232.354 57.016 232.354 55.992V54.648C232.354 53.24 232.018 52.232 231.346 51.624C230.706 51.016 229.506 50.632 227.746 50.472L225.682 50.28V49.128L233.65 49.32L241.042 49.128V50.28L238.882 50.472C238.018 50.536 237.314 50.872 236.77 51.48C236.226 52.088 235.954 53.144 235.954 54.648V55.512C235.954 56.248 236.066 56.936 236.29 57.576C236.546 58.216 236.786 58.76 237.01 59.208L237.682 60.408L236.578 61.128C236.162 60.456 235.746 60.008 235.33 59.784C234.946 59.528 234.61 59.4 234.322 59.4C233.81 59.4 233.346 59.528 232.93 59.784C232.514 60.04 232.066 60.344 231.586 60.696C231.042 61.08 230.386 61.496 229.618 61.944C228.882 62.392 227.97 62.76 226.882 63.048C225.794 63.368 224.45 63.528 222.85 63.528ZM249.353 63.528C247.817 63.528 246.537 63.144 245.513 62.376C244.521 61.576 244.025 60.472 244.025 59.064C244.025 57.656 244.649 56.408 245.897 55.32C247.145 54.2 248.601 53.192 250.265 52.296C251.513 51.592 252.761 50.984 254.009 50.472C255.257 49.96 256.329 49.528 257.225 49.176V47.64C257.225 45.88 256.889 44.568 256.217 43.704C255.577 42.84 254.345 42.408 252.521 42.408C251.657 42.408 250.809 42.52 249.977 42.744C249.145 42.968 248.729 43.384 248.729 43.992C248.729 44.12 248.745 44.264 248.777 44.424C248.841 44.584 248.889 44.744 248.921 44.904C249.081 45.32 249.161 45.752 249.161 46.2C249.161 46.808 248.937 47.288 248.489 47.64C248.073 47.96 247.561 48.12 246.953 48.12C246.377 48.12 245.897 47.912 245.513 47.496C245.129 47.048 244.937 46.52 244.937 45.912C244.937 44.76 245.369 43.848 246.233 43.176C247.129 42.472 248.217 41.976 249.497 41.688C250.777 41.368 252.009 41.208 253.193 41.208C255.753 41.208 257.625 41.8 258.809 42.984C259.993 44.168 260.585 46.104 260.585 48.792V57.432C260.585 58.84 260.681 59.928 260.873 60.696C261.097 61.464 261.577 61.848 262.313 61.848C262.793 61.848 263.209 61.672 263.561 61.32C263.913 60.968 264.153 60.584 264.281 60.168L265.145 60.504C264.889 61.432 264.425 62.168 263.753 62.712C263.113 63.256 262.217 63.528 261.065 63.528C259.657 63.528 258.681 63.128 258.137 62.328C257.625 61.496 257.337 60.408 257.273 59.064C256.377 60.504 255.241 61.608 253.865 62.376C252.489 63.144 250.985 63.528 249.353 63.528ZM247.769 58.824C247.769 59.72 248.025 60.44 248.537 60.984C249.081 61.496 249.865 61.752 250.889 61.752C251.817 61.752 252.697 61.528 253.529 61.08C254.393 60.632 255.145 60.072 255.785 59.4C256.425 58.696 256.905 57.944 257.225 57.144V50.136C256.169 50.584 255.081 51.112 253.961 51.72C252.873 52.296 251.849 52.952 250.889 53.688C249.961 54.424 249.209 55.224 248.633 56.088C248.057 56.92 247.769 57.832 247.769 58.824ZM266.5 63.144V62.04L267.268 61.944C268.196 61.816 268.9 61.672 269.38 61.512C269.892 61.32 270.244 60.92 270.436 60.312C270.628 59.672 270.724 58.632 270.724 57.192V47.064C270.724 45.912 270.548 45.064 270.196 44.52C269.876 43.944 269.396 43.576 268.756 43.416C268.116 43.256 267.364 43.176 266.5 43.176V42.072C267.812 42.072 269.076 42.04 270.292 41.976C271.508 41.88 272.772 41.72 274.084 41.496V45.24C274.788 44.152 275.764 43.208 277.012 42.408C278.292 41.608 279.764 41.208 281.428 41.208C283.124 41.208 284.532 41.576 285.652 42.312C286.804 43.016 287.572 44.136 287.956 45.672C288.628 44.52 289.62 43.496 290.932 42.6C292.244 41.672 293.796 41.208 295.588 41.208C297.668 41.208 299.316 41.752 300.532 42.84C301.78 43.928 302.404 45.656 302.404 48.024V57.192C302.404 58.6 302.484 59.624 302.644 60.264C302.836 60.872 303.172 61.272 303.652 61.464C304.164 61.656 304.884 61.816 305.812 61.944L306.58 62.04V63.144L300.724 63L295.3 63.144V62.04L296.068 61.944C296.868 61.848 297.476 61.704 297.892 61.512C298.34 61.32 298.644 60.92 298.804 60.312C298.964 59.672 299.044 58.632 299.044 57.192V47.208C299.044 45.8 298.66 44.696 297.892 43.896C297.124 43.064 296.036 42.648 294.628 42.648C293.476 42.648 292.468 42.904 291.604 43.416C290.74 43.928 290.02 44.568 289.444 45.336C288.9 46.104 288.5 46.856 288.244 47.592C288.244 47.72 288.244 47.864 288.244 48.024V57.192C288.244 58.632 288.324 59.672 288.484 60.312C288.644 60.92 288.932 61.32 289.348 61.512C289.796 61.672 290.42 61.816 291.22 61.944L291.988 62.04V63.144L286.564 63L281.14 63.144V62.04L281.908 61.944C282.708 61.816 283.316 61.672 283.732 61.512C284.18 61.32 284.484 60.92 284.644 60.312C284.804 59.672 284.884 58.632 284.884 57.192V47.208C284.884 45.8 284.5 44.696 283.732 43.896C282.964 43.064 281.876 42.648 280.468 42.648C279.348 42.648 278.356 42.904 277.492 43.416C276.628 43.928 275.908 44.568 275.332 45.336C274.756 46.104 274.34 46.856 274.084 47.592V57.192C274.084 58.632 274.164 59.672 274.324 60.312C274.484 60.92 274.772 61.32 275.188 61.512C275.636 61.672 276.26 61.816 277.06 61.944L277.828 62.04V63.144L272.404 63L266.5 63.144ZM319.781 63.528C317.669 63.528 315.829 63.08 314.261 62.184C312.693 61.256 311.461 59.992 310.565 58.392C309.701 56.76 309.269 54.904 309.269 52.824C309.269 50.584 309.749 48.6 310.709 46.872C311.669 45.112 312.949 43.736 314.549 42.744C316.181 41.72 317.973 41.208 319.925 41.208C322.389 41.208 324.309 41.992 325.685 43.56C327.093 45.128 327.797 47.192 327.797 49.752C327.797 50.136 327.781 50.456 327.749 50.712C327.717 50.968 327.685 51.144 327.653 51.24H313.157C313.125 51.688 313.109 52.136 313.109 52.584C313.109 54.28 313.381 55.864 313.925 57.336C314.469 58.776 315.285 59.928 316.373 60.792C317.493 61.656 318.853 62.088 320.453 62.088C321.957 62.088 323.285 61.672 324.437 60.84C325.621 59.976 326.533 58.712 327.173 57.048L328.325 57.48C326.981 61.512 324.133 63.528 319.781 63.528ZM319.925 42.408C317.941 42.408 316.389 43.112 315.269 44.52C314.181 45.928 313.509 47.8 313.253 50.136H319.349C320.789 50.136 321.877 49.976 322.613 49.656C323.381 49.304 323.893 48.888 324.149 48.408C324.437 47.896 324.581 47.4 324.581 46.92C324.581 45.512 324.101 44.408 323.141 43.608C322.181 42.808 321.109 42.408 319.925 42.408Z" fill="black"/>
<defs>
<filter id="filter0_f_178_4" x="2.5" y="25.5" width="421" height="87" filterUnits="userSpaceOnUse" color-interpolation-filters="sRGB">
<feFlood flood-opacity="0" result="BackgroundImageFix"/>
<feBlend mode="normal" in="SourceGraphic" in2="BackgroundImageFix" result="shape"/>
<feGaussianBlur stdDeviation="2" result="effect1_foregroundBlur_178_4"/>
</filter>
</defs>
</svg>
