<svg width="66" height="63" viewBox="0 0 66 63" fill="none" xmlns="http://www.w3.org/2000/svg">
<path id="celebration" d="M0 62.3542L15.2083 19.7708L42.5833 47.1458L0 62.3542ZM10.0375 52.3167L31.4813 44.7125L17.6417 30.8729L10.0375 52.3167ZM38.1729 33.6104L34.9792 30.4167L52.0125 13.3833C53.6347 11.7611 55.5865 10.95 57.8677 10.95C60.149 10.95 62.1007 11.7611 63.7229 13.3833L65.5479 15.2083L62.3542 18.4021L60.5292 16.5771C59.8195 15.8674 58.9323 15.5125 57.8677 15.5125C56.8031 15.5125 55.916 15.8674 55.2063 16.5771L38.1729 33.6104ZM26.0063 21.4438L22.8125 18.25L24.6375 16.425C25.3472 15.7153 25.7021 14.8535 25.7021 13.8396C25.7021 12.8257 25.3472 11.9639 24.6375 11.2542L22.6604 9.27708L25.8542 6.08333L27.8313 8.06042C29.4535 9.68264 30.2646 11.609 30.2646 13.8396C30.2646 16.0701 29.4535 17.9965 27.8313 19.6188L26.0063 21.4438ZM32.0896 27.5271L28.8958 24.3333L39.8458 13.3833C40.5556 12.6736 40.9104 11.7865 40.9104 10.7219C40.9104 9.65729 40.5556 8.77014 39.8458 8.06042L34.9792 3.19375L38.1729 0L43.0396 4.86667C44.6618 6.48889 45.4729 8.44063 45.4729 10.7219C45.4729 13.0031 44.6618 14.9549 43.0396 16.5771L32.0896 27.5271ZM44.2563 39.6938L41.0625 36.5L45.9292 31.6333C47.5514 30.0111 49.5031 29.2 51.7844 29.2C54.0656 29.2 56.0174 30.0111 57.6396 31.6333L62.5063 36.5L59.3125 39.6938L54.4458 34.8271C53.7361 34.1174 52.849 33.7625 51.7844 33.7625C50.7198 33.7625 49.8326 34.1174 49.1229 34.8271L44.2563 39.6938Z" fill="#8D8282"/>
</svg>
