<svg width="322" height="41" viewBox="0 0 322 41" fill="none" xmlns="http://www.w3.org/2000/svg">
<path d="M14.1 29.44C11.38 29.44 9.03333 28.8133 7.06 27.56C5.11333 26.3067 3.60667 24.5867 2.54 22.4C1.5 20.1867 0.98 17.6533 0.98 14.8C0.98 12.6667 1.32667 10.7067 2.02 8.92C2.71333 7.13333 3.67333 5.57333 4.9 4.24C6.12667 2.90667 7.54 1.88 9.14 1.16C10.7667 0.413332 12.5 0.0399985 14.34 0.0399985C15.9667 0.0399985 17.3 0.226665 18.34 0.599998C19.4067 0.946665 20.2067 1.25333 20.74 1.52C21.0867 1.68 21.4067 1.82666 21.7 1.96C21.9933 2.06666 22.1933 2.12 22.3 2.12C22.5933 2.12 22.8333 2.01333 23.02 1.8C23.2067 1.56 23.3267 1.16 23.38 0.599998H24.38L24.3 5.28L24.38 9.96H23.38C22.98 7.18667 22.02 5.04 20.5 3.52C18.98 2 16.9667 1.24 14.46 1.24C12.7 1.24 11.22 1.6 10.02 2.32C8.82 3.01333 7.86 3.98667 7.14 5.24C6.42 6.46667 5.88667 7.90667 5.54 9.56C5.22 11.1867 5.06 12.9333 5.06 14.8C5.06 17.6 5.35333 20 5.94 22C6.55333 24 7.54 25.5467 8.9 26.64C10.2867 27.7067 12.14 28.24 14.46 28.24C16.1933 28.24 17.7 27.84 18.98 27.04C20.26 26.24 21.2867 25.1733 22.06 23.84C22.86 22.5067 23.34 21.04 23.5 19.44H24.46L24.38 24.32L24.5 29H23.54L23.42 28.56C23.3133 28.2133 23.18 27.8933 23.02 27.6C22.8867 27.28 22.6467 27.12 22.3 27.12C22.1133 27.12 21.8867 27.1733 21.62 27.28C21.38 27.3867 21.1 27.52 20.78 27.68C20.0867 28.0267 19.18 28.4133 18.06 28.84C16.94 29.24 15.62 29.44 14.1 29.44ZM40.2891 29.44C38.5824 29.44 37.0224 29.0267 35.6091 28.2C34.2224 27.3733 33.1157 26.2667 32.2891 24.88C31.4891 23.4667 31.0891 21.9067 31.0891 20.2C31.0891 18.44 31.4891 16.8533 32.2891 15.44C33.1157 14.0267 34.2224 12.9067 35.6091 12.08C37.0224 11.2533 38.5824 10.84 40.2891 10.84C42.0224 10.84 43.5824 11.2533 44.9691 12.08C46.3557 12.9067 47.4491 14.0267 48.2491 15.44C49.0757 16.8533 49.4891 18.44 49.4891 20.2C49.4891 21.9067 49.0757 23.4667 48.2491 24.88C47.4491 26.2667 46.3557 27.3733 44.9691 28.2C43.5824 29.0267 42.0224 29.44 40.2891 29.44ZM40.2891 28.44C41.7291 28.44 42.8891 28.08 43.7691 27.36C44.6491 26.6133 45.2891 25.6267 45.6891 24.4C46.0891 23.1467 46.2891 21.7467 46.2891 20.2C46.2891 18.6 46.0891 17.1733 45.6891 15.92C45.2891 14.6667 44.6491 13.68 43.7691 12.96C42.8891 12.2133 41.7291 11.84 40.2891 11.84C38.8491 11.84 37.6891 12.2133 36.8091 12.96C35.9291 13.68 35.2891 14.6667 34.8891 15.92C34.4891 17.1733 34.2891 18.6 34.2891 20.2C34.2891 21.7467 34.4891 23.1467 34.8891 24.4C35.2891 25.6267 35.9291 26.6133 36.8091 27.36C37.6891 28.08 38.8491 28.44 40.2891 28.44ZM54.4013 29.12V28.2L55.0413 28.12C55.8146 28.0133 56.4013 27.8933 56.8013 27.76C57.2279 27.6 57.5213 27.2667 57.6813 26.76C57.8413 26.2267 57.9213 25.36 57.9213 24.16V15.72C57.9213 14.3333 57.6279 13.4533 57.0413 13.08C56.4813 12.68 55.6946 12.48 54.6813 12.48H54.4013V11.56C55.4946 11.56 56.5479 11.5333 57.5613 11.48C58.5746 11.4 59.6279 11.2667 60.7213 11.08V14.32C61.3346 13.4133 62.2013 12.6133 63.3213 11.92C64.4413 11.2 65.7479 10.84 67.2413 10.84C69.0546 10.84 70.4813 11.3067 71.5213 12.24C72.5879 13.1467 73.1213 14.4533 73.1213 16.16V24.16C73.1213 25.36 73.2013 26.2267 73.3613 26.76C73.5213 27.2667 73.8013 27.6 74.2013 27.76C74.6279 27.8933 75.2279 28.0133 76.0013 28.12L76.6413 28.2V29.12L71.7213 29L66.8013 29.12V28.2L67.4413 28.12C68.2146 28.0133 68.8013 27.8933 69.2013 27.76C69.6279 27.6 69.9213 27.2667 70.0813 26.76C70.2413 26.2267 70.3213 25.36 70.3213 24.16V16.16C70.3213 14.8267 69.9746 13.8133 69.2813 13.12C68.5879 12.4 67.6146 12.04 66.3613 12.04C65.4013 12.04 64.5346 12.2667 63.7613 12.72C62.9879 13.1467 62.3479 13.68 61.8413 14.32C61.3346 14.96 60.9613 15.5733 60.7213 16.16V24.16C60.7213 25.36 60.8013 26.2267 60.9613 26.76C61.1213 27.2667 61.4013 27.6 61.8013 27.76C62.2279 27.8933 62.8279 28.0133 63.6013 28.12L64.2413 28.2V29.12L59.3213 29L54.4013 29.12ZM89.1503 23.72C88.2436 23.72 87.3636 23.5867 86.5103 23.32C85.7903 23.48 85.1103 23.76 84.4703 24.16C83.857 24.5333 83.5503 25.04 83.5503 25.68C83.5503 26.24 83.7503 26.6667 84.1503 26.96C84.5503 27.2267 85.0703 27.4133 85.7103 27.52C86.3503 27.6 87.0436 27.6667 87.7903 27.72L89.5503 27.8C91.2303 27.88 92.7503 28.0667 94.1103 28.36C95.4703 28.6267 96.5503 29.16 97.3503 29.96C98.177 30.76 98.5903 31.9867 98.5903 33.64C98.5903 35.16 98.137 36.44 97.2303 37.48C96.3503 38.5467 95.1903 39.36 93.7503 39.92C92.337 40.48 90.8036 40.76 89.1503 40.76C87.497 40.76 85.9236 40.5333 84.4303 40.08C82.9636 39.6267 81.7636 38.9333 80.8303 38C79.9236 37.0667 79.4703 35.8667 79.4703 34.4C79.4703 33.5467 79.6703 32.84 80.0703 32.28C80.497 31.72 81.0436 31.44 81.7103 31.44C82.1636 31.44 82.5503 31.56 82.8703 31.8C83.1903 32.0667 83.3503 32.4533 83.3503 32.96C83.3503 33.4133 83.2703 33.7733 83.1103 34.04C82.9503 34.3333 82.777 34.6267 82.5903 34.92C82.4303 35.2133 82.3503 35.5867 82.3503 36.04C82.3503 36.9467 82.657 37.6667 83.2703 38.2C83.9103 38.76 84.737 39.16 85.7503 39.4C86.7903 39.64 87.9236 39.76 89.1503 39.76C90.5103 39.76 91.7636 39.56 92.9103 39.16C94.057 38.76 94.977 38.16 95.6703 37.36C96.3903 36.5867 96.7503 35.6267 96.7503 34.48C96.7503 33.28 96.2703 32.4 95.3103 31.84C94.377 31.3067 92.9236 30.9867 90.9503 30.88L86.8703 30.68C86.0703 30.6267 85.217 30.52 84.3103 30.36C83.4303 30.2 82.6836 29.8667 82.0703 29.36C81.457 28.88 81.1503 28.1467 81.1503 27.16C81.1503 26.12 81.577 25.2133 82.4303 24.44C83.3103 23.6667 84.2836 23.1333 85.3503 22.84C84.2836 22.28 83.417 21.52 82.7503 20.56C82.0836 19.6 81.7503 18.5067 81.7503 17.28C81.7503 16.0533 82.0703 14.96 82.7103 14C83.377 13.04 84.2703 12.28 85.3903 11.72C86.5103 11.1333 87.7636 10.84 89.1503 10.84C90.7503 10.84 92.177 11.2267 93.4303 12C93.9903 11.2267 94.6703 10.68 95.4703 10.36C96.2703 10.0133 97.0703 9.84 97.8703 9.84C98.697 9.84 99.4036 10.0533 99.9903 10.48C100.604 10.88 100.91 11.4267 100.91 12.12C100.91 12.68 100.724 13.12 100.35 13.44C100.004 13.7333 99.617 13.88 99.1903 13.88C98.2036 13.88 97.6036 13.32 97.3903 12.2C97.337 11.88 97.217 11.6133 97.0303 11.4C96.8703 11.1867 96.617 11.08 96.2703 11.08C95.8436 11.08 95.4436 11.24 95.0703 11.56C94.7236 11.8533 94.4303 12.1733 94.1903 12.52C94.9103 13.1067 95.4836 13.8133 95.9103 14.64C96.337 15.4667 96.5503 16.3467 96.5503 17.28C96.5503 18.48 96.217 19.5733 95.5503 20.56C94.9103 21.52 94.0303 22.2933 92.9103 22.88C91.7903 23.44 90.537 23.72 89.1503 23.72ZM89.1503 22.72C90.7236 22.72 91.8303 22.2 92.4703 21.16C93.137 20.12 93.4703 18.8267 93.4703 17.28C93.4703 15.7333 93.137 14.44 92.4703 13.4C91.8303 12.36 90.7236 11.84 89.1503 11.84C87.6036 11.84 86.497 12.36 85.8303 13.4C85.1636 14.44 84.8303 15.7333 84.8303 17.28C84.8303 18.8267 85.1636 20.12 85.8303 21.16C86.497 22.2 87.6036 22.72 89.1503 22.72ZM104.339 29.12V28.2L104.979 28.12C105.752 28.0133 106.339 27.8933 106.739 27.76C107.165 27.6 107.459 27.2667 107.619 26.76C107.779 26.2267 107.859 25.36 107.859 24.16V15.84C107.859 14.8 107.712 14.04 107.419 13.56C107.152 13.08 106.752 12.7867 106.219 12.68C105.685 12.5467 105.059 12.48 104.339 12.48V11.56C105.432 11.56 106.485 11.52 107.499 11.44C108.512 11.36 109.565 11.24 110.659 11.08L110.219 15.68H110.379C110.965 13.8933 111.685 12.64 112.539 11.92C113.392 11.2 114.312 10.84 115.299 10.84C116.419 10.84 117.165 11.12 117.539 11.68C117.912 12.2133 118.099 12.7333 118.099 13.24C118.099 13.8267 117.925 14.3067 117.579 14.68C117.232 15.0533 116.765 15.24 116.179 15.24C115.619 15.24 115.192 15.1067 114.899 14.84C114.605 14.5733 114.459 14.2667 114.459 13.92C114.459 13.6533 114.485 13.4 114.539 13.16C114.619 12.92 114.659 12.7333 114.659 12.6C114.659 12.3333 114.472 12.2 114.099 12.2C113.725 12.2 113.325 12.3733 112.899 12.72C112.499 13.0667 112.152 13.5467 111.859 14.16C111.619 14.6667 111.392 15.2267 111.179 15.84C110.965 16.4533 110.792 17.12 110.659 17.84V24.16C110.659 25.36 110.739 26.2267 110.899 26.76C111.059 27.2667 111.339 27.6 111.739 27.76C112.165 27.8933 112.765 28.0133 113.539 28.12L114.179 28.2V29.12L109.259 29L104.339 29.12ZM126.932 29.44C125.652 29.44 124.586 29.12 123.732 28.48C122.906 27.8133 122.492 26.8933 122.492 25.72C122.492 24.5467 123.012 23.5067 124.052 22.6C125.092 21.6667 126.306 20.8267 127.692 20.08C128.732 19.4933 129.772 18.9867 130.812 18.56C131.852 18.1333 132.746 17.7733 133.492 17.48V16.2C133.492 14.7333 133.212 13.64 132.652 12.92C132.119 12.2 131.092 11.84 129.572 11.84C128.852 11.84 128.146 11.9333 127.452 12.12C126.759 12.3067 126.412 12.6533 126.412 13.16C126.412 13.2667 126.426 13.3867 126.452 13.52C126.506 13.6533 126.546 13.7867 126.572 13.92C126.706 14.2667 126.772 14.6267 126.772 15C126.772 15.5067 126.586 15.9067 126.212 16.2C125.866 16.4667 125.439 16.6 124.932 16.6C124.452 16.6 124.052 16.4267 123.732 16.08C123.412 15.7067 123.252 15.2667 123.252 14.76C123.252 13.8 123.612 13.04 124.332 12.48C125.079 11.8933 125.986 11.48 127.052 11.24C128.119 10.9733 129.146 10.84 130.132 10.84C132.266 10.84 133.826 11.3333 134.812 12.32C135.799 13.3067 136.292 14.92 136.292 17.16V24.36C136.292 25.5333 136.372 26.44 136.532 27.08C136.719 27.72 137.119 28.04 137.732 28.04C138.132 28.04 138.479 27.8933 138.772 27.6C139.066 27.3067 139.266 26.9867 139.372 26.64L140.092 26.92C139.879 27.6933 139.492 28.3067 138.932 28.76C138.399 29.2133 137.652 29.44 136.692 29.44C135.519 29.44 134.706 29.1067 134.252 28.44C133.826 27.7467 133.586 26.84 133.532 25.72C132.786 26.92 131.839 27.84 130.692 28.48C129.546 29.12 128.292 29.44 126.932 29.44ZM125.612 25.52C125.612 26.2667 125.826 26.8667 126.252 27.32C126.706 27.7467 127.359 27.96 128.212 27.96C128.986 27.96 129.719 27.7733 130.412 27.4C131.132 27.0267 131.759 26.56 132.292 26C132.826 25.4133 133.226 24.7867 133.492 24.12V18.28C132.612 18.6533 131.706 19.0933 130.772 19.6C129.866 20.08 129.012 20.6267 128.212 21.24C127.439 21.8533 126.812 22.52 126.332 23.24C125.852 23.9333 125.612 24.6933 125.612 25.52ZM150.662 29.44C149.355 29.44 148.288 29.0533 147.462 28.28C146.662 27.48 146.262 26.1867 146.262 24.4V12.56H143.302V11.56L144.382 11.48C145.475 11.4 146.302 10.96 146.862 10.16C147.448 9.33333 147.835 8.18667 148.022 6.72H149.062V11.56H154.182V12.56H149.062V24.56C149.062 26.9067 149.888 28.08 151.542 28.08C152.235 28.08 152.795 27.8533 153.222 27.4C153.648 26.92 154.035 26.3333 154.382 25.64L155.262 26.08C155.102 26.48 154.902 26.8533 154.662 27.2C154.448 27.52 154.235 27.8 154.022 28.04C153.568 28.5467 153.048 28.9067 152.462 29.12C151.902 29.3333 151.302 29.44 150.662 29.44ZM167.176 29.44C165.443 29.44 164.07 29.0133 163.056 28.16C162.07 27.28 161.576 25.9867 161.576 24.28V16.52C161.576 15.32 161.496 14.4667 161.336 13.96C161.176 13.4267 160.883 13.08 160.456 12.92C160.056 12.76 159.47 12.64 158.696 12.56L158.056 12.48V11.56L162.976 11.68L164.376 11.64V24.12C164.376 25.4267 164.71 26.4267 165.376 27.12C166.043 27.8133 166.95 28.16 168.096 28.16C169.083 28.16 169.95 27.9467 170.696 27.52C171.47 27.0667 172.123 26.4933 172.656 25.8C173.216 25.1067 173.656 24.4 173.976 23.68V16.52C173.976 15.32 173.896 14.4667 173.736 13.96C173.576 13.4267 173.283 13.08 172.856 12.92C172.456 12.76 171.87 12.64 171.096 12.56L170.456 12.48V11.56L175.376 11.68L176.776 11.64V24.56C176.776 25.5733 176.896 26.3333 177.136 26.84C177.403 27.32 177.776 27.64 178.256 27.8C178.763 27.96 179.376 28.04 180.096 28.04V28.96C179.003 28.96 178.003 28.9733 177.096 29C176.19 29.0267 175.15 29.1467 173.976 29.36V25.68C173.71 26.1067 173.43 26.48 173.136 26.8C172.443 27.5733 171.603 28.2133 170.616 28.72C169.63 29.2 168.483 29.44 167.176 29.44ZM183.108 29.12V28.2L183.748 28.12C184.521 28.0133 185.108 27.8933 185.508 27.76C185.934 27.6 186.228 27.2667 186.388 26.76C186.548 26.2267 186.628 25.36 186.628 24.16V4.64C186.628 3.25333 186.334 2.37333 185.748 2C185.188 1.6 184.401 1.4 183.388 1.4H183.108V0.479998C184.201 0.479998 185.254 0.453331 186.268 0.399999C187.281 0.319998 188.334 0.186665 189.428 -9.53674e-07V24.16C189.428 25.36 189.508 26.2267 189.668 26.76C189.828 27.2667 190.108 27.6 190.508 27.76C190.934 27.8933 191.534 28.0133 192.308 28.12L192.948 28.2V29.12L188.028 29L183.108 29.12ZM202.003 29.44C200.723 29.44 199.656 29.12 198.803 28.48C197.976 27.8133 197.563 26.8933 197.563 25.72C197.563 24.5467 198.083 23.5067 199.123 22.6C200.163 21.6667 201.376 20.8267 202.763 20.08C203.803 19.4933 204.843 18.9867 205.883 18.56C206.923 18.1333 207.816 17.7733 208.563 17.48V16.2C208.563 14.7333 208.283 13.64 207.723 12.92C207.189 12.2 206.163 11.84 204.643 11.84C203.923 11.84 203.216 11.9333 202.523 12.12C201.829 12.3067 201.483 12.6533 201.483 13.16C201.483 13.2667 201.496 13.3867 201.523 13.52C201.576 13.6533 201.616 13.7867 201.643 13.92C201.776 14.2667 201.843 14.6267 201.843 15C201.843 15.5067 201.656 15.9067 201.283 16.2C200.936 16.4667 200.509 16.6 200.003 16.6C199.523 16.6 199.123 16.4267 198.803 16.08C198.483 15.7067 198.323 15.2667 198.323 14.76C198.323 13.8 198.683 13.04 199.403 12.48C200.149 11.8933 201.056 11.48 202.123 11.24C203.189 10.9733 204.216 10.84 205.203 10.84C207.336 10.84 208.896 11.3333 209.883 12.32C210.869 13.3067 211.363 14.92 211.363 17.16V24.36C211.363 25.5333 211.443 26.44 211.603 27.08C211.789 27.72 212.189 28.04 212.803 28.04C213.203 28.04 213.549 27.8933 213.843 27.6C214.136 27.3067 214.336 26.9867 214.443 26.64L215.163 26.92C214.949 27.6933 214.563 28.3067 214.003 28.76C213.469 29.2133 212.723 29.44 211.763 29.44C210.589 29.44 209.776 29.1067 209.323 28.44C208.896 27.7467 208.656 26.84 208.603 25.72C207.856 26.92 206.909 27.84 205.763 28.48C204.616 29.12 203.363 29.44 202.003 29.44ZM200.683 25.52C200.683 26.2667 200.896 26.8667 201.323 27.32C201.776 27.7467 202.429 27.96 203.283 27.96C204.056 27.96 204.789 27.7733 205.483 27.4C206.203 27.0267 206.829 26.56 207.363 26C207.896 25.4133 208.296 24.7867 208.563 24.12V18.28C207.683 18.6533 206.776 19.0933 205.842 19.6C204.936 20.08 204.083 20.6267 203.283 21.24C202.509 21.8533 201.883 22.52 201.403 23.24C200.923 23.9333 200.683 24.6933 200.683 25.52ZM225.732 29.44C224.425 29.44 223.359 29.0533 222.532 28.28C221.732 27.48 221.332 26.1867 221.332 24.4V12.56H218.372V11.56L219.452 11.48C220.545 11.4 221.372 10.96 221.932 10.16C222.519 9.33333 222.905 8.18667 223.092 6.72H224.132V11.56H229.252V12.56H224.132V24.56C224.132 26.9067 224.959 28.08 226.612 28.08C227.305 28.08 227.865 27.8533 228.292 27.4C228.719 26.92 229.105 26.3333 229.452 25.64L230.332 26.08C230.172 26.48 229.972 26.8533 229.732 27.2C229.519 27.52 229.305 27.8 229.092 28.04C228.639 28.5467 228.119 28.9067 227.532 29.12C226.972 29.3333 226.372 29.44 225.732 29.44ZM233.847 29.12V28.2L234.487 28.12C235.26 28.0133 235.847 27.8933 236.247 27.76C236.673 27.6 236.967 27.2667 237.127 26.76C237.287 26.2267 237.367 25.36 237.367 24.16V15.72C237.367 14.3333 237.073 13.4533 236.487 13.08C235.927 12.68 235.14 12.48 234.127 12.48H233.847V11.56C234.94 11.56 235.993 11.5333 237.007 11.48C238.02 11.4 239.073 11.2667 240.167 11.08V24.16C240.167 25.36 240.247 26.2267 240.407 26.76C240.567 27.2667 240.847 27.6 241.247 27.76C241.673 27.8933 242.273 28.0133 243.047 28.12L243.687 28.2V29.12L238.767 29L233.847 29.12ZM238.287 6.4C237.593 6.4 237.047 6.16 236.647 5.68C236.247 5.2 236.047 4.62667 236.047 3.96C236.047 3.26667 236.247 2.69333 236.647 2.24C237.047 1.76 237.593 1.52 238.287 1.52C239.06 1.52 239.62 1.76 239.967 2.24C240.34 2.69333 240.527 3.26667 240.527 3.96C240.527 4.62667 240.34 5.2 239.967 5.68C239.62 6.16 239.06 6.4 238.287 6.4ZM257.094 29.44C255.387 29.44 253.827 29.0267 252.414 28.2C251.027 27.3733 249.92 26.2667 249.094 24.88C248.294 23.4667 247.894 21.9067 247.894 20.2C247.894 18.44 248.294 16.8533 249.094 15.44C249.92 14.0267 251.027 12.9067 252.414 12.08C253.827 11.2533 255.387 10.84 257.094 10.84C258.827 10.84 260.387 11.2533 261.774 12.08C263.16 12.9067 264.254 14.0267 265.054 15.44C265.88 16.8533 266.294 18.44 266.294 20.2C266.294 21.9067 265.88 23.4667 265.054 24.88C264.254 26.2667 263.16 27.3733 261.774 28.2C260.387 29.0267 258.827 29.44 257.094 29.44ZM257.094 28.44C258.534 28.44 259.694 28.08 260.574 27.36C261.454 26.6133 262.094 25.6267 262.494 24.4C262.894 23.1467 263.094 21.7467 263.094 20.2C263.094 18.6 262.894 17.1733 262.494 15.92C262.094 14.6667 261.454 13.68 260.574 12.96C259.694 12.2133 258.534 11.84 257.094 11.84C255.654 11.84 254.494 12.2133 253.614 12.96C252.734 13.68 252.094 14.6667 251.694 15.92C251.294 17.1733 251.094 18.6 251.094 20.2C251.094 21.7467 251.294 23.1467 251.694 24.4C252.094 25.6267 252.734 26.6133 253.614 27.36C254.494 28.08 255.654 28.44 257.094 28.44ZM271.206 29.12V28.2L271.846 28.12C272.619 28.0133 273.206 27.8933 273.606 27.76C274.033 27.6 274.326 27.2667 274.486 26.76C274.646 26.2267 274.726 25.36 274.726 24.16V15.72C274.726 14.3333 274.433 13.4533 273.846 13.08C273.286 12.68 272.499 12.48 271.486 12.48H271.206V11.56C272.299 11.56 273.353 11.5333 274.366 11.48C275.379 11.4 276.433 11.2667 277.526 11.08V14.32C278.139 13.4133 279.006 12.6133 280.126 11.92C281.246 11.2 282.553 10.84 284.046 10.84C285.859 10.84 287.286 11.3067 288.326 12.24C289.393 13.1467 289.926 14.4533 289.926 16.16V24.16C289.926 25.36 290.006 26.2267 290.166 26.76C290.326 27.2667 290.606 27.6 291.006 27.76C291.433 27.8933 292.033 28.0133 292.806 28.12L293.446 28.2V29.12L288.526 29L283.606 29.12V28.2L284.246 28.12C285.019 28.0133 285.606 27.8933 286.006 27.76C286.433 27.6 286.726 27.2667 286.886 26.76C287.046 26.2267 287.126 25.36 287.126 24.16V16.16C287.126 14.8267 286.779 13.8133 286.086 13.12C285.393 12.4 284.419 12.04 283.166 12.04C282.206 12.04 281.339 12.2667 280.566 12.72C279.793 13.1467 279.153 13.68 278.646 14.32C278.139 14.96 277.766 15.5733 277.526 16.16V24.16C277.526 25.36 277.606 26.2267 277.766 26.76C277.926 27.2667 278.206 27.6 278.606 27.76C279.033 27.8933 279.633 28.0133 280.406 28.12L281.046 28.2V29.12L276.126 29L271.206 29.12ZM304.355 29.44C303.342 29.44 302.475 29.32 301.755 29.08C301.062 28.8667 300.515 28.6667 300.115 28.48C299.688 28.2667 299.422 28.16 299.315 28.16C299.208 28.16 299.115 28.2133 299.035 28.32C298.982 28.4 298.915 28.6267 298.835 29H297.915L298.075 26.36L298.195 22.96H299.075L299.115 23.64C299.168 24.3867 299.408 25.1333 299.835 25.88C300.288 26.6267 300.902 27.2533 301.675 27.76C302.448 28.2667 303.342 28.52 304.355 28.52C305.448 28.52 306.328 28.24 306.995 27.68C307.662 27.12 307.995 26.3467 307.995 25.36C307.995 24.5067 307.648 23.7867 306.955 23.2C306.288 22.6133 305.355 22.0933 304.155 21.64L302.715 21.08C301.328 20.5467 300.275 19.88 299.555 19.08C298.862 18.28 298.515 17.2533 298.515 16C298.515 14.9333 298.755 14.0267 299.235 13.28C299.742 12.5067 300.395 11.9067 301.195 11.48C302.022 11.0533 302.902 10.84 303.835 10.84C304.502 10.84 305.062 10.92 305.515 11.08C305.995 11.24 306.395 11.4 306.715 11.56C306.982 11.6933 307.208 11.76 307.395 11.76C307.662 11.76 307.875 11.48 308.035 10.92L308.915 10.96L308.755 13.56V16.36H307.835C307.648 15.1067 307.222 14.0267 306.555 13.12C305.888 12.1867 304.928 11.72 303.675 11.72C302.795 11.72 302.048 12 301.435 12.56C300.848 13.12 300.555 13.8267 300.555 14.68C300.555 15.5067 300.862 16.2 301.475 16.76C302.115 17.2933 302.982 17.7733 304.075 18.2L305.635 18.8C307.262 19.4133 308.382 20.16 308.995 21.04C309.635 21.8933 309.955 22.92 309.955 24.12C309.955 25.5333 309.475 26.7733 308.515 27.84C307.555 28.9067 306.168 29.44 304.355 29.44ZM317.898 21.04C317.818 18.08 317.645 15.12 317.378 12.16C317.138 9.2 316.871 6.24 316.578 3.28C316.471 2.13333 316.618 1.30666 317.018 0.799998C317.445 0.293332 317.951 0.0399985 318.538 0.0399985C319.071 0.0399985 319.538 0.253332 319.938 0.68C320.338 1.10667 320.538 1.78667 320.538 2.72C320.538 2.8 320.525 2.89333 320.498 3C320.498 3.08 320.498 3.17333 320.498 3.28C320.231 6.24 319.951 9.2 319.658 12.16C319.391 15.0933 319.231 18.0533 319.178 21.04H317.898ZM318.538 29.56C317.845 29.56 317.245 29.3067 316.738 28.8C316.231 28.2933 315.978 27.6933 315.978 27C315.978 26.3067 316.231 25.7067 316.738 25.2C317.245 24.6933 317.845 24.44 318.538 24.44C319.231 24.44 319.831 24.6933 320.338 25.2C320.845 25.7067 321.098 26.3067 321.098 27C321.098 27.6933 320.845 28.2933 320.338 28.8C319.831 29.3067 319.231 29.56 318.538 29.56Z" fill="black"/>
</svg>
