<svg width="132" height="46" viewBox="0 0 132 46" fill="none" xmlns="http://www.w3.org/2000/svg">
<path d="M21.428 45.682C17.6253 45.682 14.1533 44.752 11.012 42.892C7.912 41.032 5.432 38.4073 3.572 35.018C1.75333 31.6287 0.844 27.6193 0.844 22.99C0.844 19.642 1.402 16.5627 2.518 13.752C3.634 10.9413 5.16333 8.52333 7.106 6.498C9.04867 4.47266 11.2807 2.902 13.802 1.786C16.3233 0.669998 18.9893 0.111998 21.8 0.111998C23.6187 0.111998 25.2513 0.339331 26.698 0.793996C28.1447 1.24866 29.3227 1.68267 30.232 2.096C31.3067 2.55066 32.0507 2.86066 32.464 3.026C32.9187 3.19133 33.4147 3.274 33.952 3.274C34.5307 3.274 34.9233 3.026 35.13 2.53C35.378 1.99266 35.502 1.476 35.502 0.979998H37.052L36.928 8.11L37.052 15.364H35.502C35.4193 12.5533 34.6753 10.156 33.27 8.172C31.906 6.14667 30.17 4.61733 28.062 3.584C25.9953 2.50933 23.846 1.972 21.614 1.972C16.778 1.972 13.1613 3.79067 10.764 7.428C8.36667 11.0653 7.168 16.2527 7.168 22.99C7.168 30.0993 8.44933 35.3487 11.012 38.738C13.5747 42.1273 17.1707 43.822 21.8 43.822C24.1147 43.822 26.1607 43.45 27.938 42.706C29.7153 41.962 31.1207 40.9907 32.154 39.792C33.1873 38.552 33.704 37.2707 33.704 35.948V34.212C33.704 32.3933 33.27 31.0913 32.402 30.306C31.5753 29.5207 30.0253 29.0247 27.752 28.818L25.086 28.57V27.082L35.378 27.33L44.926 27.082V28.57L42.136 28.818C41.02 28.9007 40.1107 29.3347 39.408 30.12C38.7053 30.9053 38.354 32.2693 38.354 34.212V35.328C38.354 36.2787 38.4987 37.1673 38.788 37.994C39.1187 38.8207 39.4287 39.5233 39.718 40.102L40.586 41.652L39.16 42.582C38.6227 41.714 38.0853 41.1353 37.548 40.846C37.052 40.5153 36.618 40.35 36.246 40.35C35.5847 40.35 34.9853 40.5153 34.448 40.846C33.9107 41.1767 33.332 41.5693 32.712 42.024C32.0093 42.52 31.162 43.0573 30.17 43.636C29.2193 44.2147 28.0413 44.69 26.636 45.062C25.2307 45.4753 23.4947 45.682 21.428 45.682ZM47.4331 45.186V43.636L48.6731 43.512C50.1198 43.3467 51.2151 43.14 51.9591 42.892C52.7445 42.6027 53.2818 42.024 53.5711 41.156C53.8605 40.2467 54.0051 38.7793 54.0051 36.754V9.226C54.0051 7.15933 53.8605 5.692 53.5711 4.824C53.2818 3.956 52.7445 3.398 51.9591 3.15C51.2151 2.86066 50.1198 2.63333 48.6731 2.468L47.4331 2.344V0.793996L56.6091 0.979998H80.6651L80.7891 5.444L81.2851 11.148H79.7971C79.5078 9.288 79.1151 7.8 78.6191 6.684C78.1645 5.568 77.5031 4.74133 76.6351 4.204C75.7671 3.62533 74.5891 3.25333 73.1011 3.088C71.6545 2.88133 69.7738 2.778 67.4591 2.778H59.2751V20.944H66.2191C67.0458 20.944 67.7691 20.758 68.3891 20.386C69.0091 19.9727 69.5051 19.2287 69.8771 18.154C70.2905 17.0793 70.5385 15.5293 70.6211 13.504H72.1711L71.9851 21.812L72.1711 30.988H70.6211C70.6211 27.9707 70.2491 25.842 69.5051 24.602C68.7611 23.3207 67.6658 22.68 66.2191 22.68H59.2751V38.366C59.2751 40.35 59.7091 41.6727 60.5771 42.334C61.4451 42.954 63.0571 43.264 65.4131 43.264H71.1791C73.5765 43.264 75.4365 42.9953 76.7591 42.458C78.1231 41.9207 79.1358 40.846 79.7971 39.234C80.4585 37.5807 80.9131 35.1627 81.1611 31.98H82.7111L82.2771 39.42L82.0911 45H56.6091L47.4331 45.186ZM97.9888 45.186V43.636L99.3528 43.512C101.047 43.3467 102.329 43.14 103.197 42.892C104.106 42.6027 104.726 42.024 105.057 41.156C105.429 40.2467 105.615 38.7793 105.615 36.754V2.654H96.8728C94.9715 2.654 93.4628 3.026 92.3468 3.77C91.2721 4.47267 90.3215 5.63 89.4948 7.242C88.7095 8.854 87.7795 11.0033 86.7048 13.69L85.4028 13.38L86.9528 5.754L87.6348 0.793996L105.305 0.979998H111.195L128.927 0.793996L129.609 5.754L131.159 13.38L129.795 13.752C128.844 11.3547 127.955 9.32933 127.129 7.676C126.343 6.02266 125.413 4.78266 124.339 3.956C123.264 3.088 121.838 2.654 120.061 2.654H110.885V36.754C110.885 38.7793 111.05 40.2467 111.381 41.156C111.753 42.024 112.393 42.6027 113.303 42.892C114.212 43.14 115.493 43.3467 117.147 43.512L118.511 43.636V45.186L108.405 45L97.9888 45.186Z" fill="white"/>
</svg>
