<svg width="109" height="46" viewBox="0 0 109 46" fill="none" xmlns="http://www.w3.org/2000/svg">
<path d="M21.428 45.682C17.6253 45.682 14.1533 44.752 11.012 42.892C7.912 41.032 5.432 38.4073 3.572 35.018C1.75333 31.6287 0.844 27.6193 0.844 22.99C0.844 19.642 1.402 16.5627 2.518 13.752C3.634 10.9413 5.16333 8.52333 7.106 6.498C9.04867 4.47266 11.2807 2.902 13.802 1.786C16.3233 0.669998 18.9893 0.111998 21.8 0.111998C23.6187 0.111998 25.2513 0.339331 26.698 0.793996C28.1447 1.24866 29.3227 1.68267 30.232 2.096C31.3067 2.55066 32.0507 2.86066 32.464 3.026C32.9187 3.19133 33.4147 3.274 33.952 3.274C34.5307 3.274 34.9233 3.026 35.13 2.53C35.378 1.99266 35.502 1.476 35.502 0.979998H37.052L36.928 8.11L37.052 15.364H35.502C35.4193 12.5533 34.6753 10.156 33.27 8.172C31.906 6.14667 30.17 4.61733 28.062 3.584C25.9953 2.50933 23.846 1.972 21.614 1.972C16.778 1.972 13.1613 3.79067 10.764 7.428C8.36667 11.0653 7.168 16.2527 7.168 22.99C7.168 30.0993 8.44933 35.3487 11.012 38.738C13.5747 42.1273 17.1707 43.822 21.8 43.822C24.1147 43.822 26.1607 43.45 27.938 42.706C29.7153 41.962 31.1207 40.9907 32.154 39.792C33.1873 38.552 33.704 37.2707 33.704 35.948V34.212C33.704 32.3933 33.27 31.0913 32.402 30.306C31.5753 29.5207 30.0253 29.0247 27.752 28.818L25.086 28.57V27.082L35.378 27.33L44.926 27.082V28.57L42.136 28.818C41.02 28.9007 40.1107 29.3347 39.408 30.12C38.7053 30.9053 38.354 32.2693 38.354 34.212V35.328C38.354 36.2787 38.4987 37.1673 38.788 37.994C39.1187 38.8207 39.4287 39.5233 39.718 40.102L40.586 41.652L39.16 42.582C38.6227 41.714 38.0853 41.1353 37.548 40.846C37.052 40.5153 36.618 40.35 36.246 40.35C35.5847 40.35 34.9853 40.5153 34.448 40.846C33.9107 41.1767 33.332 41.5693 32.712 42.024C32.0093 42.52 31.162 43.0573 30.17 43.636C29.2193 44.2147 28.0413 44.69 26.636 45.062C25.2307 45.4753 23.4947 45.682 21.428 45.682ZM71.0377 45.682C67.9377 45.682 65.065 45.124 62.4197 44.008C59.8157 42.892 57.5424 41.3213 55.5997 39.296C53.6984 37.2707 52.2104 34.8733 51.1357 32.104C50.061 29.2933 49.5237 26.214 49.5237 22.866C49.5237 19.518 50.061 16.4593 51.1357 13.69C52.2104 10.9207 53.6984 8.52333 55.5997 6.498C57.5424 4.47266 59.8157 2.902 62.4197 1.786C65.065 0.669998 67.9377 0.111998 71.0377 0.111998C74.1377 0.111998 76.9897 0.669998 79.5937 1.786C82.239 2.902 84.5124 4.47266 86.4137 6.498C88.3564 8.52333 89.865 10.9207 90.9397 13.69C92.0144 16.4593 92.5517 19.518 92.5517 22.866C92.5517 26.214 92.0144 29.2933 90.9397 32.104C89.865 34.8733 88.3564 37.2707 86.4137 39.296C84.5124 41.3213 82.239 42.892 79.5937 44.008C76.9897 45.124 74.1377 45.682 71.0377 45.682ZM71.0377 43.822C74.6337 43.822 77.5477 42.9747 79.7797 41.28C82.0117 39.5853 83.6444 37.188 84.6777 34.088C85.711 30.9467 86.2277 27.206 86.2277 22.866C86.2277 18.526 85.711 14.806 84.6777 11.706C83.6444 8.56467 82.0117 6.16733 79.7797 4.514C77.5477 2.81933 74.6337 1.972 71.0377 1.972C67.483 1.972 64.569 2.81933 62.2957 4.514C60.0637 6.16733 58.431 8.56467 57.3977 11.706C56.3644 14.806 55.8477 18.526 55.8477 22.866C55.8477 27.206 56.3644 30.9467 57.3977 34.088C58.431 37.188 60.0637 39.5853 62.2957 41.28C64.569 42.9747 67.483 43.822 71.0377 43.822ZM103.114 32.662C102.99 28.074 102.721 23.486 102.308 18.898C101.936 14.31 101.523 9.722 101.068 5.134C100.903 3.35666 101.13 2.07533 101.75 1.29C102.411 0.504664 103.197 0.111998 104.106 0.111998C104.933 0.111998 105.656 0.442665 106.276 1.104C106.896 1.76533 107.206 2.81933 107.206 4.266C107.206 4.39 107.185 4.53466 107.144 4.7C107.144 4.824 107.144 4.96867 107.144 5.134C106.731 9.722 106.297 14.31 105.842 18.898C105.429 23.4447 105.181 28.0327 105.098 32.662H103.114ZM104.106 45.868C103.031 45.868 102.101 45.4753 101.316 44.69C100.531 43.9047 100.138 42.9747 100.138 41.9C100.138 40.8253 100.531 39.8953 101.316 39.11C102.101 38.3247 103.031 37.932 104.106 37.932C105.181 37.932 106.111 38.3247 106.896 39.11C107.681 39.8953 108.074 40.8253 108.074 41.9C108.074 42.9747 107.681 43.9047 106.896 44.69C106.111 45.4753 105.181 45.868 104.106 45.868Z" fill="white"/>
</svg>
