<svg width="244" height="75" viewBox="0 0 244 75" fill="none" xmlns="http://www.w3.org/2000/svg">
<path d="M17.6245 43.496C15.9925 43.496 14.4085 43.256 12.8725 42.776C11.5765 43.064 10.3525 43.568 9.20047 44.288C8.09647 44.96 7.54447 45.872 7.54447 47.024C7.54447 48.032 7.90447 48.8 8.62447 49.328C9.34447 49.808 10.2805 50.144 11.4325 50.336C12.5845 50.48 13.8325 50.6 15.1765 50.696L18.3445 50.84C21.3685 50.984 24.1045 51.32 26.5525 51.848C29.0005 52.328 30.9445 53.288 32.3845 54.728C33.8725 56.168 34.6165 58.376 34.6165 61.352C34.6165 64.088 33.8005 66.392 32.1685 68.264C30.5845 70.184 28.4965 71.648 25.9045 72.656C23.3605 73.664 20.6005 74.168 17.6245 74.168C14.6485 74.168 11.8165 73.76 9.12847 72.944C6.48847 72.128 4.32847 70.88 2.64847 69.2C1.01647 67.52 0.200469 65.36 0.200469 62.72C0.200469 61.184 0.560469 59.912 1.28047 58.904C2.04847 57.896 3.03247 57.392 4.23247 57.392C5.04847 57.392 5.74447 57.608 6.32047 58.04C6.89647 58.52 7.18447 59.216 7.18447 60.128C7.18447 60.944 7.04047 61.592 6.75247 62.072C6.46447 62.6 6.15247 63.128 5.81647 63.656C5.52847 64.184 5.38447 64.856 5.38447 65.672C5.38447 67.304 5.93647 68.6 7.04047 69.56C8.19247 70.568 9.68047 71.288 11.5045 71.72C13.3765 72.152 15.4165 72.368 17.6245 72.368C20.0725 72.368 22.3285 72.008 24.3925 71.288C26.4565 70.568 28.1125 69.488 29.3605 68.048C30.6565 66.656 31.3045 64.928 31.3045 62.864C31.3045 60.704 30.4405 59.12 28.7125 58.112C27.0325 57.152 24.4165 56.576 20.8645 56.384L13.5205 56.024C12.0805 55.928 10.5445 55.736 8.91247 55.448C7.32847 55.16 5.98447 54.56 4.88047 53.648C3.77647 52.784 3.22447 51.464 3.22447 49.688C3.22447 47.816 3.99247 46.184 5.52847 44.792C7.11247 43.4 8.86447 42.44 10.7845 41.912C8.86447 40.904 7.30447 39.536 6.10447 37.808C4.90447 36.08 4.30447 34.112 4.30447 31.904C4.30447 29.696 4.88047 27.728 6.03247 26C7.23247 24.272 8.84047 22.904 10.8565 21.896C12.8725 20.84 15.1285 20.312 17.6245 20.312C20.5045 20.312 23.0725 21.008 25.3285 22.4C26.3365 21.008 27.5605 20.024 29.0005 19.448C30.4405 18.824 31.8805 18.512 33.3205 18.512C34.8085 18.512 36.0805 18.896 37.1365 19.664C38.2405 20.384 38.7925 21.368 38.7925 22.616C38.7925 23.624 38.4565 24.416 37.7845 24.992C37.1605 25.52 36.4645 25.784 35.6965 25.784C33.9205 25.784 32.8405 24.776 32.4565 22.76C32.3605 22.184 32.1445 21.704 31.8085 21.32C31.5205 20.936 31.0645 20.744 30.4405 20.744C29.6725 20.744 28.9525 21.032 28.2805 21.608C27.6565 22.136 27.1285 22.712 26.6965 23.336C27.9925 24.392 29.0245 25.664 29.7925 27.152C30.5605 28.64 30.9445 30.224 30.9445 31.904C30.9445 34.064 30.3445 36.032 29.1445 37.808C27.9925 39.536 26.4085 40.928 24.3925 41.984C22.3765 42.992 20.1205 43.496 17.6245 43.496ZM17.6245 41.696C20.4565 41.696 22.4485 40.76 23.6005 38.888C24.8005 37.016 25.4005 34.688 25.4005 31.904C25.4005 29.12 24.8005 26.792 23.6005 24.92C22.4485 23.048 20.4565 22.112 17.6245 22.112C14.8405 22.112 12.8485 23.048 11.6485 24.92C10.4485 26.792 9.84847 29.12 9.84847 31.904C9.84847 34.688 10.4485 37.016 11.6485 38.888C12.8485 40.76 14.8405 41.696 17.6245 41.696ZM41.3637 53.216V51.56L42.5157 51.416C43.9077 51.224 44.9637 51.008 45.6837 50.768C46.4517 50.48 46.9797 49.88 47.2677 48.968C47.5557 48.008 47.6997 46.448 47.6997 44.288V29.312C47.6997 27.44 47.4357 26.072 46.9077 25.208C46.4277 24.344 45.7077 23.816 44.7477 23.624C43.7877 23.384 42.6597 23.264 41.3637 23.264V21.608C43.3317 21.608 45.2277 21.536 47.0517 21.392C48.8757 21.248 50.7717 21.032 52.7397 20.744L51.9477 29.024H52.2357C53.2917 25.808 54.5877 23.552 56.1237 22.256C57.6597 20.96 59.3157 20.312 61.0917 20.312C63.1077 20.312 64.4517 20.816 65.1237 21.824C65.7957 22.784 66.1317 23.72 66.1317 24.632C66.1317 25.688 65.8197 26.552 65.1957 27.224C64.5717 27.896 63.7317 28.232 62.6757 28.232C61.6677 28.232 60.8997 27.992 60.3717 27.512C59.8437 27.032 59.5797 26.48 59.5797 25.856C59.5797 25.376 59.6277 24.92 59.7237 24.488C59.8677 24.056 59.9397 23.72 59.9397 23.48C59.9397 23 59.6037 22.76 58.9317 22.76C58.2597 22.76 57.5397 23.072 56.7717 23.696C56.0517 24.32 55.4277 25.184 54.8997 26.288C54.4677 27.2 54.0597 28.208 53.6757 29.312C53.2917 30.416 52.9797 31.616 52.7397 32.912V44.288C52.7397 46.448 52.8837 48.008 53.1717 48.968C53.4597 49.88 53.9637 50.48 54.6837 50.768C55.4517 51.008 56.5317 51.224 57.9237 51.416L59.0757 51.56V53.216L50.2197 53L41.3637 53.216ZM78.4318 53.792C76.1278 53.792 74.2078 53.216 72.6718 52.064C71.1838 50.864 70.4398 49.208 70.4398 47.096C70.4398 44.984 71.3758 43.112 73.2478 41.48C75.1198 39.8 77.3038 38.288 79.7998 36.944C81.6718 35.888 83.5438 34.976 85.4158 34.208C87.2878 33.44 88.8958 32.792 90.2398 32.264V29.96C90.2398 27.32 89.7358 25.352 88.7278 24.056C87.7678 22.76 85.9198 22.112 83.1838 22.112C81.8878 22.112 80.6158 22.28 79.3678 22.616C78.1198 22.952 77.4958 23.576 77.4958 24.488C77.4958 24.68 77.5198 24.896 77.5678 25.136C77.6638 25.376 77.7358 25.616 77.7838 25.856C78.0238 26.48 78.1438 27.128 78.1438 27.8C78.1438 28.712 77.8078 29.432 77.1358 29.96C76.5118 30.44 75.7438 30.68 74.8318 30.68C73.9678 30.68 73.2478 30.368 72.6718 29.744C72.0958 29.072 71.8078 28.28 71.8078 27.368C71.8078 25.64 72.4558 24.272 73.7518 23.264C75.0958 22.208 76.7278 21.464 78.6478 21.032C80.5678 20.552 82.4158 20.312 84.1918 20.312C88.0318 20.312 90.8398 21.2 92.6158 22.976C94.3918 24.752 95.2798 27.656 95.2798 31.688V44.648C95.2798 46.76 95.4238 48.392 95.7118 49.544C96.0478 50.696 96.7678 51.272 97.8718 51.272C98.5918 51.272 99.2158 51.008 99.7438 50.48C100.272 49.952 100.632 49.376 100.824 48.752L102.12 49.256C101.736 50.648 101.04 51.752 100.032 52.568C99.0718 53.384 97.7278 53.792 95.9998 53.792C93.8878 53.792 92.4238 53.192 91.6078 51.992C90.8398 50.744 90.4078 49.112 90.3118 47.096C88.9678 49.256 87.2638 50.912 85.1998 52.064C83.1358 53.216 80.8798 53.792 78.4318 53.792ZM76.0558 46.736C76.0558 48.08 76.4398 49.16 77.2078 49.976C78.0238 50.744 79.1998 51.128 80.7358 51.128C82.1278 51.128 83.4478 50.792 84.6958 50.12C85.9918 49.448 87.1198 48.608 88.0798 47.6C89.0398 46.544 89.7598 45.416 90.2398 44.216V33.704C88.6558 34.376 87.0238 35.168 85.3438 36.08C83.7118 36.944 82.1758 37.928 80.7358 39.032C79.3438 40.136 78.2158 41.336 77.3518 42.632C76.4878 43.88 76.0558 45.248 76.0558 46.736ZM119.993 53.792C117.257 53.792 114.785 53.048 112.577 51.56C110.369 50.072 108.617 48.056 107.321 45.512C106.025 42.92 105.377 40.064 105.377 36.944C105.377 33.824 106.025 31.016 107.321 28.52C108.617 26.024 110.393 24.032 112.649 22.544C114.905 21.056 117.449 20.312 120.281 20.312C122.297 20.312 124.145 20.744 125.825 21.608C127.505 22.424 128.897 23.36 130.001 24.416V9.152C130.001 6.656 129.473 5.072 128.417 4.4C127.409 3.68 125.993 3.32 124.169 3.32H123.665V1.664C125.633 1.664 127.529 1.616 129.353 1.52C131.177 1.376 133.073 1.136 135.041 0.799998V45.152C135.041 47.84 135.545 49.544 136.553 50.264C137.609 50.984 139.097 51.344 141.017 51.344V53H138.065C137.009 53 135.977 53.024 134.969 53.072C133.961 53.168 132.833 53.336 131.585 53.576L130.649 48.536C129.353 50.072 127.793 51.344 125.969 52.352C124.193 53.312 122.201 53.792 119.993 53.792ZM111.137 36.944C111.137 39.728 111.473 42.224 112.145 44.432C112.865 46.64 113.921 48.392 115.313 49.688C116.753 50.984 118.553 51.632 120.713 51.632C122.777 51.632 124.553 51.176 126.041 50.264C127.577 49.304 128.897 48.152 130.001 46.808V27.368C129.185 26.12 127.961 24.992 126.329 23.984C124.697 22.976 122.897 22.472 120.929 22.472C118.721 22.472 116.897 23.12 115.457 24.416C114.017 25.664 112.937 27.392 112.217 29.6C111.497 31.76 111.137 34.208 111.137 36.944ZM143.387 53.216V51.56L144.539 51.416C145.931 51.224 146.987 51.008 147.707 50.768C148.475 50.48 149.003 49.88 149.291 48.968C149.579 48.008 149.723 46.448 149.723 44.288V29.096C149.723 26.6 149.195 25.016 148.139 24.344C147.131 23.624 145.715 23.264 143.891 23.264H143.387V21.608C145.355 21.608 147.251 21.56 149.075 21.464C150.899 21.32 152.795 21.08 154.763 20.744V44.288C154.763 46.448 154.907 48.008 155.195 48.968C155.483 49.88 155.987 50.48 156.707 50.768C157.475 51.008 158.555 51.224 159.947 51.416L161.099 51.56V53.216L152.243 53L143.387 53.216ZM151.379 12.32C150.131 12.32 149.147 11.888 148.427 11.024C147.707 10.16 147.347 9.128 147.347 7.928C147.347 6.68 147.707 5.648 148.427 4.832C149.147 3.968 150.131 3.536 151.379 3.536C152.771 3.536 153.779 3.968 154.403 4.832C155.075 5.648 155.411 6.68 155.411 7.928C155.411 9.128 155.075 10.16 154.403 11.024C153.779 11.888 152.771 12.32 151.379 12.32ZM163.848 53.216V51.56L165 51.416C166.392 51.224 167.448 51.008 168.168 50.768C168.936 50.48 169.464 49.88 169.752 48.968C170.04 48.008 170.184 46.448 170.184 44.288V29.096C170.184 26.6 169.656 25.016 168.6 24.344C167.592 23.624 166.176 23.264 164.352 23.264H163.848V21.608C165.816 21.608 167.712 21.56 169.536 21.464C171.36 21.32 173.256 21.08 175.224 20.744V26.576C176.328 24.944 177.888 23.504 179.904 22.256C181.92 20.96 184.272 20.312 186.96 20.312C190.224 20.312 192.792 21.152 194.664 22.832C196.584 24.464 197.544 26.816 197.544 29.888V44.288C197.544 46.448 197.688 48.008 197.976 48.968C198.264 49.88 198.768 50.48 199.488 50.768C200.256 51.008 201.336 51.224 202.728 51.416L203.88 51.56V53.216L195.024 53L186.168 53.216V51.56L187.32 51.416C188.712 51.224 189.768 51.008 190.488 50.768C191.256 50.48 191.784 49.88 192.072 48.968C192.36 48.008 192.504 46.448 192.504 44.288V29.888C192.504 27.488 191.88 25.664 190.632 24.416C189.384 23.12 187.632 22.472 185.376 22.472C183.648 22.472 182.088 22.88 180.696 23.696C179.304 24.464 178.152 25.424 177.24 26.576C176.328 27.728 175.656 28.832 175.224 29.888V44.288C175.224 46.448 175.368 48.008 175.656 48.968C175.944 49.88 176.448 50.48 177.168 50.768C177.936 51.008 179.016 51.224 180.408 51.416L181.56 51.56V53.216L172.704 53L163.848 53.216ZM222.796 43.496C221.164 43.496 219.58 43.256 218.044 42.776C216.748 43.064 215.524 43.568 214.372 44.288C213.268 44.96 212.716 45.872 212.716 47.024C212.716 48.032 213.076 48.8 213.796 49.328C214.516 49.808 215.452 50.144 216.604 50.336C217.756 50.48 219.004 50.6 220.348 50.696L223.516 50.84C226.54 50.984 229.276 51.32 231.724 51.848C234.172 52.328 236.116 53.288 237.556 54.728C239.044 56.168 239.788 58.376 239.788 61.352C239.788 64.088 238.972 66.392 237.34 68.264C235.756 70.184 233.668 71.648 231.076 72.656C228.532 73.664 225.772 74.168 222.796 74.168C219.82 74.168 216.988 73.76 214.3 72.944C211.66 72.128 209.5 70.88 207.82 69.2C206.188 67.52 205.372 65.36 205.372 62.72C205.372 61.184 205.732 59.912 206.452 58.904C207.22 57.896 208.204 57.392 209.404 57.392C210.22 57.392 210.916 57.608 211.492 58.04C212.068 58.52 212.356 59.216 212.356 60.128C212.356 60.944 212.212 61.592 211.924 62.072C211.636 62.6 211.324 63.128 210.988 63.656C210.7 64.184 210.556 64.856 210.556 65.672C210.556 67.304 211.108 68.6 212.212 69.56C213.364 70.568 214.852 71.288 216.676 71.72C218.548 72.152 220.588 72.368 222.796 72.368C225.244 72.368 227.5 72.008 229.564 71.288C231.628 70.568 233.284 69.488 234.532 68.048C235.828 66.656 236.476 64.928 236.476 62.864C236.476 60.704 235.612 59.12 233.884 58.112C232.204 57.152 229.588 56.576 226.036 56.384L218.692 56.024C217.252 55.928 215.716 55.736 214.084 55.448C212.5 55.16 211.156 54.56 210.052 53.648C208.948 52.784 208.396 51.464 208.396 49.688C208.396 47.816 209.164 46.184 210.7 44.792C212.284 43.4 214.036 42.44 215.956 41.912C214.036 40.904 212.476 39.536 211.276 37.808C210.076 36.08 209.476 34.112 209.476 31.904C209.476 29.696 210.052 27.728 211.204 26C212.404 24.272 214.012 22.904 216.028 21.896C218.044 20.84 220.3 20.312 222.796 20.312C225.676 20.312 228.244 21.008 230.5 22.4C231.508 21.008 232.732 20.024 234.172 19.448C235.612 18.824 237.052 18.512 238.492 18.512C239.98 18.512 241.252 18.896 242.308 19.664C243.412 20.384 243.964 21.368 243.964 22.616C243.964 23.624 243.628 24.416 242.956 24.992C242.332 25.52 241.636 25.784 240.868 25.784C239.092 25.784 238.012 24.776 237.628 22.76C237.532 22.184 237.316 21.704 236.98 21.32C236.692 20.936 236.236 20.744 235.612 20.744C234.844 20.744 234.124 21.032 233.452 21.608C232.828 22.136 232.3 22.712 231.868 23.336C233.164 24.392 234.196 25.664 234.964 27.152C235.732 28.64 236.116 30.224 236.116 31.904C236.116 34.064 235.516 36.032 234.316 37.808C233.164 39.536 231.58 40.928 229.564 41.984C227.548 42.992 225.292 43.496 222.796 43.496ZM222.796 41.696C225.628 41.696 227.62 40.76 228.772 38.888C229.972 37.016 230.572 34.688 230.572 31.904C230.572 29.12 229.972 26.792 228.772 24.92C227.62 23.048 225.628 22.112 222.796 22.112C220.012 22.112 218.02 23.048 216.82 24.92C215.62 26.792 215.02 29.12 215.02 31.904C215.02 34.688 215.62 37.016 216.82 38.888C218.02 40.76 220.012 41.696 222.796 41.696Z" fill="black"/>
</svg>
