<svg width="260" height="74" viewBox="0 0 260 74" fill="none" xmlns="http://www.w3.org/2000/svg">
<path d="M0.215219 53.216V51.56L1.36722 51.416C2.75922 51.224 3.81522 51.008 4.53522 50.768C5.30322 50.48 5.83122 49.88 6.11922 48.968C6.40722 48.008 6.55122 46.448 6.55122 44.288V29.096C6.55122 27.368 6.28722 26.096 5.75922 25.28C5.27922 24.416 4.55922 23.864 3.59922 23.624C2.63922 23.384 1.51122 23.264 0.215219 23.264V21.608C2.18322 21.608 4.07922 21.56 5.90322 21.464C7.72722 21.32 9.62322 21.08 11.5912 20.744V26.36C12.6472 24.728 14.1112 23.312 15.9832 22.112C17.9032 20.912 20.1112 20.312 22.6072 20.312C25.1512 20.312 27.2632 20.864 28.9432 21.968C30.6712 23.024 31.8232 24.704 32.3992 27.008C33.4072 25.28 34.8952 23.744 36.8632 22.4C38.8312 21.008 41.1592 20.312 43.8472 20.312C46.9672 20.312 49.4392 21.128 51.2632 22.76C53.1352 24.392 54.0712 26.984 54.0712 30.536V44.288C54.0712 46.4 54.1912 47.936 54.4312 48.896C54.7192 49.808 55.2232 50.408 55.9432 50.696C56.7112 50.984 57.7912 51.224 59.1832 51.416L60.3352 51.56V53.216L51.5512 53L43.4152 53.216V51.56L44.5672 51.416C45.7672 51.272 46.6792 51.056 47.3032 50.768C47.9752 50.48 48.4312 49.88 48.6712 48.968C48.9112 48.008 49.0312 46.448 49.0312 44.288V29.312C49.0312 27.2 48.4552 25.544 47.3032 24.344C46.1512 23.096 44.5192 22.472 42.4072 22.472C40.6792 22.472 39.1672 22.856 37.8712 23.624C36.5752 24.392 35.4952 25.352 34.6312 26.504C33.8152 27.656 33.2152 28.784 32.8312 29.888C32.8312 30.08 32.8312 30.296 32.8312 30.536V44.288C32.8312 46.448 32.9512 48.008 33.1912 48.968C33.4312 49.88 33.8632 50.48 34.4872 50.768C35.1592 51.008 36.0952 51.224 37.2952 51.416L38.4472 51.56V53.216L30.3112 53L22.1752 53.216V51.56L23.3272 51.416C24.5272 51.224 25.4392 51.008 26.0632 50.768C26.7352 50.48 27.1912 49.88 27.4312 48.968C27.6712 48.008 27.7912 46.448 27.7912 44.288V29.312C27.7912 27.2 27.2152 25.544 26.0632 24.344C24.9112 23.096 23.2792 22.472 21.1672 22.472C19.4872 22.472 17.9992 22.856 16.7032 23.624C15.4072 24.392 14.3272 25.352 13.4632 26.504C12.5992 27.656 11.9752 28.784 11.5912 29.888V44.288C11.5912 46.448 11.7112 48.008 11.9512 48.968C12.1912 49.88 12.6232 50.48 13.2472 50.768C13.9192 51.008 14.8552 51.224 16.0552 51.416L17.2072 51.56V53.216L9.07122 53L0.215219 53.216ZM78.2649 53.792C75.1449 53.792 72.6729 53.024 70.8489 51.488C69.0729 49.904 68.1849 47.576 68.1849 44.504V30.536C68.1849 28.376 68.0409 26.84 67.7529 25.928C67.4649 24.968 66.9369 24.344 66.1689 24.056C65.4489 23.768 64.3929 23.552 63.0009 23.408L61.8489 23.264V21.608L70.7049 21.824L73.2249 21.752V44.216C73.2249 46.568 73.8249 48.368 75.0249 49.616C76.2249 50.864 77.8569 51.488 79.9209 51.488C81.6969 51.488 83.2569 51.104 84.6009 50.336C85.9929 49.52 87.1689 48.488 88.1289 47.24C89.1369 45.992 89.9289 44.72 90.5049 43.424V30.536C90.5049 28.376 90.3609 26.84 90.0729 25.928C89.7849 24.968 89.2569 24.344 88.4889 24.056C87.7689 23.768 86.7129 23.552 85.3209 23.408L84.1689 23.264V21.608L93.0249 21.824L95.5449 21.752V45.008C95.5449 46.832 95.7609 48.2 96.1929 49.112C96.6729 49.976 97.3449 50.552 98.2089 50.84C99.1209 51.128 100.225 51.272 101.521 51.272V52.928C99.5529 52.928 97.7529 52.952 96.1209 53C94.4889 53.048 92.6169 53.264 90.5049 53.648V47.024C90.0249 47.792 89.5209 48.464 88.9929 49.04C87.7449 50.432 86.2329 51.584 84.4569 52.496C82.6809 53.36 80.6169 53.792 78.2649 53.792ZM103.342 53.216V51.56L104.494 51.416C105.886 51.224 106.942 51.008 107.662 50.768C108.43 50.48 108.958 49.88 109.246 48.968C109.534 48.008 109.678 46.448 109.678 44.288V9.152C109.678 6.656 109.15 5.072 108.094 4.4C107.086 3.68 105.67 3.32 103.846 3.32H103.342V1.664C105.31 1.664 107.206 1.616 109.03 1.52C110.854 1.376 112.75 1.136 114.718 0.799998V44.288C114.718 46.448 114.862 48.008 115.15 48.968C115.438 49.88 115.942 50.48 116.662 50.768C117.43 51.008 118.51 51.224 119.902 51.416L121.054 51.56V53.216L112.198 53L103.342 53.216ZM137.568 53.792C135.216 53.792 133.296 53.096 131.808 51.704C130.368 50.264 129.648 47.936 129.648 44.72V23.408H124.32V21.608L126.264 21.464C128.232 21.32 129.72 20.528 130.728 19.088C131.784 17.6 132.48 15.536 132.816 12.896H134.688V21.608H143.904V23.408H134.688V45.008C134.688 49.232 136.176 51.344 139.152 51.344C140.4 51.344 141.408 50.936 142.176 50.12C142.944 49.256 143.64 48.2 144.264 46.952L145.848 47.744C145.56 48.464 145.2 49.136 144.768 49.76C144.384 50.336 144 50.84 143.616 51.272C142.8 52.184 141.864 52.832 140.808 53.216C139.8 53.6 138.72 53.792 137.568 53.792ZM148.575 53.216V51.56L149.727 51.416C151.119 51.224 152.175 51.008 152.895 50.768C153.663 50.48 154.191 49.88 154.479 48.968C154.767 48.008 154.911 46.448 154.911 44.288V29.096C154.911 26.6 154.383 25.016 153.327 24.344C152.319 23.624 150.903 23.264 149.079 23.264H148.575V21.608C150.543 21.608 152.439 21.56 154.263 21.464C156.087 21.32 157.983 21.08 159.951 20.744V44.288C159.951 46.448 160.095 48.008 160.383 48.968C160.671 49.88 161.175 50.48 161.895 50.768C162.663 51.008 163.743 51.224 165.135 51.416L166.287 51.56V53.216L157.431 53L148.575 53.216ZM156.567 12.32C155.319 12.32 154.335 11.888 153.615 11.024C152.895 10.16 152.535 9.128 152.535 7.928C152.535 6.68 152.895 5.648 153.615 4.832C154.335 3.968 155.319 3.536 156.567 3.536C157.959 3.536 158.967 3.968 159.591 4.832C160.263 5.648 160.599 6.68 160.599 7.928C160.599 9.128 160.263 10.16 159.591 11.024C158.967 11.888 157.959 12.32 156.567 12.32ZM168.316 73.376V71.72L169.468 71.576C170.86 71.384 171.916 71.144 172.636 70.856C173.404 70.616 173.932 70.016 174.22 69.056C174.508 68.144 174.652 66.608 174.652 64.448V28.88C174.652 27.152 174.388 25.904 173.86 25.136C173.38 24.32 172.66 23.816 171.7 23.624C170.74 23.384 169.612 23.264 168.316 23.264V21.608C170.284 21.608 172.18 21.512 174.004 21.32C175.828 21.128 177.724 20.864 179.692 20.528L179.188 25.424C180.532 23.888 182.068 22.664 183.796 21.752C185.572 20.792 187.54 20.312 189.7 20.312C192.484 20.312 194.956 21.056 197.116 22.544C199.324 24.032 201.076 26.048 202.372 28.592C203.668 31.136 204.316 33.992 204.316 37.16C204.316 40.232 203.668 43.04 202.372 45.584C201.076 48.08 199.3 50.072 197.044 51.56C194.836 53.048 192.292 53.792 189.412 53.792C187.396 53.792 185.548 53.384 183.868 52.568C182.188 51.704 180.796 50.744 179.692 49.688V64.448C179.692 66.608 179.836 68.144 180.124 69.056C180.412 70.016 180.916 70.616 181.636 70.856C182.404 71.144 183.484 71.384 184.876 71.576L186.028 71.72V73.376L177.172 73.16L168.316 73.376ZM188.836 22.472C186.868 22.472 185.116 22.952 183.58 23.912C182.092 24.824 180.796 25.952 179.692 27.296V46.736C180.508 47.984 181.732 49.112 183.364 50.12C184.996 51.128 186.796 51.632 188.764 51.632C190.972 51.632 192.796 51.008 194.236 49.76C195.676 48.464 196.756 46.736 197.476 44.576C198.196 42.368 198.556 39.896 198.556 37.16C198.556 34.376 198.196 31.88 197.476 29.672C196.756 27.464 195.676 25.712 194.236 24.416C192.844 23.12 191.044 22.472 188.836 22.472ZM208.67 53.216V51.56L209.822 51.416C211.214 51.224 212.27 51.008 212.99 50.768C213.758 50.48 214.286 49.88 214.574 48.968C214.862 48.008 215.006 46.448 215.006 44.288V9.152C215.006 6.656 214.478 5.072 213.422 4.4C212.414 3.68 210.998 3.32 209.174 3.32H208.67V1.664C210.638 1.664 212.534 1.616 214.358 1.52C216.182 1.376 218.078 1.136 220.046 0.799998V44.288C220.046 46.448 220.19 48.008 220.478 48.968C220.766 49.88 221.27 50.48 221.99 50.768C222.758 51.008 223.838 51.224 225.23 51.416L226.382 51.56V53.216L217.526 53L208.67 53.216ZM246.496 53.792C243.328 53.792 240.568 53.12 238.216 51.776C235.864 50.384 234.016 48.488 232.672 46.088C231.376 43.64 230.728 40.856 230.728 37.736C230.728 34.376 231.448 31.4 232.888 28.808C234.328 26.168 236.248 24.104 238.648 22.616C241.096 21.08 243.784 20.312 246.712 20.312C250.408 20.312 253.288 21.488 255.352 23.84C257.464 26.192 258.52 29.288 258.52 33.128C258.52 33.704 258.496 34.184 258.448 34.568C258.4 34.952 258.352 35.216 258.304 35.36H236.56C236.512 36.032 236.488 36.704 236.488 37.376C236.488 39.92 236.896 42.296 237.712 44.504C238.528 46.664 239.752 48.392 241.384 49.688C243.064 50.984 245.104 51.632 247.504 51.632C249.76 51.632 251.752 51.008 253.48 49.76C255.256 48.464 256.624 46.568 257.584 44.072L259.312 44.72C257.296 50.768 253.024 53.792 246.496 53.792ZM246.712 22.112C243.736 22.112 241.408 23.168 239.728 25.28C238.096 27.392 237.088 30.2 236.704 33.704H245.848C248.008 33.704 249.64 33.464 250.744 32.984C251.896 32.456 252.664 31.832 253.048 31.112C253.48 30.344 253.696 29.6 253.696 28.88C253.696 26.768 252.976 25.112 251.536 23.912C250.096 22.712 248.488 22.112 246.712 22.112Z" fill="black"/>
</svg>
