<svg width="254" height="36" viewBox="0 0 254 36" fill="none" xmlns="http://www.w3.org/2000/svg">
<path d="M0.872 35.192V33.992L1.832 33.896C2.952 33.768 3.8 33.608 4.376 33.416C4.984 33.224 5.4 32.776 5.624 32.072C5.848 31.368 5.96 30.216 5.96 28.616V3.848C5.672 3.496 5.24 3.112 4.664 2.696C4.088 2.248 3.24 2.024 2.12 2.024H0.68V0.775997L9.992 0.919998C10.568 1.72 11.336 2.776 12.296 4.088C13.288 5.4 14.376 6.856 15.56 8.456C16.776 10.056 18.024 11.704 19.304 13.4C20.584 15.064 21.816 16.68 23 18.248C24.216 19.816 25.304 21.224 26.264 22.472C27.224 23.72 27.976 24.712 28.52 25.448V7.304C28.52 5.704 28.408 4.568 28.184 3.896C27.96 3.192 27.544 2.744 26.936 2.552C26.36 2.328 25.512 2.168 24.392 2.072L23.432 1.976V0.775997L29.672 0.919998L35.528 0.775997V1.976L34.568 2.072C33.48 2.2 32.632 2.376 32.024 2.6C31.416 2.792 31 3.224 30.776 3.896C30.552 4.568 30.44 5.704 30.44 7.304V35H29C28.488 33.944 27.72 32.648 26.696 31.112C25.704 29.544 24.552 27.832 23.24 25.976C21.928 24.12 20.552 22.232 19.112 20.312C17.704 18.36 16.296 16.472 14.888 14.648C13.48 12.824 12.168 11.16 10.952 9.656C9.736 8.152 8.712 6.904 7.88 5.912V28.616C7.88 30.216 7.992 31.368 8.216 32.072C8.44 32.776 8.856 33.224 9.464 33.416C10.072 33.608 10.92 33.768 12.008 33.896L12.968 33.992V35.192L6.824 35L0.872 35.192ZM48.2345 35.528C46.1225 35.528 44.2825 35.08 42.7145 34.184C41.1465 33.256 39.9145 31.992 39.0185 30.392C38.1545 28.76 37.7225 26.904 37.7225 24.824C37.7225 22.584 38.2025 20.6 39.1625 18.872C40.1225 17.112 41.4025 15.736 43.0025 14.744C44.6345 13.72 46.4265 13.208 48.3785 13.208C50.8425 13.208 52.7625 13.992 54.1385 15.56C55.5465 17.128 56.2505 19.192 56.2505 21.752C56.2505 22.136 56.2345 22.456 56.2025 22.712C56.1705 22.968 56.1385 23.144 56.1065 23.24H41.6105C41.5785 23.688 41.5625 24.136 41.5625 24.584C41.5625 26.28 41.8345 27.864 42.3785 29.336C42.9225 30.776 43.7385 31.928 44.8265 32.792C45.9465 33.656 47.3065 34.088 48.9065 34.088C50.4105 34.088 51.7385 33.672 52.8905 32.84C54.0745 31.976 54.9865 30.712 55.6265 29.048L56.7785 29.48C55.4345 33.512 52.5865 35.528 48.2345 35.528ZM48.3785 14.408C46.3945 14.408 44.8425 15.112 43.7225 16.52C42.6345 17.928 41.9625 19.8 41.7065 22.136H47.8025C49.2425 22.136 50.3305 21.976 51.0665 21.656C51.8345 21.304 52.3465 20.888 52.6025 20.408C52.8905 19.896 53.0345 19.4 53.0345 18.92C53.0345 17.512 52.5545 16.408 51.5945 15.608C50.6345 14.808 49.5625 14.408 48.3785 14.408ZM57.9688 35.144V34.04L58.5928 33.944C60.0648 33.72 61.2648 33.224 62.1928 32.456C63.1528 31.656 64.0168 30.824 64.7848 29.96L69.0088 25.208L62.2408 17.768C61.4728 16.936 60.8328 16.328 60.3208 15.944C59.8408 15.528 59.2648 15.288 58.5928 15.224L58.1608 15.176V14.072L63.5368 14.216L68.9128 14.072V15.176L68.1448 15.32C68.0168 15.352 67.7928 15.416 67.4728 15.512C67.1528 15.608 66.8488 15.752 66.5608 15.944C66.3048 16.104 66.1768 16.344 66.1768 16.664C66.1768 17.048 66.4488 17.56 66.9928 18.2L71.3608 23L75.6328 18.2C76.0808 17.72 76.3048 17.24 76.3048 16.76C76.3048 16.376 76.0648 16.056 75.5848 15.8C75.1048 15.512 74.5448 15.32 73.9048 15.224L73.6168 15.176V14.072L79.1848 14.216L82.8328 14.072V15.176L82.3048 15.224C80.9928 15.352 79.8408 15.816 78.8488 16.616C77.8888 17.416 76.9928 18.28 76.1608 19.208L72.0807 23.816L77.8888 30.2C78.6248 31 79.4088 31.784 80.2408 32.552C81.0728 33.32 81.9528 33.784 82.8808 33.944L83.4088 34.04V35.096L78.6568 35L72.7048 35.096V33.992L73.4728 33.896C74.7208 33.736 75.3448 33.384 75.3448 32.84C75.3448 32.68 75.2968 32.488 75.2008 32.264C75.1368 32.008 74.9768 31.752 74.7208 31.496L69.7288 26.024L65.4568 30.968C65.2328 31.192 65.0408 31.448 64.8808 31.736C64.7528 31.992 64.6888 32.248 64.6888 32.504C64.6888 32.824 64.8168 33.128 65.0728 33.416C65.3288 33.672 65.7608 33.832 66.3688 33.896L67.1368 33.992V35.144L62.6248 35L57.9688 35.144ZM93.4595 35.528C91.8915 35.528 90.6115 35.064 89.6195 34.136C88.6595 33.176 88.1795 31.624 88.1795 29.48V15.272H84.6275V14.072L85.9235 13.976C87.2355 13.88 88.2275 13.352 88.8995 12.392C89.6035 11.4 90.0675 10.024 90.2915 8.264H91.5395V14.072H97.6835V15.272H91.5395V29.672C91.5395 32.488 92.5315 33.896 94.5155 33.896C95.3475 33.896 96.0195 33.624 96.5315 33.08C97.0435 32.504 97.5075 31.8 97.9235 30.968L98.9795 31.496C98.7875 31.976 98.5475 32.424 98.2595 32.84C98.0035 33.224 97.7475 33.56 97.4915 33.848C96.9475 34.456 96.3235 34.888 95.6195 35.144C94.9475 35.4 94.2275 35.528 93.4595 35.528ZM141.245 35.528C139.485 35.528 138.173 34.936 137.309 33.752C136.477 32.536 135.933 31.048 135.677 29.288C135.517 28.008 135.261 26.728 134.909 25.448C134.589 24.168 134.061 23 133.325 21.944C132.621 20.856 131.613 19.992 130.301 19.352C129.021 18.712 127.341 18.392 125.261 18.392H123.197V28.616C123.197 30.184 123.309 31.32 123.533 32.024C123.757 32.696 124.173 33.144 124.781 33.368C125.389 33.56 126.237 33.72 127.325 33.848L128.285 33.944V35.144L121.181 35H121.133L114.029 35.144V33.944L114.989 33.848C116.109 33.72 116.957 33.56 117.533 33.368C118.141 33.144 118.557 32.696 118.781 32.024C119.005 31.32 119.117 30.184 119.117 28.616V7.304C119.117 5.704 119.005 4.568 118.781 3.896C118.557 3.224 118.141 2.792 117.533 2.6C116.957 2.376 116.109 2.2 114.989 2.072L114.029 1.976V0.775997L121.133 0.919998H127.853C130.029 0.919998 132.045 1.176 133.901 1.688C135.757 2.168 137.245 3.016 138.365 4.232C139.517 5.448 140.093 7.144 140.093 9.32C140.093 11.24 139.661 12.808 138.797 14.024C137.965 15.208 136.845 16.12 135.437 16.76C134.061 17.368 132.557 17.8 130.925 18.056C133.293 18.216 135.213 19.032 136.685 20.504C138.189 21.944 139.149 24.072 139.565 26.888C139.853 28.68 140.205 30.088 140.621 31.112C141.069 32.104 141.549 32.808 142.061 33.224C142.605 33.608 143.149 33.8 143.693 33.8C144.045 33.8 144.381 33.736 144.701 33.608C145.053 33.48 145.357 33.352 145.613 33.224L145.949 34.424C145.437 34.68 144.749 34.92 143.885 35.144C143.021 35.4 142.141 35.528 141.245 35.528ZM127.949 2.168H123.197V17.096H127.229C130.301 17.096 132.445 16.472 133.661 15.224C134.909 13.976 135.533 12.104 135.533 9.608C135.533 7.24 134.973 5.416 133.853 4.136C132.733 2.824 130.765 2.168 127.949 2.168ZM158.684 35.528C156.636 35.528 154.764 35.032 153.068 34.04C151.404 33.048 150.076 31.72 149.084 30.056C148.124 28.36 147.644 26.488 147.644 24.44C147.644 22.328 148.124 20.424 149.084 18.728C150.076 17.032 151.404 15.688 153.068 14.696C154.764 13.704 156.636 13.208 158.684 13.208C160.764 13.208 162.636 13.704 164.3 14.696C165.964 15.688 167.276 17.032 168.236 18.728C169.228 20.424 169.724 22.328 169.724 24.44C169.724 26.488 169.228 28.36 168.236 30.056C167.276 31.72 165.964 33.048 164.3 34.04C162.636 35.032 160.764 35.528 158.684 35.528ZM158.684 34.328C160.412 34.328 161.804 33.896 162.86 33.032C163.916 32.136 164.684 30.952 165.164 29.48C165.644 27.976 165.884 26.296 165.884 24.44C165.884 22.52 165.644 20.808 165.164 19.304C164.684 17.8 163.916 16.616 162.86 15.752C161.804 14.856 160.412 14.408 158.684 14.408C156.956 14.408 155.564 14.856 154.508 15.752C153.452 16.616 152.684 17.8 152.204 19.304C151.724 20.808 151.484 22.52 151.484 24.44C151.484 26.296 151.724 27.976 152.204 29.48C152.684 30.952 153.452 32.136 154.508 33.032C155.564 33.896 156.956 34.328 158.684 34.328ZM183.299 35.528C181.219 35.528 179.571 35.016 178.355 33.992C177.171 32.936 176.579 31.384 176.579 29.336V20.024C176.579 18.584 176.483 17.56 176.291 16.952C176.099 16.312 175.747 15.896 175.235 15.704C174.755 15.512 174.051 15.368 173.123 15.272L172.355 15.176V14.072L178.259 14.216L179.939 14.168V29.144C179.939 30.712 180.339 31.912 181.139 32.744C181.939 33.576 183.027 33.992 184.403 33.992C185.587 33.992 186.627 33.736 187.523 33.224C188.451 32.68 189.235 31.992 189.875 31.16C190.547 30.328 191.075 29.48 191.459 28.616V20.024C191.459 18.584 191.363 17.56 191.171 16.952C190.979 16.312 190.627 15.896 190.115 15.704C189.635 15.512 188.931 15.368 188.003 15.272L187.235 15.176V14.072L193.139 14.216L194.819 14.168V29.672C194.819 30.888 194.963 31.8 195.251 32.408C195.571 32.984 196.019 33.368 196.595 33.56C197.203 33.752 197.939 33.848 198.803 33.848V34.952C197.491 34.952 196.291 34.968 195.203 35C194.115 35.032 192.867 35.176 191.459 35.432V31.016C191.139 31.528 190.803 31.976 190.451 32.36C189.619 33.288 188.611 34.056 187.427 34.664C186.243 35.24 184.867 35.528 183.299 35.528ZM200.641 35.144V34.04L201.409 33.944C202.337 33.816 203.041 33.672 203.521 33.512C204.033 33.32 204.385 32.92 204.577 32.312C204.769 31.672 204.865 30.632 204.865 29.192V19.064C204.865 17.4 204.513 16.344 203.809 15.896C203.137 15.416 202.193 15.176 200.977 15.176H200.641V14.072C201.953 14.072 203.217 14.04 204.433 13.976C205.649 13.88 206.913 13.72 208.225 13.496V17.384C208.961 16.296 210.001 15.336 211.345 14.504C212.689 13.64 214.257 13.208 216.049 13.208C218.225 13.208 219.937 13.768 221.185 14.888C222.465 15.976 223.105 17.544 223.105 19.592V29.192C223.105 30.632 223.201 31.672 223.393 32.312C223.585 32.92 223.921 33.32 224.401 33.512C224.913 33.672 225.633 33.816 226.561 33.944L227.329 34.04V35.144L221.425 35L215.521 35.144V34.04L216.289 33.944C217.217 33.816 217.921 33.672 218.401 33.512C218.913 33.32 219.265 32.92 219.457 32.312C219.649 31.672 219.745 30.632 219.745 29.192V19.592C219.745 17.992 219.329 16.776 218.497 15.944C217.665 15.08 216.497 14.648 214.993 14.648C213.841 14.648 212.801 14.92 211.873 15.464C210.945 15.976 210.177 16.616 209.569 17.384C208.961 18.152 208.513 18.888 208.225 19.592V29.192C208.225 30.632 208.321 31.672 208.513 32.312C208.705 32.92 209.041 33.32 209.521 33.512C210.033 33.672 210.753 33.816 211.681 33.944L212.449 34.04V35.144L206.545 35L200.641 35.144ZM239.748 35.528C237.924 35.528 236.276 35.032 234.804 34.04C233.332 33.048 232.164 31.704 231.3 30.008C230.436 28.28 230.004 26.376 230.004 24.296C230.004 22.216 230.436 20.344 231.3 18.68C232.164 17.016 233.348 15.688 234.852 14.696C236.356 13.704 238.052 13.208 239.94 13.208C241.284 13.208 242.516 13.496 243.636 14.072C244.756 14.616 245.684 15.24 246.42 15.944V5.768C246.42 4.104 246.068 3.048 245.364 2.6C244.692 2.12 243.748 1.88 242.532 1.88H242.196V0.775997C243.508 0.775997 244.772 0.743998 245.988 0.679998C247.204 0.583998 248.468 0.423998 249.78 0.199999V29.768C249.78 31.56 250.116 32.696 250.788 33.176C251.492 33.656 252.484 33.896 253.764 33.896V35H251.796C251.092 35 250.404 35.016 249.732 35.048C249.06 35.112 248.308 35.224 247.476 35.384L246.852 32.024C245.988 33.048 244.948 33.896 243.732 34.568C242.548 35.208 241.22 35.528 239.748 35.528ZM233.844 24.296C233.844 26.152 234.068 27.816 234.516 29.288C234.996 30.76 235.7 31.928 236.628 32.792C237.588 33.656 238.788 34.088 240.228 34.088C241.604 34.088 242.788 33.784 243.78 33.176C244.804 32.536 245.684 31.768 246.42 30.872V17.912C245.876 17.08 245.06 16.328 243.972 15.656C242.884 14.984 241.684 14.648 240.372 14.648C238.9 14.648 237.684 15.08 236.724 15.944C235.764 16.776 235.044 17.928 234.564 19.4C234.084 20.84 233.844 22.472 233.844 24.296Z" fill="black"/>
</svg>
