<svg width="225" height="36" viewBox="0 0 225 36" fill="none" xmlns="http://www.w3.org/2000/svg">
<path d="M0.872 35.192V33.992L1.832 33.896C2.952 33.768 3.8 33.608 4.376 33.416C4.984 33.224 5.4 32.776 5.624 32.072C5.848 31.368 5.96 30.216 5.96 28.616V3.848C5.672 3.496 5.24 3.112 4.664 2.696C4.088 2.248 3.24 2.024 2.12 2.024H0.68V0.775997L9.992 0.919998C10.568 1.72 11.336 2.776 12.296 4.088C13.288 5.4 14.376 6.856 15.56 8.456C16.776 10.056 18.024 11.704 19.304 13.4C20.584 15.064 21.816 16.68 23 18.248C24.216 19.816 25.304 21.224 26.264 22.472C27.224 23.72 27.976 24.712 28.52 25.448V7.304C28.52 5.704 28.408 4.568 28.184 3.896C27.96 3.192 27.544 2.744 26.936 2.552C26.36 2.328 25.512 2.168 24.392 2.072L23.432 1.976V0.775997L29.672 0.919998L35.528 0.775997V1.976L34.568 2.072C33.48 2.2 32.632 2.376 32.024 2.6C31.416 2.792 31 3.224 30.776 3.896C30.552 4.568 30.44 5.704 30.44 7.304V35H29C28.488 33.944 27.72 32.648 26.696 31.112C25.704 29.544 24.552 27.832 23.24 25.976C21.928 24.12 20.552 22.232 19.112 20.312C17.704 18.36 16.296 16.472 14.888 14.648C13.48 12.824 12.168 11.16 10.952 9.656C9.736 8.152 8.712 6.904 7.88 5.912V28.616C7.88 30.216 7.992 31.368 8.216 32.072C8.44 32.776 8.856 33.224 9.464 33.416C10.072 33.608 10.92 33.768 12.008 33.896L12.968 33.992V35.192L6.824 35L0.872 35.192ZM48.2345 35.528C46.1225 35.528 44.2825 35.08 42.7145 34.184C41.1465 33.256 39.9145 31.992 39.0185 30.392C38.1545 28.76 37.7225 26.904 37.7225 24.824C37.7225 22.584 38.2025 20.6 39.1625 18.872C40.1225 17.112 41.4025 15.736 43.0025 14.744C44.6345 13.72 46.4265 13.208 48.3785 13.208C50.8425 13.208 52.7625 13.992 54.1385 15.56C55.5465 17.128 56.2505 19.192 56.2505 21.752C56.2505 22.136 56.2345 22.456 56.2025 22.712C56.1705 22.968 56.1385 23.144 56.1065 23.24H41.6105C41.5785 23.688 41.5625 24.136 41.5625 24.584C41.5625 26.28 41.8345 27.864 42.3785 29.336C42.9225 30.776 43.7385 31.928 44.8265 32.792C45.9465 33.656 47.3065 34.088 48.9065 34.088C50.4105 34.088 51.7385 33.672 52.8905 32.84C54.0745 31.976 54.9865 30.712 55.6265 29.048L56.7785 29.48C55.4345 33.512 52.5865 35.528 48.2345 35.528ZM48.3785 14.408C46.3945 14.408 44.8425 15.112 43.7225 16.52C42.6345 17.928 41.9625 19.8 41.7065 22.136H47.8025C49.2425 22.136 50.3305 21.976 51.0665 21.656C51.8345 21.304 52.3465 20.888 52.6025 20.408C52.8905 19.896 53.0345 19.4 53.0345 18.92C53.0345 17.512 52.5545 16.408 51.5945 15.608C50.6345 14.808 49.5625 14.408 48.3785 14.408ZM57.9688 35.144V34.04L58.5928 33.944C60.0648 33.72 61.2648 33.224 62.1928 32.456C63.1528 31.656 64.0168 30.824 64.7848 29.96L69.0088 25.208L62.2408 17.768C61.4728 16.936 60.8328 16.328 60.3208 15.944C59.8408 15.528 59.2648 15.288 58.5928 15.224L58.1608 15.176V14.072L63.5368 14.216L68.9128 14.072V15.176L68.1448 15.32C68.0168 15.352 67.7928 15.416 67.4728 15.512C67.1528 15.608 66.8488 15.752 66.5608 15.944C66.3048 16.104 66.1768 16.344 66.1768 16.664C66.1768 17.048 66.4488 17.56 66.9928 18.2L71.3608 23L75.6328 18.2C76.0808 17.72 76.3048 17.24 76.3048 16.76C76.3048 16.376 76.0648 16.056 75.5848 15.8C75.1048 15.512 74.5448 15.32 73.9048 15.224L73.6168 15.176V14.072L79.1848 14.216L82.8328 14.072V15.176L82.3048 15.224C80.9928 15.352 79.8408 15.816 78.8488 16.616C77.8888 17.416 76.9928 18.28 76.1608 19.208L72.0807 23.816L77.8888 30.2C78.6248 31 79.4088 31.784 80.2408 32.552C81.0728 33.32 81.9528 33.784 82.8808 33.944L83.4088 34.04V35.096L78.6568 35L72.7048 35.096V33.992L73.4728 33.896C74.7208 33.736 75.3448 33.384 75.3448 32.84C75.3448 32.68 75.2968 32.488 75.2008 32.264C75.1368 32.008 74.9768 31.752 74.7208 31.496L69.7288 26.024L65.4568 30.968C65.2328 31.192 65.0408 31.448 64.8808 31.736C64.7528 31.992 64.6888 32.248 64.6888 32.504C64.6888 32.824 64.8168 33.128 65.0728 33.416C65.3288 33.672 65.7608 33.832 66.3688 33.896L67.1368 33.992V35.144L62.6248 35L57.9688 35.144ZM93.4595 35.528C91.8915 35.528 90.6115 35.064 89.6195 34.136C88.6595 33.176 88.1795 31.624 88.1795 29.48V15.272H84.6275V14.072L85.9235 13.976C87.2355 13.88 88.2275 13.352 88.8995 12.392C89.6035 11.4 90.0675 10.024 90.2915 8.264H91.5395V14.072H97.6835V15.272H91.5395V29.672C91.5395 32.488 92.5315 33.896 94.5155 33.896C95.3475 33.896 96.0195 33.624 96.5315 33.08C97.0435 32.504 97.5075 31.8 97.9235 30.968L98.9795 31.496C98.7875 31.976 98.5475 32.424 98.2595 32.84C98.0035 33.224 97.7475 33.56 97.4915 33.848C96.9475 34.456 96.3235 34.888 95.6195 35.144C94.9475 35.4 94.2275 35.528 93.4595 35.528ZM114.029 35.144V33.944L114.989 33.848C116.109 33.72 116.957 33.56 117.533 33.368C118.141 33.176 118.557 32.728 118.781 32.024C119.005 31.32 119.117 30.184 119.117 28.616V7.304C119.117 5.704 119.005 4.568 118.781 3.896C118.557 3.192 118.141 2.744 117.533 2.552C116.957 2.328 116.109 2.168 114.989 2.072L114.029 1.976V0.775997L121.229 0.919998L127.421 0.775997V1.88L126.653 1.976C125.725 2.072 125.005 2.216 124.493 2.408C124.013 2.6 123.677 3.016 123.485 3.656C123.293 4.264 123.197 5.288 123.197 6.728V26.744C123.197 28.312 123.277 29.608 123.437 30.632C123.629 31.656 124.125 32.408 124.925 32.888C125.725 33.368 127.021 33.608 128.813 33.608H132.413C135.197 33.608 137.197 32.872 138.413 31.4C139.661 29.896 140.397 27.736 140.621 24.92H141.677L141.197 35.144L121.133 35L114.029 35.144ZM156.047 35.528C153.935 35.528 152.095 35.08 150.527 34.184C148.959 33.256 147.727 31.992 146.831 30.392C145.967 28.76 145.535 26.904 145.535 24.824C145.535 22.584 146.015 20.6 146.975 18.872C147.935 17.112 149.215 15.736 150.815 14.744C152.447 13.72 154.239 13.208 156.191 13.208C158.655 13.208 160.575 13.992 161.951 15.56C163.359 17.128 164.063 19.192 164.063 21.752C164.063 22.136 164.047 22.456 164.015 22.712C163.983 22.968 163.951 23.144 163.919 23.24H149.423C149.391 23.688 149.375 24.136 149.375 24.584C149.375 26.28 149.647 27.864 150.191 29.336C150.735 30.776 151.551 31.928 152.639 32.792C153.759 33.656 155.119 34.088 156.719 34.088C158.223 34.088 159.551 33.672 160.703 32.84C161.887 31.976 162.799 30.712 163.439 29.048L164.591 29.48C163.247 33.512 160.399 35.528 156.047 35.528ZM156.191 14.408C154.207 14.408 152.655 15.112 151.535 16.52C150.447 17.928 149.775 19.8 149.519 22.136H155.615C157.055 22.136 158.143 21.976 158.879 21.656C159.647 21.304 160.159 20.888 160.415 20.408C160.703 19.896 160.847 19.4 160.847 18.92C160.847 17.512 160.367 16.408 159.407 15.608C158.447 14.808 157.375 14.408 156.191 14.408ZM177.242 35L169.418 17.72C169.13 17.08 168.778 16.536 168.362 16.088C167.946 15.64 167.322 15.368 166.49 15.272L165.626 15.176V14.072L170.57 14.216L175.466 14.072V15.176L174.698 15.272C173.994 15.368 173.498 15.544 173.21 15.8C172.922 16.024 172.778 16.344 172.778 16.76C172.778 17.112 172.906 17.592 173.162 18.2L179.21 31.544L184.826 18.392C185.114 17.752 185.258 17.224 185.258 16.808C185.258 15.976 184.522 15.464 183.05 15.272L182.234 15.176V14.072L186.554 14.216L190.586 14.072V15.176L189.482 15.32C188.586 15.448 187.898 15.8 187.418 16.376C186.938 16.92 186.458 17.752 185.978 18.872L179.066 35H177.242ZM201.797 35.528C199.685 35.528 197.845 35.08 196.277 34.184C194.709 33.256 193.477 31.992 192.581 30.392C191.717 28.76 191.285 26.904 191.285 24.824C191.285 22.584 191.765 20.6 192.725 18.872C193.685 17.112 194.965 15.736 196.565 14.744C198.197 13.72 199.989 13.208 201.941 13.208C204.405 13.208 206.325 13.992 207.701 15.56C209.109 17.128 209.813 19.192 209.813 21.752C209.813 22.136 209.797 22.456 209.765 22.712C209.733 22.968 209.701 23.144 209.669 23.24H195.173C195.141 23.688 195.125 24.136 195.125 24.584C195.125 26.28 195.397 27.864 195.941 29.336C196.485 30.776 197.301 31.928 198.389 32.792C199.509 33.656 200.869 34.088 202.469 34.088C203.973 34.088 205.301 33.672 206.453 32.84C207.637 31.976 208.549 30.712 209.189 29.048L210.341 29.48C208.997 33.512 206.149 35.528 201.797 35.528ZM201.941 14.408C199.957 14.408 198.405 15.112 197.285 16.52C196.197 17.928 195.525 19.8 195.269 22.136H201.365C202.805 22.136 203.893 21.976 204.629 21.656C205.397 21.304 205.909 20.888 206.165 20.408C206.453 19.896 206.597 19.4 206.597 18.92C206.597 17.512 206.117 16.408 205.157 15.608C204.197 14.808 203.125 14.408 201.941 14.408ZM212.72 35.144V34.04L213.488 33.944C214.416 33.816 215.12 33.672 215.6 33.512C216.112 33.32 216.464 32.92 216.656 32.312C216.848 31.672 216.944 30.632 216.944 29.192V5.768C216.944 4.104 216.592 3.048 215.888 2.6C215.216 2.12 214.272 1.88 213.056 1.88H212.72V0.775997C214.032 0.775997 215.296 0.743998 216.512 0.679998C217.728 0.583998 218.992 0.423998 220.304 0.199999V29.192C220.304 30.632 220.4 31.672 220.592 32.312C220.784 32.92 221.12 33.32 221.6 33.512C222.112 33.672 222.832 33.816 223.76 33.944L224.528 34.04V35.144L218.624 35L212.72 35.144Z" fill="black"/>
</svg>
