<svg width="390" height="76" viewBox="0 0 390 76" fill="none" xmlns="http://www.w3.org/2000/svg">
<ellipse cx="34.5" cy="38" rx="32.5" ry="36" fill="white" stroke="#8D8282" stroke-width="3"/>
<path d="M29.2 49.12V48.2L29.84 48.12C30.6133 48.0133 31.2 47.8933 31.6 47.76C32.0267 47.6 32.32 47.2667 32.48 46.76C32.64 46.2267 32.72 45.36 32.72 44.16V35.52C32.72 34.5067 32.5867 33.7733 32.32 33.32C32.0533 32.84 31.6667 32.5333 31.16 32.4C30.68 32.24 30.08 32.1733 29.36 32.2V31C29.9467 31.0267 30.5333 31.0133 31.12 30.96C31.7333 30.9067 32.32 30.84 32.88 30.76C33.4133 30.6533 33.9067 30.5467 34.36 30.44C34.8133 30.3067 35.2 30.16 35.52 30V44.16C35.52 45.36 35.6 46.2267 35.76 46.76C35.92 47.2667 36.2 47.6 36.6 47.76C37.0267 47.8933 37.6267 48.0133 38.4 48.12L39.04 48.2V49.12L34.12 49L29.2 49.12Z" fill="#8D8282"/>
<ellipse cx="139.5" cy="38" rx="32.5" ry="36" fill="white" stroke="#8D8282" stroke-width="3"/>
<path d="M145.8 52.52L145.72 51.88C145.64 51.1067 145.52 50.5067 145.36 50.08C145.2 49.68 144.853 49.4 144.32 49.24C143.813 49.08 142.96 49 141.76 49H136V48.2L138.4 45.56C139.28 44.6 140.147 43.6533 141 42.72C141.853 41.7867 142.56 40.7867 143.12 39.72C143.68 38.6533 143.96 37.4533 143.96 36.12C143.96 34.7067 143.6 33.5867 142.88 32.76C142.187 31.9067 141.253 31.48 140.08 31.48C138.693 31.48 137.653 31.92 136.96 32.8C136.293 33.6533 135.96 34.6267 135.96 35.72C135.96 36.7067 136.2 37.52 136.68 38.16C137.16 38.8 137.653 39.2133 138.16 39.4L137.76 40.28C136.853 39.88 136.12 39.2667 135.56 38.44C135.027 37.6133 134.76 36.6667 134.76 35.6C134.76 34.56 135.027 33.64 135.56 32.84C136.093 32.0133 136.813 31.3733 137.72 30.92C138.653 30.4667 139.693 30.24 140.84 30.24C142.227 30.24 143.387 30.5067 144.32 31.04C145.253 31.5733 145.96 32.2533 146.44 33.08C146.92 33.9067 147.16 34.76 147.16 35.64C147.16 36.84 146.813 38 146.12 39.12C145.453 40.2133 144.627 41.24 143.64 42.2C142.653 43.16 141.72 44.04 140.84 44.84L139.04 46.44L146.96 45.84L146.76 47.6L146.72 52.52H145.8Z" fill="#8D8282"/>
<ellipse cx="247.5" cy="38" rx="32.5" ry="36" fill="white" stroke="#8D8282" stroke-width="3"/>
<path d="M247.32 54.76C246.173 54.76 245.107 54.5733 244.12 54.2C243.133 53.8267 242.32 53.2933 241.68 52.6C241.067 51.9333 240.76 51.1733 240.76 50.32C240.76 49.68 240.933 49.1467 241.28 48.72C241.627 48.32 242.093 48.12 242.68 48.12C243.16 48.12 243.56 48.28 243.88 48.6C244.227 48.92 244.4 49.3333 244.4 49.84C244.4 50.16 244.333 50.4533 244.2 50.72C244.093 50.9867 244.04 51.2933 244.04 51.64C244.04 52.1467 244.253 52.6133 244.68 53.04C245.133 53.4667 245.96 53.68 247.16 53.68C248.893 53.68 250.253 52.92 251.24 51.4C252.253 49.88 252.76 47.8667 252.76 45.36C252.76 43.3067 252.387 41.7867 251.64 40.8C250.92 39.8133 249.987 39.32 248.84 39.32C248.173 39.32 247.587 39.4 247.08 39.56C246.573 39.72 246.16 39.8933 245.84 40.08L245.44 39.04C245.813 38.88 246.107 38.7467 246.32 38.64C246.533 38.5067 246.813 38.3067 247.16 38.04C247.8 37.5867 248.48 36.9867 249.2 36.24C249.947 35.4933 250.587 34.6 251.12 33.56C251.653 32.4933 251.92 31.28 251.92 29.92C251.92 28.48 251.52 27.3867 250.72 26.64C249.947 25.8667 248.96 25.48 247.76 25.48C246.533 25.48 245.52 25.8933 244.72 26.72C243.92 27.5467 243.52 28.5333 243.52 29.68C243.52 30.8267 243.787 31.7067 244.32 32.32C244.88 32.9333 245.453 33.3467 246.04 33.56L245.72 34.48C244.573 34.0267 243.72 33.3733 243.16 32.52C242.6 31.64 242.32 30.6667 242.32 29.6C242.32 28.56 242.6 27.64 243.16 26.84C243.72 26.0133 244.48 25.3733 245.44 24.92C246.427 24.4667 247.52 24.24 248.72 24.24C250.72 24.24 252.28 24.7733 253.4 25.84C254.547 26.88 255.12 28.2267 255.12 29.88C255.12 30.92 254.813 32.0133 254.2 33.16C253.613 34.3067 252.467 35.4667 250.76 36.64L248.36 38.28C248.573 38.2533 248.76 38.24 248.92 38.24C249.08 38.2133 249.253 38.2 249.44 38.2C250.773 38.2 251.933 38.56 252.92 39.28C253.933 39.9733 254.72 40.8933 255.28 42.04C255.84 43.16 256.12 44.3867 256.12 45.72C256.12 47.32 255.8 48.8 255.16 50.16C254.52 51.5467 253.547 52.6533 252.24 53.48C250.933 54.3333 249.293 54.76 247.32 54.76Z" fill="#8D8282"/>
<ellipse cx="355.5" cy="38" rx="32.5" ry="36" fill="white" stroke="#8D8282" stroke-width="3"/>
<path d="M363.84 52.12L358.92 52L354 52.08V51.16L354.64 51.12C355.413 51.0133 356 50.8933 356.4 50.76C356.827 50.6 357.12 50.2667 357.28 49.76C357.467 49.2267 357.56 48.36 357.56 47.16L357.6 43.52H345.8V42.36L359.44 24.76H360.32V42.2H364.8V43.52H360.32V47.16C360.32 48.36 360.4 49.2267 360.56 49.76C360.72 50.2667 361 50.6 361.4 50.76C361.827 50.8933 362.427 51.0133 363.2 51.12L363.84 51.2V52.12ZM347.24 42.2H357.6L357.68 29.04L347.24 42.2Z" fill="#8D8282"/>
</svg>
