<svg width="195" height="54" viewBox="0 0 195 54" fill="none" xmlns="http://www.w3.org/2000/svg">
<path d="M16.8508 53.792C13.7788 53.792 10.9708 53.048 8.42678 51.56C5.93078 50.072 3.93878 48.08 2.45078 45.584C1.01078 43.04 0.290781 40.232 0.290781 37.16C0.290781 33.992 1.01078 31.136 2.45078 28.592C3.93878 26.048 5.93078 24.032 8.42678 22.544C10.9708 21.056 13.7788 20.312 16.8508 20.312C19.9708 20.312 22.7788 21.056 25.2748 22.544C27.7708 24.032 29.7388 26.048 31.1788 28.592C32.6668 31.136 33.4108 33.992 33.4108 37.16C33.4108 40.232 32.6668 43.04 31.1788 45.584C29.7388 48.08 27.7708 50.072 25.2748 51.56C22.7788 53.048 19.9708 53.792 16.8508 53.792ZM16.8508 51.992C19.4428 51.992 21.5308 51.344 23.1148 50.048C24.6988 48.704 25.8508 46.928 26.5708 44.72C27.2908 42.464 27.6508 39.944 27.6508 37.16C27.6508 34.28 27.2908 31.712 26.5708 29.456C25.8508 27.2 24.6988 25.424 23.1148 24.128C21.5308 22.784 19.4428 22.112 16.8508 22.112C14.2588 22.112 12.1708 22.784 10.5868 24.128C9.00278 25.424 7.85078 27.2 7.13078 29.456C6.41078 31.712 6.05078 34.28 6.05078 37.16C6.05078 39.944 6.41078 42.464 7.13078 44.72C7.85078 46.928 9.00278 48.704 10.5868 50.048C12.1708 51.344 14.2588 51.992 16.8508 51.992ZM38.6527 53.216V51.56L39.8047 51.416C41.1967 51.224 42.2527 51.008 42.9727 50.768C43.7407 50.48 44.2687 49.88 44.5567 48.968C44.8447 48.008 44.9887 46.448 44.9887 44.288V29.096C44.9887 26.6 44.4607 25.016 43.4047 24.344C42.3967 23.624 40.9807 23.264 39.1567 23.264H38.6527V21.608C40.6207 21.608 42.5167 21.56 44.3407 21.464C46.1647 21.32 48.0607 21.08 50.0287 20.744V26.576C51.1327 24.944 52.6927 23.504 54.7087 22.256C56.7247 20.96 59.0767 20.312 61.7647 20.312C65.0287 20.312 67.5967 21.152 69.4687 22.832C71.3887 24.464 72.3487 26.816 72.3487 29.888V44.288C72.3487 46.448 72.4927 48.008 72.7807 48.968C73.0687 49.88 73.5727 50.48 74.2927 50.768C75.0607 51.008 76.1407 51.224 77.5327 51.416L78.6847 51.56V53.216L69.8287 53L60.9727 53.216V51.56L62.1247 51.416C63.5167 51.224 64.5727 51.008 65.2927 50.768C66.0607 50.48 66.5887 49.88 66.8767 48.968C67.1647 48.008 67.3087 46.448 67.3087 44.288V29.888C67.3087 27.488 66.6847 25.664 65.4367 24.416C64.1887 23.12 62.4367 22.472 60.1807 22.472C58.4527 22.472 56.8927 22.88 55.5007 23.696C54.1087 24.464 52.9567 25.424 52.0447 26.576C51.1327 27.728 50.4607 28.832 50.0287 29.888V44.288C50.0287 46.448 50.1727 48.008 50.4607 48.968C50.7487 49.88 51.2527 50.48 51.9727 50.768C52.7407 51.008 53.8207 51.224 55.2127 51.416L56.3647 51.56V53.216L47.5087 53L38.6527 53.216ZM80.537 53.216V51.56L81.689 51.416C83.081 51.224 84.137 51.008 84.857 50.768C85.625 50.48 86.153 49.88 86.441 48.968C86.729 48.008 86.873 46.448 86.873 44.288V9.152C86.873 6.656 86.345 5.072 85.289 4.4C84.281 3.68 82.865 3.32 81.041 3.32H80.537V1.664C82.505 1.664 84.401 1.616 86.225 1.52C88.049 1.376 89.945 1.136 91.913 0.799998V44.288C91.913 46.448 92.057 48.008 92.345 48.968C92.633 49.88 93.137 50.48 93.857 50.768C94.625 51.008 95.705 51.224 97.097 51.416L98.249 51.56V53.216L89.393 53L80.537 53.216ZM101.371 53.216V51.56L102.523 51.416C103.915 51.224 104.971 51.008 105.691 50.768C106.459 50.48 106.987 49.88 107.275 48.968C107.563 48.008 107.707 46.448 107.707 44.288V29.096C107.707 26.6 107.179 25.016 106.123 24.344C105.115 23.624 103.699 23.264 101.875 23.264H101.371V21.608C103.339 21.608 105.235 21.56 107.059 21.464C108.883 21.32 110.779 21.08 112.747 20.744V44.288C112.747 46.448 112.891 48.008 113.179 48.968C113.467 49.88 113.971 50.48 114.691 50.768C115.459 51.008 116.539 51.224 117.931 51.416L119.083 51.56V53.216L110.227 53L101.371 53.216ZM109.363 12.32C108.115 12.32 107.131 11.888 106.411 11.024C105.691 10.16 105.331 9.128 105.331 7.928C105.331 6.68 105.691 5.648 106.411 4.832C107.131 3.968 108.115 3.536 109.363 3.536C110.755 3.536 111.763 3.968 112.387 4.832C113.059 5.648 113.395 6.68 113.395 7.928C113.395 9.128 113.059 10.16 112.387 11.024C111.763 11.888 110.755 12.32 109.363 12.32ZM121.832 53.216V51.56L122.984 51.416C124.376 51.224 125.432 51.008 126.152 50.768C126.92 50.48 127.448 49.88 127.736 48.968C128.024 48.008 128.168 46.448 128.168 44.288V29.096C128.168 26.6 127.64 25.016 126.584 24.344C125.576 23.624 124.16 23.264 122.336 23.264H121.832V21.608C123.8 21.608 125.696 21.56 127.52 21.464C129.344 21.32 131.24 21.08 133.208 20.744V26.576C134.312 24.944 135.872 23.504 137.888 22.256C139.904 20.96 142.256 20.312 144.944 20.312C148.208 20.312 150.776 21.152 152.648 22.832C154.568 24.464 155.528 26.816 155.528 29.888V44.288C155.528 46.448 155.672 48.008 155.96 48.968C156.248 49.88 156.752 50.48 157.472 50.768C158.24 51.008 159.32 51.224 160.712 51.416L161.864 51.56V53.216L153.008 53L144.152 53.216V51.56L145.304 51.416C146.696 51.224 147.752 51.008 148.472 50.768C149.24 50.48 149.768 49.88 150.056 48.968C150.344 48.008 150.488 46.448 150.488 44.288V29.888C150.488 27.488 149.864 25.664 148.616 24.416C147.368 23.12 145.616 22.472 143.36 22.472C141.632 22.472 140.072 22.88 138.68 23.696C137.288 24.464 136.136 25.424 135.224 26.576C134.312 27.728 133.64 28.832 133.208 29.888V44.288C133.208 46.448 133.352 48.008 133.64 48.968C133.928 49.88 134.432 50.48 135.152 50.768C135.92 51.008 137 51.224 138.392 51.416L139.544 51.56V53.216L130.688 53L121.832 53.216ZM181.645 53.792C178.477 53.792 175.717 53.12 173.365 51.776C171.013 50.384 169.165 48.488 167.821 46.088C166.525 43.64 165.877 40.856 165.877 37.736C165.877 34.376 166.597 31.4 168.037 28.808C169.477 26.168 171.397 24.104 173.797 22.616C176.245 21.08 178.933 20.312 181.861 20.312C185.557 20.312 188.437 21.488 190.501 23.84C192.613 26.192 193.669 29.288 193.669 33.128C193.669 33.704 193.645 34.184 193.597 34.568C193.549 34.952 193.501 35.216 193.453 35.36H171.709C171.661 36.032 171.637 36.704 171.637 37.376C171.637 39.92 172.045 42.296 172.861 44.504C173.677 46.664 174.901 48.392 176.533 49.688C178.213 50.984 180.253 51.632 182.653 51.632C184.909 51.632 186.901 51.008 188.629 49.76C190.405 48.464 191.773 46.568 192.733 44.072L194.461 44.72C192.445 50.768 188.173 53.792 181.645 53.792ZM181.861 22.112C178.885 22.112 176.557 23.168 174.877 25.28C173.245 27.392 172.237 30.2 171.853 33.704H180.997C183.157 33.704 184.789 33.464 185.893 32.984C187.045 32.456 187.813 31.832 188.197 31.112C188.629 30.344 188.845 29.6 188.845 28.88C188.845 26.768 188.125 25.112 186.685 23.912C185.245 22.712 183.637 22.112 181.861 22.112Z" fill="black"/>
</svg>
