<svg width="289" height="36" viewBox="0 0 289 36" fill="none" xmlns="http://www.w3.org/2000/svg">
<path d="M0.92 35.144V33.944L1.88 33.848C3 33.72 3.848 33.56 4.424 33.368C5.032 33.144 5.448 32.696 5.672 32.024C5.896 31.32 6.008 30.184 6.008 28.616V7.304C6.008 5.704 5.896 4.568 5.672 3.896C5.448 3.224 5.032 2.792 4.424 2.6C3.848 2.376 3 2.2 1.88 2.072L0.92 1.976V0.775997L8.024 0.919998H14.552C16.472 0.919998 18.264 1.048 19.928 1.304C21.592 1.528 23.048 1.976 24.296 2.648C25.544 3.288 26.52 4.232 27.224 5.48C27.928 6.728 28.28 8.344 28.28 10.328C28.28 13.176 27.208 15.48 25.064 17.24C22.92 19 19.8 19.88 15.704 19.88H10.088V28.616C10.088 30.184 10.216 31.32 10.472 32.024C10.76 32.696 11.256 33.144 11.96 33.368C12.664 33.56 13.656 33.72 14.936 33.848L15.992 33.944V35.144L7.88 35L0.92 35.144ZM16.424 2.264H10.088V18.44H15.704C17.912 18.44 19.592 18.12 20.744 17.48C21.896 16.84 22.68 15.912 23.096 14.696C23.512 13.48 23.72 12.024 23.72 10.328C23.72 8.504 23.48 7.064 23 6.008C22.552 4.92 21.944 4.104 21.176 3.56C20.44 3.016 19.64 2.664 18.776 2.504C17.944 2.344 17.16 2.264 16.424 2.264ZM30.8128 35.144V34.04L31.5808 33.944C32.5088 33.816 33.2128 33.672 33.6928 33.512C34.2048 33.32 34.5568 32.92 34.7488 32.312C34.9408 31.672 35.0368 30.632 35.0368 29.192V19.208C35.0368 17.96 34.8608 17.048 34.5088 16.472C34.1888 15.896 33.7088 15.544 33.0688 15.416C32.4288 15.256 31.6768 15.176 30.8128 15.176V14.072C32.1248 14.072 33.3888 14.024 34.6048 13.928C35.8208 13.832 37.0848 13.688 38.3968 13.496L37.8688 19.016H38.0608C38.7648 16.872 39.6288 15.368 40.6528 14.504C41.6768 13.64 42.7808 13.208 43.9648 13.208C45.3088 13.208 46.2048 13.544 46.6528 14.216C47.1008 14.856 47.3248 15.48 47.3248 16.088C47.3248 16.792 47.1168 17.368 46.7008 17.816C46.2848 18.264 45.7248 18.488 45.0208 18.488C44.3488 18.488 43.8368 18.328 43.4848 18.008C43.1328 17.688 42.9568 17.32 42.9568 16.904C42.9568 16.584 42.9888 16.28 43.0528 15.992C43.1488 15.704 43.1968 15.48 43.1968 15.32C43.1968 15 42.9728 14.84 42.5248 14.84C42.0768 14.84 41.5968 15.048 41.0848 15.464C40.6048 15.88 40.1888 16.456 39.8368 17.192C39.5488 17.8 39.2768 18.472 39.0208 19.208C38.7648 19.944 38.5568 20.744 38.3968 21.608V29.192C38.3968 30.632 38.4928 31.672 38.6848 32.312C38.8768 32.92 39.2128 33.32 39.6928 33.512C40.2048 33.672 40.9248 33.816 41.8528 33.944L42.6208 34.04V35.144L36.7168 35L30.8128 35.144ZM60.4689 35.528C58.3569 35.528 56.5169 35.08 54.9489 34.184C53.3809 33.256 52.1489 31.992 51.2529 30.392C50.3889 28.76 49.9569 26.904 49.9569 24.824C49.9569 22.584 50.4369 20.6 51.3969 18.872C52.3569 17.112 53.6369 15.736 55.2369 14.744C56.8689 13.72 58.6609 13.208 60.6129 13.208C63.0769 13.208 64.9969 13.992 66.3729 15.56C67.7809 17.128 68.4849 19.192 68.4849 21.752C68.4849 22.136 68.4689 22.456 68.4369 22.712C68.4049 22.968 68.3729 23.144 68.3409 23.24H53.8449C53.8129 23.688 53.7969 24.136 53.7969 24.584C53.7969 26.28 54.0689 27.864 54.6129 29.336C55.1569 30.776 55.9729 31.928 57.0609 32.792C58.1809 33.656 59.5409 34.088 61.1409 34.088C62.6449 34.088 63.9729 33.672 65.1249 32.84C66.3089 31.976 67.2209 30.712 67.8609 29.048L69.0129 29.48C67.6689 33.512 64.8209 35.528 60.4689 35.528ZM60.6129 14.408C58.6289 14.408 57.0769 15.112 55.9569 16.52C54.8689 17.928 54.1969 19.8 53.9409 22.136H60.0369C61.4769 22.136 62.5649 21.976 63.3009 21.656C64.0689 21.304 64.5809 20.888 64.8369 20.408C65.1249 19.896 65.2689 19.4 65.2689 18.92C65.2689 17.512 64.7889 16.408 63.8289 15.608C62.8689 14.808 61.7969 14.408 60.6129 14.408ZM81.6639 35L73.8399 17.72C73.5519 17.08 73.1999 16.536 72.7839 16.088C72.3679 15.64 71.7439 15.368 70.9119 15.272L70.0479 15.176V14.072L74.9919 14.216L79.8879 14.072V15.176L79.1199 15.272C78.4159 15.368 77.9199 15.544 77.6319 15.8C77.3439 16.024 77.1999 16.344 77.1999 16.76C77.1999 17.112 77.3279 17.592 77.5839 18.2L83.6319 31.544L89.2479 18.392C89.5359 17.752 89.6799 17.224 89.6799 16.808C89.6799 15.976 88.9439 15.464 87.4719 15.272L86.6559 15.176V14.072L90.9759 14.216L95.0079 14.072V15.176L93.9039 15.32C93.0079 15.448 92.3199 15.8 91.8399 16.376C91.3599 16.92 90.8799 17.752 90.3999 18.872L83.4879 35H81.6639ZM96.344 35.144V34.04L97.112 33.944C98.04 33.816 98.744 33.672 99.224 33.512C99.736 33.32 100.088 32.92 100.28 32.312C100.472 31.672 100.568 30.632 100.568 29.192V19.064C100.568 17.4 100.216 16.344 99.512 15.896C98.84 15.416 97.896 15.176 96.68 15.176H96.344V14.072C97.656 14.072 98.92 14.04 100.136 13.976C101.352 13.88 102.616 13.72 103.928 13.496V29.192C103.928 30.632 104.024 31.672 104.216 32.312C104.408 32.92 104.744 33.32 105.224 33.512C105.736 33.672 106.456 33.816 107.384 33.944L108.152 34.04V35.144L102.248 35L96.344 35.144ZM101.672 7.88C100.84 7.88 100.184 7.592 99.704 7.016C99.224 6.44 98.984 5.752 98.984 4.952C98.984 4.12 99.224 3.432 99.704 2.888C100.184 2.312 100.84 2.024 101.672 2.024C102.6 2.024 103.272 2.312 103.688 2.888C104.136 3.432 104.36 4.12 104.36 4.952C104.36 5.752 104.136 6.44 103.688 7.016C103.272 7.592 102.6 7.88 101.672 7.88ZM121.841 35.528C119.793 35.528 117.921 35.032 116.225 34.04C114.561 33.048 113.233 31.72 112.241 30.056C111.281 28.36 110.801 26.488 110.801 24.44C110.801 22.328 111.281 20.424 112.241 18.728C113.233 17.032 114.561 15.688 116.225 14.696C117.921 13.704 119.793 13.208 121.841 13.208C123.921 13.208 125.793 13.704 127.457 14.696C129.121 15.688 130.433 17.032 131.393 18.728C132.385 20.424 132.881 22.328 132.881 24.44C132.881 26.488 132.385 28.36 131.393 30.056C130.433 31.72 129.121 33.048 127.457 34.04C125.793 35.032 123.921 35.528 121.841 35.528ZM121.841 34.328C123.569 34.328 124.961 33.896 126.017 33.032C127.073 32.136 127.841 30.952 128.321 29.48C128.801 27.976 129.041 26.296 129.041 24.44C129.041 22.52 128.801 20.808 128.321 19.304C127.841 17.8 127.073 16.616 126.017 15.752C124.961 14.856 123.569 14.408 121.841 14.408C120.113 14.408 118.721 14.856 117.665 15.752C116.609 16.616 115.841 17.8 115.361 19.304C114.881 20.808 114.641 22.52 114.641 24.44C114.641 26.296 114.881 27.976 115.361 29.48C115.841 30.952 116.609 32.136 117.665 33.032C118.721 33.896 120.113 34.328 121.841 34.328ZM146.455 35.528C144.375 35.528 142.727 35.016 141.511 33.992C140.327 32.936 139.735 31.384 139.735 29.336V20.024C139.735 18.584 139.639 17.56 139.447 16.952C139.255 16.312 138.903 15.896 138.391 15.704C137.911 15.512 137.207 15.368 136.279 15.272L135.511 15.176V14.072L141.415 14.216L143.095 14.168V29.144C143.095 30.712 143.495 31.912 144.295 32.744C145.095 33.576 146.183 33.992 147.559 33.992C148.743 33.992 149.783 33.736 150.679 33.224C151.607 32.68 152.391 31.992 153.031 31.16C153.703 30.328 154.231 29.48 154.615 28.616V20.024C154.615 18.584 154.519 17.56 154.327 16.952C154.135 16.312 153.783 15.896 153.271 15.704C152.791 15.512 152.087 15.368 151.159 15.272L150.391 15.176V14.072L156.295 14.216L157.975 14.168V29.672C157.975 30.888 158.119 31.8 158.407 32.408C158.727 32.984 159.175 33.368 159.751 33.56C160.359 33.752 161.095 33.848 161.959 33.848V34.952C160.647 34.952 159.447 34.968 158.359 35C157.271 35.032 156.023 35.176 154.615 35.432V31.016C154.295 31.528 153.959 31.976 153.607 32.36C152.775 33.288 151.767 34.056 150.583 34.664C149.399 35.24 148.023 35.528 146.455 35.528ZM172.629 35.528C171.413 35.528 170.373 35.384 169.509 35.096C168.677 34.84 168.021 34.6 167.541 34.376C167.029 34.12 166.709 33.992 166.581 33.992C166.453 33.992 166.341 34.056 166.245 34.184C166.181 34.28 166.101 34.552 166.005 35H164.901L165.093 31.832L165.237 27.752H166.293L166.341 28.568C166.405 29.464 166.693 30.36 167.205 31.256C167.749 32.152 168.485 32.904 169.413 33.512C170.341 34.12 171.413 34.424 172.629 34.424C173.941 34.424 174.997 34.088 175.797 33.416C176.597 32.744 176.997 31.816 176.997 30.632C176.997 29.608 176.581 28.744 175.749 28.04C174.949 27.336 173.829 26.712 172.389 26.168L170.661 25.496C168.997 24.856 167.733 24.056 166.869 23.096C166.037 22.136 165.621 20.904 165.621 19.4C165.621 18.12 165.909 17.032 166.485 16.136C167.093 15.208 167.877 14.488 168.837 13.976C169.829 13.464 170.885 13.208 172.005 13.208C172.805 13.208 173.477 13.304 174.021 13.496C174.597 13.688 175.077 13.88 175.461 14.072C175.781 14.232 176.053 14.312 176.277 14.312C176.597 14.312 176.853 13.976 177.045 13.304L178.101 13.352L177.909 16.472V19.832H176.805C176.581 18.328 176.069 17.032 175.269 15.944C174.469 14.824 173.317 14.264 171.813 14.264C170.757 14.264 169.861 14.6 169.125 15.272C168.421 15.944 168.069 16.792 168.069 17.816C168.069 18.808 168.437 19.64 169.173 20.312C169.941 20.952 170.981 21.528 172.293 22.04L174.165 22.76C176.117 23.496 177.461 24.392 178.197 25.448C178.965 26.472 179.349 27.704 179.349 29.144C179.349 30.84 178.773 32.328 177.621 33.608C176.469 34.888 174.805 35.528 172.629 35.528ZM194.673 35.144V34.04L195.441 33.944C196.369 33.816 197.073 33.672 197.553 33.512C198.065 33.32 198.417 32.92 198.609 32.312C198.801 31.672 198.897 30.632 198.897 29.192V5.768C198.897 4.104 198.545 3.048 197.841 2.6C197.169 2.12 196.225 1.88 195.009 1.88H194.673V0.775997C195.985 0.775997 197.249 0.743998 198.465 0.679998C199.681 0.583998 200.945 0.423998 202.257 0.199999V29.192C202.257 30.632 202.353 31.672 202.545 32.312C202.737 32.92 203.073 33.32 203.553 33.512C204.065 33.672 204.785 33.816 205.713 33.944L206.481 34.04V35.144L200.577 35L194.673 35.144ZM219.891 35.528C217.779 35.528 215.939 35.08 214.371 34.184C212.803 33.256 211.571 31.992 210.675 30.392C209.811 28.76 209.379 26.904 209.379 24.824C209.379 22.584 209.859 20.6 210.819 18.872C211.779 17.112 213.059 15.736 214.659 14.744C216.291 13.72 218.083 13.208 220.035 13.208C222.499 13.208 224.419 13.992 225.795 15.56C227.203 17.128 227.907 19.192 227.907 21.752C227.907 22.136 227.891 22.456 227.859 22.712C227.827 22.968 227.795 23.144 227.763 23.24H213.267C213.235 23.688 213.219 24.136 213.219 24.584C213.219 26.28 213.491 27.864 214.035 29.336C214.579 30.776 215.395 31.928 216.483 32.792C217.603 33.656 218.963 34.088 220.563 34.088C222.067 34.088 223.395 33.672 224.547 32.84C225.731 31.976 226.643 30.712 227.283 29.048L228.435 29.48C227.091 33.512 224.243 35.528 219.891 35.528ZM220.035 14.408C218.051 14.408 216.499 15.112 215.379 16.52C214.291 17.928 213.619 19.8 213.363 22.136H219.459C220.899 22.136 221.987 21.976 222.723 21.656C223.491 21.304 224.003 20.888 224.259 20.408C224.547 19.896 224.691 19.4 224.691 18.92C224.691 17.512 224.211 16.408 223.251 15.608C222.291 14.808 221.219 14.408 220.035 14.408ZM241.086 35L233.262 17.72C232.974 17.08 232.622 16.536 232.206 16.088C231.79 15.64 231.166 15.368 230.334 15.272L229.47 15.176V14.072L234.414 14.216L239.31 14.072V15.176L238.542 15.272C237.838 15.368 237.342 15.544 237.054 15.8C236.766 16.024 236.622 16.344 236.622 16.76C236.622 17.112 236.75 17.592 237.006 18.2L243.054 31.544L248.67 18.392C248.958 17.752 249.102 17.224 249.102 16.808C249.102 15.976 248.366 15.464 246.894 15.272L246.078 15.176V14.072L250.398 14.216L254.43 14.072V15.176L253.326 15.32C252.43 15.448 251.742 15.8 251.262 16.376C250.782 16.92 250.302 17.752 249.822 18.872L242.91 35H241.086ZM265.641 35.528C263.529 35.528 261.689 35.08 260.121 34.184C258.553 33.256 257.321 31.992 256.425 30.392C255.561 28.76 255.129 26.904 255.129 24.824C255.129 22.584 255.609 20.6 256.569 18.872C257.529 17.112 258.809 15.736 260.409 14.744C262.041 13.72 263.833 13.208 265.785 13.208C268.249 13.208 270.169 13.992 271.545 15.56C272.953 17.128 273.657 19.192 273.657 21.752C273.657 22.136 273.641 22.456 273.609 22.712C273.577 22.968 273.545 23.144 273.513 23.24H259.017C258.985 23.688 258.969 24.136 258.969 24.584C258.969 26.28 259.241 27.864 259.785 29.336C260.329 30.776 261.145 31.928 262.233 32.792C263.353 33.656 264.713 34.088 266.313 34.088C267.817 34.088 269.145 33.672 270.297 32.84C271.481 31.976 272.393 30.712 273.033 29.048L274.185 29.48C272.841 33.512 269.993 35.528 265.641 35.528ZM265.785 14.408C263.801 14.408 262.249 15.112 261.129 16.52C260.041 17.928 259.369 19.8 259.113 22.136H265.209C266.649 22.136 267.737 21.976 268.473 21.656C269.241 21.304 269.753 20.888 270.009 20.408C270.297 19.896 270.441 19.4 270.441 18.92C270.441 17.512 269.961 16.408 269.001 15.608C268.041 14.808 266.969 14.408 265.785 14.408ZM276.564 35.144V34.04L277.332 33.944C278.26 33.816 278.964 33.672 279.444 33.512C279.956 33.32 280.308 32.92 280.5 32.312C280.692 31.672 280.788 30.632 280.788 29.192V5.768C280.788 4.104 280.436 3.048 279.732 2.6C279.06 2.12 278.116 1.88 276.9 1.88H276.564V0.775997C277.876 0.775997 279.14 0.743998 280.356 0.679998C281.572 0.583998 282.836 0.423998 284.148 0.199999V29.192C284.148 30.632 284.244 31.672 284.436 32.312C284.628 32.92 284.964 33.32 285.444 33.512C285.956 33.672 286.676 33.816 287.604 33.944L288.372 34.04V35.144L282.468 35L276.564 35.144Z" fill="white"/>
</svg>
