<svg width="193" height="227" viewBox="0 0 193 227" fill="none" xmlns="http://www.w3.org/2000/svg">
<path d="M102.176 227L99.3382 192.95H96.5C69.6314 192.95 46.8309 183.586 28.0985 164.859C9.36618 146.131 0 123.337 0 96.475C0 69.6133 9.36618 46.8188 28.0985 28.0913C46.8309 9.36375 69.6314 0 96.5 0C109.934 0 122.47 2.50646 134.107 7.51938C145.743 12.5323 155.961 19.4369 164.76 28.2331C173.558 37.0294 180.464 47.2444 185.479 58.8781C190.493 70.5119 193 83.0442 193 96.475C193 110.663 190.682 124.283 186.046 137.335C181.411 150.388 175.072 162.494 167.03 173.655C158.988 184.816 149.433 194.936 138.364 204.016C127.295 213.096 115.232 220.758 102.176 227ZM124.882 185.573C138.317 174.223 149.244 160.934 157.664 145.706C166.084 130.478 170.294 114.068 170.294 96.475C170.294 75.8558 163.151 58.4052 148.865 44.1231C134.58 29.841 117.125 22.7 96.5 22.7C75.8755 22.7 58.4203 29.841 44.1346 44.1231C29.8488 58.4052 22.7059 75.8558 22.7059 96.475C22.7059 117.094 29.8488 134.545 44.1346 148.827C58.4203 163.109 75.8755 170.25 96.5 170.25H124.882V185.573ZM96.2162 158.616C99.4329 158.616 102.176 157.481 104.447 155.211C106.718 152.941 107.853 150.198 107.853 146.982C107.853 143.767 106.718 141.024 104.447 138.754C102.176 136.484 99.4329 135.349 96.2162 135.349C92.9995 135.349 90.2559 136.484 87.9853 138.754C85.7147 141.024 84.5794 143.767 84.5794 146.982C84.5794 150.198 85.7147 152.941 87.9853 155.211C90.2559 157.481 92.9995 158.616 96.2162 158.616ZM87.9853 122.58H105.015C105.015 116.905 105.582 112.933 106.718 110.663C107.853 108.393 111.448 104.231 117.503 98.1775C120.909 94.7725 123.747 91.0838 126.018 87.1113C128.288 83.1388 129.424 78.8825 129.424 74.3425C129.424 64.695 126.16 57.4594 119.632 52.6356C113.104 47.8119 105.393 45.4 96.5 45.4C88.1745 45.4 81.1735 47.7173 75.4971 52.3519C69.8206 56.9865 65.8471 62.6142 63.5765 69.235L79.4706 75.4775C80.4167 72.2617 82.2142 69.0931 84.8632 65.9719C87.5123 62.8506 91.3912 61.29 96.5 61.29C101.609 61.29 105.44 62.7088 107.995 65.5463C110.549 68.3838 111.826 71.505 111.826 74.91C111.826 78.1258 110.88 81.0106 108.988 83.5644C107.096 86.1181 104.825 88.7192 102.176 91.3675C95.5539 97.0425 91.5331 101.535 90.114 104.846C88.6949 108.156 87.9853 114.068 87.9853 122.58Z" fill="#8D8282"/>
</svg>
