<svg width="376" height="54" viewBox="0 0 376 54" fill="none" xmlns="http://www.w3.org/2000/svg">
<path d="M0.29725 53.216V51.56L1.44925 51.416C2.84125 51.224 3.89725 51.008 4.61725 50.768C5.38525 50.48 5.91325 49.88 6.20125 48.968C6.48925 48.008 6.63325 46.448 6.63325 44.288V29.312C6.63325 27.44 6.36925 26.072 5.84125 25.208C5.36125 24.344 4.64125 23.816 3.68125 23.624C2.72125 23.384 1.59325 23.264 0.29725 23.264V21.608C2.26525 21.608 4.16125 21.536 5.98525 21.392C7.80925 21.248 9.70525 21.032 11.6733 20.744L10.8813 29.024H11.1693C12.2253 25.808 13.5213 23.552 15.0573 22.256C16.5933 20.96 18.2493 20.312 20.0253 20.312C22.0413 20.312 23.3853 20.816 24.0573 21.824C24.7293 22.784 25.0653 23.72 25.0653 24.632C25.0653 25.688 24.7533 26.552 24.1293 27.224C23.5053 27.896 22.6653 28.232 21.6093 28.232C20.6013 28.232 19.8333 27.992 19.3053 27.512C18.7773 27.032 18.5133 26.48 18.5133 25.856C18.5133 25.376 18.5613 24.92 18.6573 24.488C18.8013 24.056 18.8733 23.72 18.8733 23.48C18.8733 23 18.5373 22.76 17.8653 22.76C17.1933 22.76 16.4733 23.072 15.7053 23.696C14.9853 24.32 14.3613 25.184 13.8333 26.288C13.4013 27.2 12.9933 28.208 12.6093 29.312C12.2253 30.416 11.9133 31.616 11.6733 32.912V44.288C11.6733 46.448 11.8173 48.008 12.1053 48.968C12.3933 49.88 12.8973 50.48 13.6173 50.768C14.3853 51.008 15.4653 51.224 16.8573 51.416L18.0093 51.56V53.216L9.15325 53L0.29725 53.216ZM44.7814 53.792C41.6134 53.792 38.8534 53.12 36.5014 51.776C34.1494 50.384 32.3014 48.488 30.9574 46.088C29.6614 43.64 29.0134 40.856 29.0134 37.736C29.0134 34.376 29.7334 31.4 31.1734 28.808C32.6134 26.168 34.5334 24.104 36.9334 22.616C39.3814 21.08 42.0694 20.312 44.9974 20.312C48.6934 20.312 51.5734 21.488 53.6374 23.84C55.7494 26.192 56.8054 29.288 56.8054 33.128C56.8054 33.704 56.7814 34.184 56.7334 34.568C56.6854 34.952 56.6374 35.216 56.5894 35.36H34.8454C34.7974 36.032 34.7734 36.704 34.7734 37.376C34.7734 39.92 35.1814 42.296 35.9974 44.504C36.8134 46.664 38.0374 48.392 39.6694 49.688C41.3494 50.984 43.3894 51.632 45.7894 51.632C48.0454 51.632 50.0374 51.008 51.7654 49.76C53.5414 48.464 54.9094 46.568 55.8694 44.072L57.5974 44.72C55.5814 50.768 51.3094 53.792 44.7814 53.792ZM44.9974 22.112C42.0214 22.112 39.6934 23.168 38.0134 25.28C36.3814 27.392 35.3734 30.2 34.9894 33.704H44.1334C46.2934 33.704 47.9254 33.464 49.0294 32.984C50.1814 32.456 50.9494 31.832 51.3334 31.112C51.7654 30.344 51.9814 29.6 51.9814 28.88C51.9814 26.768 51.2614 25.112 49.8214 23.912C48.3814 22.712 46.7734 22.112 44.9974 22.112ZM79.2379 53.792C76.0219 53.792 73.2139 53.096 70.8139 51.704C68.4139 50.312 66.5659 48.416 65.2699 46.016C63.9739 43.616 63.3259 40.88 63.3259 37.808C63.3259 34.448 64.0699 31.448 65.5579 28.808C67.0459 26.168 69.0619 24.104 71.6059 22.616C74.1499 21.08 77.0299 20.312 80.2459 20.312C81.7819 20.312 83.3659 20.552 84.9979 21.032C86.6299 21.512 87.9979 22.232 89.1019 23.192C90.2539 24.152 90.8299 25.328 90.8299 26.72C90.8299 27.776 90.4939 28.664 89.8219 29.384C89.1499 30.056 88.3339 30.392 87.3739 30.392C86.1259 30.392 85.1899 30.032 84.5659 29.312C83.9419 28.592 83.6299 27.872 83.6299 27.152C83.6299 26.768 83.6539 26.432 83.7019 26.144C83.7979 25.856 83.8699 25.592 83.9179 25.352C84.0139 25.112 84.0859 24.872 84.1339 24.632C84.1819 24.344 84.2059 24.056 84.2059 23.768C84.2059 23.096 83.7019 22.664 82.6939 22.472C81.7339 22.232 80.8939 22.112 80.1739 22.112C76.8139 22.112 74.1259 23.528 72.1099 26.36C70.0939 29.144 69.0859 32.84 69.0859 37.448C69.0859 39.992 69.5179 42.344 70.3819 44.504C71.2459 46.664 72.4939 48.392 74.1259 49.688C75.8059 50.984 77.8699 51.632 80.3179 51.632C82.3339 51.632 84.2539 51.08 86.0779 49.976C87.9019 48.824 89.2219 46.88 90.0379 44.144L91.7659 44.72C90.8539 48.032 89.2219 50.384 86.8699 51.776C84.5179 53.12 81.9739 53.792 79.2379 53.792ZM113.706 53.792C110.634 53.792 107.826 53.048 105.282 51.56C102.786 50.072 100.794 48.08 99.3063 45.584C97.8663 43.04 97.1463 40.232 97.1463 37.16C97.1463 33.992 97.8663 31.136 99.3063 28.592C100.794 26.048 102.786 24.032 105.282 22.544C107.826 21.056 110.634 20.312 113.706 20.312C116.826 20.312 119.634 21.056 122.13 22.544C124.626 24.032 126.594 26.048 128.034 28.592C129.522 31.136 130.266 33.992 130.266 37.16C130.266 40.232 129.522 43.04 128.034 45.584C126.594 48.08 124.626 50.072 122.13 51.56C119.634 53.048 116.826 53.792 113.706 53.792ZM113.706 51.992C116.298 51.992 118.386 51.344 119.97 50.048C121.554 48.704 122.706 46.928 123.426 44.72C124.146 42.464 124.506 39.944 124.506 37.16C124.506 34.28 124.146 31.712 123.426 29.456C122.706 27.2 121.554 25.424 119.97 24.128C118.386 22.784 116.298 22.112 113.706 22.112C111.114 22.112 109.026 22.784 107.442 24.128C105.858 25.424 104.706 27.2 103.986 29.456C103.266 31.712 102.906 34.28 102.906 37.16C102.906 39.944 103.266 42.464 103.986 44.72C104.706 46.928 105.858 48.704 107.442 50.048C109.026 51.344 111.114 51.992 113.706 51.992ZM135.508 53.216V51.56L136.66 51.416C138.052 51.224 139.108 51.008 139.828 50.768C140.596 50.48 141.124 49.88 141.412 48.968C141.7 48.008 141.844 46.448 141.844 44.288V29.096C141.844 27.368 141.58 26.096 141.052 25.28C140.572 24.416 139.852 23.864 138.892 23.624C137.932 23.384 136.804 23.264 135.508 23.264V21.608C137.476 21.608 139.372 21.56 141.196 21.464C143.02 21.32 144.916 21.08 146.884 20.744V26.36C147.94 24.728 149.404 23.312 151.276 22.112C153.196 20.912 155.404 20.312 157.9 20.312C160.444 20.312 162.556 20.864 164.236 21.968C165.964 23.024 167.116 24.704 167.692 27.008C168.7 25.28 170.188 23.744 172.156 22.4C174.124 21.008 176.452 20.312 179.14 20.312C182.26 20.312 184.732 21.128 186.556 22.76C188.428 24.392 189.364 26.984 189.364 30.536V44.288C189.364 46.4 189.484 47.936 189.724 48.896C190.012 49.808 190.516 50.408 191.236 50.696C192.004 50.984 193.084 51.224 194.476 51.416L195.628 51.56V53.216L186.844 53L178.708 53.216V51.56L179.86 51.416C181.06 51.272 181.972 51.056 182.596 50.768C183.268 50.48 183.724 49.88 183.964 48.968C184.204 48.008 184.324 46.448 184.324 44.288V29.312C184.324 27.2 183.748 25.544 182.596 24.344C181.444 23.096 179.812 22.472 177.7 22.472C175.972 22.472 174.46 22.856 173.164 23.624C171.868 24.392 170.788 25.352 169.924 26.504C169.108 27.656 168.508 28.784 168.124 29.888C168.124 30.08 168.124 30.296 168.124 30.536V44.288C168.124 46.448 168.244 48.008 168.484 48.968C168.724 49.88 169.156 50.48 169.78 50.768C170.452 51.008 171.388 51.224 172.588 51.416L173.74 51.56V53.216L165.604 53L157.468 53.216V51.56L158.62 51.416C159.82 51.224 160.732 51.008 161.356 50.768C162.028 50.48 162.484 49.88 162.724 48.968C162.964 48.008 163.084 46.448 163.084 44.288V29.312C163.084 27.2 162.508 25.544 161.356 24.344C160.204 23.096 158.572 22.472 156.46 22.472C154.78 22.472 153.292 22.856 151.996 23.624C150.7 24.392 149.62 25.352 148.756 26.504C147.892 27.656 147.268 28.784 146.884 29.888V44.288C146.884 46.448 147.004 48.008 147.244 48.968C147.484 49.88 147.916 50.48 148.54 50.768C149.212 51.008 150.148 51.224 151.348 51.416L152.5 51.56V53.216L144.364 53L135.508 53.216ZM198.438 53.216V51.56L199.59 51.416C200.982 51.224 202.038 51.008 202.758 50.768C203.526 50.48 204.054 49.88 204.342 48.968C204.63 48.008 204.774 46.448 204.774 44.288V29.096C204.774 27.368 204.51 26.096 203.982 25.28C203.502 24.416 202.782 23.864 201.822 23.624C200.862 23.384 199.734 23.264 198.438 23.264V21.608C200.406 21.608 202.302 21.56 204.126 21.464C205.95 21.32 207.846 21.08 209.814 20.744V26.36C210.87 24.728 212.334 23.312 214.206 22.112C216.126 20.912 218.334 20.312 220.83 20.312C223.374 20.312 225.486 20.864 227.166 21.968C228.894 23.024 230.046 24.704 230.622 27.008C231.63 25.28 233.118 23.744 235.086 22.4C237.054 21.008 239.382 20.312 242.07 20.312C245.19 20.312 247.662 21.128 249.486 22.76C251.358 24.392 252.294 26.984 252.294 30.536V44.288C252.294 46.4 252.414 47.936 252.654 48.896C252.942 49.808 253.446 50.408 254.166 50.696C254.934 50.984 256.014 51.224 257.406 51.416L258.558 51.56V53.216L249.774 53L241.638 53.216V51.56L242.79 51.416C243.99 51.272 244.902 51.056 245.526 50.768C246.198 50.48 246.654 49.88 246.894 48.968C247.134 48.008 247.254 46.448 247.254 44.288V29.312C247.254 27.2 246.678 25.544 245.526 24.344C244.374 23.096 242.742 22.472 240.63 22.472C238.902 22.472 237.39 22.856 236.094 23.624C234.798 24.392 233.718 25.352 232.854 26.504C232.038 27.656 231.438 28.784 231.054 29.888C231.054 30.08 231.054 30.296 231.054 30.536V44.288C231.054 46.448 231.174 48.008 231.414 48.968C231.654 49.88 232.086 50.48 232.71 50.768C233.382 51.008 234.318 51.224 235.518 51.416L236.67 51.56V53.216L228.534 53L220.398 53.216V51.56L221.55 51.416C222.75 51.224 223.662 51.008 224.286 50.768C224.958 50.48 225.414 49.88 225.654 48.968C225.894 48.008 226.014 46.448 226.014 44.288V29.312C226.014 27.2 225.438 25.544 224.286 24.344C223.134 23.096 221.502 22.472 219.39 22.472C217.71 22.472 216.222 22.856 214.926 23.624C213.63 24.392 212.55 25.352 211.686 26.504C210.822 27.656 210.198 28.784 209.814 29.888V44.288C209.814 46.448 209.934 48.008 210.174 48.968C210.414 49.88 210.846 50.48 211.47 50.768C212.142 51.008 213.078 51.224 214.278 51.416L215.43 51.56V53.216L207.294 53L198.438 53.216ZM278.36 53.792C275.192 53.792 272.432 53.12 270.08 51.776C267.728 50.384 265.88 48.488 264.536 46.088C263.24 43.64 262.592 40.856 262.592 37.736C262.592 34.376 263.312 31.4 264.752 28.808C266.192 26.168 268.112 24.104 270.512 22.616C272.96 21.08 275.648 20.312 278.576 20.312C282.272 20.312 285.152 21.488 287.216 23.84C289.328 26.192 290.384 29.288 290.384 33.128C290.384 33.704 290.36 34.184 290.312 34.568C290.264 34.952 290.216 35.216 290.168 35.36H268.424C268.376 36.032 268.352 36.704 268.352 37.376C268.352 39.92 268.76 42.296 269.576 44.504C270.392 46.664 271.616 48.392 273.248 49.688C274.928 50.984 276.968 51.632 279.368 51.632C281.624 51.632 283.616 51.008 285.344 49.76C287.12 48.464 288.488 46.568 289.448 44.072L291.176 44.72C289.16 50.768 284.888 53.792 278.36 53.792ZM278.576 22.112C275.6 22.112 273.272 23.168 271.592 25.28C269.96 27.392 268.952 30.2 268.568 33.704H277.712C279.872 33.704 281.504 33.464 282.608 32.984C283.76 32.456 284.528 31.832 284.912 31.112C285.344 30.344 285.56 29.6 285.56 28.88C285.56 26.768 284.84 25.112 283.4 23.912C281.96 22.712 280.352 22.112 278.576 22.112ZM295.68 53.216V51.56L296.832 51.416C298.224 51.224 299.28 51.008 300 50.768C300.768 50.48 301.296 49.88 301.584 48.968C301.872 48.008 302.016 46.448 302.016 44.288V29.096C302.016 26.6 301.488 25.016 300.432 24.344C299.424 23.624 298.008 23.264 296.184 23.264H295.68V21.608C297.648 21.608 299.544 21.56 301.368 21.464C303.192 21.32 305.088 21.08 307.056 20.744V26.576C308.16 24.944 309.72 23.504 311.736 22.256C313.752 20.96 316.104 20.312 318.792 20.312C322.056 20.312 324.624 21.152 326.496 22.832C328.416 24.464 329.376 26.816 329.376 29.888V44.288C329.376 46.448 329.52 48.008 329.808 48.968C330.096 49.88 330.6 50.48 331.32 50.768C332.088 51.008 333.168 51.224 334.56 51.416L335.712 51.56V53.216L326.856 53L318 53.216V51.56L319.152 51.416C320.544 51.224 321.6 51.008 322.32 50.768C323.088 50.48 323.616 49.88 323.904 48.968C324.192 48.008 324.336 46.448 324.336 44.288V29.888C324.336 27.488 323.712 25.664 322.464 24.416C321.216 23.12 319.464 22.472 317.208 22.472C315.48 22.472 313.92 22.88 312.528 23.696C311.136 24.464 309.984 25.424 309.072 26.576C308.16 27.728 307.488 28.832 307.056 29.888V44.288C307.056 46.448 307.2 48.008 307.488 48.968C307.776 49.88 308.28 50.48 309 50.768C309.768 51.008 310.848 51.224 312.24 51.416L313.392 51.56V53.216L304.536 53L295.68 53.216ZM354.34 53.792C351.604 53.792 349.132 53.048 346.924 51.56C344.716 50.072 342.964 48.056 341.668 45.512C340.372 42.92 339.724 40.064 339.724 36.944C339.724 33.824 340.372 31.016 341.668 28.52C342.964 26.024 344.74 24.032 346.996 22.544C349.252 21.056 351.796 20.312 354.628 20.312C356.644 20.312 358.492 20.744 360.172 21.608C361.852 22.424 363.244 23.36 364.348 24.416V9.152C364.348 6.656 363.82 5.072 362.764 4.4C361.756 3.68 360.34 3.32 358.516 3.32H358.012V1.664C359.98 1.664 361.876 1.616 363.7 1.52C365.524 1.376 367.42 1.136 369.388 0.799998V45.152C369.388 47.84 369.892 49.544 370.9 50.264C371.956 50.984 373.444 51.344 375.364 51.344V53H372.412C371.356 53 370.324 53.024 369.316 53.072C368.308 53.168 367.18 53.336 365.932 53.576L364.996 48.536C363.7 50.072 362.14 51.344 360.316 52.352C358.54 53.312 356.548 53.792 354.34 53.792ZM345.484 36.944C345.484 39.728 345.82 42.224 346.492 44.432C347.212 46.64 348.268 48.392 349.66 49.688C351.1 50.984 352.9 51.632 355.06 51.632C357.124 51.632 358.9 51.176 360.388 50.264C361.924 49.304 363.244 48.152 364.348 46.808V27.368C363.532 26.12 362.308 24.992 360.676 23.984C359.044 22.976 357.244 22.472 355.276 22.472C353.068 22.472 351.244 23.12 349.804 24.416C348.364 25.664 347.284 27.392 346.564 29.6C345.844 31.76 345.484 34.208 345.484 36.944Z" fill="black"/>
</svg>
