<svg width="201" height="22" viewBox="0 0 201 22" fill="none" xmlns="http://www.w3.org/2000/svg">
<path d="M15.996 21.308C14.9693 21.308 14.204 20.9627 13.7 20.272C13.2147 19.5627 12.8973 18.6947 12.748 17.668C12.6547 16.9213 12.5053 16.1747 12.3 15.428C12.1133 14.6813 11.8053 14 11.376 13.384C10.9653 12.7493 10.3773 12.2453 9.612 11.872C8.86533 11.4987 7.88533 11.312 6.672 11.312H5.468V17.276C5.468 18.1907 5.53333 18.8533 5.664 19.264C5.79467 19.656 6.03733 19.9173 6.392 20.048C6.74667 20.16 7.24133 20.2533 7.876 20.328L8.436 20.384V21.084L4.292 21H4.264L0.12 21.084V20.384L0.68 20.328C1.33333 20.2533 1.828 20.16 2.164 20.048C2.51867 19.9173 2.76133 19.656 2.892 19.264C3.02267 18.8533 3.088 18.1907 3.088 17.276V4.844C3.088 3.91067 3.02267 3.248 2.892 2.856C2.76133 2.464 2.51867 2.212 2.164 2.1C1.828 1.96933 1.33333 1.86667 0.68 1.792L0.12 1.736V1.036L4.264 1.12H8.184C9.45333 1.12 10.6293 1.26933 11.712 1.568C12.7947 1.848 13.6627 2.34267 14.316 3.052C14.988 3.76133 15.324 4.75067 15.324 6.02C15.324 7.14 15.072 8.05467 14.568 8.764C14.0827 9.45467 13.4293 9.98667 12.608 10.36C11.8053 10.7147 10.928 10.9667 9.976 11.116C11.3573 11.2093 12.4773 11.6853 13.336 12.544C14.2133 13.384 14.7733 14.6253 15.016 16.268C15.184 17.3133 15.3893 18.1347 15.632 18.732C15.8933 19.3107 16.1733 19.7213 16.472 19.964C16.7893 20.188 17.1067 20.3 17.424 20.3C17.6293 20.3 17.8253 20.2627 18.012 20.188C18.2173 20.1133 18.3947 20.0387 18.544 19.964L18.74 20.664C18.4413 20.8133 18.04 20.9533 17.536 21.084C17.032 21.2333 16.5187 21.308 15.996 21.308ZM8.24 1.848H5.468V10.556H7.82C9.612 10.556 10.8627 10.192 11.572 9.464C12.3 8.736 12.664 7.644 12.664 6.188C12.664 4.80667 12.3373 3.74267 11.684 2.996C11.0307 2.23067 9.88267 1.848 8.24 1.848ZM27.5687 21.308C26.3741 21.308 25.2821 21.0187 24.2927 20.44C23.3221 19.8613 22.5474 19.0867 21.9687 18.116C21.4087 17.1267 21.1287 16.0347 21.1287 14.84C21.1287 13.608 21.4087 12.4973 21.9687 11.508C22.5474 10.5187 23.3221 9.73467 24.2927 9.156C25.2821 8.57733 26.3741 8.288 27.5687 8.288C28.7821 8.288 29.8741 8.57733 30.8448 9.156C31.8154 9.73467 32.5808 10.5187 33.1408 11.508C33.7194 12.4973 34.0087 13.608 34.0087 14.84C34.0087 16.0347 33.7194 17.1267 33.1408 18.116C32.5808 19.0867 31.8154 19.8613 30.8448 20.44C29.8741 21.0187 28.7821 21.308 27.5687 21.308ZM27.5687 20.608C28.5768 20.608 29.3888 20.356 30.0048 19.852C30.6207 19.3293 31.0688 18.6387 31.3488 17.78C31.6288 16.9027 31.7687 15.9227 31.7687 14.84C31.7687 13.72 31.6288 12.7213 31.3488 11.844C31.0688 10.9667 30.6207 10.276 30.0048 9.772C29.3888 9.24933 28.5768 8.988 27.5687 8.988C26.5607 8.988 25.7487 9.24933 25.1327 9.772C24.5167 10.276 24.0687 10.9667 23.7887 11.844C23.5087 12.7213 23.3687 13.72 23.3687 14.84C23.3687 15.9227 23.5087 16.9027 23.7887 17.78C24.0687 18.6387 24.5167 19.3293 25.1327 19.852C25.7487 20.356 26.5607 20.608 27.5687 20.608ZM43.3273 21.308C42.1139 21.308 41.1526 21.0093 40.4433 20.412C39.7526 19.796 39.4073 18.8907 39.4073 17.696V12.264C39.4073 11.424 39.3513 10.8267 39.2393 10.472C39.1273 10.0987 38.9219 9.856 38.6233 9.744C38.3433 9.632 37.9326 9.548 37.3913 9.492L36.9433 9.436V8.792L40.3873 8.876L41.3673 8.848V17.584C41.3673 18.4987 41.6006 19.1987 42.0673 19.684C42.5339 20.1693 43.1686 20.412 43.9713 20.412C44.6619 20.412 45.2686 20.2627 45.7913 19.964C46.3326 19.6467 46.7899 19.2453 47.1633 18.76C47.5553 18.2747 47.8633 17.78 48.0873 17.276V12.264C48.0873 11.424 48.0313 10.8267 47.9193 10.472C47.8073 10.0987 47.6019 9.856 47.3033 9.744C47.0233 9.632 46.6126 9.548 46.0713 9.492L45.6233 9.436V8.792L49.0673 8.876L50.0473 8.848V17.892C50.0473 18.6013 50.1313 19.1333 50.2993 19.488C50.4859 19.824 50.7473 20.048 51.0833 20.16C51.4379 20.272 51.8673 20.328 52.3713 20.328V20.972C51.6059 20.972 50.9059 20.9813 50.2713 21C49.6366 21.0187 48.9086 21.1027 48.0873 21.252V18.676C47.9006 18.9747 47.7046 19.236 47.4993 19.46C47.0139 20.0013 46.4259 20.4493 45.7353 20.804C45.0446 21.14 44.2419 21.308 43.3273 21.308ZM54.8434 21.084V20.44L55.2914 20.384C55.8327 20.3093 56.2434 20.2253 56.5234 20.132C56.822 20.02 57.0274 19.7867 57.1394 19.432C57.2514 19.0587 57.3074 18.452 57.3074 17.612V11.704C57.3074 10.7333 57.102 10.1173 56.6914 9.856C56.2994 9.576 55.7487 9.436 55.0394 9.436H54.8434V8.792C55.6087 8.792 56.346 8.77333 57.0554 8.736C57.7647 8.68 58.502 8.58667 59.2674 8.456V10.724C59.6967 10.0893 60.3034 9.52933 61.0874 9.044C61.8714 8.54 62.786 8.288 63.8314 8.288C65.1007 8.288 66.0994 8.61467 66.8274 9.268C67.574 9.90267 67.9474 10.8173 67.9474 12.012V17.612C67.9474 18.452 68.0034 19.0587 68.1154 19.432C68.2274 19.7867 68.4234 20.02 68.7034 20.132C69.002 20.2253 69.422 20.3093 69.9634 20.384L70.4114 20.44V21.084L66.9674 21L63.5234 21.084V20.44L63.9714 20.384C64.5127 20.3093 64.9234 20.2253 65.2034 20.132C65.502 20.02 65.7074 19.7867 65.8194 19.432C65.9314 19.0587 65.9874 18.452 65.9874 17.612V12.012C65.9874 11.0787 65.7447 10.3693 65.2594 9.884C64.774 9.38 64.0927 9.128 63.2154 9.128C62.5434 9.128 61.9367 9.28667 61.3954 9.604C60.854 9.90267 60.406 10.276 60.0514 10.724C59.6967 11.172 59.4354 11.6013 59.2674 12.012V17.612C59.2674 18.452 59.3234 19.0587 59.4354 19.432C59.5474 19.7867 59.7434 20.02 60.0234 20.132C60.322 20.2253 60.742 20.3093 61.2834 20.384L61.7314 20.44V21.084L58.2874 21L54.8434 21.084ZM79.0557 21.308C77.9917 21.308 77.0304 21.0187 76.1717 20.44C75.3131 19.8613 74.6317 19.0773 74.1277 18.088C73.6237 17.08 73.3717 15.9693 73.3717 14.756C73.3717 13.5427 73.6237 12.4507 74.1277 11.48C74.6317 10.5093 75.3224 9.73467 76.1997 9.156C77.0771 8.57733 78.0664 8.288 79.1677 8.288C79.9517 8.288 80.6704 8.456 81.3237 8.792C81.9771 9.10933 82.5184 9.47333 82.9477 9.884V3.948C82.9477 2.97733 82.7424 2.36133 82.3317 2.1C81.9397 1.82 81.3891 1.68 80.6797 1.68H80.4837V1.036C81.2491 1.036 81.9864 1.01733 82.6957 0.979999C83.4051 0.923999 84.1424 0.830665 84.9077 0.699999V17.948C84.9077 18.9933 85.1037 19.656 85.4957 19.936C85.9064 20.216 86.4851 20.356 87.2317 20.356V21H86.0837C85.6731 21 85.2717 21.0093 84.8797 21.028C84.4877 21.0653 84.0491 21.1307 83.5637 21.224L83.1997 19.264C82.6957 19.8613 82.0891 20.356 81.3797 20.748C80.6891 21.1213 79.9144 21.308 79.0557 21.308ZM75.6117 14.756C75.6117 15.8387 75.7424 16.8093 76.0037 17.668C76.2837 18.5267 76.6944 19.208 77.2357 19.712C77.7957 20.216 78.4957 20.468 79.3357 20.468C80.1384 20.468 80.8291 20.2907 81.4077 19.936C82.0051 19.5627 82.5184 19.1147 82.9477 18.592V11.032C82.6304 10.5467 82.1544 10.108 81.5197 9.716C80.8851 9.324 80.1851 9.128 79.4197 9.128C78.5611 9.128 77.8517 9.38 77.2917 9.884C76.7317 10.3693 76.3117 11.0413 76.0317 11.9C75.7517 12.74 75.6117 13.692 75.6117 14.756ZM108.472 21.308C106.568 21.308 104.926 20.8693 103.544 19.992C102.182 19.1147 101.127 17.9107 100.38 16.38C99.6523 14.8307 99.2883 13.0573 99.2883 11.06C99.2883 9.56667 99.531 8.19467 100.016 6.944C100.502 5.69333 101.174 4.60133 102.032 3.668C102.891 2.73467 103.88 2.016 105 1.512C106.139 0.989332 107.352 0.727999 108.64 0.727999C109.779 0.727999 110.712 0.858666 111.44 1.12C112.187 1.36267 112.747 1.57733 113.12 1.764C113.363 1.876 113.587 1.97867 113.792 2.072C113.998 2.14667 114.138 2.184 114.212 2.184C114.418 2.184 114.586 2.10933 114.716 1.96C114.847 1.792 114.931 1.512 114.968 1.12H115.668L115.612 4.396L115.668 7.672H114.968C114.688 5.73067 114.016 4.228 112.952 3.164C111.888 2.1 110.479 1.568 108.724 1.568C107.492 1.568 106.456 1.82 105.616 2.324C104.776 2.80933 104.104 3.49067 103.6 4.368C103.096 5.22667 102.723 6.23467 102.48 7.392C102.256 8.53067 102.144 9.75333 102.144 11.06C102.144 13.02 102.35 14.7 102.76 16.1C103.19 17.5 103.88 18.5827 104.832 19.348C105.803 20.0947 107.1 20.468 108.724 20.468C109.938 20.468 110.992 20.188 111.888 19.628C112.784 19.068 113.503 18.3213 114.044 17.388C114.604 16.4547 114.94 15.428 115.052 14.308H115.724L115.668 17.724L115.752 21H115.08L114.996 20.692C114.922 20.4493 114.828 20.2253 114.716 20.02C114.623 19.796 114.455 19.684 114.212 19.684C114.082 19.684 113.923 19.7213 113.736 19.796C113.568 19.8707 113.372 19.964 113.148 20.076C112.663 20.3187 112.028 20.5893 111.244 20.888C110.46 21.168 109.536 21.308 108.472 21.308ZM119.525 21.084V20.44L119.973 20.384C120.514 20.3093 120.925 20.2253 121.205 20.132C121.503 20.02 121.709 19.7867 121.821 19.432C121.933 19.0587 121.989 18.452 121.989 17.612V3.948C121.989 2.97733 121.783 2.36133 121.373 2.1C120.981 1.82 120.43 1.68 119.721 1.68H119.525V1.036C120.29 1.036 121.027 1.01733 121.737 0.979999C122.446 0.923999 123.183 0.830665 123.949 0.699999V17.612C123.949 18.452 124.005 19.0587 124.117 19.432C124.229 19.7867 124.425 20.02 124.705 20.132C125.003 20.2253 125.423 20.3093 125.965 20.384L126.413 20.44V21.084L122.969 21L119.525 21.084ZM135.635 21.308C134.403 21.308 133.33 21.0467 132.415 20.524C131.5 19.9827 130.782 19.2453 130.259 18.312C129.755 17.36 129.503 16.2773 129.503 15.064C129.503 13.7573 129.783 12.6 130.343 11.592C130.903 10.5653 131.65 9.76267 132.583 9.184C133.535 8.58667 134.58 8.288 135.719 8.288C137.156 8.288 138.276 8.74533 139.079 9.66C139.9 10.5747 140.311 11.7787 140.311 13.272C140.311 13.496 140.302 13.6827 140.283 13.832C140.264 13.9813 140.246 14.084 140.227 14.14H131.771C131.752 14.4013 131.743 14.6627 131.743 14.924C131.743 15.9133 131.902 16.8373 132.219 17.696C132.536 18.536 133.012 19.208 133.647 19.712C134.3 20.216 135.094 20.468 136.027 20.468C136.904 20.468 137.679 20.2253 138.351 19.74C139.042 19.236 139.574 18.4987 139.947 17.528L140.619 17.78C139.835 20.132 138.174 21.308 135.635 21.308ZM135.719 8.988C134.562 8.988 133.656 9.39867 133.003 10.22C132.368 11.0413 131.976 12.1333 131.827 13.496H135.383C136.223 13.496 136.858 13.4027 137.287 13.216C137.735 13.0107 138.034 12.768 138.183 12.488C138.351 12.1893 138.435 11.9 138.435 11.62C138.435 10.7987 138.155 10.1547 137.595 9.688C137.035 9.22133 136.41 8.988 135.719 8.988ZM147.495 21.308C146.599 21.308 145.852 21.084 145.255 20.636C144.676 20.1693 144.387 19.5253 144.387 18.704C144.387 17.8827 144.751 17.1547 145.479 16.52C146.207 15.8667 147.056 15.2787 148.027 14.756C148.755 14.3453 149.483 13.9907 150.211 13.692C150.939 13.3933 151.564 13.1413 152.087 12.936V12.04C152.087 11.0133 151.891 10.248 151.499 9.744C151.125 9.24 150.407 8.988 149.343 8.988C148.839 8.988 148.344 9.05333 147.859 9.184C147.373 9.31467 147.131 9.55733 147.131 9.912C147.131 9.98667 147.14 10.0707 147.159 10.164C147.196 10.2573 147.224 10.3507 147.243 10.444C147.336 10.6867 147.383 10.9387 147.383 11.2C147.383 11.5547 147.252 11.8347 146.991 12.04C146.748 12.2267 146.449 12.32 146.095 12.32C145.759 12.32 145.479 12.1987 145.255 11.956C145.031 11.6947 144.919 11.3867 144.919 11.032C144.919 10.36 145.171 9.828 145.675 9.436C146.197 9.02533 146.832 8.736 147.579 8.568C148.325 8.38133 149.044 8.288 149.735 8.288C151.228 8.288 152.32 8.63333 153.011 9.324C153.701 10.0147 154.047 11.144 154.047 12.712V17.752C154.047 18.5733 154.103 19.208 154.215 19.656C154.345 20.104 154.625 20.328 155.055 20.328C155.335 20.328 155.577 20.2253 155.783 20.02C155.988 19.8147 156.128 19.5907 156.203 19.348L156.707 19.544C156.557 20.0853 156.287 20.5147 155.895 20.832C155.521 21.1493 154.999 21.308 154.327 21.308C153.505 21.308 152.936 21.0747 152.619 20.608C152.32 20.1227 152.152 19.488 152.115 18.704C151.592 19.544 150.929 20.188 150.127 20.636C149.324 21.084 148.447 21.308 147.495 21.308ZM146.571 18.564C146.571 19.0867 146.72 19.5067 147.019 19.824C147.336 20.1227 147.793 20.272 148.391 20.272C148.932 20.272 149.445 20.1413 149.931 19.88C150.435 19.6187 150.873 19.292 151.247 18.9C151.62 18.4893 151.9 18.0507 152.087 17.584V13.496C151.471 13.7573 150.836 14.0653 150.183 14.42C149.548 14.756 148.951 15.1387 148.391 15.568C147.849 15.9973 147.411 16.464 147.075 16.968C146.739 17.4533 146.571 17.9853 146.571 18.564ZM158.897 21.084V20.44L159.345 20.384C159.887 20.3093 160.297 20.2253 160.577 20.132C160.876 20.02 161.081 19.7867 161.193 19.432C161.305 19.0587 161.361 18.452 161.361 17.612V11.788C161.361 11.06 161.259 10.528 161.053 10.192C160.867 9.856 160.587 9.65067 160.213 9.576C159.84 9.48267 159.401 9.436 158.897 9.436V8.792C159.663 8.792 160.4 8.764 161.109 8.708C161.819 8.652 162.556 8.568 163.321 8.456L163.013 11.676H163.125C163.536 10.4253 164.04 9.548 164.637 9.044C165.235 8.54 165.879 8.288 166.569 8.288C167.353 8.288 167.876 8.484 168.137 8.876C168.399 9.24933 168.529 9.61333 168.529 9.968C168.529 10.3787 168.408 10.7147 168.165 10.976C167.923 11.2373 167.596 11.368 167.185 11.368C166.793 11.368 166.495 11.2747 166.289 11.088C166.084 10.9013 165.981 10.6867 165.981 10.444C165.981 10.2573 166 10.08 166.037 9.912C166.093 9.744 166.121 9.61333 166.121 9.52C166.121 9.33333 165.991 9.24 165.729 9.24C165.468 9.24 165.188 9.36133 164.889 9.604C164.609 9.84667 164.367 10.1827 164.161 10.612C163.993 10.9667 163.835 11.3587 163.685 11.788C163.536 12.2173 163.415 12.684 163.321 13.188V17.612C163.321 18.452 163.377 19.0587 163.489 19.432C163.601 19.7867 163.797 20.02 164.077 20.132C164.376 20.2253 164.796 20.3093 165.337 20.384L165.785 20.44V21.084L162.341 21L158.897 21.084ZM177.597 21.308C176.365 21.308 175.291 21.0467 174.377 20.524C173.462 19.9827 172.743 19.2453 172.221 18.312C171.717 17.36 171.465 16.2773 171.465 15.064C171.465 13.7573 171.745 12.6 172.305 11.592C172.865 10.5653 173.611 9.76267 174.545 9.184C175.497 8.58667 176.542 8.288 177.681 8.288C179.118 8.288 180.238 8.74533 181.041 9.66C181.862 10.5747 182.273 11.7787 182.273 13.272C182.273 13.496 182.263 13.6827 182.245 13.832C182.226 13.9813 182.207 14.084 182.189 14.14H173.733C173.714 14.4013 173.705 14.6627 173.705 14.924C173.705 15.9133 173.863 16.8373 174.181 17.696C174.498 18.536 174.974 19.208 175.609 19.712C176.262 20.216 177.055 20.468 177.989 20.468C178.866 20.468 179.641 20.2253 180.313 19.74C181.003 19.236 181.535 18.4987 181.909 17.528L182.581 17.78C181.797 20.132 180.135 21.308 177.597 21.308ZM177.681 8.988C176.523 8.988 175.618 9.39867 174.965 10.22C174.33 11.0413 173.938 12.1333 173.789 13.496H177.345C178.185 13.496 178.819 13.4027 179.249 13.216C179.697 13.0107 179.995 12.768 180.145 12.488C180.313 12.1893 180.397 11.9 180.397 11.62C180.397 10.7987 180.117 10.1547 179.557 9.688C178.997 9.22133 178.371 8.988 177.681 8.988ZM191.892 21.308C190.828 21.308 189.867 21.0187 189.008 20.44C188.15 19.8613 187.468 19.0773 186.964 18.088C186.46 17.08 186.208 15.9693 186.208 14.756C186.208 13.5427 186.46 12.4507 186.964 11.48C187.468 10.5093 188.159 9.73467 189.036 9.156C189.914 8.57733 190.903 8.288 192.004 8.288C192.788 8.288 193.507 8.456 194.16 8.792C194.814 9.10933 195.355 9.47333 195.784 9.884V3.948C195.784 2.97733 195.579 2.36133 195.168 2.1C194.776 1.82 194.226 1.68 193.516 1.68H193.32V1.036C194.086 1.036 194.823 1.01733 195.532 0.979999C196.242 0.923999 196.979 0.830665 197.744 0.699999V17.948C197.744 18.9933 197.94 19.656 198.332 19.936C198.743 20.216 199.322 20.356 200.068 20.356V21H198.92C198.51 21 198.108 21.0093 197.716 21.028C197.324 21.0653 196.886 21.1307 196.4 21.224L196.036 19.264C195.532 19.8613 194.926 20.356 194.216 20.748C193.526 21.1213 192.751 21.308 191.892 21.308ZM188.448 14.756C188.448 15.8387 188.579 16.8093 188.84 17.668C189.12 18.5267 189.531 19.208 190.072 19.712C190.632 20.216 191.332 20.468 192.172 20.468C192.975 20.468 193.666 20.2907 194.244 19.936C194.842 19.5627 195.355 19.1147 195.784 18.592V11.032C195.467 10.5467 194.991 10.108 194.356 9.716C193.722 9.324 193.022 9.128 192.256 9.128C191.398 9.128 190.688 9.38 190.128 9.884C189.568 10.3693 189.148 11.0413 188.868 11.9C188.588 12.74 188.448 13.692 188.448 14.756Z" fill="black"/>
</svg>
