<svg width="126" height="34" viewBox="0 0 126 34" fill="none" xmlns="http://www.w3.org/2000/svg">
<path d="M12.3734 33.792C10.5494 33.792 8.98938 33.576 7.69337 33.144C6.44538 32.76 5.46138 32.4 4.74138 32.064C3.97338 31.68 3.49338 31.488 3.30138 31.488C3.10938 31.488 2.94138 31.584 2.79738 31.776C2.70138 31.92 2.58138 32.328 2.43738 33H0.781375L1.06938 28.248L1.28538 22.128H2.86938L2.94138 23.352C3.03738 24.696 3.46938 26.04 4.23738 27.384C5.05338 28.728 6.15738 29.856 7.54938 30.768C8.94138 31.68 10.5494 32.136 12.3734 32.136C14.3414 32.136 15.9254 31.632 17.1254 30.624C18.3254 29.616 18.9254 28.224 18.9254 26.448C18.9254 24.912 18.3014 23.616 17.0534 22.56C15.8534 21.504 14.1734 20.568 12.0134 19.752L9.42138 18.744C6.92538 17.784 5.02938 16.584 3.73338 15.144C2.48538 13.704 1.86137 11.856 1.86137 9.6C1.86137 7.68 2.29338 6.048 3.15738 4.704C4.06938 3.312 5.24538 2.232 6.68538 1.464C8.17338 0.695998 9.75738 0.311998 11.4374 0.311998C12.6374 0.311998 13.6454 0.455998 14.4614 0.743999C15.3254 1.032 16.0454 1.32 16.6214 1.608C17.1014 1.848 17.5094 1.968 17.8454 1.968C18.3254 1.968 18.7094 1.464 18.9974 0.455998L20.5814 0.527997L20.2934 5.208V10.248H18.6374C18.3014 7.992 17.5334 6.048 16.3334 4.416C15.1334 2.736 13.4054 1.896 11.1494 1.896C9.56538 1.896 8.22138 2.4 7.11738 3.408C6.06138 4.416 5.53338 5.688 5.53338 7.224C5.53338 8.712 6.08538 9.96 7.18938 10.968C8.34138 11.928 9.90138 12.792 11.8694 13.56L14.6774 14.64C17.6054 15.744 19.6214 17.088 20.7254 18.672C21.8774 20.208 22.4534 22.056 22.4534 24.216C22.4534 26.76 21.5894 28.992 19.8614 30.912C18.1334 32.832 15.6374 33.792 12.3734 33.792ZM36.2639 33.792C33.9599 33.792 32.0399 33.216 30.5039 32.064C29.0159 30.864 28.2719 29.208 28.2719 27.096C28.2719 24.984 29.2079 23.112 31.0799 21.48C32.9519 19.8 35.1359 18.288 37.6319 16.944C39.5039 15.888 41.3759 14.976 43.2479 14.208C45.1199 13.44 46.7279 12.792 48.0719 12.264V9.96C48.0719 7.32 47.5679 5.352 46.5599 4.056C45.5999 2.76 43.7519 2.112 41.0159 2.112C39.7199 2.112 38.4479 2.28 37.1999 2.616C35.9519 2.952 35.3279 3.576 35.3279 4.488C35.3279 4.68 35.3519 4.896 35.3999 5.136C35.4959 5.376 35.5679 5.616 35.6159 5.856C35.8559 6.48 35.9759 7.128 35.9759 7.8C35.9759 8.712 35.6399 9.432 34.9679 9.96C34.3439 10.44 33.5759 10.68 32.6639 10.68C31.7999 10.68 31.0799 10.368 30.5039 9.744C29.9279 9.072 29.6399 8.28 29.6399 7.368C29.6399 5.64 30.2879 4.272 31.5839 3.264C32.9279 2.208 34.5599 1.464 36.4799 1.032C38.3999 0.551998 40.2479 0.311998 42.0239 0.311998C45.8639 0.311998 48.6719 1.2 50.4479 2.976C52.2239 4.752 53.1119 7.656 53.1119 11.688V24.648C53.1119 26.76 53.2559 28.392 53.5439 29.544C53.8799 30.696 54.5999 31.272 55.7039 31.272C56.4239 31.272 57.0479 31.008 57.5759 30.48C58.1039 29.952 58.4639 29.376 58.6559 28.752L59.9519 29.256C59.5679 30.648 58.8719 31.752 57.8639 32.568C56.9039 33.384 55.5599 33.792 53.8319 33.792C51.7199 33.792 50.2559 33.192 49.4399 31.992C48.6719 30.744 48.2399 29.112 48.1439 27.096C46.7999 29.256 45.0959 30.912 43.0319 32.064C40.9679 33.216 38.7119 33.792 36.2639 33.792ZM33.8879 26.736C33.8879 28.08 34.2719 29.16 35.0399 29.976C35.8559 30.744 37.0319 31.128 38.5679 31.128C39.9599 31.128 41.2799 30.792 42.5279 30.12C43.8239 29.448 44.9519 28.608 45.9119 27.6C46.8719 26.544 47.5919 25.416 48.0719 24.216V13.704C46.4879 14.376 44.8559 15.168 43.1759 16.08C41.5439 16.944 40.0079 17.928 38.5679 19.032C37.1759 20.136 36.0479 21.336 35.1839 22.632C34.3199 23.88 33.8879 25.248 33.8879 26.736ZM75.7536 33L64.0176 7.08C63.5856 6.12 63.0576 5.304 62.4336 4.632C61.8096 3.96 60.8736 3.552 59.6256 3.408L58.3296 3.264V1.608L65.7456 1.824L73.0896 1.608V3.264L71.9376 3.408C70.8816 3.552 70.1376 3.816 69.7056 4.2C69.2736 4.536 69.0576 5.016 69.0576 5.64C69.0576 6.168 69.2496 6.888 69.6336 7.8L78.7056 27.816L87.1296 8.088C87.5616 7.128 87.7776 6.336 87.7776 5.712C87.7776 4.464 86.6736 3.696 84.4656 3.408L83.2416 3.264V1.608L89.7216 1.824L95.7696 1.608V3.264L94.1136 3.48C92.7696 3.672 91.7376 4.2 91.0176 5.064C90.2976 5.88 89.5776 7.128 88.8576 8.808L78.4896 33H75.7536ZM112.586 33.792C109.418 33.792 106.658 33.12 104.306 31.776C101.954 30.384 100.106 28.488 98.7621 26.088C97.4661 23.64 96.8181 20.856 96.8181 17.736C96.8181 14.376 97.5381 11.4 98.9781 8.808C100.418 6.168 102.338 4.104 104.738 2.616C107.186 1.08 109.874 0.311998 112.802 0.311998C116.498 0.311998 119.378 1.488 121.442 3.84C123.554 6.192 124.61 9.288 124.61 13.128C124.61 13.704 124.586 14.184 124.538 14.568C124.49 14.952 124.442 15.216 124.394 15.36H102.65C102.602 16.032 102.578 16.704 102.578 17.376C102.578 19.92 102.986 22.296 103.802 24.504C104.618 26.664 105.842 28.392 107.474 29.688C109.154 30.984 111.194 31.632 113.594 31.632C115.85 31.632 117.842 31.008 119.57 29.76C121.346 28.464 122.714 26.568 123.674 24.072L125.402 24.72C123.386 30.768 119.114 33.792 112.586 33.792ZM112.802 2.112C109.826 2.112 107.498 3.168 105.818 5.28C104.186 7.392 103.178 10.2 102.794 13.704H111.938C114.098 13.704 115.73 13.464 116.834 12.984C117.986 12.456 118.754 11.832 119.138 11.112C119.57 10.344 119.786 9.6 119.786 8.88C119.786 6.768 119.066 5.112 117.626 3.912C116.186 2.712 114.578 2.112 112.802 2.112Z" fill="black"/>
</svg>
