<svg width="171" height="41" viewBox="0 0 171 41" fill="none" xmlns="http://www.w3.org/2000/svg">
<path d="M10.36 29.44C9.29333 29.44 8.32 29.2667 7.44 28.92C6.58667 28.5733 5.81333 28.2267 5.12 27.88C4.53333 27.56 4.04 27.32 3.64 27.16C3.26667 27 2.93333 26.92 2.64 26.92C2.26667 26.92 2 27.08 1.84 27.4C1.70667 27.6933 1.6 28.0267 1.52 28.4L1.4 29H0.4L0.6 24.28L0.48 19.12H1.48L1.92 21C2.21333 22.1733 2.73333 23.32 3.48 24.44C4.25333 25.56 5.21333 26.48 6.36 27.2C7.53333 27.92 8.86667 28.28 10.36 28.28C11.1867 28.28 11.9733 28.1067 12.72 27.76C13.4933 27.3867 14.12 26.8267 14.6 26.08C15.1067 25.3333 15.36 24.36 15.36 23.16C15.36 21.3733 14.7733 19.9333 13.6 18.84C12.4533 17.7467 10.8533 16.7067 8.8 15.72L7.12 14.92C5.12 13.96 3.62667 12.9067 2.64 11.76C1.68 10.5867 1.2 9.09333 1.2 7.28C1.2 5.86667 1.54667 4.61333 2.24 3.52C2.93333 2.42667 3.88 1.57333 5.08 0.959999C6.30667 0.346665 7.70667 0.0399985 9.28 0.0399985C10.3733 0.0399985 11.2933 0.186665 12.04 0.479998C12.7867 0.773332 13.3733 1.02667 13.8 1.24C14.4933 1.58667 15.04 1.76 15.44 1.76C15.8667 1.76 16.12 1.34667 16.2 0.52H17.2L17.08 4.36L17.16 8.24H16.16C16 6.74666 15.5867 5.48 14.92 4.44C14.2533 3.37333 13.44 2.56 12.48 2C11.5467 1.44 10.5467 1.16 9.48 1.16C7.90667 1.16 6.62667 1.61333 5.64 2.52C4.68 3.42667 4.2 4.58667 4.2 6C4.2 7.52 4.69333 8.72 5.68 9.6C6.66667 10.4533 7.94667 11.2667 9.52 12.04L11.16 12.84C12.6267 13.56 13.88 14.3067 14.92 15.08C15.9867 15.8267 16.8 16.7067 17.36 17.72C17.9467 18.7333 18.24 20 18.24 21.52C18.24 23.0933 17.88 24.48 17.16 25.68C16.4667 26.88 15.52 27.8133 14.32 28.48C13.1467 29.12 11.8267 29.44 10.36 29.44ZM33.0619 29.44C31.2752 29.44 29.7152 29.0533 28.3819 28.28C27.0485 27.5067 26.0219 26.4533 25.3019 25.12C24.5819 23.7867 24.2219 22.2667 24.2219 20.56C24.2219 18.6933 24.6352 17.0267 25.4619 15.56C26.2885 14.0933 27.4085 12.9467 28.8219 12.12C30.2352 11.2667 31.8352 10.84 33.6219 10.84C34.4752 10.84 35.3552 10.9733 36.2619 11.24C37.1685 11.5067 37.9285 11.9067 38.5419 12.44C39.1819 12.9733 39.5019 13.6267 39.5019 14.4C39.5019 14.9867 39.3152 15.48 38.9419 15.88C38.5685 16.2533 38.1152 16.44 37.5819 16.44C36.8885 16.44 36.3685 16.24 36.0219 15.84C35.6752 15.44 35.5019 15.04 35.5019 14.64C35.5019 14.4267 35.5152 14.24 35.5419 14.08C35.5952 13.92 35.6352 13.7733 35.6619 13.64C35.7152 13.5067 35.7552 13.3733 35.7819 13.24C35.8085 13.08 35.8219 12.92 35.8219 12.76C35.8219 12.3867 35.5419 12.1467 34.9819 12.04C34.4485 11.9067 33.9819 11.84 33.5819 11.84C31.7152 11.84 30.2219 12.6267 29.1019 14.2C27.9819 15.7467 27.4219 17.8 27.4219 20.36C27.4219 21.7733 27.6619 23.08 28.1419 24.28C28.6219 25.48 29.3152 26.44 30.2219 27.16C31.1552 27.88 32.3019 28.24 33.6619 28.24C34.7819 28.24 35.8485 27.9333 36.8619 27.32C37.8752 26.68 38.6085 25.6 39.0619 24.08L40.0219 24.4C39.5152 26.24 38.6085 27.5467 37.3019 28.32C35.9952 29.0667 34.5819 29.44 33.0619 29.44ZM54.2109 29.44C52.5043 29.44 50.9443 29.0267 49.5309 28.2C48.1443 27.3733 47.0376 26.2667 46.2109 24.88C45.4109 23.4667 45.0109 21.9067 45.0109 20.2C45.0109 18.44 45.4109 16.8533 46.2109 15.44C47.0376 14.0267 48.1443 12.9067 49.5309 12.08C50.9443 11.2533 52.5043 10.84 54.2109 10.84C55.9443 10.84 57.5043 11.2533 58.8909 12.08C60.2776 12.9067 61.3709 14.0267 62.1709 15.44C62.9976 16.8533 63.4109 18.44 63.4109 20.2C63.4109 21.9067 62.9976 23.4667 62.1709 24.88C61.3709 26.2667 60.2776 27.3733 58.8909 28.2C57.5043 29.0267 55.9443 29.44 54.2109 29.44ZM54.2109 28.44C55.6509 28.44 56.8109 28.08 57.6909 27.36C58.5709 26.6133 59.2109 25.6267 59.6109 24.4C60.0109 23.1467 60.2109 21.7467 60.2109 20.2C60.2109 18.6 60.0109 17.1733 59.6109 15.92C59.2109 14.6667 58.5709 13.68 57.6909 12.96C56.8109 12.2133 55.6509 11.84 54.2109 11.84C52.7709 11.84 51.6109 12.2133 50.7309 12.96C49.8509 13.68 49.2109 14.6667 48.8109 15.92C48.4109 17.1733 48.2109 18.6 48.2109 20.2C48.2109 21.7467 48.4109 23.1467 48.8109 24.4C49.2109 25.6267 49.8509 26.6133 50.7309 27.36C51.6109 28.08 52.7709 28.44 54.2109 28.44ZM68.3231 29.12V28.2L68.9631 28.12C69.7365 28.0133 70.3231 27.8933 70.7231 27.76C71.1498 27.6 71.4431 27.2667 71.6031 26.76C71.7631 26.2267 71.8431 25.36 71.8431 24.16V15.84C71.8431 14.8 71.6965 14.04 71.4031 13.56C71.1365 13.08 70.7365 12.7867 70.2031 12.68C69.6698 12.5467 69.0431 12.48 68.3231 12.48V11.56C69.4165 11.56 70.4698 11.52 71.4831 11.44C72.4965 11.36 73.5498 11.24 74.6431 11.08L74.2031 15.68H74.3631C74.9498 13.8933 75.6698 12.64 76.5231 11.92C77.3765 11.2 78.2965 10.84 79.2831 10.84C80.4031 10.84 81.1498 11.12 81.5231 11.68C81.8965 12.2133 82.0831 12.7333 82.0831 13.24C82.0831 13.8267 81.9098 14.3067 81.5631 14.68C81.2165 15.0533 80.7498 15.24 80.1631 15.24C79.6031 15.24 79.1765 15.1067 78.8831 14.84C78.5898 14.5733 78.4431 14.2667 78.4431 13.92C78.4431 13.6533 78.4698 13.4 78.5231 13.16C78.6031 12.92 78.6431 12.7333 78.6431 12.6C78.6431 12.3333 78.4565 12.2 78.0831 12.2C77.7098 12.2 77.3098 12.3733 76.8831 12.72C76.4831 13.0667 76.1365 13.5467 75.8431 14.16C75.6031 14.6667 75.3765 15.2267 75.1631 15.84C74.9498 16.4533 74.7765 17.12 74.6431 17.84V24.16C74.6431 25.36 74.7231 26.2267 74.8831 26.76C75.0431 27.2667 75.3231 27.6 75.7231 27.76C76.1498 27.8933 76.7498 28.0133 77.5231 28.12L78.1631 28.2V29.12L73.2431 29L68.3231 29.12ZM95.0366 29.44C93.2766 29.44 91.7432 29.0667 90.4366 28.32C89.1299 27.5467 88.1032 26.4933 87.3566 25.16C86.6366 23.8 86.2766 22.2533 86.2766 20.52C86.2766 18.6533 86.6766 17 87.4766 15.56C88.2766 14.0933 89.3432 12.9467 90.6766 12.12C92.0366 11.2667 93.5299 10.84 95.1566 10.84C97.2099 10.84 98.8099 11.4933 99.9566 12.8C101.13 14.1067 101.717 15.8267 101.717 17.96C101.717 18.28 101.703 18.5467 101.677 18.76C101.65 18.9733 101.623 19.12 101.597 19.2H89.5166C89.4899 19.5733 89.4766 19.9467 89.4766 20.32C89.4766 21.7333 89.7032 23.0533 90.1566 24.28C90.6099 25.48 91.2899 26.44 92.1966 27.16C93.1299 27.88 94.2632 28.24 95.5966 28.24C96.8499 28.24 97.9566 27.8933 98.9166 27.2C99.9032 26.48 100.663 25.4267 101.197 24.04L102.157 24.4C101.037 27.76 98.6632 29.44 95.0366 29.44ZM95.1566 11.84C93.5032 11.84 92.2099 12.4267 91.2766 13.6C90.3699 14.7733 89.8099 16.3333 89.5966 18.28H94.6766C95.8766 18.28 96.7832 18.1467 97.3966 17.88C98.0366 17.5867 98.4632 17.24 98.6766 16.84C98.9166 16.4133 99.0366 16 99.0366 15.6C99.0366 14.4267 98.6366 13.5067 97.8366 12.84C97.0366 12.1733 96.1432 11.84 95.1566 11.84ZM110.499 16.72C109.752 16.72 109.139 16.4667 108.659 15.96C108.179 15.4533 107.939 14.8533 107.939 14.16C107.939 13.4933 108.179 12.92 108.659 12.44C109.139 11.9333 109.752 11.68 110.499 11.68C111.192 11.68 111.779 11.9333 112.259 12.44C112.739 12.92 112.979 13.4933 112.979 14.16C112.979 14.8533 112.739 15.4533 112.259 15.96C111.779 16.4667 111.192 16.72 110.499 16.72ZM110.499 29.44C109.752 29.44 109.139 29.1867 108.659 28.68C108.179 28.1733 107.939 27.5733 107.939 26.88C107.939 26.2133 108.179 25.64 108.659 25.16C109.139 24.6533 109.752 24.4 110.499 24.4C111.192 24.4 111.779 24.6533 112.259 25.16C112.739 25.64 112.979 26.2133 112.979 26.88C112.979 27.5733 112.739 28.1733 112.259 28.68C111.779 29.1867 111.192 29.44 110.499 29.44ZM147.77 29.12L142.85 29L137.93 29.08V28.16L138.57 28.12C139.343 28.0133 139.93 27.8933 140.33 27.76C140.756 27.6 141.05 27.2667 141.21 26.76C141.396 26.2267 141.49 25.36 141.49 24.16L141.53 20.52H129.73V19.36L143.37 1.76H144.25V19.2H148.73V20.52H144.25V24.16C144.25 25.36 144.33 26.2267 144.49 26.76C144.65 27.2667 144.93 27.6 145.33 27.76C145.756 27.8933 146.356 28.0133 147.13 28.12L147.77 28.2V29.12ZM131.17 19.2H141.53L141.61 6.04L131.17 19.2ZM160.577 40.84C159.857 40.84 159.151 40.76 158.457 40.6C157.791 40.44 157.231 40.1467 156.777 39.72C156.324 39.32 156.097 38.76 156.097 38.04C156.097 37.48 156.271 37.0267 156.617 36.68C156.964 36.3333 157.391 36.1467 157.897 36.12C158.244 36.12 158.551 36.1867 158.817 36.32C159.111 36.48 159.391 36.7867 159.657 37.24C160.084 38.04 160.444 38.6267 160.737 39C161.031 39.4 161.431 39.6 161.937 39.6C162.951 39.6 163.897 39.1333 164.777 38.2C165.684 37.2933 166.404 35.8667 166.937 33.92C167.497 32 167.737 29.52 167.657 26.48C167.044 27.5467 166.231 28.3067 165.217 28.76C164.204 29.2133 163.151 29.44 162.057 29.44C160.671 29.44 159.364 29.0933 158.137 28.4C156.937 27.68 155.951 26.64 155.177 25.28C154.431 23.92 154.004 22.24 153.897 20.24C153.844 18.5067 154.164 16.88 154.857 15.36C155.577 13.84 156.577 12.6133 157.857 11.68C159.164 10.72 160.657 10.24 162.337 10.24C164.071 10.24 165.497 10.6133 166.617 11.36C167.737 12.08 168.617 13.0933 169.257 14.4C169.897 15.7067 170.337 17.2267 170.577 18.96C170.844 20.6667 170.977 22.52 170.977 24.52C170.977 27.7733 170.577 30.6267 169.777 33.08C168.977 35.5333 167.804 37.44 166.257 38.8C164.711 40.16 162.817 40.84 160.577 40.84ZM162.337 28.24C163.804 28.24 164.897 27.8533 165.617 27.08C166.337 26.3067 166.817 25.24 167.057 23.88C167.324 22.52 167.457 20.9733 167.457 19.24C167.457 16.7867 167.044 14.88 166.217 13.52C165.417 12.1333 164.151 11.44 162.417 11.44C160.737 11.44 159.404 12.2 158.417 13.72C157.431 15.2133 156.991 17.3333 157.097 20.08C157.231 22.7733 157.711 24.8133 158.537 26.2C159.364 27.56 160.631 28.24 162.337 28.24Z" fill="black"/>
</svg>
