<svg width="118" height="46" viewBox="0 0 118 46" fill="none" xmlns="http://www.w3.org/2000/svg">
<path d="M16.158 45.682C14.5047 45.682 12.996 45.4133 11.632 44.876C10.3093 44.3387 9.11067 43.8013 8.036 43.264C7.12667 42.768 6.362 42.396 5.742 42.148C5.16333 41.9 4.64667 41.776 4.192 41.776C3.61333 41.776 3.2 42.024 2.952 42.52C2.74533 42.9747 2.58 43.4913 2.456 44.07L2.27 45H0.72L1.03 37.684L0.844 29.686H2.394L3.076 32.6C3.53067 34.4187 4.33667 36.196 5.494 37.932C6.69267 39.668 8.18067 41.094 9.958 42.21C11.7767 43.326 13.8433 43.884 16.158 43.884C17.4393 43.884 18.6587 43.6153 19.816 43.078C21.0147 42.4993 21.986 41.6313 22.73 40.474C23.5153 39.3167 23.908 37.808 23.908 35.948C23.908 33.1787 22.9987 30.9467 21.18 29.252C19.4027 27.5573 16.9227 25.9453 13.74 24.416L11.136 23.176C8.036 21.688 5.72133 20.0553 4.192 18.278C2.704 16.4593 1.96 14.1447 1.96 11.334C1.96 9.14333 2.49733 7.20067 3.572 5.506C4.64667 3.81133 6.114 2.48866 7.974 1.538C9.87533 0.587331 12.0453 0.111998 14.484 0.111998C16.1787 0.111998 17.6047 0.339331 18.762 0.793996C19.9193 1.24866 20.8287 1.64133 21.49 1.972C22.5647 2.50933 23.412 2.778 24.032 2.778C24.6933 2.778 25.086 2.13733 25.21 0.855999H26.76L26.574 6.808L26.698 12.822H25.148C24.9 10.5073 24.2593 8.544 23.226 6.932C22.1927 5.27866 20.932 4.018 19.444 3.15C17.9973 2.282 16.4473 1.848 14.794 1.848C12.3553 1.848 10.3713 2.55066 8.842 3.956C7.354 5.36133 6.61 7.15933 6.61 9.35C6.61 11.706 7.37467 13.566 8.904 14.93C10.4333 16.2527 12.4173 17.5133 14.856 18.712L17.398 19.952C19.6713 21.068 21.614 22.2253 23.226 23.424C24.8793 24.5813 26.14 25.9453 27.008 27.516C27.9173 29.0867 28.372 31.05 28.372 33.406C28.372 35.8447 27.814 37.994 26.698 39.854C25.6233 41.714 24.156 43.1607 22.296 44.194C20.4773 45.186 18.4313 45.682 16.158 45.682ZM34.2339 45.186V43.636L35.4739 43.512C36.9206 43.3467 38.0159 43.14 38.7599 42.892C39.5452 42.6027 40.0826 42.024 40.3719 41.156C40.6612 40.2467 40.8059 38.7793 40.8059 36.754V9.226C40.8059 7.15933 40.6612 5.692 40.3719 4.824C40.0826 3.956 39.5452 3.398 38.7599 3.15C38.0159 2.86066 36.9206 2.63333 35.4739 2.468L34.2339 2.344V0.793996L43.4099 0.979998H67.4659L67.5899 5.444L68.0859 11.148H66.5979C66.3086 9.288 65.9159 7.8 65.4199 6.684C64.9652 5.568 64.3039 4.74133 63.4359 4.204C62.5679 3.62533 61.3899 3.25333 59.9019 3.088C58.4552 2.88133 56.5746 2.778 54.2599 2.778H46.0759V20.944H53.0199C53.8466 20.944 54.5699 20.758 55.1899 20.386C55.8099 19.9727 56.3059 19.2287 56.6779 18.154C57.0912 17.0793 57.3392 15.5293 57.4219 13.504H58.9719L58.7859 21.812L58.9719 30.988H57.4219C57.4219 27.9707 57.0499 25.842 56.3059 24.602C55.5619 23.3207 54.4666 22.68 53.0199 22.68H46.0759V38.366C46.0759 40.35 46.5099 41.6727 47.3779 42.334C48.2459 42.954 49.8579 43.264 52.2139 43.264H57.9799C60.3772 43.264 62.2372 42.9953 63.5599 42.458C64.9239 41.9207 65.9366 40.846 66.5979 39.234C67.2592 37.5807 67.7139 35.1627 67.9619 31.98H69.5119L69.0779 39.42L68.8919 45H43.4099L34.2339 45.186ZM84.7896 45.186V43.636L86.1536 43.512C87.8482 43.3467 89.1296 43.14 89.9976 42.892C90.9069 42.6027 91.5269 42.024 91.8576 41.156C92.2296 40.2467 92.4156 38.7793 92.4156 36.754V2.654H83.6736C81.7722 2.654 80.2636 3.026 79.1476 3.77C78.0729 4.47267 77.1222 5.63 76.2956 7.242C75.5102 8.854 74.5802 11.0033 73.5056 13.69L72.2036 13.38L73.7536 5.754L74.4356 0.793996L92.1056 0.979998H97.9956L115.728 0.793996L116.41 5.754L117.96 13.38L116.596 13.752C115.645 11.3547 114.756 9.32933 113.93 7.676C113.144 6.02266 112.214 4.78266 111.14 3.956C110.065 3.088 108.639 2.654 106.862 2.654H97.6856V36.754C97.6856 38.7793 97.8509 40.2467 98.1816 41.156C98.5536 42.024 99.1942 42.6027 100.104 42.892C101.013 43.14 102.294 43.3467 103.948 43.512L105.312 43.636V45.186L95.2056 45L84.7896 45.186Z" fill="white"/>
</svg>
