<svg width="74" height="41" viewBox="0 0 74 41" fill="none" xmlns="http://www.w3.org/2000/svg">
<path d="M10.36 29.44C9.29333 29.44 8.32 29.2667 7.44 28.92C6.58667 28.5733 5.81333 28.2267 5.12 27.88C4.53333 27.56 4.04 27.32 3.64 27.16C3.26667 27 2.93333 26.92 2.64 26.92C2.26667 26.92 2 27.08 1.84 27.4C1.70667 27.6933 1.6 28.0267 1.52 28.4L1.4 29H0.4L0.6 24.28L0.48 19.12H1.48L1.92 21C2.21333 22.1733 2.73333 23.32 3.48 24.44C4.25333 25.56 5.21333 26.48 6.36 27.2C7.53333 27.92 8.86667 28.28 10.36 28.28C11.1867 28.28 11.9733 28.1067 12.72 27.76C13.4933 27.3867 14.12 26.8267 14.6 26.08C15.1067 25.3333 15.36 24.36 15.36 23.16C15.36 21.3733 14.7733 19.9333 13.6 18.84C12.4533 17.7467 10.8533 16.7067 8.8 15.72L7.12 14.92C5.12 13.96 3.62667 12.9067 2.64 11.76C1.68 10.5867 1.2 9.09333 1.2 7.28C1.2 5.86667 1.54667 4.61333 2.24 3.52C2.93333 2.42667 3.88 1.57333 5.08 0.959999C6.30667 0.346665 7.70667 0.0399985 9.28 0.0399985C10.3733 0.0399985 11.2933 0.186665 12.04 0.479998C12.7867 0.773332 13.3733 1.02667 13.8 1.24C14.4933 1.58667 15.04 1.76 15.44 1.76C15.8667 1.76 16.12 1.34667 16.2 0.52H17.2L17.08 4.36L17.16 8.24H16.16C16 6.74666 15.5867 5.48 14.92 4.44C14.2533 3.37333 13.44 2.56 12.48 2C11.5467 1.44 10.5467 1.16 9.48 1.16C7.90667 1.16 6.62667 1.61333 5.64 2.52C4.68 3.42667 4.2 4.58667 4.2 6C4.2 7.52 4.69333 8.72 5.68 9.6C6.66667 10.4533 7.94667 11.2667 9.52 12.04L11.16 12.84C12.6267 13.56 13.88 14.3067 14.92 15.08C15.9867 15.8267 16.8 16.7067 17.36 17.72C17.9467 18.7333 18.24 20 18.24 21.52C18.24 23.0933 17.88 24.48 17.16 25.68C16.4667 26.88 15.52 27.8133 14.32 28.48C13.1467 29.12 11.8267 29.44 10.36 29.44ZM21.0219 29.12V28.2L21.6619 28.12C22.4352 28.0133 23.0219 27.8933 23.4219 27.76C23.8485 27.6 24.1419 27.2667 24.3019 26.76C24.4619 26.2267 24.5419 25.36 24.5419 24.16V4.64C24.5419 3.25333 24.2485 2.37333 23.6619 2C23.1019 1.6 22.3152 1.4 21.3019 1.4H21.0219V0.479998C22.1152 0.479998 23.1685 0.453331 24.1819 0.399999C25.1952 0.319998 26.2485 0.186665 27.3419 -9.53674e-07V21.4L33.2619 14.32C33.6085 13.8933 33.7819 13.52 33.7819 13.2C33.7819 12.8 33.4619 12.56 32.8219 12.48L32.1819 12.4V11.48L36.0219 11.56L39.3819 11.48V12.4L38.7419 12.48C37.5419 12.64 36.5285 13 35.7019 13.56C34.9019 14.12 34.1685 14.8 33.5019 15.6L31.1819 18.36L37.9819 25.96C38.3819 26.4133 38.8219 26.88 39.3019 27.36C39.7819 27.8133 40.2619 28.0667 40.7419 28.12L41.3819 28.2V29.12L36.9419 29L29.3819 20.48L27.3419 22.92V24.16C27.3419 25.36 27.4219 26.2267 27.5819 26.76C27.7419 27.2667 28.0219 27.6 28.4219 27.76C28.8485 27.8933 29.4485 28.0133 30.2219 28.12L30.8619 28.2V29.12L25.9419 29L21.0219 29.12ZM42.5184 29.12V28.2L43.1584 28.12C43.9318 28.0133 44.5184 27.8933 44.9184 27.76C45.3451 27.6 45.6384 27.2667 45.7984 26.76C45.9584 26.2267 46.0384 25.36 46.0384 24.16V15.72C46.0384 14.3333 45.7451 13.4533 45.1584 13.08C44.5984 12.68 43.8118 12.48 42.7984 12.48H42.5184V11.56C43.6118 11.56 44.6651 11.5333 45.6784 11.48C46.6918 11.4 47.7451 11.2667 48.8384 11.08V24.16C48.8384 25.36 48.9184 26.2267 49.0784 26.76C49.2384 27.2667 49.5184 27.6 49.9184 27.76C50.3451 27.8933 50.9451 28.0133 51.7184 28.12L52.3584 28.2V29.12L47.4384 29L42.5184 29.12ZM46.9584 6.4C46.2651 6.4 45.7184 6.16 45.3184 5.68C44.9184 5.2 44.7184 4.62667 44.7184 3.96C44.7184 3.26667 44.9184 2.69333 45.3184 2.24C45.7184 1.76 46.2651 1.52 46.9584 1.52C47.7318 1.52 48.2918 1.76 48.6384 2.24C49.0118 2.69333 49.1984 3.26667 49.1984 3.96C49.1984 4.62667 49.0118 5.2 48.6384 5.68C48.2918 6.16 47.7318 6.4 46.9584 6.4ZM53.4856 40.32V39.4L54.1256 39.32C54.899 39.2133 55.4856 39.08 55.8856 38.92C56.3123 38.7867 56.6056 38.4533 56.7656 37.92C56.9256 37.4133 57.0056 36.56 57.0056 35.36V15.6C57.0056 14.64 56.859 13.9467 56.5656 13.52C56.299 13.0667 55.899 12.7867 55.3656 12.68C54.8323 12.5467 54.2056 12.48 53.4856 12.48V11.56C54.579 11.56 55.6323 11.5067 56.6456 11.4C57.659 11.2933 58.7123 11.1467 59.8056 10.96L59.5256 13.68C60.2723 12.8267 61.1256 12.1467 62.0856 11.64C63.0723 11.1067 64.1656 10.84 65.3656 10.84C66.9123 10.84 68.2856 11.2533 69.4856 12.08C70.7123 12.9067 71.6856 14.0267 72.4056 15.44C73.1256 16.8533 73.4856 18.44 73.4856 20.2C73.4856 21.9067 73.1256 23.4667 72.4056 24.88C71.6856 26.2667 70.699 27.3733 69.4456 28.2C68.219 29.0267 66.8056 29.44 65.2056 29.44C64.0856 29.44 63.059 29.2133 62.1256 28.76C61.1923 28.28 60.419 27.7467 59.8056 27.16V35.36C59.8056 36.56 59.8856 37.4133 60.0456 37.92C60.2056 38.4533 60.4856 38.7867 60.8856 38.92C61.3123 39.08 61.9123 39.2133 62.6856 39.32L63.3256 39.4V40.32L58.4056 40.2L53.4856 40.32ZM64.8856 12.04C63.7923 12.04 62.819 12.3067 61.9656 12.84C61.139 13.3467 60.419 13.9733 59.8056 14.72V25.52C60.259 26.2133 60.939 26.84 61.8456 27.4C62.7523 27.96 63.7523 28.24 64.8456 28.24C66.0723 28.24 67.0856 27.8933 67.8856 27.2C68.6856 26.48 69.2856 25.52 69.6856 24.32C70.0856 23.0933 70.2856 21.72 70.2856 20.2C70.2856 18.6533 70.0856 17.2667 69.6856 16.04C69.2856 14.8133 68.6856 13.84 67.8856 13.12C67.1123 12.4 66.1123 12.04 64.8856 12.04Z" fill="black"/>
</svg>
