<svg width="193" height="193" viewBox="0 0 193 193" fill="none" xmlns="http://www.w3.org/2000/svg">
<circle cx="96.5" cy="96.5" r="96.5" fill="#8D8282"/>
<path d="M88.7547 124.259L130.476 82.5372L122.191 74.2521L88.7547 107.689L71.8886 90.8224L63.6034 99.1075L88.7547 124.259ZM97.0399 156.216C88.8534 156.216 81.16 154.662 73.9599 151.555C66.7597 148.448 60.4965 144.232 55.1704 138.906C49.8442 133.58 45.6277 127.316 42.5207 120.116C39.4138 112.916 37.8604 105.223 37.8604 97.0362C37.8604 88.8497 39.4138 81.1564 42.5207 73.9562C45.6277 66.756 49.8442 60.4929 55.1704 55.1667C60.4965 49.8405 66.7597 45.624 73.9599 42.5171C81.16 39.4102 88.8534 37.8567 97.0399 37.8567C105.226 37.8567 112.92 39.4102 120.12 42.5171C127.32 45.624 133.583 49.8405 138.909 55.1667C144.236 60.4929 148.452 66.756 151.559 73.9562C154.666 81.1564 156.219 88.8497 156.219 97.0362C156.219 105.223 154.666 112.916 151.559 120.116C148.452 127.316 144.236 133.58 138.909 138.906C133.583 144.232 127.32 148.448 120.12 151.555C112.92 154.662 105.226 156.216 97.0399 156.216ZM97.0399 144.38C110.257 144.38 121.451 139.793 130.624 130.621C139.797 121.448 144.383 110.253 144.383 97.0362C144.383 83.8194 139.797 72.6247 130.624 63.4518C121.451 54.279 110.257 49.6926 97.0399 49.6926C83.8231 49.6926 72.6283 54.279 63.4555 63.4518C54.2827 72.6247 49.6963 83.8194 49.6963 97.0362C49.6963 110.253 54.2827 121.448 63.4555 130.621C72.6283 139.793 83.8231 144.38 97.0399 144.38Z" fill="white"/>
</svg>
