<svg width="177" height="33" viewBox="0 0 177 33" fill="none" xmlns="http://www.w3.org/2000/svg">
<path d="M6.592 23.096V22.296L7.296 22.232C8.17067 22.1467 8.832 22.04 9.28 21.912C9.74933 21.7627 10.0693 21.464 10.24 21.016C10.432 20.5467 10.528 19.7893 10.528 18.744V1.144H6.016C5.03467 1.144 4.256 1.336 3.68 1.72C3.12533 2.08267 2.63467 2.68 2.208 3.512C1.80267 4.344 1.32267 5.45333 0.768 6.84L0.096 6.68L0.896 2.744L1.248 0.183998L10.368 0.279999H13.408L22.56 0.183998L22.912 2.744L23.712 6.68L23.008 6.872C22.5173 5.63467 22.0587 4.58933 21.632 3.736C21.2267 2.88267 20.7467 2.24267 20.192 1.816C19.6373 1.368 18.9013 1.144 17.984 1.144H13.248V18.744C13.248 19.7893 13.3333 20.5467 13.504 21.016C13.696 21.464 14.0267 21.7627 14.496 21.912C14.9653 22.04 15.6267 22.1467 16.48 22.232L17.184 22.296V23.096L11.968 23L6.592 23.096ZM26.3085 23.096V22.36L26.8205 22.296C27.4392 22.2107 27.9085 22.1147 28.2285 22.008C28.5698 21.88 28.8045 21.6133 28.9325 21.208C29.0605 20.7813 29.1245 20.088 29.1245 19.128V12.376C29.1245 11.2667 28.8898 10.5627 28.4205 10.264C27.9725 9.944 27.3432 9.784 26.5325 9.784H26.3085V9.048C27.1832 9.048 28.0258 9.02667 28.8365 8.984C29.6472 8.92 30.4898 8.81333 31.3645 8.664V19.128C31.3645 20.088 31.4285 20.7813 31.5565 21.208C31.6845 21.6133 31.9085 21.88 32.2285 22.008C32.5698 22.1147 33.0498 22.2107 33.6685 22.296L34.1805 22.36V23.096L30.2445 23L26.3085 23.096ZM29.8605 4.92C29.3058 4.92 28.8685 4.728 28.5485 4.344C28.2285 3.96 28.0685 3.50133 28.0685 2.968C28.0685 2.41333 28.2285 1.95467 28.5485 1.592C28.8685 1.208 29.3058 1.016 29.8605 1.016C30.4792 1.016 30.9272 1.208 31.2045 1.592C31.5032 1.95467 31.6525 2.41333 31.6525 2.968C31.6525 3.50133 31.5032 3.96 31.2045 4.344C30.9272 4.728 30.4792 4.92 29.8605 4.92ZM37.0023 23.096V22.36L37.5143 22.296C38.1329 22.2107 38.6023 22.1147 38.9223 22.008C39.2636 21.88 39.4983 21.6133 39.6263 21.208C39.7543 20.7813 39.8183 20.088 39.8183 19.128V12.376C39.8183 11.608 39.7009 11.0427 39.4663 10.68C39.2529 10.296 38.9329 10.0507 38.5063 9.944C38.0796 9.83733 37.5783 9.784 37.0023 9.784V9.048C37.8769 9.048 38.7196 9.02667 39.5303 8.984C40.3409 8.92 41.1836 8.81333 42.0583 8.664V11.16C42.5276 10.4347 43.1783 9.80533 44.0103 9.272C44.8636 8.73867 45.8449 8.472 46.9543 8.472C48.0849 8.472 49.0236 8.71733 49.7703 9.208C50.5383 9.67733 51.0503 10.424 51.3063 11.448C51.7543 10.68 52.4156 9.99733 53.2903 9.4C54.1649 8.78133 55.1996 8.472 56.3943 8.472C57.7809 8.472 58.8796 8.83467 59.6903 9.56C60.5223 10.2853 60.9383 11.4373 60.9383 13.016V19.128C60.9383 20.0667 60.9916 20.7493 61.0983 21.176C61.2263 21.5813 61.4503 21.848 61.7703 21.976C62.1116 22.104 62.5916 22.2107 63.2103 22.296L63.7223 22.36V23.096L59.8183 23L56.2023 23.096V22.36L56.7143 22.296C57.2476 22.232 57.6529 22.136 57.9303 22.008C58.2289 21.88 58.4316 21.6133 58.5383 21.208C58.6449 20.7813 58.6983 20.088 58.6983 19.128V12.472C58.6983 11.5333 58.4423 10.7973 57.9303 10.264C57.4183 9.70933 56.6929 9.432 55.7543 9.432C54.9863 9.432 54.3143 9.60267 53.7383 9.944C53.1623 10.2853 52.6823 10.712 52.2983 11.224C51.9356 11.736 51.6689 12.2373 51.4983 12.728C51.4983 12.8133 51.4983 12.9093 51.4983 13.016V19.128C51.4983 20.088 51.5516 20.7813 51.6583 21.208C51.7649 21.6133 51.9569 21.88 52.2343 22.008C52.5329 22.1147 52.9489 22.2107 53.4823 22.296L53.9943 22.36V23.096L50.3783 23L46.7623 23.096V22.36L47.2743 22.296C47.8076 22.2107 48.2129 22.1147 48.4903 22.008C48.7889 21.88 48.9916 21.6133 49.0983 21.208C49.2049 20.7813 49.2583 20.088 49.2583 19.128V12.472C49.2583 11.5333 49.0023 10.7973 48.4903 10.264C47.9783 9.70933 47.2529 9.432 46.3143 9.432C45.5676 9.432 44.9063 9.60267 44.3303 9.944C43.7543 10.2853 43.2743 10.712 42.8903 11.224C42.5063 11.736 42.2289 12.2373 42.0583 12.728V19.128C42.0583 20.088 42.1116 20.7813 42.2183 21.208C42.3249 21.6133 42.5169 21.88 42.7943 22.008C43.0929 22.1147 43.5089 22.2107 44.0423 22.296L44.5543 22.36V23.096L40.9383 23L37.0023 23.096ZM74.123 23.352C72.715 23.352 71.4883 23.0533 70.443 22.456C69.3977 21.8373 68.5763 20.9947 67.979 19.928C67.403 18.84 67.115 17.6027 67.115 16.216C67.115 14.7227 67.435 13.4 68.075 12.248C68.715 11.0747 69.5683 10.1573 70.635 9.496C71.723 8.81333 72.9177 8.472 74.219 8.472C75.8617 8.472 77.1417 8.99467 78.059 10.04C78.9977 11.0853 79.467 12.4613 79.467 14.168C79.467 14.424 79.4563 14.6373 79.435 14.808C79.4137 14.9787 79.3923 15.096 79.371 15.16H69.707C69.6857 15.4587 69.675 15.7573 69.675 16.056C69.675 17.1867 69.8563 18.2427 70.219 19.224C70.5817 20.184 71.1257 20.952 71.851 21.528C72.5977 22.104 73.5043 22.392 74.571 22.392C75.5737 22.392 76.459 22.1147 77.227 21.56C78.0163 20.984 78.6243 20.1413 79.051 19.032L79.819 19.32C78.923 22.008 77.0243 23.352 74.123 23.352ZM74.219 9.272C72.8963 9.272 71.8617 9.74133 71.115 10.68C70.3897 11.6187 69.9417 12.8667 69.771 14.424H73.835C74.795 14.424 75.5203 14.3173 76.011 14.104C76.523 13.8693 76.8643 13.592 77.035 13.272C77.227 12.9307 77.323 12.6 77.323 12.28C77.323 11.3413 77.003 10.6053 76.363 10.072C75.723 9.53867 75.0083 9.272 74.219 9.272ZM86.493 13.176C85.8957 13.176 85.405 12.9733 85.021 12.568C84.637 12.1627 84.445 11.6827 84.445 11.128C84.445 10.5947 84.637 10.136 85.021 9.752C85.405 9.34667 85.8957 9.144 86.493 9.144C87.0477 9.144 87.517 9.34667 87.901 9.752C88.285 10.136 88.477 10.5947 88.477 11.128C88.477 11.6827 88.285 12.1627 87.901 12.568C87.517 12.9733 87.0477 13.176 86.493 13.176ZM86.493 23.352C85.8957 23.352 85.405 23.1493 85.021 22.744C84.637 22.3387 84.445 21.8587 84.445 21.304C84.445 20.7707 84.637 20.312 85.021 19.928C85.405 19.5227 85.8957 19.32 86.493 19.32C87.0477 19.32 87.517 19.5227 87.901 19.928C88.285 20.312 88.477 20.7707 88.477 21.304C88.477 21.8587 88.285 22.3387 87.901 22.744C87.517 23.1493 87.0477 23.352 86.493 23.352ZM109.877 23.352C108.469 23.352 107.275 22.9787 106.293 22.232C105.312 21.4853 104.565 20.5253 104.053 19.352C103.563 18.1787 103.317 16.952 103.317 15.672C103.317 14.392 103.563 13.1653 104.053 11.992C104.565 10.8187 105.312 9.85867 106.293 9.112C107.275 8.36533 108.469 7.992 109.877 7.992C111.307 7.992 112.501 8.36533 113.461 9.112C114.443 9.85867 115.179 10.8187 115.669 11.992C116.181 13.1653 116.437 14.392 116.437 15.672C116.437 16.952 116.181 18.1787 115.669 19.352C115.179 20.5253 114.443 21.4853 113.461 22.232C112.501 22.9787 111.307 23.352 109.877 23.352ZM109.877 22.392C110.965 22.392 111.797 22.104 112.373 21.528C112.949 20.9307 113.344 20.12 113.557 19.096C113.771 18.072 113.877 16.9307 113.877 15.672C113.877 14.392 113.771 13.2507 113.557 12.248C113.344 11.224 112.949 10.424 112.373 9.848C111.797 9.25067 110.965 8.952 109.877 8.952C108.811 8.952 107.979 9.25067 107.381 9.848C106.805 10.424 106.411 11.224 106.197 12.248C105.984 13.2507 105.877 14.392 105.877 15.672C105.877 16.9307 105.984 18.072 106.197 19.096C106.411 20.12 106.805 20.9307 107.381 21.528C107.979 22.104 108.811 22.392 109.877 22.392ZM127.165 23.352C125.757 23.352 124.562 22.9787 123.581 22.232C122.6 21.4853 121.853 20.5253 121.341 19.352C120.85 18.1787 120.605 16.952 120.605 15.672C120.605 14.392 120.85 13.1653 121.341 11.992C121.853 10.8187 122.6 9.85867 123.581 9.112C124.562 8.36533 125.757 7.992 127.165 7.992C128.594 7.992 129.789 8.36533 130.749 9.112C131.73 9.85867 132.466 10.8187 132.957 11.992C133.469 13.1653 133.725 14.392 133.725 15.672C133.725 16.952 133.469 18.1787 132.957 19.352C132.466 20.5253 131.73 21.4853 130.749 22.232C129.789 22.9787 128.594 23.352 127.165 23.352ZM127.165 22.392C128.253 22.392 129.085 22.104 129.661 21.528C130.237 20.9307 130.632 20.12 130.845 19.096C131.058 18.072 131.165 16.9307 131.165 15.672C131.165 14.392 131.058 13.2507 130.845 12.248C130.632 11.224 130.237 10.424 129.661 9.848C129.085 9.25067 128.253 8.952 127.165 8.952C126.098 8.952 125.266 9.25067 124.669 9.848C124.093 10.424 123.698 11.224 123.485 12.248C123.272 13.2507 123.165 14.392 123.165 15.672C123.165 16.9307 123.272 18.072 123.485 19.096C123.698 20.12 124.093 20.9307 124.669 21.528C125.266 22.104 126.098 22.392 127.165 22.392ZM140.581 13.176C139.983 13.176 139.493 12.9733 139.109 12.568C138.725 12.1627 138.533 11.6827 138.533 11.128C138.533 10.5947 138.725 10.136 139.109 9.752C139.493 9.34667 139.983 9.144 140.581 9.144C141.135 9.144 141.605 9.34667 141.989 9.752C142.373 10.136 142.565 10.5947 142.565 11.128C142.565 11.6827 142.373 12.1627 141.989 12.568C141.605 12.9733 141.135 13.176 140.581 13.176ZM140.581 23.352C139.983 23.352 139.493 23.1493 139.109 22.744C138.725 22.3387 138.533 21.8587 138.533 21.304C138.533 20.7707 138.725 20.312 139.109 19.928C139.493 19.5227 139.983 19.32 140.581 19.32C141.135 19.32 141.605 19.5227 141.989 19.928C142.373 20.312 142.565 20.7707 142.565 21.304C142.565 21.8587 142.373 22.3387 141.989 22.744C141.605 23.1493 141.135 23.352 140.581 23.352ZM151.143 32.408C150.226 32.408 149.373 32.2587 148.583 31.96C147.794 31.6613 147.143 31.2347 146.631 30.68C146.141 30.1467 145.895 29.5387 145.895 28.856C145.895 28.344 146.034 27.9173 146.311 27.576C146.589 27.256 146.962 27.096 147.431 27.096C147.815 27.096 148.135 27.224 148.391 27.48C148.669 27.736 148.807 28.0667 148.807 28.472C148.807 28.728 148.754 28.9627 148.647 29.176C148.562 29.3893 148.519 29.6347 148.519 29.912C148.519 30.3173 148.69 30.6907 149.031 31.032C149.394 31.3733 150.055 31.544 151.015 31.544C152.402 31.544 153.49 30.936 154.279 29.72C155.09 28.504 155.495 26.8933 155.495 24.888C155.495 23.2453 155.197 22.0293 154.599 21.24C154.023 20.4507 153.277 20.056 152.359 20.056C151.826 20.056 151.357 20.12 150.951 20.248C150.546 20.376 150.215 20.5147 149.959 20.664L149.639 19.832C149.938 19.704 150.173 19.5973 150.343 19.512C150.514 19.4053 150.738 19.2453 151.015 19.032C151.527 18.6693 152.071 18.1893 152.647 17.592C153.245 16.9947 153.757 16.28 154.183 15.448C154.61 14.5947 154.823 13.624 154.823 12.536C154.823 11.384 154.503 10.5093 153.863 9.912C153.245 9.29333 152.455 8.984 151.495 8.984C150.514 8.984 149.703 9.31467 149.063 9.976C148.423 10.6373 148.103 11.4267 148.103 12.344C148.103 13.2613 148.317 13.9653 148.743 14.456C149.191 14.9467 149.65 15.2773 150.119 15.448L149.863 16.184C148.946 15.8213 148.263 15.2987 147.815 14.616C147.367 13.912 147.143 13.1333 147.143 12.28C147.143 11.448 147.367 10.712 147.815 10.072C148.263 9.41067 148.871 8.89867 149.639 8.536C150.429 8.17333 151.303 7.992 152.263 7.992C153.863 7.992 155.111 8.41867 156.007 9.272C156.925 10.104 157.383 11.1813 157.383 12.504C157.383 13.336 157.138 14.2107 156.647 15.128C156.178 16.0453 155.261 16.9733 153.895 17.912L151.975 19.224C152.146 19.2027 152.295 19.192 152.423 19.192C152.551 19.1707 152.69 19.16 152.839 19.16C153.906 19.16 154.834 19.448 155.623 20.024C156.434 20.5787 157.063 21.3147 157.511 22.232C157.959 23.128 158.183 24.1093 158.183 25.176C158.183 26.456 157.927 27.64 157.415 28.728C156.903 29.8373 156.125 30.7227 155.079 31.384C154.034 32.0667 152.722 32.408 151.143 32.408ZM169.809 23.352C168.401 23.352 167.206 22.9787 166.225 22.232C165.243 21.4853 164.497 20.5253 163.985 19.352C163.494 18.1787 163.249 16.952 163.249 15.672C163.249 14.392 163.494 13.1653 163.985 11.992C164.497 10.8187 165.243 9.85867 166.225 9.112C167.206 8.36533 168.401 7.992 169.809 7.992C171.238 7.992 172.433 8.36533 173.393 9.112C174.374 9.85867 175.11 10.8187 175.601 11.992C176.113 13.1653 176.369 14.392 176.369 15.672C176.369 16.952 176.113 18.1787 175.601 19.352C175.11 20.5253 174.374 21.4853 173.393 22.232C172.433 22.9787 171.238 23.352 169.809 23.352ZM169.809 22.392C170.897 22.392 171.729 22.104 172.305 21.528C172.881 20.9307 173.275 20.12 173.489 19.096C173.702 18.072 173.809 16.9307 173.809 15.672C173.809 14.392 173.702 13.2507 173.489 12.248C173.275 11.224 172.881 10.424 172.305 9.848C171.729 9.25067 170.897 8.952 169.809 8.952C168.742 8.952 167.91 9.25067 167.313 9.848C166.737 10.424 166.342 11.224 166.129 12.248C165.915 13.2507 165.809 14.392 165.809 15.672C165.809 16.9307 165.915 18.072 166.129 19.096C166.342 20.12 166.737 20.9307 167.313 21.528C167.91 22.104 168.742 22.392 169.809 22.392Z" fill="black"/>
</svg>
