<svg width="1440" height="1024" viewBox="0 0 1440 1024" fill="none" xmlns="http://www.w3.org/2000/svg">
<rect width="1440" height="1024" fill="white"/>
<path d="M618.12 517.949L611.064 496.241C610.752 495.209 610.32 494.465 609.768 494.009C609.216 493.529 608.556 493.205 607.788 493.037L606.96 492.857V491.957L612.36 492.065L617.688 491.957V492.857L616.68 492.965C616.032 493.037 615.42 493.181 614.844 493.397C614.292 493.613 614.016 494.093 614.016 494.837C614.016 495.197 614.1 495.617 614.268 496.097L619.776 513.089L626.04 496.061C626.184 495.629 626.256 495.269 626.256 494.981C626.256 494.429 626.052 494.009 625.644 493.721C625.236 493.409 624.684 493.205 623.988 493.109L622.548 492.893L622.692 491.957L624.204 492.137C625.932 492.329 626.988 492.857 627.372 493.721C627.732 493.001 628.26 492.545 628.956 492.353C629.676 492.161 630.36 492.053 631.008 492.029L632.34 491.957L632.412 492.893L631.044 493.001C629.484 493.121 628.704 493.781 628.704 494.981C628.704 495.485 628.824 496.049 629.064 496.673L635.076 512.981L640.368 495.665C640.488 495.233 640.548 494.885 640.548 494.621C640.548 494.093 640.368 493.721 640.008 493.505C639.648 493.289 639.12 493.133 638.424 493.037L637.236 492.893V491.957L641.988 492.065L645.804 491.957V492.893L644.94 493.037C644.148 493.157 643.464 493.397 642.888 493.757C642.336 494.093 641.964 494.597 641.772 495.269L634.86 517.949H633.708L626.436 498.545L619.272 517.949H618.12ZM652.627 518.021C651.091 518.021 649.687 517.649 648.415 516.905C647.167 516.161 646.171 515.165 645.427 513.917C644.707 512.645 644.347 511.241 644.347 509.705C644.347 508.121 644.707 506.693 645.427 505.421C646.171 504.149 647.167 503.141 648.415 502.397C649.687 501.653 651.091 501.281 652.627 501.281C654.187 501.281 655.591 501.653 656.839 502.397C658.087 503.141 659.071 504.149 659.791 505.421C660.535 506.693 660.907 508.121 660.907 509.705C660.907 511.241 660.535 512.645 659.791 513.917C659.071 515.165 658.087 516.161 656.839 516.905C655.591 517.649 654.187 518.021 652.627 518.021ZM652.627 517.121C653.923 517.121 654.967 516.797 655.759 516.149C656.551 515.477 657.127 514.589 657.487 513.485C657.847 512.357 658.027 511.097 658.027 509.705C658.027 508.265 657.847 506.981 657.487 505.853C657.127 504.725 656.551 503.837 655.759 503.189C654.967 502.517 653.923 502.181 652.627 502.181C651.331 502.181 650.287 502.517 649.495 503.189C648.703 503.837 648.127 504.725 647.767 505.853C647.407 506.981 647.227 508.265 647.227 509.705C647.227 511.097 647.407 512.357 647.767 513.485C648.127 514.589 648.703 515.477 649.495 516.149C650.287 516.797 651.331 517.121 652.627 517.121ZM663.528 517.733V516.905L664.104 516.833C664.8 516.737 665.328 516.629 665.688 516.509C666.072 516.365 666.336 516.065 666.48 515.609C666.624 515.129 666.696 514.349 666.696 513.269V505.781C666.696 504.845 666.564 504.161 666.3 503.729C666.06 503.297 665.7 503.033 665.22 502.937C664.74 502.817 664.176 502.757 663.528 502.757V501.929C664.512 501.929 665.46 501.893 666.372 501.821C667.284 501.749 668.232 501.641 669.216 501.497L668.82 505.637H668.964C669.492 504.029 670.14 502.901 670.908 502.253C671.676 501.605 672.504 501.281 673.392 501.281C674.4 501.281 675.072 501.533 675.408 502.037C675.744 502.517 675.912 502.985 675.912 503.441C675.912 503.969 675.756 504.401 675.444 504.737C675.132 505.073 674.712 505.241 674.184 505.241C673.68 505.241 673.296 505.121 673.032 504.881C672.768 504.641 672.636 504.365 672.636 504.053C672.636 503.813 672.66 503.585 672.708 503.369C672.78 503.153 672.816 502.985 672.816 502.865C672.816 502.625 672.648 502.505 672.312 502.505C671.976 502.505 671.616 502.661 671.232 502.973C670.872 503.285 670.56 503.717 670.296 504.269C670.08 504.725 669.876 505.229 669.684 505.781C669.492 506.333 669.336 506.933 669.216 507.581V513.269C669.216 514.349 669.288 515.129 669.432 515.609C669.576 516.065 669.828 516.365 670.188 516.509C670.572 516.629 671.112 516.737 671.808 516.833L672.384 516.905V517.733L667.956 517.625L663.528 517.733ZM685.194 518.021C683.826 518.021 682.59 517.649 681.486 516.905C680.382 516.161 679.506 515.153 678.858 513.881C678.21 512.585 677.886 511.157 677.886 509.597C677.886 508.037 678.21 506.633 678.858 505.385C679.506 504.137 680.394 503.141 681.522 502.397C682.65 501.653 683.922 501.281 685.338 501.281C686.346 501.281 687.27 501.497 688.11 501.929C688.95 502.337 689.646 502.805 690.198 503.333V495.701C690.198 494.453 689.934 493.661 689.406 493.325C688.902 492.965 688.194 492.785 687.282 492.785H687.03V491.957C688.014 491.957 688.962 491.933 689.874 491.885C690.786 491.813 691.734 491.693 692.718 491.525V513.701C692.718 515.045 692.97 515.897 693.474 516.257C694.002 516.617 694.746 516.797 695.706 516.797V517.625H694.23C693.702 517.625 693.186 517.637 692.682 517.661C692.178 517.709 691.614 517.793 690.99 517.913L690.522 515.393C689.874 516.161 689.094 516.797 688.182 517.301C687.294 517.781 686.298 518.021 685.194 518.021ZM680.766 509.597C680.766 510.989 680.934 512.237 681.27 513.341C681.63 514.445 682.158 515.321 682.854 515.969C683.574 516.617 684.474 516.941 685.554 516.941C686.586 516.941 687.474 516.713 688.218 516.257C688.986 515.777 689.646 515.201 690.198 514.529V504.809C689.79 504.185 689.178 503.621 688.362 503.117C687.546 502.613 686.646 502.361 685.662 502.361C684.558 502.361 683.646 502.685 682.926 503.333C682.206 503.957 681.666 504.821 681.306 505.925C680.946 507.005 680.766 508.229 680.766 509.597ZM717.101 517.985L707.669 495.773C707.357 495.029 706.961 494.429 706.481 493.973C706.025 493.493 705.353 493.169 704.465 493.001L703.745 492.857V491.957L709.109 492.065L714.473 491.957V492.857L713.393 492.965C712.649 493.037 712.049 493.229 711.593 493.541C711.161 493.829 710.945 494.273 710.945 494.873C710.945 495.305 711.077 495.845 711.341 496.493L718.613 513.737L725.597 496.457C725.741 496.121 725.837 495.821 725.885 495.557C725.957 495.269 725.993 495.017 725.993 494.801C725.993 494.225 725.801 493.805 725.417 493.541C725.033 493.253 724.505 493.073 723.833 493.001L722.573 492.857V491.957L727.613 492.065L731.213 491.957V492.821L730.385 493.001C729.473 493.193 728.765 493.565 728.261 494.117C727.757 494.669 727.301 495.461 726.893 496.493L718.253 517.985H717.101ZM737.66 518.021C736.076 518.021 734.696 517.685 733.52 517.013C732.344 516.317 731.42 515.369 730.748 514.169C730.1 512.945 729.776 511.553 729.776 509.993C729.776 508.313 730.136 506.825 730.856 505.529C731.576 504.209 732.536 503.177 733.736 502.433C734.96 501.665 736.304 501.281 737.768 501.281C739.616 501.281 741.056 501.869 742.088 503.045C743.144 504.221 743.672 505.769 743.672 507.689C743.672 507.977 743.66 508.217 743.636 508.409C743.612 508.601 743.588 508.733 743.564 508.805H732.692C732.668 509.141 732.656 509.477 732.656 509.813C732.656 511.085 732.86 512.273 733.268 513.377C733.676 514.457 734.288 515.321 735.104 515.969C735.944 516.617 736.964 516.941 738.164 516.941C739.292 516.941 740.288 516.629 741.152 516.005C742.04 515.357 742.724 514.409 743.204 513.161L744.068 513.485C743.06 516.509 740.924 518.021 737.66 518.021ZM737.768 502.181C736.28 502.181 735.116 502.709 734.276 503.765C733.46 504.821 732.956 506.225 732.764 507.977H737.336C738.416 507.977 739.232 507.857 739.784 507.617C740.36 507.353 740.744 507.041 740.936 506.681C741.152 506.297 741.26 505.925 741.26 505.565C741.26 504.509 740.9 503.681 740.18 503.081C739.46 502.481 738.656 502.181 737.768 502.181ZM745.853 517.733V516.905L746.429 516.833C747.125 516.737 747.653 516.629 748.013 516.509C748.397 516.365 748.661 516.065 748.805 515.609C748.949 515.129 749.021 514.349 749.021 513.269V495.701C749.021 494.453 748.757 493.661 748.229 493.325C747.725 492.965 747.017 492.785 746.105 492.785H745.853V491.957C746.837 491.957 747.785 491.933 748.697 491.885C749.609 491.813 750.557 491.693 751.541 491.525V513.269C751.541 514.349 751.613 515.129 751.757 515.609C751.901 516.065 752.153 516.365 752.513 516.509C752.897 516.629 753.437 516.737 754.133 516.833L754.709 516.905V517.733L750.281 517.625L745.853 517.733ZM765.162 518.021C763.626 518.021 762.222 517.649 760.95 516.905C759.702 516.161 758.706 515.165 757.962 513.917C757.242 512.645 756.882 511.241 756.882 509.705C756.882 508.121 757.242 506.693 757.962 505.421C758.706 504.149 759.702 503.141 760.95 502.397C762.222 501.653 763.626 501.281 765.162 501.281C766.722 501.281 768.126 501.653 769.374 502.397C770.622 503.141 771.606 504.149 772.326 505.421C773.07 506.693 773.442 508.121 773.442 509.705C773.442 511.241 773.07 512.645 772.326 513.917C771.606 515.165 770.622 516.161 769.374 516.905C768.126 517.649 766.722 518.021 765.162 518.021ZM765.162 517.121C766.458 517.121 767.502 516.797 768.294 516.149C769.086 515.477 769.662 514.589 770.022 513.485C770.382 512.357 770.562 511.097 770.562 509.705C770.562 508.265 770.382 506.981 770.022 505.853C769.662 504.725 769.086 503.837 768.294 503.189C767.502 502.517 766.458 502.181 765.162 502.181C763.866 502.181 762.822 502.517 762.03 503.189C761.238 503.837 760.662 504.725 760.302 505.853C759.942 506.981 759.762 508.265 759.762 509.705C759.762 511.097 759.942 512.357 760.302 513.485C760.662 514.589 761.238 515.477 762.03 516.149C762.822 516.797 763.866 517.121 765.162 517.121ZM784.631 518.021C783.023 518.021 781.619 517.673 780.419 516.977C779.219 516.281 778.295 515.333 777.647 514.133C776.999 512.933 776.675 511.565 776.675 510.029C776.675 508.349 777.047 506.849 777.791 505.529C778.535 504.209 779.543 503.177 780.815 502.433C782.087 501.665 783.527 501.281 785.135 501.281C785.903 501.281 786.695 501.401 787.511 501.641C788.327 501.881 789.011 502.241 789.563 502.721C790.139 503.201 790.427 503.789 790.427 504.485C790.427 505.013 790.259 505.457 789.923 505.817C789.587 506.153 789.179 506.321 788.699 506.321C788.075 506.321 787.607 506.141 787.295 505.781C786.983 505.421 786.827 505.061 786.827 504.701C786.827 504.509 786.839 504.341 786.863 504.197C786.911 504.053 786.947 503.921 786.971 503.801C787.019 503.681 787.055 503.561 787.079 503.441C787.103 503.297 787.115 503.153 787.115 503.009C787.115 502.673 786.863 502.457 786.359 502.361C785.879 502.241 785.459 502.181 785.099 502.181C783.419 502.181 782.075 502.889 781.067 504.305C780.059 505.697 779.555 507.545 779.555 509.849C779.555 511.121 779.771 512.297 780.203 513.377C780.635 514.457 781.259 515.321 782.075 515.969C782.915 516.617 783.947 516.941 785.171 516.941C786.179 516.941 787.139 516.665 788.051 516.113C788.963 515.537 789.623 514.565 790.031 513.197L790.895 513.485C790.439 515.141 789.623 516.317 788.447 517.013C787.271 517.685 785.999 518.021 784.631 518.021ZM792.973 517.733V516.905L793.549 516.833C794.245 516.737 794.773 516.629 795.133 516.509C795.517 516.365 795.781 516.065 795.925 515.609C796.069 515.129 796.141 514.349 796.141 513.269V505.673C796.141 504.425 795.877 503.633 795.349 503.297C794.845 502.937 794.137 502.757 793.225 502.757H792.973V501.929C793.957 501.929 794.905 501.905 795.817 501.857C796.729 501.785 797.677 501.665 798.661 501.497V513.269C798.661 514.349 798.733 515.129 798.877 515.609C799.021 516.065 799.273 516.365 799.633 516.509C800.017 516.629 800.557 516.737 801.253 516.833L801.829 516.905V517.733L797.401 517.625L792.973 517.733ZM796.969 497.285C796.345 497.285 795.853 497.069 795.493 496.637C795.133 496.205 794.953 495.689 794.953 495.089C794.953 494.465 795.133 493.949 795.493 493.541C795.853 493.109 796.345 492.893 796.969 492.893C797.665 492.893 798.169 493.109 798.481 493.541C798.817 493.949 798.985 494.465 798.985 495.089C798.985 495.689 798.817 496.205 798.481 496.637C798.169 497.069 797.665 497.285 796.969 497.285ZM809.899 518.021C808.723 518.021 807.763 517.673 807.019 516.977C806.299 516.257 805.939 515.093 805.939 513.485V502.829H803.275V501.929L804.247 501.857C805.231 501.785 805.975 501.389 806.479 500.669C807.007 499.925 807.355 498.893 807.523 497.573H808.459V501.929H813.067V502.829H808.459V513.629C808.459 515.741 809.203 516.797 810.691 516.797C811.315 516.797 811.819 516.593 812.203 516.185C812.587 515.753 812.935 515.225 813.247 514.601L814.039 514.997C813.895 515.357 813.715 515.693 813.499 516.005C813.307 516.293 813.115 516.545 812.923 516.761C812.515 517.217 812.047 517.541 811.519 517.733C811.015 517.925 810.475 518.021 809.899 518.021ZM815.763 528.209C814.947 528.209 814.335 528.005 813.927 527.597C813.519 527.213 813.315 526.781 813.315 526.301C813.315 525.821 813.495 525.413 813.855 525.077C814.191 524.765 814.623 524.609 815.151 524.609C815.487 524.609 815.751 524.657 815.943 524.753C816.135 524.873 816.315 524.993 816.483 525.113C816.651 525.233 816.843 525.353 817.059 525.473C817.275 525.617 817.527 525.689 817.815 525.689C818.247 525.689 818.691 525.521 819.147 525.185C819.627 524.849 820.119 524.153 820.623 523.097L822.999 517.985L817.023 504.881C816.783 504.329 816.519 503.873 816.231 503.513C815.943 503.153 815.499 502.937 814.899 502.865L814.071 502.757V501.929L817.815 502.037L821.451 501.929V502.757L820.947 502.829C819.939 502.973 819.435 503.345 819.435 503.945C819.435 504.233 819.567 504.665 819.831 505.241L824.331 515.105L828.831 505.421C829.095 504.821 829.227 504.353 829.227 504.017C829.227 503.369 828.639 502.973 827.463 502.829L826.887 502.757V501.929L830.343 502.037L833.223 501.929V502.757L832.683 502.829C831.795 502.949 831.147 503.273 830.739 503.801C830.355 504.329 829.995 504.977 829.659 505.745L821.523 523.493C821.139 524.309 820.683 525.077 820.155 525.797C819.651 526.517 819.039 527.093 818.319 527.525C817.623 527.981 816.771 528.209 815.763 528.209Z" fill="black"/>
<path d="M777 421.25C777 453.821 745.071 474.125 712.5 474.125C679.929 474.125 648 421.25 648 421.25C648 421.25 679.929 368.375 712.5 368.375C745.071 368.375 777 388.679 777 421.25Z" fill="#D9D9D9"/>
<path d="M735.375 420.875C735.375 433.083 725.145 443 712.5 443C699.855 443 689.625 433.083 689.625 420.875C689.625 408.667 699.855 398.75 712.5 398.75C725.145 398.75 735.375 408.667 735.375 420.875Z" fill="#8D8282" stroke="#8D8282" stroke-width="0.75"/>
</svg>
