<svg width="454" height="321" viewBox="0 0 454 321" fill="none" xmlns="http://www.w3.org/2000/svg">
<path d="M22.74 299.898L8.628 256.482C8.004 254.418 7.14 252.93 6.036 252.018C4.932 251.058 3.612 250.41 2.076 250.074L0.42 249.714V247.914L11.22 248.13L21.876 247.914V249.714L19.86 249.93C18.564 250.074 17.34 250.362 16.188 250.794C15.084 251.226 14.532 252.186 14.532 253.674C14.532 254.394 14.7 255.234 15.036 256.194L26.052 290.178L38.58 256.122C38.868 255.258 39.012 254.538 39.012 253.962C39.012 252.858 38.604 252.018 37.788 251.442C36.972 250.818 35.868 250.41 34.476 250.218L31.596 249.786L31.884 247.914L34.908 248.274C38.364 248.658 40.476 249.714 41.244 251.442C41.964 250.002 43.02 249.09 44.412 248.706C45.852 248.322 47.22 248.106 48.516 248.058L51.18 247.914L51.324 249.786L48.588 250.002C45.468 250.242 43.908 251.562 43.908 253.962C43.908 254.97 44.148 256.098 44.628 257.346L56.652 289.962L67.236 255.33C67.476 254.466 67.596 253.77 67.596 253.242C67.596 252.186 67.236 251.442 66.516 251.01C65.796 250.578 64.74 250.266 63.348 250.074L60.972 249.786V247.914L70.476 248.13L78.108 247.914V249.786L76.38 250.074C74.796 250.314 73.428 250.794 72.276 251.514C71.172 252.186 70.428 253.194 70.044 254.538L56.22 299.898H53.916L39.372 261.09L25.044 299.898H22.74ZM91.7531 300.042C88.6811 300.042 85.8731 299.298 83.3291 297.81C80.8331 296.322 78.8411 294.33 77.3531 291.834C75.9131 289.29 75.1931 286.482 75.1931 283.41C75.1931 280.242 75.9131 277.386 77.3531 274.842C78.8411 272.298 80.8331 270.282 83.3291 268.794C85.8731 267.306 88.6811 266.562 91.7531 266.562C94.8731 266.562 97.6811 267.306 100.177 268.794C102.673 270.282 104.641 272.298 106.081 274.842C107.569 277.386 108.313 280.242 108.313 283.41C108.313 286.482 107.569 289.29 106.081 291.834C104.641 294.33 102.673 296.322 100.177 297.81C97.6811 299.298 94.8731 300.042 91.7531 300.042ZM91.7531 298.242C94.3451 298.242 96.4331 297.594 98.0171 296.298C99.6011 294.954 100.753 293.178 101.473 290.97C102.193 288.714 102.553 286.194 102.553 283.41C102.553 280.53 102.193 277.962 101.473 275.706C100.753 273.45 99.6011 271.674 98.0171 270.378C96.4331 269.034 94.3451 268.362 91.7531 268.362C89.1611 268.362 87.0731 269.034 85.4891 270.378C83.9051 271.674 82.7531 273.45 82.0331 275.706C81.3131 277.962 80.9531 280.53 80.9531 283.41C80.9531 286.194 81.3131 288.714 82.0331 290.97C82.7531 293.178 83.9051 294.954 85.4891 296.298C87.0731 297.594 89.1611 298.242 91.7531 298.242ZM113.555 299.466V297.81L114.707 297.666C116.099 297.474 117.155 297.258 117.875 297.018C118.643 296.73 119.171 296.13 119.459 295.218C119.747 294.258 119.891 292.698 119.891 290.538V275.562C119.891 273.69 119.627 272.322 119.099 271.458C118.619 270.594 117.899 270.066 116.939 269.874C115.979 269.634 114.851 269.514 113.555 269.514V267.858C115.523 267.858 117.419 267.786 119.243 267.642C121.067 267.498 122.963 267.282 124.931 266.994L124.139 275.274H124.427C125.483 272.058 126.779 269.802 128.315 268.506C129.851 267.21 131.507 266.562 133.283 266.562C135.299 266.562 136.643 267.066 137.315 268.074C137.987 269.034 138.323 269.97 138.323 270.882C138.323 271.938 138.011 272.802 137.387 273.474C136.763 274.146 135.923 274.482 134.867 274.482C133.859 274.482 133.091 274.242 132.563 273.762C132.035 273.282 131.771 272.73 131.771 272.106C131.771 271.626 131.819 271.17 131.915 270.738C132.059 270.306 132.131 269.97 132.131 269.73C132.131 269.25 131.795 269.01 131.123 269.01C130.451 269.01 129.731 269.322 128.963 269.946C128.243 270.57 127.619 271.434 127.091 272.538C126.659 273.45 126.251 274.458 125.867 275.562C125.483 276.666 125.171 277.866 124.931 279.162V290.538C124.931 292.698 125.075 294.258 125.363 295.218C125.651 296.13 126.155 296.73 126.875 297.018C127.643 297.258 128.723 297.474 130.115 297.666L131.267 297.81V299.466L122.411 299.25L113.555 299.466ZM156.887 300.042C154.151 300.042 151.679 299.298 149.471 297.81C147.263 296.322 145.511 294.306 144.215 291.762C142.919 289.17 142.271 286.314 142.271 283.194C142.271 280.074 142.919 277.266 144.215 274.77C145.511 272.274 147.287 270.282 149.543 268.794C151.799 267.306 154.343 266.562 157.175 266.562C159.191 266.562 161.039 266.994 162.719 267.858C164.399 268.674 165.791 269.61 166.895 270.666V255.402C166.895 252.906 166.367 251.322 165.311 250.65C164.303 249.93 162.887 249.57 161.063 249.57H160.559V247.914C162.527 247.914 164.423 247.866 166.247 247.77C168.071 247.626 169.967 247.386 171.935 247.05V291.402C171.935 294.09 172.439 295.794 173.447 296.514C174.503 297.234 175.991 297.594 177.911 297.594V299.25H174.959C173.903 299.25 172.871 299.274 171.863 299.322C170.855 299.418 169.727 299.586 168.479 299.826L167.543 294.786C166.247 296.322 164.687 297.594 162.863 298.602C161.087 299.562 159.095 300.042 156.887 300.042ZM148.031 283.194C148.031 285.978 148.367 288.474 149.039 290.682C149.759 292.89 150.815 294.642 152.207 295.938C153.647 297.234 155.447 297.882 157.607 297.882C159.671 297.882 161.447 297.426 162.935 296.514C164.471 295.554 165.791 294.402 166.895 293.058V273.618C166.079 272.37 164.855 271.242 163.223 270.234C161.591 269.226 159.791 268.722 157.823 268.722C155.615 268.722 153.791 269.37 152.351 270.666C150.911 271.914 149.831 273.642 149.111 275.85C148.391 278.01 148.031 280.458 148.031 283.194ZM220.702 299.97L201.838 255.546C201.214 254.058 200.422 252.858 199.462 251.946C198.55 250.986 197.206 250.338 195.43 250.002L193.99 249.714V247.914L204.718 248.13L215.446 247.914V249.714L213.286 249.93C211.798 250.074 210.598 250.458 209.686 251.082C208.822 251.658 208.39 252.546 208.39 253.746C208.39 254.61 208.654 255.69 209.182 256.986L223.726 291.474L237.694 256.914C237.982 256.242 238.174 255.642 238.27 255.114C238.414 254.538 238.486 254.034 238.486 253.602C238.486 252.45 238.102 251.61 237.334 251.082C236.566 250.506 235.51 250.146 234.166 250.002L231.646 249.714V247.914L241.726 248.13L248.926 247.914V249.642L247.27 250.002C245.446 250.386 244.03 251.13 243.022 252.234C242.014 253.338 241.102 254.922 240.286 256.986L223.006 299.97H220.702ZM261.82 300.042C258.653 300.042 255.893 299.37 253.541 298.026C251.189 296.634 249.341 294.738 247.997 292.338C246.701 289.89 246.053 287.106 246.053 283.986C246.053 280.626 246.773 277.65 248.213 275.058C249.653 272.418 251.573 270.354 253.973 268.866C256.421 267.33 259.109 266.562 262.037 266.562C265.733 266.562 268.613 267.738 270.677 270.09C272.789 272.442 273.845 275.538 273.845 279.378C273.845 279.954 273.821 280.434 273.773 280.818C273.725 281.202 273.677 281.466 273.629 281.61H251.885C251.837 282.282 251.812 282.954 251.812 283.626C251.812 286.17 252.221 288.546 253.037 290.754C253.853 292.914 255.077 294.642 256.709 295.938C258.389 297.234 260.429 297.882 262.829 297.882C265.085 297.882 267.077 297.258 268.805 296.01C270.581 294.714 271.949 292.818 272.909 290.322L274.637 290.97C272.621 297.018 268.349 300.042 261.82 300.042ZM262.037 268.362C259.061 268.362 256.733 269.418 255.053 271.53C253.421 273.642 252.413 276.45 252.029 279.954H261.173C263.333 279.954 264.965 279.714 266.069 279.234C267.221 278.706 267.989 278.082 268.373 277.362C268.805 276.594 269.021 275.85 269.021 275.13C269.021 273.018 268.301 271.362 266.861 270.162C265.421 268.962 263.813 268.362 262.037 268.362ZM278.205 299.466V297.81L279.357 297.666C280.749 297.474 281.805 297.258 282.525 297.018C283.293 296.73 283.821 296.13 284.109 295.218C284.397 294.258 284.541 292.698 284.541 290.538V255.402C284.541 252.906 284.013 251.322 282.957 250.65C281.949 249.93 280.533 249.57 278.709 249.57H278.205V247.914C280.173 247.914 282.069 247.866 283.893 247.77C285.717 247.626 287.613 247.386 289.581 247.05V290.538C289.581 292.698 289.725 294.258 290.013 295.218C290.301 296.13 290.805 296.73 291.525 297.018C292.293 297.258 293.373 297.474 294.765 297.666L295.917 297.81V299.466L287.061 299.25L278.205 299.466ZM316.823 300.042C313.751 300.042 310.943 299.298 308.399 297.81C305.903 296.322 303.911 294.33 302.423 291.834C300.983 289.29 300.263 286.482 300.263 283.41C300.263 280.242 300.983 277.386 302.423 274.842C303.911 272.298 305.903 270.282 308.399 268.794C310.943 267.306 313.751 266.562 316.823 266.562C319.943 266.562 322.751 267.306 325.247 268.794C327.743 270.282 329.711 272.298 331.151 274.842C332.639 277.386 333.383 280.242 333.383 283.41C333.383 286.482 332.639 289.29 331.151 291.834C329.711 294.33 327.743 296.322 325.247 297.81C322.751 299.298 319.943 300.042 316.823 300.042ZM316.823 298.242C319.415 298.242 321.503 297.594 323.087 296.298C324.671 294.954 325.823 293.178 326.543 290.97C327.263 288.714 327.623 286.194 327.623 283.41C327.623 280.53 327.263 277.962 326.543 275.706C325.823 273.45 324.671 271.674 323.087 270.378C321.503 269.034 319.415 268.362 316.823 268.362C314.231 268.362 312.143 269.034 310.559 270.378C308.975 271.674 307.823 273.45 307.103 275.706C306.383 277.962 306.023 280.53 306.023 283.41C306.023 286.194 306.383 288.714 307.103 290.97C307.823 293.178 308.975 294.954 310.559 296.298C312.143 297.594 314.231 298.242 316.823 298.242ZM355.761 300.042C352.545 300.042 349.737 299.346 347.337 297.954C344.937 296.562 343.089 294.666 341.793 292.266C340.497 289.866 339.849 287.13 339.849 284.058C339.849 280.698 340.593 277.698 342.081 275.058C343.569 272.418 345.585 270.354 348.129 268.866C350.673 267.33 353.553 266.562 356.769 266.562C358.305 266.562 359.889 266.802 361.521 267.282C363.153 267.762 364.521 268.482 365.625 269.442C366.777 270.402 367.353 271.578 367.353 272.97C367.353 274.026 367.017 274.914 366.345 275.634C365.673 276.306 364.857 276.642 363.897 276.642C362.649 276.642 361.713 276.282 361.089 275.562C360.465 274.842 360.153 274.122 360.153 273.402C360.153 273.018 360.177 272.682 360.225 272.394C360.321 272.106 360.393 271.842 360.441 271.602C360.537 271.362 360.609 271.122 360.657 270.882C360.705 270.594 360.729 270.306 360.729 270.018C360.729 269.346 360.225 268.914 359.217 268.722C358.257 268.482 357.417 268.362 356.697 268.362C353.337 268.362 350.649 269.778 348.633 272.61C346.617 275.394 345.609 279.09 345.609 283.698C345.609 286.242 346.041 288.594 346.905 290.754C347.769 292.914 349.017 294.642 350.649 295.938C352.329 297.234 354.393 297.882 356.841 297.882C358.857 297.882 360.777 297.33 362.601 296.226C364.425 295.074 365.745 293.13 366.561 290.394L368.289 290.97C367.377 294.282 365.745 296.634 363.393 298.026C361.041 299.37 358.497 300.042 355.761 300.042ZM372.446 299.466V297.81L373.598 297.666C374.99 297.474 376.046 297.258 376.766 297.018C377.534 296.73 378.062 296.13 378.35 295.218C378.638 294.258 378.782 292.698 378.782 290.538V275.346C378.782 272.85 378.254 271.266 377.198 270.594C376.19 269.874 374.774 269.514 372.95 269.514H372.446V267.858C374.414 267.858 376.31 267.81 378.134 267.714C379.958 267.57 381.854 267.33 383.822 266.994V290.538C383.822 292.698 383.966 294.258 384.254 295.218C384.542 296.13 385.046 296.73 385.766 297.018C386.534 297.258 387.614 297.474 389.006 297.666L390.158 297.81V299.466L381.302 299.25L372.446 299.466ZM380.438 258.57C379.19 258.57 378.206 258.138 377.486 257.274C376.766 256.41 376.406 255.378 376.406 254.178C376.406 252.93 376.766 251.898 377.486 251.082C378.206 250.218 379.19 249.786 380.438 249.786C381.83 249.786 382.838 250.218 383.462 251.082C384.134 251.898 384.47 252.93 384.47 254.178C384.47 255.378 384.134 256.41 383.462 257.274C382.838 258.138 381.83 258.57 380.438 258.57ZM406.299 300.042C403.947 300.042 402.027 299.346 400.539 297.954C399.099 296.514 398.379 294.186 398.379 290.97V269.658H393.051V267.858L394.995 267.714C396.963 267.57 398.451 266.778 399.459 265.338C400.515 263.85 401.211 261.786 401.547 259.146H403.419V267.858H412.635V269.658H403.419V291.258C403.419 295.482 404.907 297.594 407.883 297.594C409.131 297.594 410.139 297.186 410.907 296.37C411.675 295.506 412.371 294.45 412.995 293.202L414.579 293.994C414.291 294.714 413.931 295.386 413.499 296.01C413.115 296.586 412.731 297.09 412.347 297.522C411.531 298.434 410.595 299.082 409.539 299.466C408.531 299.85 407.451 300.042 406.299 300.042ZM418.025 320.418C416.393 320.418 415.169 320.01 414.353 319.194C413.537 318.426 413.129 317.562 413.129 316.602C413.129 315.642 413.489 314.826 414.209 314.154C414.881 313.53 415.745 313.218 416.801 313.218C417.473 313.218 418.001 313.314 418.385 313.506C418.769 313.746 419.129 313.986 419.465 314.226C419.801 314.466 420.185 314.706 420.617 314.946C421.049 315.234 421.553 315.378 422.129 315.378C422.993 315.378 423.881 315.042 424.793 314.37C425.753 313.698 426.737 312.306 427.745 310.194L432.497 299.97L420.545 273.762C420.065 272.658 419.537 271.746 418.961 271.026C418.385 270.306 417.497 269.874 416.297 269.73L414.641 269.514V267.858L422.129 268.074L429.401 267.858V269.514L428.393 269.658C426.377 269.946 425.369 270.69 425.369 271.89C425.369 272.466 425.633 273.33 426.161 274.482L435.161 294.21L444.161 274.842C444.689 273.642 444.953 272.706 444.953 272.034C444.953 270.738 443.777 269.946 441.425 269.658L440.273 269.514V267.858L447.185 268.074L452.945 267.858V269.514L451.865 269.658C450.089 269.898 448.793 270.546 447.977 271.602C447.209 272.658 446.489 273.954 445.817 275.49L429.545 310.986C428.777 312.618 427.865 314.154 426.809 315.594C425.801 317.034 424.577 318.186 423.137 319.05C421.745 319.962 420.041 320.418 418.025 320.418Z" fill="black"/>
<path d="M340.5 106.5C340.5 171.642 276.642 212.25 211.5 212.25C146.358 212.25 82.5 106.5 82.5 106.5C82.5 106.5 146.358 0.75 211.5 0.75C276.642 0.75 340.5 41.3584 340.5 106.5Z" fill="#D9D9D9"/>
<path d="M257.25 105.75C257.25 130.166 236.79 150 211.5 150C186.21 150 165.75 130.166 165.75 105.75C165.75 81.3344 186.21 61.5 211.5 61.5C236.79 61.5 257.25 81.3344 257.25 105.75Z" fill="#8D8282" stroke="#8D8282" stroke-width="1.5"/>
<path d="M189.75 106.5C189.75 110.315 188.772 113.734 187.23 116.176C185.682 118.627 183.637 120 181.5 120C179.363 120 177.318 118.627 175.77 116.176C174.228 113.734 173.25 110.315 173.25 106.5C173.25 102.685 174.228 99.2656 175.77 96.8242C177.318 94.3733 179.363 93 181.5 93C183.637 93 185.682 94.3733 187.23 96.8242C188.772 99.2656 189.75 102.685 189.75 106.5Z" fill="white" stroke="#8D8282" stroke-width="1.5"/>
</svg>
