<svg width="302" height="50" viewBox="0 0 302 50" fill="none" xmlns="http://www.w3.org/2000/svg">
<path d="M15.16 35.432L5.752 6.488C5.336 5.112 4.76 4.12 4.024 3.512C3.288 2.872 2.408 2.44 1.384 2.216L0.28 1.976V0.775997L7.48 0.919998L14.584 0.775997V1.976L13.24 2.12C12.376 2.216 11.56 2.408 10.792 2.696C10.056 2.984 9.688 3.624 9.688 4.616C9.688 5.096 9.8 5.656 10.024 6.296L17.368 28.952L25.72 6.248C25.912 5.672 26.008 5.192 26.008 4.808C26.008 4.072 25.736 3.512 25.192 3.128C24.648 2.712 23.912 2.44 22.984 2.312L21.064 2.024L21.256 0.775997L23.272 1.016C25.576 1.272 26.984 1.976 27.496 3.128C27.976 2.168 28.68 1.56 29.608 1.304C30.568 1.048 31.48 0.903998 32.344 0.871999L34.12 0.775997L34.216 2.024L32.392 2.168C30.312 2.328 29.272 3.208 29.272 4.808C29.272 5.48 29.432 6.232 29.752 7.064L37.768 28.808L44.824 5.72C44.984 5.144 45.064 4.68 45.064 4.328C45.064 3.624 44.824 3.128 44.344 2.84C43.864 2.552 43.16 2.344 42.232 2.216L40.648 2.024V0.775997L46.984 0.919998L52.072 0.775997V2.024L50.92 2.216C49.864 2.376 48.952 2.696 48.184 3.176C47.448 3.624 46.952 4.296 46.696 5.192L37.48 35.432H35.944L26.248 9.56L16.696 35.432H15.16ZM61.1688 35.528C59.1208 35.528 57.2488 35.032 55.5528 34.04C53.8888 33.048 52.5608 31.72 51.5688 30.056C50.6088 28.36 50.1288 26.488 50.1288 24.44C50.1288 22.328 50.6088 20.424 51.5688 18.728C52.5608 17.032 53.8888 15.688 55.5528 14.696C57.2488 13.704 59.1208 13.208 61.1688 13.208C63.2488 13.208 65.1208 13.704 66.7848 14.696C68.4488 15.688 69.7608 17.032 70.7208 18.728C71.7128 20.424 72.2087 22.328 72.2087 24.44C72.2087 26.488 71.7128 28.36 70.7208 30.056C69.7608 31.72 68.4488 33.048 66.7848 34.04C65.1208 35.032 63.2488 35.528 61.1688 35.528ZM61.1688 34.328C62.8968 34.328 64.2888 33.896 65.3448 33.032C66.4008 32.136 67.1688 30.952 67.6488 29.48C68.1288 27.976 68.3688 26.296 68.3688 24.44C68.3688 22.52 68.1288 20.808 67.6488 19.304C67.1688 17.8 66.4008 16.616 65.3448 15.752C64.2888 14.856 62.8968 14.408 61.1688 14.408C59.4408 14.408 58.0488 14.856 56.9928 15.752C55.9368 16.616 55.1688 17.8 54.6888 19.304C54.2088 20.808 53.9688 22.52 53.9688 24.44C53.9688 26.296 54.2088 27.976 54.6888 29.48C55.1688 30.952 55.9368 32.136 56.9928 33.032C58.0488 33.896 59.4408 34.328 61.1688 34.328ZM75.7034 35.144V34.04L76.4714 33.944C77.3994 33.816 78.1034 33.672 78.5834 33.512C79.0954 33.32 79.4474 32.92 79.6394 32.312C79.8314 31.672 79.9274 30.632 79.9274 29.192V19.208C79.9274 17.96 79.7514 17.048 79.3994 16.472C79.0794 15.896 78.5994 15.544 77.9594 15.416C77.3194 15.256 76.5674 15.176 75.7034 15.176V14.072C77.0154 14.072 78.2794 14.024 79.4954 13.928C80.7114 13.832 81.9754 13.688 83.2874 13.496L82.7594 19.016H82.9514C83.6554 16.872 84.5194 15.368 85.5434 14.504C86.5674 13.64 87.6714 13.208 88.8554 13.208C90.1994 13.208 91.0954 13.544 91.5434 14.216C91.9914 14.856 92.2154 15.48 92.2154 16.088C92.2154 16.792 92.0074 17.368 91.5914 17.816C91.1754 18.264 90.6154 18.488 89.9114 18.488C89.2394 18.488 88.7274 18.328 88.3754 18.008C88.0234 17.688 87.8474 17.32 87.8474 16.904C87.8474 16.584 87.8794 16.28 87.9434 15.992C88.0394 15.704 88.0874 15.48 88.0874 15.32C88.0874 15 87.8634 14.84 87.4154 14.84C86.9674 14.84 86.4874 15.048 85.9754 15.464C85.4954 15.88 85.0794 16.456 84.7274 17.192C84.4394 17.8 84.1674 18.472 83.9114 19.208C83.6554 19.944 83.4474 20.744 83.2874 21.608V29.192C83.2874 30.632 83.3834 31.672 83.5754 32.312C83.7674 32.92 84.1034 33.32 84.5834 33.512C85.0954 33.672 85.8154 33.816 86.7434 33.944L87.5114 34.04V35.144L81.6074 35L75.7034 35.144ZM104.592 35.528C102.768 35.528 101.12 35.032 99.6475 34.04C98.1755 33.048 97.0075 31.704 96.1435 30.008C95.2795 28.28 94.8475 26.376 94.8475 24.296C94.8475 22.216 95.2795 20.344 96.1435 18.68C97.0075 17.016 98.1915 15.688 99.6955 14.696C101.2 13.704 102.896 13.208 104.784 13.208C106.128 13.208 107.36 13.496 108.48 14.072C109.6 14.616 110.528 15.24 111.264 15.944V5.768C111.264 4.104 110.912 3.048 110.208 2.6C109.536 2.12 108.592 1.88 107.376 1.88H107.04V0.775997C108.352 0.775997 109.616 0.743998 110.832 0.679998C112.048 0.583998 113.312 0.423998 114.624 0.199999V29.768C114.624 31.56 114.96 32.696 115.632 33.176C116.336 33.656 117.328 33.896 118.608 33.896V35H116.64C115.936 35 115.248 35.016 114.576 35.048C113.904 35.112 113.152 35.224 112.32 35.384L111.696 32.024C110.832 33.048 109.792 33.896 108.576 34.568C107.392 35.208 106.064 35.528 104.592 35.528ZM98.6875 24.296C98.6875 26.152 98.9115 27.816 99.3595 29.288C99.8395 30.76 100.544 31.928 101.472 32.792C102.432 33.656 103.632 34.088 105.072 34.088C106.448 34.088 107.632 33.784 108.624 33.176C109.648 32.536 110.528 31.768 111.264 30.872V17.912C110.72 17.08 109.904 16.328 108.816 15.656C107.728 14.984 106.528 14.648 105.216 14.648C103.744 14.648 102.528 15.08 101.568 15.944C100.608 16.776 99.8875 17.928 99.4075 19.4C98.9275 20.84 98.6875 22.472 98.6875 24.296ZM147.135 35.48L134.559 5.864C134.143 4.872 133.615 4.072 132.975 3.464C132.367 2.824 131.471 2.392 130.287 2.168L129.327 1.976V0.775997L136.479 0.919998L143.631 0.775997V1.976L142.191 2.12C141.199 2.216 140.399 2.472 139.791 2.888C139.215 3.272 138.927 3.864 138.927 4.664C138.927 5.24 139.103 5.96 139.455 6.824L149.151 29.816L158.463 6.776C158.655 6.328 158.783 5.928 158.847 5.576C158.943 5.192 158.991 4.856 158.991 4.568C158.991 3.8 158.735 3.24 158.223 2.888C157.711 2.504 157.007 2.264 156.111 2.168L154.431 1.976V0.775997L161.151 0.919998L165.951 0.775997V1.928L164.847 2.168C163.631 2.424 162.687 2.92 162.015 3.656C161.343 4.392 160.735 5.448 160.191 6.824L148.671 35.48H147.135ZM174.547 35.528C172.435 35.528 170.595 35.08 169.027 34.184C167.459 33.256 166.227 31.992 165.331 30.392C164.467 28.76 164.035 26.904 164.035 24.824C164.035 22.584 164.515 20.6 165.475 18.872C166.435 17.112 167.715 15.736 169.315 14.744C170.947 13.72 172.739 13.208 174.691 13.208C177.155 13.208 179.075 13.992 180.451 15.56C181.859 17.128 182.563 19.192 182.563 21.752C182.563 22.136 182.547 22.456 182.515 22.712C182.483 22.968 182.451 23.144 182.419 23.24H167.923C167.891 23.688 167.875 24.136 167.875 24.584C167.875 26.28 168.147 27.864 168.691 29.336C169.235 30.776 170.051 31.928 171.139 32.792C172.259 33.656 173.619 34.088 175.219 34.088C176.723 34.088 178.051 33.672 179.203 32.84C180.387 31.976 181.299 30.712 181.939 29.048L183.091 29.48C181.747 33.512 178.899 35.528 174.547 35.528ZM174.691 14.408C172.707 14.408 171.155 15.112 170.035 16.52C168.947 17.928 168.275 19.8 168.019 22.136H174.115C175.555 22.136 176.643 21.976 177.379 21.656C178.147 21.304 178.659 20.888 178.915 20.408C179.203 19.896 179.347 19.4 179.347 18.92C179.347 17.512 178.867 16.408 177.907 15.608C176.947 14.808 175.875 14.408 174.691 14.408ZM185.47 35.144V34.04L186.238 33.944C187.166 33.816 187.87 33.672 188.35 33.512C188.862 33.32 189.214 32.92 189.406 32.312C189.598 31.672 189.694 30.632 189.694 29.192V5.768C189.694 4.104 189.342 3.048 188.638 2.6C187.966 2.12 187.022 1.88 185.806 1.88H185.47V0.775997C186.782 0.775997 188.046 0.743998 189.262 0.679998C190.478 0.583998 191.742 0.423998 193.054 0.199999V29.192C193.054 30.632 193.15 31.672 193.342 32.312C193.534 32.92 193.87 33.32 194.35 33.512C194.862 33.672 195.582 33.816 196.51 33.944L197.278 34.04V35.144L191.374 35L185.47 35.144ZM211.216 35.528C209.168 35.528 207.296 35.032 205.6 34.04C203.936 33.048 202.608 31.72 201.616 30.056C200.656 28.36 200.176 26.488 200.176 24.44C200.176 22.328 200.656 20.424 201.616 18.728C202.608 17.032 203.936 15.688 205.6 14.696C207.296 13.704 209.168 13.208 211.216 13.208C213.296 13.208 215.168 13.704 216.832 14.696C218.496 15.688 219.808 17.032 220.768 18.728C221.76 20.424 222.256 22.328 222.256 24.44C222.256 26.488 221.76 28.36 220.768 30.056C219.808 31.72 218.496 33.048 216.832 34.04C215.168 35.032 213.296 35.528 211.216 35.528ZM211.216 34.328C212.944 34.328 214.336 33.896 215.392 33.032C216.448 32.136 217.216 30.952 217.696 29.48C218.176 27.976 218.416 26.296 218.416 24.44C218.416 22.52 218.176 20.808 217.696 19.304C217.216 17.8 216.448 16.616 215.392 15.752C214.336 14.856 212.944 14.408 211.216 14.408C209.488 14.408 208.096 14.856 207.04 15.752C205.984 16.616 205.216 17.8 204.736 19.304C204.256 20.808 204.016 22.52 204.016 24.44C204.016 26.296 204.256 27.976 204.736 29.48C205.216 30.952 205.984 32.136 207.04 33.032C208.096 33.896 209.488 34.328 211.216 34.328ZM237.174 35.528C235.03 35.528 233.158 35.064 231.558 34.136C229.958 33.208 228.726 31.944 227.862 30.344C226.998 28.744 226.566 26.92 226.566 24.872C226.566 22.632 227.062 20.632 228.054 18.872C229.046 17.112 230.39 15.736 232.086 14.744C233.782 13.72 235.702 13.208 237.846 13.208C238.87 13.208 239.926 13.368 241.014 13.688C242.102 14.008 243.014 14.488 243.75 15.128C244.518 15.768 244.902 16.552 244.902 17.48C244.902 18.184 244.678 18.776 244.23 19.256C243.782 19.704 243.238 19.928 242.598 19.928C241.766 19.928 241.142 19.688 240.726 19.208C240.31 18.728 240.102 18.248 240.102 17.768C240.102 17.512 240.118 17.288 240.15 17.096C240.214 16.904 240.262 16.728 240.294 16.568C240.358 16.408 240.406 16.248 240.438 16.088C240.47 15.896 240.486 15.704 240.486 15.512C240.486 15.064 240.15 14.776 239.478 14.648C238.838 14.488 238.278 14.408 237.798 14.408C235.558 14.408 233.766 15.352 232.422 17.24C231.078 19.096 230.406 21.56 230.406 24.632C230.406 26.328 230.694 27.896 231.27 29.336C231.846 30.776 232.678 31.928 233.766 32.792C234.886 33.656 236.262 34.088 237.894 34.088C239.238 34.088 240.518 33.72 241.734 32.984C242.95 32.216 243.83 30.92 244.374 29.096L245.526 29.48C244.918 31.688 243.83 33.256 242.262 34.184C240.694 35.08 238.998 35.528 237.174 35.528ZM248.297 35.144V34.04L249.065 33.944C249.993 33.816 250.697 33.672 251.177 33.512C251.689 33.32 252.041 32.92 252.233 32.312C252.425 31.672 252.521 30.632 252.521 29.192V19.064C252.521 17.4 252.169 16.344 251.465 15.896C250.793 15.416 249.849 15.176 248.633 15.176H248.297V14.072C249.609 14.072 250.873 14.04 252.089 13.976C253.305 13.88 254.569 13.72 255.881 13.496V29.192C255.881 30.632 255.977 31.672 256.169 32.312C256.361 32.92 256.697 33.32 257.177 33.512C257.689 33.672 258.409 33.816 259.337 33.944L260.105 34.04V35.144L254.201 35L248.297 35.144ZM253.625 7.88C252.793 7.88 252.137 7.592 251.657 7.016C251.177 6.44 250.937 5.752 250.937 4.952C250.937 4.12 251.177 3.432 251.657 2.888C252.137 2.312 252.793 2.024 253.625 2.024C254.553 2.024 255.225 2.312 255.641 2.888C256.089 3.432 256.313 4.12 256.313 4.952C256.313 5.752 256.089 6.44 255.641 7.016C255.225 7.592 254.553 7.88 253.625 7.88ZM270.866 35.528C269.298 35.528 268.018 35.064 267.026 34.136C266.066 33.176 265.586 31.624 265.586 29.48V15.272H262.034V14.072L263.33 13.976C264.642 13.88 265.634 13.352 266.306 12.392C267.01 11.4 267.474 10.024 267.698 8.264H268.946V14.072H275.09V15.272H268.946V29.672C268.946 32.488 269.938 33.896 271.922 33.896C272.754 33.896 273.426 33.624 273.938 33.08C274.45 32.504 274.914 31.8 275.33 30.968L276.386 31.496C276.194 31.976 275.954 32.424 275.666 32.84C275.41 33.224 275.154 33.56 274.898 33.848C274.354 34.456 273.73 34.888 273.026 35.144C272.354 35.4 271.634 35.528 270.866 35.528ZM278.683 49.112C277.595 49.112 276.779 48.84 276.235 48.296C275.691 47.784 275.419 47.208 275.419 46.568C275.419 45.928 275.659 45.384 276.139 44.936C276.587 44.52 277.163 44.312 277.867 44.312C278.315 44.312 278.667 44.376 278.923 44.504C279.179 44.664 279.419 44.824 279.643 44.984C279.867 45.144 280.123 45.304 280.411 45.464C280.699 45.656 281.035 45.752 281.419 45.752C281.995 45.752 282.587 45.528 283.195 45.08C283.835 44.632 284.491 43.704 285.163 42.296L288.331 35.48L280.363 18.008C280.043 17.272 279.691 16.664 279.307 16.184C278.923 15.704 278.331 15.416 277.531 15.32L276.427 15.176V14.072L281.419 14.216L286.267 14.072V15.176L285.595 15.272C284.251 15.464 283.579 15.96 283.579 16.76C283.579 17.144 283.755 17.72 284.107 18.488L290.107 31.64L296.107 18.728C296.459 17.928 296.635 17.304 296.635 16.856C296.635 15.992 295.851 15.464 294.283 15.272L293.515 15.176V14.072L298.123 14.216L301.963 14.072V15.176L301.243 15.272C300.059 15.432 299.195 15.864 298.651 16.568C298.139 17.272 297.659 18.136 297.211 19.16L286.363 42.824C285.851 43.912 285.243 44.936 284.539 45.896C283.867 46.856 283.051 47.624 282.091 48.2C281.163 48.808 280.027 49.112 278.683 49.112Z" fill="black"/>
</svg>
