<svg width="73" height="73" viewBox="0 0 73 73" fill="none" xmlns="http://www.w3.org/2000/svg">
<rect width="73" height="73" fill="#1E1E1E"/>
<g id="MacBook Pro 16&#34; - 121" clip-path="url(#clip0_0_1)">
<rect width="1728" height="1117" transform="translate(-827 -522)" fill="url(#paint0_linear_0_1)"/>
<path id="Vector" d="M-28.5225 -727.86C7.66376 -764.047 66.332 -764.047 102.518 -727.86L801.861 -28.5222C838.046 7.664 838.046 66.3322 801.861 102.518L102.518 801.861C66.332 838.046 7.66376 838.046 -28.5225 801.861L-727.86 102.518C-764.047 66.3322 -764.047 7.664 -727.86 -28.5222L-28.5225 -727.86Z" fill="url(#paint1_linear_0_1)"/>
<g id="Group 29">
<g id="Group 28">
<rect id="Rectangle 10" x="35" y="-308" width="4" height="343" fill="white"/>
<rect id="Rectangle 11" x="-315" y="39" width="4" height="704" transform="rotate(-90 -315 39)" fill="url(#paint2_linear_0_1)"/>
<circle id="Ellipse 18" cx="36.5" cy="36.5" r="36.5" fill="#43FF01"/>
</g>
</g>
</g>
<defs>
<linearGradient id="paint0_linear_0_1" x1="864" y1="0" x2="864" y2="1476.5" gradientUnits="userSpaceOnUse">
<stop stop-color="#820080"/>
<stop offset="1" stop-opacity="0"/>
</linearGradient>
<linearGradient id="paint1_linear_0_1" x1="36.9978" y1="-793.381" x2="36.9978" y2="1202.97" gradientUnits="userSpaceOnUse">
<stop stop-color="#DB44D0"/>
<stop offset="1" stop-opacity="0"/>
</linearGradient>
<linearGradient id="paint2_linear_0_1" x1="-313" y1="39" x2="-313" y2="743" gradientUnits="userSpaceOnUse">
<stop offset="0.502219" stop-color="white"/>
<stop offset="0.567748" stop-color="#42FF00"/>
</linearGradient>
<clipPath id="clip0_0_1">
<rect width="1728" height="1117" fill="white" transform="translate(-827 -522)"/>
</clipPath>
</defs>
</svg>
